<?xml version="1.0" encoding="utf-8"?>
<!-- Generator: Adobe Illustrator 22.0.1, SVG Export Plug-In . SVG Version: 6.00 Build 0)  -->
<svg version="1.1" id="Layer_1" xmlns="http://www.w3.org/2000/svg" xmlns:xlink="http://www.w3.org/1999/xlink" x="0px" y="0px"
	 viewBox="0 0 340 340" style="enable-background:new 0 0 340 340;" xml:space="preserve">
<style type="text/css">
	.st0{fill:#495CAA;}
	.st1{fill:#273359;}
	.st2{fill:#D81705;}
	.st3{fill:#9E2512;}
</style>
<polygon class="st0" points="87.1,256.4 190.3,219.7 280.7,255.1 273.1,314.2 102.2,304.4 "/>
<polygon class="st1" points="87.1,256.4 190.3,219.7 280.7,255.1 279.6,263.7 253.9,262 240.5,275.9 237.3,293.5 224,311.3 
	135.7,255.5 90.4,270.1 "/>
<path class="st2" d="M234.4,224.6l-18.3-3.3c-0.3,3.3-0.7,9.3-0.8,11.1c-1.2,17.9-34.5,30.2-34.5,30.2s-30.2-16.1-30.2-33.5l-15,6.1
	l-3.4,13.6l12.5,6.7l2.5,46.9l30,14c3.3,0.6,10-2,10.8,6.5l2.2,2.5l-0.1,11.5l18.1-7.5l6.6-6.8l15-29.5l7.4-30.6L234.4,224.6z"/>
<polygon class="st3" points="240,232.4 245.8,205.7 277.1,202.5 "/>
<path class="st3" d="M249.4,231.8l-11.1,11.5c0,0-11.5-4.8-11.6-11s11.1-11.4,11.1-11.4L249.4,231.8z"/>
<path class="st3" d="M144.8,255.5c1.1,1,21.2,32.7,21.2,32.7s-15.4-10.6-15.3-11.6C150.8,275.5,144.8,255.5,144.8,255.5z"/>
<path class="st3" d="M179.5,287.9c11.1,0.1,30.8-6.4,37.1-13.4s14.6-18.1,15-22.9s2.7,10.2-4.8,17.7c-7.6,7.5-9.8,16.1-15,17.9
	c-5.2,1.8-3.6,7.3-2.5,5.2c1.1-2.1,14.9-8.2,14.9-8.2s-3.2,9-4.2,11c-1.1,2.1-10.8,13.4-16.7,16.9c-5.8,3.5-5.2,2.5,2-5.5
	c7.1-8,11.5-8.6,9.4-9.6s-6.1-4.8-6.1-4.8s-14.7,8.7-10.6,4.1c4.1-4.5,11.1-11.9,11.1-11.9s-1.9,2.1-7.1,2.9
	C196.9,288.2,179.5,287.9,179.5,287.9z"/>
<path class="st3" d="M166.5,293.2c13.4,11.7,30,8.6,26.1,12.1s-14.2,4.6-16.3,4.1S166.5,293.2,166.5,293.2z"/>
<path class="st3" d="M197,324c-3.7,4.5,2.4,2.4,2.3,1.4c-0.1-1-1.5-2.6,9.1-8.5C199.2,315.7,197,324,197,324z"/>
<polygon class="st2" points="240.5,228.8 268.1,223.7 284.1,249.6 "/>
</svg>
