<?xml version="1.0" encoding="utf-8"?>
<!-- Generator: Adobe Illustrator 22.0.1, SVG Export Plug-In . SVG Version: 6.00 Build 0)  -->
<svg version="1.1" id="Layer_1" xmlns="http://www.w3.org/2000/svg" xmlns:xlink="http://www.w3.org/1999/xlink" x="0px" y="0px"
	 viewBox="0 0 340 340" style="enable-background:new 0 0 340 340;" xml:space="preserve">
<style type="text/css">
	.st0{fill:none;stroke:#221F1F;stroke-width:2.0305;stroke-miterlimit:10;}
	.st1{fill:#495CAA;}
	.st2{fill:#091333;}
	.st3{fill:#273359;}
</style>
<path class="st0" d="M171.3,133.3"/>
<g>
	<path class="st1" d="M178.9,44c-19.7,3.8-38.6,19.9-43.7,25.6c-5.1,5.7-13.7,22.8-12,34.2s5.1,30.4,5.1,30.4s9.4-16.1,24-21.8
		C166.9,106.7,196,101,208,101s30,3.8,32.6,5.7c2.6,1.9,7.7,17.1,7.7,17.1s2.6-46.5-6-56C237.6,62.5,214.9,41.1,178.9,44z"/>
	<path class="st2" d="M232.9,119c0.9,0.9,48-0.9,48-0.9l2.6-0.9c0,0-19.7-12.3-24-12.3S232.9,119,232.9,119z"/>
	<path class="st3" d="M131.7,131.4c0,0,10.3-4.7,12.9-5.7c2.6-0.9,43.7-0.9,48,0c4.3,0.9,23.1,1.9,23.1,1.9l44.6-21.8
		c0,0,18.9,12.3,20.6,12.3c1.7,0,2.6-0.9,2.6-0.9s-18-13.3-20.6-14.2c-2.6-0.9-13.7-3.8-15.4-3.8s-35.7-1-45.4,0
		c-36.9,3.8-58.3,12.3-66.9,19.9c-8.6,7.6-6,11.4-6,11.4L131.7,131.4z"/>
</g>
</svg>
