<?xml version="1.0" encoding="utf-8"?>
<!-- Generator: Adobe Illustrator 22.0.1, SVG Export Plug-In . SVG Version: 6.00 Build 0)  -->
<svg version="1.1" id="Layer_1" xmlns="http://www.w3.org/2000/svg" xmlns:xlink="http://www.w3.org/1999/xlink" x="0px" y="0px"
	 viewBox="0 0 340 340" style="enable-background:new 0 0 340 340;" xml:space="preserve">
<style type="text/css">
	.st0{fill:none;stroke:#221F1F;stroke-width:2.494;stroke-miterlimit:10;}
	.st1{fill:#2D2322;}
	.st2{fill:#221F1F;}
	.st3{fill:none;stroke:#221F1F;stroke-width:1.9008;stroke-miterlimit:10;}
</style>
<path class="st0" d="M194.4,175"/>
<path class="st1" d="M149.7,151.1c0.6-4.6,4.2-8.8,8.6-10.7c4.5-1.9,9.9-1.7,13.7,1.1c-4.6-0.5-8.8-0.1-12.6,1.6
	c-1.9,0.8-3.6,1.9-5.3,3.2C152.5,147.6,151.1,149.3,149.7,151.1z"/>
<path class="st2" d="M163.7,164v-5.5c0-2.4,8.6-2.4,8.6,0v5.5C172.3,166.4,163.7,166.4,163.7,164z"/>
<path class="st2" d="M208.4,164v-5.5c0-2.4,8.6-2.4,8.6,0v5.5C217,166.4,208.4,166.4,208.4,164z"/>
<path class="st3" d="M186.9,157.1"/>
<path class="st1" d="M228,150.6c-0.7-4.5-4.2-8.5-8.6-10.4c-4.4-1.8-9.7-1.5-13.4,1.3c4.5-0.6,8.5-0.2,12.3,1.4
	c1.9,0.7,3.6,1.8,5.2,3.1C225.2,147.2,226.6,148.8,228,150.6z"/>
</svg>
