<?xml version="1.0" encoding="utf-8"?>
<!-- Generator: Adobe Illustrator 22.0.1, SVG Export Plug-In . SVG Version: 6.00 Build 0)  -->
<svg version="1.1" id="Layer_1" xmlns="http://www.w3.org/2000/svg" xmlns:xlink="http://www.w3.org/1999/xlink" x="0px" y="0px"
	 viewBox="0 0 340 340" style="enable-background:new 0 0 340 340;" xml:space="preserve">
<style type="text/css">
	.st0{fill:#28344C;}
	.st1{fill:#304D5F;}
</style>
<g>
	<path class="st0" d="M248.7,145.6c0.4-4.5,0.7-9.2,1-14.1c2.4-28.8-16.2-74.4-16.2-74.4l-46.7-18.4l-51.5,24.4
		c0,0-13.6,42.7-11.4,68.4c0.3,5.5,0.7,10.8,1.1,15.8c9.9-10.3,21.5-34.6,61.8-34.6C227,112.7,241.2,137.9,248.7,145.6z"/>
</g>
<path class="st1" d="M186.8,63.1l-49.5,21.8c0,0-12.5,25.5-13.7,41.4c0.1,1.8,0.2,3.5,0.4,5.3c0.3,5.5,0.7,10.8,1.1,15.8
	c9.9-10.3,21.5-34.6,61.8-34.6c40.2,0,54.5,25.2,61.9,32.9c0.4-4.5,0.7-9.2,1-14.1c0.2-1.8,0.2-3.5,0.4-5.3
	c-1.2-16.4-14.6-42.4-14.6-42.4L186.8,63.1z"/>
<path class="st0" d="M186.8,112.7l43.2,13.6c0,0,14.9,15.5,18.7,19.3c0-0.5,0.1-1.2,0.1-1.7c-2.4-14.5-17.3-36.7-17.3-36.7
	l-44.7-16.4L134,117.2c0,0-7.7,16.9-9.3,26.7c0.1,1.1,0.2,2.3,0.3,3.4c4.4-4.6,16.6-18.6,16.6-18.6L186.8,112.7z"/>
<g>
	<path class="st0" d="M237.7,132.2c0.7,9.8,1,21.2,0,33.8c-1.1,14.9-3.6,28-6.4,38.9c12.4-22,15.4-41.7,16.7-57.6
		c0.1-0.8,0-1.6,0-2.3C245.4,142,242,137.3,237.7,132.2z"/>
	<path class="st0" d="M125.5,146.5c0,0.2,0,0.3,0,0.5c1.4,26.7,5.1,43.8,12.5,55.7c-1.9-11.2-3.9-21.1-3.7-36.6
		c0.2-12.7,1.5-24,3.1-33.6C135.3,135,135.3,135,125.5,146.5z"/>
</g>
</svg>
