<?xml version="1.0" encoding="utf-8"?>
<!-- Generator: Adobe Illustrator 22.0.1, SVG Export Plug-In . SVG Version: 6.00 Build 0)  -->
<svg version="1.1" id="Layer_1" xmlns="http://www.w3.org/2000/svg" xmlns:xlink="http://www.w3.org/1999/xlink" x="0px" y="0px"
	 viewBox="0 0 340 340" style="enable-background:new 0 0 340 340;" xml:space="preserve">
<style type="text/css">
	.st0{fill:#111217;}
	.st1{fill:url(#SVGID_1_);stroke:#111217;stroke-width:1.1507;stroke-miterlimit:10;}
	.st2{fill:url(#SVGID_2_);stroke:#111217;stroke-width:1.1507;stroke-miterlimit:10;}
	.st3{fill:none;stroke:#221F1F;stroke-width:2.0305;stroke-miterlimit:10;}
	.st4{fill:none;stroke:#221F1F;stroke-width:1.7004;stroke-miterlimit:10;}
</style>
<g>
	<path class="st0" d="M195.2,151.1c0-2.2-15.5-2.2-15.5,0l0-5.6l15.5,0L195.2,151.1z"/>
	
		<linearGradient id="SVGID_1_" gradientUnits="userSpaceOnUse" x1="702.3081" y1="116.8242" x2="702.3081" y2="174.89" gradientTransform="matrix(-0.9991 4.323373e-02 4.323380e-02 0.9991 851.1852 -23.5425)">
		<stop  offset="0" style="stop-color:#201631"/>
		<stop  offset="1" style="stop-color:#827474;stop-opacity:0"/>
	</linearGradient>
	<path class="st1" d="M178.7,157.6c0,0-4.7,20.7-23.9,19c-19.3-1.7-22.8-22.4-22.8-22.4s-3.7-17.7,13.5-19.7s30.9,1.3,33.4,8.7
		C181.3,150.5,178.7,157.6,178.7,157.6z"/>
	
		<linearGradient id="SVGID_2_" gradientUnits="userSpaceOnUse" x1="844.5204" y1="110.6701" x2="844.5204" y2="168.7359" gradientTransform="matrix(0.9991 4.323373e-02 -4.323380e-02 0.9991 -618.8448 -23.5425)">
		<stop  offset="0" style="stop-color:#201631"/>
		<stop  offset="1" style="stop-color:#827474;stop-opacity:0"/>
	</linearGradient>
	<path class="st2" d="M196,157.6c0,0,4.7,20.7,23.9,19c19.3-1.7,22.8-22.4,22.8-22.4s3.7-17.7-13.5-19.7s-30.9,1.3-33.4,8.7
		C193.4,150.5,196,157.6,196,157.6z"/>
	<rect x="126" y="146.2" class="st0" width="5.6" height="3.3"/>
	<rect x="242.7" y="146.2" class="st0" width="5.6" height="3.3"/>
</g>
<path class="st3" d="M191.2,158"/>
<path class="st4" d="M186.6,153.1"/>
<path class="st3" d="M171.3,133.3"/>
<path class="st4" d="M185.6,153.1"/>
<path class="st3" d="M190.5,158.7"/>
<path class="st4" d="M185.9,153.8"/>
<path class="st3" d="M170.6,134"/>
<path class="st4" d="M184.9,153.8"/>
</svg>
