<?xml version="1.0" encoding="utf-8"?>
<!-- Generator: Adobe Illustrator 22.0.1, SVG Export Plug-In . SVG Version: 6.00 Build 0)  -->
<svg version="1.1" id="Layer_1" xmlns="http://www.w3.org/2000/svg" xmlns:xlink="http://www.w3.org/1999/xlink" x="0px" y="0px"
	 viewBox="0 0 340 340" style="enable-background:new 0 0 340 340;" xml:space="preserve">
<style type="text/css">
	.st0{fill:url(#SVGID_1_);}
	.st1{fill:none;stroke:#221F1F;stroke-width:2.0305;stroke-miterlimit:10;}
	.st2{fill:#2D2322;}
	.st3{fill:#FFFFFF;}
	.st4{fill:#A56951;}
	.st5{fill:#754133;}
	.st6{fill:#221F1F;}
	.st7{fill:#F4D4B8;}
	.st8{fill:#E5AB86;}
	.st9{fill:none;stroke:#221F1F;stroke-width:1.7004;stroke-miterlimit:10;}
</style>
<linearGradient id="SVGID_1_" gradientUnits="userSpaceOnUse" x1="175.45" y1="13.6521" x2="175.45" y2="208.0665" gradientTransform="matrix(1 0 0 -1 0 342)">
	<stop  offset="0" style="stop-color:#9C4A8C"/>
	<stop  offset="1" style="stop-color:#78270E"/>
</linearGradient>
<polygon class="st0" points="325.3,184.5 295.5,292.5 144.2,320 25.6,194.4 78.9,53.4 252.8,19 "/>
<path class="st1" d="M191.2,158"/>
<path class="st2" d="M160.2,201.9c-0.7-0.8,0.3-1.8,1.1-1.3c7.9,4.4,18.8,6.9,30.8,6.7c12.3-0.3,23.4-3.4,31.2-8.4
	c0.8-0.5,1.8,0.5,1.2,1.3c-6.5,8-19.9,22.2-33,21.4C178.4,221,166,208.7,160.2,201.9z"/>
<path class="st3" d="M165.5,202.6c2.2,5.9,13.5,10.2,27.2,9.9c14.1-0.3,25.4-5.3,26.9-11.5c-7.4,3.7-16.9,6.2-27.4,6.4
	C182.1,207.6,172.9,205.7,165.5,202.6z"/>
<g>
	<ellipse class="st4" cx="170.3" cy="180.2" rx="2.8" ry="2.7"/>
	<ellipse class="st4" cx="160.5" cy="178.9" rx="2.2" ry="2.2"/>
	<ellipse class="st4" cx="149.8" cy="180.5" rx="2.6" ry="2.6"/>
	<ellipse class="st4" cx="155.4" cy="185.1" rx="1.9" ry="1.8"/>
	<ellipse class="st4" cx="163.7" cy="186.4" rx="1.5" ry="1.5"/>
</g>
<g>
	<ellipse class="st4" cx="213.6" cy="179.3" rx="2.8" ry="2.7"/>
	<ellipse class="st4" cx="223.4" cy="177.6" rx="2.2" ry="2.2"/>
	<ellipse class="st4" cx="234.1" cy="178.7" rx="2.6" ry="2.6"/>
	<ellipse class="st4" cx="228.7" cy="183.6" rx="1.9" ry="1.8"/>
	<ellipse class="st4" cx="220.6" cy="185.2" rx="1.5" ry="1.5"/>
</g>
<path class="st5" d="M182,189.5c1.9-0.2,3.6-0.5,5.4-0.9c1.7-0.4,3.4-1.1,5-1.7c3.1-1.5,6-3.7,7.9-6.4l0.2,1.2
	c-1.2-1.3-2.1-2.7-3-4.1c-0.8-1.5-1.5-3.2-1.3-4.8c0.4,1.6,1.4,2.9,2.4,4.1c1,1.3,2.2,2.4,3.3,3.5l0.6,0.6l-0.4,0.7
	c-2.1,3.4-5.2,5.8-8.8,7.2C189.6,190.2,185.6,190.3,182,189.5z"/>
<path class="st2" d="M151.4,152c0.6-4.3,3.9-8.2,8.1-10c4.2-1.8,9.4-1.6,13,0.9c-4.3-0.5-8.3,0-11.8,1.6c-1.8,0.7-3.4,1.8-5,3
	C154,148.8,152.7,150.3,151.4,152z"/>
<path class="st2" d="M230.6,150.4c-0.7-4.3-4.2-8.1-8.5-9.7c-4.3-1.6-9.4-1.2-12.9,1.5c4.3-0.7,8.3-0.3,11.9,1.1
	c1.8,0.7,3.5,1.7,5.1,2.8C227.8,147.3,229.2,148.8,230.6,150.4z"/>
<path class="st6" d="M161.7,165.1l-0.1-5.2c0-2.3,1.8-4.1,4.1-4.2h0c2.3,0,4.2,1.8,4.3,4l0.1,5.2
	C170.1,167.2,161.7,167.4,161.7,165.1z"/>
<path class="st6" d="M204.7,163.6c2.7-3.2,12.5-10.7,22.1-6.3c-6.7,0.1-15.2,2.6-16.8,4.3c6.7-0.1,11.3-0.1,16,2.5
	C220.7,164.1,204.7,163.6,204.7,163.6z"/>
<path class="st7" d="M151.6,215c-0.1,2.2-0.7,10.6-0.9,12.8c-1.2,17.8,30.2,34.5,30.2,34.5s33.3-12.3,34.5-30.2
	c0.1-2.2,0.7-10.6,0.9-12.8L151.6,215z"/>
<path class="st8" d="M151.6,215c-0.1,2.2-0.7,10.6-0.9,12.8c22.7,25.9,37.4,28.1,64.6,4.3c0.1-2.2,0.7-10.6,0.9-12.8L151.6,215z"/>
<g>
	<path class="st7" d="M181.3,237c12.9,0.9,45.3-23.5,45.3-23.5s15.6-30.2,19.1-58.7c6.4-41.2,1.5-81.6-53-87.6
		c-54.8-1.3-65.1,38-64.2,79.7c-0.3,28.7,11.1,60.7,11.1,60.7S168.4,236.1,181.3,237z"/>
</g>
<path class="st9" d="M186.6,153.1"/>
<path class="st5" d="M178.8,182.1c1.7,0,3.4-0.1,5-0.4c1.6-0.2,3.2-0.7,4.7-1.2c3-1.2,5.8-3,7.8-5.3l0,1.1c-1-1.3-1.7-2.7-2.4-4.1
	c-0.6-1.4-1.1-3.1-0.8-4.6c0.2,1.5,1.1,2.8,1.9,4.1c0.8,1.2,1.8,2.4,2.8,3.5l0.5,0.6l-0.4,0.6c-2.2,3-5.3,5-8.7,6
	C185.7,183.3,182,183.2,178.8,182.1z"/>
<path class="st1" d="M171.3,133.3"/>
<path class="st9" d="M185.6,153.1"/>
<path class="st7" d="M127.1,152c-0.7-6.3-12.6-10.1-12.6-10.1l-10.1,12.6l17.4,22.3c0,0,7.5-4.4,7.1-8.8
	C128.6,164.8,127.5,155.6,127.1,152z"/>
<path class="st7" d="M247.3,152c0.4-6.3,12.1-10.6,12.1-10.6l10.6,12.1l-16.4,23c0,0-7.7-4.1-7.4-8.5
	C246.4,164.9,247,155.7,247.3,152z"/>
</svg>
