<?xml version="1.0" encoding="utf-8"?>
<!-- Generator: Adobe Illustrator 22.0.1, SVG Export Plug-In . SVG Version: 6.00 Build 0)  -->
<svg version="1.1" id="Layer_1" xmlns="http://www.w3.org/2000/svg" xmlns:xlink="http://www.w3.org/1999/xlink" x="0px" y="0px"
	 viewBox="0 0 340 340" style="enable-background:new 0 0 340 340;" xml:space="preserve">
<style type="text/css">
	.st0{fill:none;stroke:#221F1F;stroke-width:2.0305;stroke-miterlimit:10;}
	.st1{fill:#2D2322;}
	.st2{fill:#221F1F;}
	.st3{fill:none;stroke:#221F1F;stroke-width:1.7004;stroke-miterlimit:10;}
</style>
<path class="st0" d="M191.2,158"/>
<path class="st1" d="M151.4,152c0.6-4.3,3.9-8.2,8.1-10c4.2-1.8,9.4-1.6,13,0.9c-4.3-0.5-8.3,0-11.8,1.6c-1.8,0.7-3.4,1.8-5,3
	C154,148.8,152.7,150.3,151.4,152z"/>
<path class="st1" d="M230.6,150.4c-0.7-4.3-4.2-8.1-8.5-9.7c-4.3-1.6-9.4-1.2-12.9,1.5c4.3-0.7,8.3-0.3,11.9,1.1
	c1.8,0.7,3.5,1.7,5.1,2.8C227.8,147.3,229.2,148.8,230.6,150.4z"/>
<path class="st2" d="M161.7,165.1l-0.1-5.2c0-2.3,1.8-4.1,4.1-4.2h0c2.3,0,4.2,1.8,4.3,4l0.1,5.2
	C170.1,167.2,161.7,167.4,161.7,165.1z"/>
<path class="st2" d="M204.7,163.6c2.7-3.2,12.5-10.7,22.1-6.3c-6.7,0.1-15.2,2.6-16.8,4.3c6.7-0.1,11.3-0.1,16,2.5
	C220.7,164.1,204.7,163.6,204.7,163.6z"/>
<path class="st3" d="M186.6,153.1"/>
<path class="st0" d="M171.3,133.3"/>
<path class="st3" d="M185.6,153.1"/>
</svg>
