<?xml version="1.0" encoding="utf-8"?>
<!-- Generator: Adobe Illustrator 22.0.1, SVG Export Plug-In . SVG Version: 6.00 Build 0)  -->
<svg version="1.1" id="Layer_1" xmlns="http://www.w3.org/2000/svg" xmlns:xlink="http://www.w3.org/1999/xlink" x="0px" y="0px"
	 viewBox="0 0 340 340" style="enable-background:new 0 0 340 340;" xml:space="preserve">
<style type="text/css">
	.st0{fill:#155173;}
	.st1{fill:#11455B;}
</style>
<path class="st0" d="M279.5,239.7l-63.7-13.2c-0.2,2.4-0.3,4.6-0.4,5.6c-1.2,17.9-34.5,30.2-34.5,30.2s-31.4-16.7-30.2-34.5
	c0-0.3,0.1-0.7,0.1-1.2l-77.9,51L99.4,339l182.9-4L279.5,239.7z"/>
<path class="st1" d="M279.5,239.7l-63.8-13.2c-0.2,2.5-0.3,4.9-0.4,5.9c-1.2,17.9-34.5,30.2-34.5,30.2s-31.4-16.7-30.2-34.5
	c0-0.4,0.1-0.9,0.1-1.5l-77.9,51l6.7,15.6l200.5-43L279.5,239.7z"/>
</svg>
