<?xml version="1.0" encoding="utf-8"?>
<!-- Generator: Adobe Illustrator 22.0.1, SVG Export Plug-In . SVG Version: 6.00 Build 0)  -->
<svg version="1.1" id="Layer_1" xmlns="http://www.w3.org/2000/svg" xmlns:xlink="http://www.w3.org/1999/xlink" x="0px" y="0px"
	 viewBox="0 0 340 340" style="enable-background:new 0 0 340 340;" xml:space="preserve">
<style type="text/css">
	.st0{fill:#221F1F;}
	.st1{fill:none;stroke:#221F1F;stroke-width:1.8987;stroke-miterlimit:10;}
	.st2{fill:#2D2322;}
</style>
<path class="st0" d="M164.2,168.3L164.2,168.3c-2.4,0-4.3-1.9-4.3-4.3v-5.5c0-2.4,8.6-2.4,8.6,0v5.5
	C168.5,166.3,166.5,168.3,164.2,168.3z"/>
<path class="st0" d="M216.3,168.3L216.3,168.3c-2.4,0-4.3-1.9-4.3-4.3v-5.5c0-2.4,8.6-2.4,8.6,0v5.5
	C220.6,166.3,218.6,168.3,216.3,168.3z"/>
<path class="st1" d="M190.5,157.1"/>
<path class="st2" d="M149.7,150.6c0.7-4.5,4.2-8.5,8.5-10.3c4.4-1.8,9.7-1.5,13.4,1.3c-4.5-0.6-8.5-0.2-12.3,1.4
	c-1.9,0.7-3.6,1.8-5.2,3.1C152.5,147.2,151.1,148.8,149.7,150.6z"/>
<path class="st2" d="M231.5,150.6c-0.7-4.5-4.2-8.5-8.5-10.3c-4.4-1.8-9.7-1.5-13.4,1.3c4.5-0.6,8.5-0.2,12.3,1.4
	c1.9,0.7,3.6,1.8,5.2,3.1C228.7,147.2,230.1,148.8,231.5,150.6z"/>
</svg>
