<?xml version="1.0" encoding="utf-8"?>
<!-- Generator: Adobe Illustrator 22.0.1, SVG Export Plug-In . SVG Version: 6.00 Build 0)  -->
<svg version="1.1" id="Layer_1" xmlns="http://www.w3.org/2000/svg" xmlns:xlink="http://www.w3.org/1999/xlink" x="0px" y="0px"
	 viewBox="0 0 340 340" style="enable-background:new 0 0 340 340;" xml:space="preserve">
<style type="text/css">
	.st0{fill:#2D2322;}
</style>
<polygon class="st0" points="277,259.8 270,267.3 263,259.8 270,252.2 "/>
<polygon class="st0" points="276.9,246.1 264.3,259.8 251.7,246.1 264.3,232.5 "/>
<polygon class="st0" points="274.1,225.1 258.2,242.3 242.2,225.1 258.2,207.8 "/>
<polygon class="st0" points="276.5,199.3 255.5,222 234.5,199.3 255.5,176.5 "/>
<path class="st0" d="M272.2,259c4.2-0.3,10.9,6.2,10.9,6.2s3.2,9.1,1.4,13.2C284.1,274,271.8,261.9,272.2,259z"/>
<path class="st0" d="M272.5,261.3c2.8,3.4,2.3,13.1,2.3,13.1s-4.7,8.3-8.7,9.4C269,280.8,270.1,262.8,272.5,261.3z"/>
<g>
	<path class="st0" d="M133.3,169c-28.2-28.9-11.9-100.9-11.9-100.9l36.4-35.5l25.9,8.6l23.8-9l42.1,43.1c0,0,15.1,70-8.5,94.1
		c4.8-11.2,8.9-29.1,4.4-37c-0.8,2.9-4.4,8.4-9,11.9c0.9-3,1.5-6,1.9-9c0.1-1,0.2-2-0.2-2.9c-0.4-0.9-1.3-1.5-2-2.1
		c-7.2-5.2-27.9-20.1-27.9-20.1L188,80.5l-27.2,28.4c0,0-31.6,19-31.9,25.2C128.5,145.8,130,157.7,133.3,169z"/>
</g>
<path class="st0" d="M248.9,128.8c-0.3,0-0.7,0-1,0c0,8.4-0.8,17.1-2.2,25.9c-1.4,11.1-4.6,22.5-8,32.2c3.4,1.6,7.2,2.5,11.2,2.5
	c15.5,0,28-30.3,28-30.3S264.3,128.8,248.9,128.8z M253.6,176.5c0,0-7.7-4.1-7.4-8.5c0.2-3.1,0.8-12.3,1.1-16
	c0.4-6.3,12.1-10.6,12.1-10.6l10.6,12.1L253.6,176.5z"/>
</svg>
