<?xml version="1.0" encoding="utf-8"?>
<!-- Generator: Adobe Illustrator 22.0.1, SVG Export Plug-In . SVG Version: 6.00 Build 0)  -->
<svg version="1.1" id="Layer_1" xmlns="http://www.w3.org/2000/svg" xmlns:xlink="http://www.w3.org/1999/xlink" x="0px" y="0px"
	 viewBox="0 0 340 340" style="enable-background:new 0 0 340 340;" xml:space="preserve">
<style type="text/css">
	.st0{fill:#221F1F;}
	.st1{fill:none;stroke:#221F1F;stroke-width:1.7004;stroke-miterlimit:10;}
	.st2{fill:#2D2322;}
</style>
<path class="st0" d="M158.8,157.4l0.3-4.9c0.1-2.1,2-3.7,4.1-3.6h0c2.1,0.1,3.7,2,3.6,4.1l-0.3,4.9
	C166.3,160.1,158.7,159.6,158.8,157.4z"/>
<path class="st0" d="M205.3,160.6l0.3-4.9c0.1-2.1,2-3.7,4.1-3.6l0,0c2.1,0.1,3.7,2,3.6,4.1l-0.3,4.9
	C212.9,163.2,205.2,162.7,205.3,160.6z"/>
<path class="st1" d="M186.6,153.1"/>
<path class="st2" d="M150.5,144.9c0.9-4,4.2-7.4,8.3-8.7c4-1.4,8.8-0.7,11.9,1.9c-3.9-0.8-7.6-0.7-11,0.5c-1.7,0.5-3.3,1.4-4.8,2.4
	C153.2,142,151.9,143.4,150.5,144.9z"/>
<path class="st2" d="M223.6,149.7c-0.3-4.1-3.2-7.9-7-9.7c-3.8-1.9-8.6-1.9-12,0.3c4-0.3,7.6,0.3,10.9,2c1.6,0.8,3.1,1.8,4.5,3.1
	C221.3,146.6,222.4,148.1,223.6,149.7z"/>
</svg>
