<?xml version="1.0" encoding="utf-8"?>
<!-- Generator: Adobe Illustrator 22.0.1, SVG Export Plug-In . SVG Version: 6.00 Build 0)  -->
<svg version="1.1" id="Layer_1" xmlns="http://www.w3.org/2000/svg" xmlns:xlink="http://www.w3.org/1999/xlink" x="0px" y="0px"
	 viewBox="0 0 340 340" style="enable-background:new 0 0 340 340;" xml:space="preserve">
<style type="text/css">
	.st0{fill:none;stroke:#221F1F;stroke-width:2.494;stroke-miterlimit:10;}
	.st1{fill:#2D2322;}
	.st2{fill:#221F1F;}
</style>
<path class="st0" d="M194.4,175"/>
<path class="st1" d="M149.7,151.1c0.6-4.6,4.2-8.8,8.6-10.7c4.5-1.9,9.9-1.7,13.7,1.1c-4.6-0.5-8.8-0.1-12.6,1.6
	c-1.9,0.8-3.6,1.9-5.3,3.2C152.5,147.6,151.1,149.3,149.7,151.1z"/>
<path class="st1" d="M233.7,149.9c-0.8-4.6-4.4-8.7-8.9-10.5c-4.5-1.8-10-1.4-13.7,1.5c4.6-0.7,8.8-0.3,12.6,1.2
	c1.9,0.7,3.7,1.8,5.4,3.1C230.8,146.5,232.2,148.1,233.7,149.9z"/>
<path class="st2" d="M165,155.7c-2.3-0.3-4.5,1.4-4.7,3.7c-0.2,1.5,9.4,8,9.6,5.6C170.1,163.6,171,156.4,165,155.7z"/>
<path class="st2" d="M216.9,155.5c2.3-0.3,4.5,1.3,4.8,3.7c0.2,1.5-9.3,8.1-9.6,5.7C211.9,163.5,211,156.3,216.9,155.5z"/>
</svg>
