<?xml version="1.0" encoding="utf-8"?>
<!-- Generator: Adobe Illustrator 22.0.1, SVG Export Plug-In . SVG Version: 6.00 Build 0)  -->
<svg version="1.1" id="Layer_1" xmlns="http://www.w3.org/2000/svg" xmlns:xlink="http://www.w3.org/1999/xlink" x="0px" y="0px"
	 viewBox="0 0 340 340" style="enable-background:new 0 0 340 340;" xml:space="preserve">
<style type="text/css">
	.st0{fill:#221F1F;}
	.st1{fill:none;stroke:#221F1F;stroke-width:1.8838;stroke-miterlimit:10;}
	.st2{fill:#2D2322;}
</style>
<path class="st0" d="M164.3,168.1L164.3,168.1c-2.3,0-4.3-1.9-4.3-4.3v-5.5c0-2.3,1.9-4.3,4.3-4.3l0,0c2.3,0,4.3,1.9,4.3,4.3v5.5
	C168.6,166.1,166.6,168.1,164.3,168.1z"/>
<path class="st0" d="M216,168.1L216,168.1c-2.3,0-4.3-1.9-4.3-4.3v-5.5c0-2.3,1.9-4.3,4.3-4.3h0c2.3,0,4.3,1.9,4.3,4.3v5.5
	C220.2,166.1,218.3,168.1,216,168.1z"/>
<path class="st1" d="M190.4,156.9"/>
<path class="st2" d="M149.9,150.5c0.7-4.5,4.1-8.5,8.5-10.3c4.3-1.8,9.6-1.5,13.2,1.3c-4.4-0.6-8.5-0.2-12.2,1.4
	c-1.9,0.7-3.5,1.8-5.2,3.1C152.7,147.2,151.3,148.7,149.9,150.5z"/>
<path class="st2" d="M231.1,150.5c-0.7-4.5-4.1-8.5-8.5-10.3c-4.3-1.8-9.6-1.5-13.2,1.3c4.4-0.6,8.5-0.2,12.2,1.4
	c1.9,0.7,3.5,1.8,5.2,3.1C228.3,147.2,229.7,148.7,231.1,150.5z"/>
</svg>
