<?xml version="1.0" encoding="utf-8"?>
<!-- Generator: Adobe Illustrator 22.0.1, SVG Export Plug-In . SVG Version: 6.00 Build 0)  -->
<svg version="1.1" id="Layer_1" xmlns="http://www.w3.org/2000/svg" xmlns:xlink="http://www.w3.org/1999/xlink" x="0px" y="0px"
	 viewBox="0 0 340 340" style="enable-background:new 0 0 340 340;" xml:space="preserve">
<style type="text/css">
	.st0{fill:#2D2322;}
</style>
<path class="st0" d="M306.8,89.8L291.1,60l-26.2-3l-10.1-22.5l-19.6-19.3l-30.4,7.3l-13.9-7.7l-29.7-2.5l-36,25.5L97.8,50.4
	l-25,28.1l5.6,35.7l-10.1,21.4c0,0,12.1,12.2,13,12.6c-1.6,1.5-7.4,9.5-7.4,9.5l5.5,25.4l13,11l4.5,11.2l19.2,12.1l34.9,5.9
	c0.1-1.6,0.2-3.5,0.4-5c-6.8-5.8-11.8-10.8-11.8-10.8s-11.4-32-11.1-60.7c-0.1-2.9-0.1-5.8,0-8.6c2.7-1,4.6-3.8,4.6-7.1
	c0-2.7-1.3-4.9-3.2-6.2c3.1-1.2,5.3-4.4,5.3-8.2c0-0.5-0.1-1-0.1-1.5c2.9-0.6,5.2-3.3,5.2-6.7c0-0.8-0.2-1.5-0.4-2.3
	c0.5,0.1,1.1,0.2,1.6,0.2c5.5,0,10.2-4.3,11.2-10.1c0.5,0.2,1,0.4,1.6,0.4c1.7,0,3.2-0.9,4.3-2.2c2.6,2.8,6.2,4.6,10.1,4.6
	c6.6,0,12.2-4.9,13.9-11.6c0.4,0,0.8-0.1,1.1-0.3c1.1,3.1,3.9,5.4,7.1,5.4c2.2,0,4.1-1,5.5-2.6c0.9,1.3,2.3,2.2,3.9,2.2
	c0.5,0,0.9-0.2,1.3-0.3c1.6,2.8,4.3,4.7,7.6,4.7c0.9,0,1.7-0.2,2.5-0.5c-0.2,0.6-0.3,1.1-0.3,1.7c0,3.2,2.3,5.7,5.2,5.7
	c1.4,0,2.6-0.6,3.6-1.6c0.6,3.2,2.9,5.6,5.8,6.2c-0.5,1-0.7,2.2-0.7,3.4c0,4.5,3.3,8.1,7.3,8.1c0.8,0,1.5-0.2,2.2-0.4
	c0.1,3.3,2.5,5.9,5.5,5.9c1.5,0,2.8-0.7,3.8-1.7c0.3,1.2,0.8,2.4,1.4,3.4c-0.5,0.7-0.9,1.7-0.9,2.7c0,2.1,1.4,3.8,3.2,4.2
	c-0.3,6.8-1,13.7-2.1,20.7c-3.5,28.5-19.1,58.7-19.1,58.7s-4.3,3.3-10.4,7.3c-0.1,0.9-0.2,2.1-0.3,3.3c8-2,15.9-4.4,21.3-7.4
	c0.3-0.3,7,2.9,7,2.9l36.9-16l14.5-45.8l7.3-22.3l-2.2-15L306.8,89.8z M128.9,168c0.4,4.4-7.1,8.8-7.1,8.8l-17.4-22.3l10.1-12.6
	c0,0,11.9,3.8,12.6,10.1C127.5,155.6,128.6,164.8,128.9,168z M253.6,176.5c0,0-7.7-4.1-7.4-8.5c0.2-3.1,0.8-12.3,1.1-16
	c0.4-6.3,12.1-10.6,12.1-10.6l10.6,12.1L253.6,176.5z"/>
</svg>
