<?xml version="1.0" encoding="utf-8"?>
<!-- Generator: Adobe Illustrator 22.0.1, SVG Export Plug-In . SVG Version: 6.00 Build 0)  -->
<svg version="1.1" id="Layer_1" xmlns="http://www.w3.org/2000/svg" xmlns:xlink="http://www.w3.org/1999/xlink" x="0px" y="0px"
	 viewBox="0 0 340 340" style="enable-background:new 0 0 340 340;" xml:space="preserve">
<style type="text/css">
	.st0{fill:url(#SVGID_1_);}
	.st1{fill:none;stroke:#221F1F;stroke-width:2.0305;stroke-miterlimit:10;}
	.st2{fill:#F4D4B8;}
	.st3{fill:#E5AB86;}
	.st4{fill:none;stroke:#221F1F;stroke-width:1.7004;stroke-miterlimit:10;}
</style>
<linearGradient id="SVGID_1_" gradientUnits="userSpaceOnUse" x1="175.45" y1="13.6521" x2="175.45" y2="208.0665" gradientTransform="matrix(1 0 0 -1 0 342)">
	<stop  offset="0" style="stop-color:#9C4A8C"/>
	<stop  offset="1" style="stop-color:#78270E"/>
</linearGradient>
<polygon class="st0" points="325.3,184.5 295.5,292.5 144.2,320 25.6,194.4 78.9,53.4 252.8,19 "/>
<path class="st1" d="M191.2,158"/>
<path class="st2" d="M151.6,215c-0.1,2.2-0.7,10.6-0.9,12.8c-1.2,17.8,30.2,34.5,30.2,34.5s33.3-12.3,34.5-30.2
	c0.1-2.2,0.7-10.6,0.9-12.8L151.6,215z"/>
<path class="st3" d="M151.6,215c-0.1,2.2-0.7,10.6-0.9,12.8c22.7,25.9,37.4,28.1,64.6,4.3c0.1-2.2,0.7-10.6,0.9-12.8L151.6,215z"/>
<path class="st4" d="M186.6,153.1"/>
<path class="st1" d="M171.3,133.3"/>
<path class="st4" d="M185.6,153.1"/>
<path class="st2" d="M127.1,152c-0.7-6.3-12.6-10.1-12.6-10.1l-10.1,12.6l17.4,22.3c0,0,7.5-4.4,7.1-8.8
	C128.6,164.8,127.5,155.6,127.1,152z"/>
<path class="st2" d="M247.3,152c0.4-6.3,12.1-10.6,12.1-10.6l10.6,12.1l-16.4,23c0,0-7.7-4.1-7.4-8.5
	C246.4,164.9,247,155.7,247.3,152z"/>
<path class="st2" d="M192.7,67.2c-54.8-1.3-65.1,38-64.2,79.7c-0.3,28.7,11.1,60.7,11.1,60.7s28.8,28.5,41.7,29.4
	s45.3-23.5,45.3-23.5s15.6-30.2,19.1-58.7C252.1,113.6,247.2,73.2,192.7,67.2z M197.9,176.4c-2.2,3-5.3,5-8.7,6
	c-3.5,0.9-7.2,0.8-10.4-0.3c1.7,0,3.4-0.1,5-0.4c1.6-0.2,3.2-0.7,4.7-1.2c2.8-1.1,5.4-2.8,7.4-4.8c-0.8-1.1-1.4-2.3-2-3.5
	c-0.6-1.4-1.1-3.1-0.8-4.6c0.2,1.5,1.1,2.8,1.9,4.1c0.8,1.2,1.8,2.4,2.8,3.5l0.5,0.6L197.9,176.4z"/>
</svg>
