<?xml version="1.0" encoding="utf-8"?>
<!-- Generator: Adobe Illustrator 22.0.1, SVG Export Plug-In . SVG Version: 6.00 Build 0)  -->
<svg version="1.1" id="Layer_1" xmlns="http://www.w3.org/2000/svg" xmlns:xlink="http://www.w3.org/1999/xlink" x="0px" y="0px"
	 viewBox="0 0 340 340" style="enable-background:new 0 0 340 340;" xml:space="preserve">
<style type="text/css">
	.st0{fill:#71413D;}
	.st1{fill:#3F2423;}
</style>
<path class="st0" d="M274.9,235.8l-58.6-5.8c-0.2,2.5,0.1,4,0,5c-0.5,7.3-4.4,10.6-10.6,15.8c-13.2,11.1-37,8.4-48.8-4.5
	c-4.8-5.3-7.8-8-8.3-14.4L82.8,271l24.7,57.1l170.1-3.7L274.9,235.8z"/>
<path class="st1" d="M274.9,235.8l-58.7-14.5c-0.2,18.7-15.5,30.5-31.8,30.3c-16.7-0.1-32.6-11.9-33.5-28.3l-68,47.7l6.3,14.5
	l186.4-40L274.9,235.8z"/>
</svg>
