<?xml version="1.0" encoding="utf-8"?>
<!-- Generator: Adobe Illustrator 22.0.1, SVG Export Plug-In . SVG Version: 6.00 Build 0)  -->
<svg version="1.1" id="Layer_1" xmlns="http://www.w3.org/2000/svg" xmlns:xlink="http://www.w3.org/1999/xlink" x="0px" y="0px"
	 viewBox="0 0 340 340" style="enable-background:new 0 0 340 340;" xml:space="preserve">
<style type="text/css">
	.st0{fill:#304D5F;}
	.st1{fill:#28344C;}
	.st2{fill:none;stroke:#221F1F;stroke-width:2.0305;stroke-miterlimit:10;}
	.st3{fill:none;stroke:#221F1F;stroke-width:1.7004;stroke-miterlimit:10;}
</style>
<path class="st0" d="M204.9,227.9c-8.7,5.1-18,9.5-23.6,9.1c-5-0.3-12.3-4.8-19.4-10.1l-92.7,33.5l14.4,60.6l188.6,11l10.6-73
	L204.9,227.9z"/>
<path class="st1" d="M204.9,227.9c-8.7,5.1-18,9.5-23.6,9.1c-5-0.3-12.3-4.8-19.4-10.1l-92.7,33.5l3.7,15.4l50-16.4l9.3,43.2
	l64.2,19.6l38.6-20.1l3.5-19.8l14.8-15.6l28.4,1.9l1.1-9.7L204.9,227.9z"/>
<path class="st0" d="M181.3,237c-8.6-0.6-24.3-13.5-33.8-22h-0.8c0,2.5,0,11.9,0,14.3c0,7.5,6.2,20.2,6.2,20.2l30,15.9l29.5-15.2
	c0,0,6.7-13.1,6.7-20.9c0-1.7,0-6.7,0-10.5C208.7,226,190.3,237.6,181.3,237z"/>
<path class="st2" d="M191.2,158"/>
<path class="st3" d="M186.6,153.1"/>
<path class="st2" d="M171.3,133.3"/>
<path class="st3" d="M185.6,153.1"/>
<path class="st1" d="M181.3,237c-8.6-0.6-24.3-13.5-33.8-22h-0.8c0,2.5,0,11.9,0,14.3c3.4,3.4,9.7,9,9.7,9l25.9,11.9l24.5-10
	c0,0,7.9-6.6,12.2-10.9c0-1.7,0-6.7,0-10.5C208.7,226,190.3,237.6,181.3,237z"/>
</svg>
