<?xml version="1.0" encoding="utf-8"?>
<!-- Generator: Adobe Illustrator 22.0.1, SVG Export Plug-In . SVG Version: 6.00 Build 0)  -->
<svg version="1.1" id="Layer_1" xmlns="http://www.w3.org/2000/svg" xmlns:xlink="http://www.w3.org/1999/xlink" x="0px" y="0px"
	 viewBox="0 0 340 340" style="enable-background:new 0 0 340 340;" xml:space="preserve">
<style type="text/css">
	.st0{fill:#2D2322;}
	.st1{fill:#FFFFFF;}
</style>
<path class="st0" d="M154.4,191.7c-0.5-0.8,0.4-1.6,1.1-1.1c6.9,4.7,16.8,8,27.8,8.8c11.4,0.8,21.8-1.3,29.4-5.3
	c0.8-0.4,1.6,0.6,1,1.3c-6.6,6.9-20.2,19.1-32.1,17.4C169.6,211,159.2,198.5,154.4,191.7z"/>
<path class="st1" d="M159.2,192.8c1.5,5.7,11.6,10.6,24.2,11.5c13,0.9,23.9-2.9,25.7-8.6c-7.1,2.9-16.1,4.4-25.8,3.8
	C174.1,198.8,165.8,196.3,159.2,192.8z"/>
</svg>
