<?xml version="1.0" encoding="utf-8"?>
<!-- Generator: Adobe Illustrator 22.0.1, SVG Export Plug-In . SVG Version: 6.00 Build 0)  -->
<svg version="1.1" id="Layer_1" xmlns="http://www.w3.org/2000/svg" xmlns:xlink="http://www.w3.org/1999/xlink" x="0px" y="0px"
	 viewBox="0 0 340 340" style="enable-background:new 0 0 340 340;" xml:space="preserve">
<style type="text/css">
	.st0{fill:none;stroke:#221F1F;stroke-width:1.7004;stroke-miterlimit:10;}
	.st1{fill:#CC4702;}
	.st2{fill:#095474;}
</style>
<path class="st0" d="M186.6,153.1"/>
<g>
	<path class="st1" d="M131.2,173.8c-14.1-23.4-31.8-78.1,14.9-110.5c41-28.3,73.4-11.1,79.3-1.6c8.5,1,14,3.1,18.6,7.7
		c3.9,3.9,6.8,8.8,9.1,13.8c7.3,16,9.8,34.2,7,51.5c-2.8,17.4-10.9,33.8-22.9,46.7c5.5-10.4,10.6-27.3,6.7-35.2
		c-0.9,2.8-4.9,7.7-9.6,10.9c1-2.8,1.8-5.6,2.4-8.5c0.2-0.9,0.3-1.9,0-2.8c-0.3-0.9-1.9-2.1-1.9-2.1s-21.8-20.1-24.3-39.5
		c-16.1,21.7-67.7,5.5-67.7,5.5l-13.4,30.5C129.2,139.9,128.7,162.7,131.2,173.8z"/>
	<path class="st1" d="M188.8,84.9c-10.3-2.4-22.6,1.2-32.3,8.8c5.5-2.1,9.1-1.8,15-2.1c-6.9,3.3-19.3,9.5-22.6,19
		c6.4-4.6,26.8-10,26.8-10s-19.5,16.3-25,28.8c6.3,0.8,27.5-9,27.5-9l-17.7,17c0,0,49.2-21.9,54.7-42.4"/>
	<path class="st1" d="M196.6,58.1c-8.4-20.2-43.5-24.3-62.8-16.3c7.1,0.5,14.1,0.3,19,2.3c-6.5,0.6-19.6,1.1-27.2,4.6
		s-13.8,7.9-18.2,13.4c7.6-3.3,18.4-5.4,26.6-6.7c-14.7,7.6-32.2,14.8-37.1,33.7c5.5-5.4,11.7-9.1,19-13c-7,6.5-11.8,15.4-13.3,24.8
		c10-11.1,34-19.4,47.8-19.5"/>
	<path class="st1" d="M254.7,86c21.2,5.4,39.5-7.7,44.8-27.9c-1.1,1.2-3.8,3.7-7.1,4c3.4-5.5,11.6-27.7,6.9-37.3
		c-1.7-0.9-6.6-7.4-6.6-7.4l-2.7,2l1.3-4.1l-1.7-2.7l-2.7,0.7l0.8-4.7c0,0-2.3-5.3-3.5-8.5c-0.8,1-5,3-5,3l-0.3,7.1l-4.3-4.9
		l-1.4,7.4c0,0-1.8-7.6-2.6-7.8c-1.3-0.3-2.7-0.7-4.1-1.3c2.8,14.6,5.9,53.9-19.6,68.5"/>
	<path class="st2" d="M260.8,85.9l-9.5,4.9c-1.4-6.9-4.2-13-9.3-18l9.5-4.9C257.3,71.9,260.4,77.8,260.8,85.9z"/>
</g>
</svg>
