<?xml version="1.0" encoding="utf-8"?>
<!-- Generator: Adobe Illustrator 22.0.1, SVG Export Plug-In . SVG Version: 6.00 Build 0)  -->
<svg version="1.1" id="Layer_1" xmlns="http://www.w3.org/2000/svg" xmlns:xlink="http://www.w3.org/1999/xlink" x="0px" y="0px"
	 viewBox="0 0 340 340" style="enable-background:new 0 0 340 340;" xml:space="preserve">
<style type="text/css">
	.st0{fill:none;stroke:#221F1F;stroke-width:2.0305;stroke-miterlimit:10;}
	.st1{fill:none;stroke:#221F1F;stroke-width:1.7004;stroke-miterlimit:10;}
	.st2{fill:#2D2322;}
</style>
<path class="st0" d="M191.2,158"/>
<path class="st1" d="M186.6,153.1"/>
<path class="st0" d="M171.3,133.3"/>
<path class="st2" d="M119.8,116.1c0.5,2.7,7.6,44.2,7.6,44.2l9-33.5l0.2,24l25.9-26l-6.9,19.1l19.4-17.5l0.6,10.6l16.9-20.5
	l0.7,20.3l16.8-19.8l4.1,7.2l3.1-6.9l7.6,4.9l6.9-4.2c0,0,5.3,5.4,5.8,7.6c0.5,2.3,8.5,38.9,8.5,38.9s6.1-40.3,6.6-52.3
	c0.4-10.1-2-39.4-15.7-47.3s-53.2-34-53.2-34S194,55.1,192.6,53s-25.4-21.8-25.4-21.8s5,20.3,3.7,20.8c-1.3,0.5-32.4-20.2-32.4-20.2
	l15.1,26.7l-27.5-15.8L138.7,69l-26.2-6.6L127,85.3l-18.4-5.1l10.5,19.4L119.8,116.1z"/>
<path class="st1" d="M185.6,153.1"/>
</svg>
