<?xml version="1.0" encoding="UTF-8" standalone="no"?>
<!-- Created with Inkscape (http://www.inkscape.org/) -->

<svg
   xmlns:dc="http://purl.org/dc/elements/1.1/"
   xmlns:cc="http://creativecommons.org/ns#"
   xmlns:rdf="http://www.w3.org/1999/02/22-rdf-syntax-ns#"
   xmlns:svg="http://www.w3.org/2000/svg"
   xmlns="http://www.w3.org/2000/svg"
   xmlns:sodipodi="http://sodipodi.sourceforge.net/DTD/sodipodi-0.dtd"
   xmlns:inkscape="http://www.inkscape.org/namespaces/inkscape"
   width="1024"
   height="1024"
   viewBox="0 0 270.93333 270.93334"
   version="1.1"
   id="svg8"
   inkscape:version="0.92.3 (2405546, 2018-03-11)"
   sodipodi:docname="av_bouche02.svg">
  <defs
     id="defs2" />
  <sodipodi:namedview
     id="base"
     pagecolor="#ffffff"
     bordercolor="#666666"
     borderopacity="1.0"
     inkscape:pageopacity="0.0"
     inkscape:pageshadow="2"
     inkscape:zoom="0.7"
     inkscape:cx="589.52824"
     inkscape:cy="540.20732"
     inkscape:document-units="mm"
     inkscape:current-layer="layer1"
     showgrid="false"
     units="px"
     showguides="true"
     inkscape:guide-bbox="true"
     inkscape:snap-global="false"
     inkscape:window-width="1920"
     inkscape:window-height="1017"
     inkscape:window-x="-8"
     inkscape:window-y="100"
     inkscape:window-maximized="1" />
  <metadata
     id="metadata5">
    <rdf:RDF>
      <cc:Work
         rdf:about="">
        <dc:format>image/svg+xml</dc:format>
        <dc:type
           rdf:resource="http://purl.org/dc/dcmitype/StillImage" />
        <dc:title></dc:title>
      </cc:Work>
    </rdf:RDF>
  </metadata>
  <g
     inkscape:label="Calque 1"
     inkscape:groupmode="layer"
     id="layer1"
     transform="translate(0,-26.06665)">
    <path
       style="fill:#000000;stroke:#000000;stroke-width:0.79375;stroke-linecap:butt;stroke-linejoin:miter;stroke-opacity:1;stroke-miterlimit:5.34399986;stroke-dasharray:none"
       d="m 135.42674,220.38593 c 30.57943,0.58892 67.84641,-16.12469 67.84641,-16.12469 0,0 7.9247,66.83089 -64.29896,65.19047 -72.817052,-1.6539 -74.498014,-62.6784 -74.498014,-62.6784 0,0 38.070674,12.97938 70.950564,13.61262 z"
       id="path1031"
       inkscape:connector-curvature="0"
       sodipodi:nodetypes="scscs" />
    <path
       style="fill:#ffffff;stroke:#000000;stroke-width:0.79375;stroke-linecap:butt;stroke-linejoin:miter;stroke-miterlimit:5.34399986;stroke-dasharray:none;stroke-opacity:1"
       d="m 69.654598,225.93862 c -1.612153,-4.43888 -5.473883,-10.70409 0.203639,-12.61895 5.290628,-1.78437 11.847714,-0.5805 14.066732,3.54245 2.164242,4.02123 -2.903564,10.41927 -4.6008,13.43 -1.589393,2.8194 -8.066747,0.0596 -9.669571,-4.3535 z"
       id="path862-4-7-5-5-7"
       inkscape:connector-curvature="0"
       sodipodi:nodetypes="sssss" />
    <path
       style="fill:#ffffff;stroke:#000000;stroke-width:0.79375;stroke-linecap:butt;stroke-linejoin:miter;stroke-miterlimit:5.34399986;stroke-dasharray:none;stroke-opacity:1"
       d="m 73.146222,231.16884 c -2.293554,-4.82939 -1.955622,-12.03219 3.977272,-14.86371 5.528606,-2.63856 12.797998,-2.04726 15.712121,2.35372 2.842195,4.29234 -1.880588,12.12101 -3.356197,15.72424 -1.381862,3.37424 -14.052922,1.58715 -16.333196,-3.21425 z"
       id="path862-4-7-5-0"
       inkscape:connector-curvature="0"
       sodipodi:nodetypes="sssss" />
    <path
       style="fill:#ffffff;stroke:#000000;stroke-width:0.79375;stroke-linecap:butt;stroke-linejoin:miter;stroke-miterlimit:5.34399986;stroke-dasharray:none;stroke-opacity:1"
       d="m 93.272922,238.95002 c -4.424063,-4.17155 -10.154782,-13.68223 -5.949211,-18.46001 3.918977,-4.45219 7.435731,-5.532 11.766521,-1.37664 4.223888,4.05279 3.224978,10.28066 2.334558,14.65105 -1.08122,5.30693 -3.903113,9.19186 -8.151868,5.1856 z"
       id="path862-4-7-0-3"
       inkscape:connector-curvature="0"
       sodipodi:nodetypes="sssss" />
    <path
       style="fill:#ffffff;stroke:#000000;stroke-width:0.79375;stroke-linecap:butt;stroke-linejoin:miter;stroke-miterlimit:5.34399986;stroke-dasharray:none;stroke-opacity:1"
       d="m 86.111977,239.08718 c -4.833991,-2.87354 -11.790097,2.24331 -4.956939,10.01608 3.146798,3.57952 11.044057,4.85273 10.696112,1.79892 -0.282003,-2.47512 -0.208235,-8.52717 -5.739173,-11.815 z"
       id="path862-4-7-5-5-7-8-7"
       inkscape:connector-curvature="0"
       sodipodi:nodetypes="ssss"
       inkscape:transform-center-x="-0.88683067"
       inkscape:transform-center-y="-0.44412363" />
    <path
       style="fill:#ffffff;stroke:#000000;stroke-width:0.79375;stroke-linecap:butt;stroke-linejoin:miter;stroke-miterlimit:5.34399986;stroke-dasharray:none;stroke-opacity:1"
       d="m 116.46744,240.27586 c -0.61184,-6.14953 3.04398,-15.2671 -1.50889,-19.46822 -4.24261,-3.91484 -10.73367,-4.33301 -14.27153,0.34894 -3.450534,4.5664 -1.0791,14.40327 -0.59821,18.82448 0.45034,4.14027 16.37863,0.2948 16.37863,0.2948 z"
       id="path862-4-7-3"
       inkscape:connector-curvature="0"
       sodipodi:nodetypes="sssss" />
    <path
       style="fill:#ffffff;stroke:#000000;stroke-width:0.79375;stroke-linecap:butt;stroke-linejoin:miter;stroke-miterlimit:5.34399986;stroke-dasharray:none;stroke-opacity:1"
       d="m 117.24611,243.72876 c 0.007,-6.17887 -3.16004,-15.24726 1.33029,-19.95426 4.18433,-4.38624 9.40786,-5.12075 13.74628,-0.88686 4.23134,4.1294 2.7098,14.17684 2.66056,18.62398 -0.0461,4.16453 -17.73713,2.21714 -17.73713,2.21714 z"
       id="path862"
       inkscape:connector-curvature="0"
       sodipodi:nodetypes="sssss" />
    <path
       style="fill:#ffffff;stroke:#000000;stroke-width:0.79375;stroke-linecap:butt;stroke-linejoin:miter;stroke-miterlimit:5.34399986;stroke-dasharray:none;stroke-opacity:1"
       d="m 201.24887,224.63763 c 1.4637,-4.44422 2.31498,-11.60385 -0.62257,-14.40788 -3.70713,-3.53862 -10.75669,-0.5812 -12.77137,3.54674 -1.96494,4.02606 2.63619,10.43182 4.17713,13.44618 1.44303,2.8228 7.76159,1.83344 9.21681,-2.58504 z"
       id="path862-4-7-5-5"
       inkscape:connector-curvature="0"
       sodipodi:nodetypes="sssss" />
    <path
       style="fill:#ffffff;stroke:#000000;stroke-width:0.79375;stroke-linecap:butt;stroke-linejoin:miter;stroke-miterlimit:5.34399986;stroke-dasharray:none;stroke-opacity:1"
       d="m 198.94044,226.56665 c 1.59912,-5.05397 0.59135,-12.18734 -5.04026,-14.36755 -5.24786,-2.03164 -11.75193,-0.66095 -13.953,4.03334 -2.14675,4.57844 2.88008,11.86304 4.56359,15.29097 1.57655,3.21007 12.8398,0.0679 14.42967,-4.95676 z"
       id="path862-4-7-5"
       inkscape:connector-curvature="0"
       sodipodi:nodetypes="sssss" />
    <path
       style="fill:#ffffff;stroke:#000000;stroke-width:0.79375;stroke-linecap:butt;stroke-linejoin:miter;stroke-miterlimit:5.34399986;stroke-dasharray:none;stroke-opacity:1"
       d="m 182.51898,236.90743 c 3.3799,-4.98452 6.94987,-15.46444 2.01636,-19.2909 -4.59731,-3.5657 -8.14907,-3.90953 -11.4436,1.04019 -3.2132,4.82755 -1.03916,10.72548 0.66633,14.82588 2.07098,4.9791 5.51494,8.21184 8.76091,3.42483 z"
       id="path862-4-7-0"
       inkscape:connector-curvature="0"
       sodipodi:nodetypes="sssss" />
    <path
       style="fill:#ffffff;stroke:#000000;stroke-width:0.79375;stroke-linecap:butt;stroke-linejoin:miter;stroke-miterlimit:5.34399986;stroke-dasharray:none;stroke-opacity:1"
       d="m 173.63801,239.01449 c -1.04188,-6.08276 2.07215,-15.46445 -2.86136,-19.29091 -4.59731,-3.5657 -11.25307,-3.4661 -14.54759,1.48362 -3.2132,4.82756 -0.12461,14.44679 0.66633,18.81673 0.74069,4.09225 16.74262,-1.00944 16.74262,-1.00944 z"
       id="path862-4-7"
       inkscape:connector-curvature="0"
       sodipodi:nodetypes="sssss" />
    <path
       style="fill:#ffffff;stroke:#000000;stroke-width:0.79375;stroke-linecap:butt;stroke-linejoin:miter;stroke-miterlimit:5.34399986;stroke-dasharray:none;stroke-opacity:1"
       d="m 155.50367,243.7096 c -0.007,-6.1786 3.17581,-14.8032 -1.32887,-19.50999 -4.19771,-4.38605 -9.44362,-5.56394 -13.79591,-1.33023 -4.24487,4.12922 -2.71848,14.17623 -2.66908,18.62317 0.0463,4.16436 17.79386,2.21705 17.79386,2.21705 z"
       id="path862-4"
       inkscape:connector-curvature="0"
       sodipodi:nodetypes="sssss" />
    <path
       style="fill:#ffffff;stroke:#000000;stroke-width:0.79375;stroke-linecap:butt;stroke-linejoin:miter;stroke-miterlimit:5.34399986;stroke-dasharray:none;stroke-opacity:1"
       d="m 189.99916,238.3145 c 4.76597,-1.84692 9.26362,6.65559 2.01724,12.88617 -3.33711,2.86931 -10.65363,2.54925 -9.91979,-0.36084 0.59478,-2.35863 2.44943,-10.41213 7.90255,-12.52533 z"
       id="path862-4-7-5-5-7-8"
       inkscape:connector-curvature="0"
       sodipodi:nodetypes="ssss" />
    <path
       style="fill:#ffffff;stroke:#000000;stroke-width:0.79375;stroke-linecap:butt;stroke-linejoin:miter;stroke-miterlimit:5.34399986;stroke-dasharray:none;stroke-opacity:1"
       d="m 187.53059,246.72675 c 8.02606,2.53263 3.52523,9.24377 -1.36249,12.30726 -8.87421,5.56211 -18.57542,3.45737 -13.4107,-5.97244 1.27292,-2.32414 9.90407,-7.87127 14.77319,-6.33482 z"
       id="path862-4-7-5-0-3"
       inkscape:connector-curvature="0"
       sodipodi:nodetypes="ssss" />
    <path
       style="fill:#ffffff;stroke:#000000;stroke-width:0.79375;stroke-linecap:butt;stroke-linejoin:miter;stroke-miterlimit:5.34399986;stroke-dasharray:none;stroke-opacity:1"
       d="m 172.97757,249.85871 c 3.91172,2.94518 8.86703,9.57076 4.91066,12.75423 -3.68676,2.96653 -6.91582,3.6335 -10.74312,0.70132 -3.73282,-2.85982 -2.65454,-7.10123 -1.72552,-10.07374 1.12812,-3.60951 3.80127,-6.2103 7.55798,-3.38181 z"
       id="path862-4-7-0-3-9"
       inkscape:connector-curvature="0"
       sodipodi:nodetypes="sssss" />
    <path
       style="fill:#ffffff;stroke:#000000;stroke-width:0.79375;stroke-linecap:butt;stroke-linejoin:miter;stroke-miterlimit:5.34399986;stroke-dasharray:none;stroke-opacity:1"
       d="m 152.79717,253.35455 c 0.38938,4.22075 -3.18486,10.38527 0.84325,13.35331 3.7536,2.76581 9.64805,3.18477 12.99431,0.0533 3.26367,-3.05426 1.37363,-9.83432 1.05637,-12.86968 -0.29711,-2.84248 -14.89393,-0.53685 -14.89393,-0.53685 z"
       id="path862-4-7-3-0"
       inkscape:connector-curvature="0"
       sodipodi:nodetypes="sssss" />
    <path
       style="fill:#ffffff;stroke:#000000;stroke-width:0.79375;stroke-linecap:butt;stroke-linejoin:miter;stroke-miterlimit:5.34399986;stroke-dasharray:none;stroke-opacity:1"
       d="m 151.01093,254.52511 c -0.13908,4.46887 1.96526,11.09626 -1.40038,14.40358 -3.13627,3.08195 -6.94843,3.50023 -10.00939,0.34418 -2.98539,-3.07818 -1.6613,-10.31229 -1.52887,-13.52773 0.12401,-3.01109 12.93864,-1.22003 12.93864,-1.22003 z"
       id="path862-5"
       inkscape:connector-curvature="0"
       sodipodi:nodetypes="sssss" />
    <path
       style="fill:#ffffff;stroke:#000000;stroke-width:0.79375;stroke-linecap:butt;stroke-linejoin:miter;stroke-miterlimit:5.34399986;stroke-dasharray:none;stroke-opacity:1"
       d="m 87.911086,245.04714 c -8.839144,2.52904 -2.55207,8.3438 2.830791,11.40295 9.773203,5.55421 16.022933,3.89589 10.334993,-5.52055 -1.401879,-2.32084 -7.803406,-7.41667 -13.165784,-5.8824 z"
       id="path862-4-7-5-0-3-9"
       inkscape:connector-curvature="0"
       sodipodi:nodetypes="ssss" />
    <path
       style="fill:#ffffff;stroke:#000000;stroke-width:0.79375;stroke-linecap:butt;stroke-linejoin:miter;stroke-miterlimit:5.34399986;stroke-dasharray:none;stroke-opacity:1"
       d="m 99.703952,248.54362 c -3.210771,3.34184 -6.743966,10.44039 -2.359345,13.15986 4.085823,2.53413 7.308013,2.84209 10.440153,-0.47769 3.05484,-3.23784 1.23725,-7.31837 -0.20294,-10.15925 -1.74881,-3.44966 -4.79433,-5.73234 -7.877868,-2.52292 z"
       id="path862-4-7-0-32"
       inkscape:connector-curvature="0"
       sodipodi:nodetypes="sssss" />
    <path
       style="fill:#ffffff;stroke:#000000;stroke-width:0.79375;stroke-linecap:butt;stroke-linejoin:miter;stroke-miterlimit:5.34399986;stroke-dasharray:none;stroke-opacity:1"
       d="m 106.51126,252.16114 c 0.78247,4.18386 -2.30602,10.5402 2.07861,13.25966 4.08582,2.53412 10.14421,2.60216 13.27636,-0.71762 3.05483,-3.23784 0.50637,-9.88364 -0.0944,-12.89026 -0.56259,-2.81555 -15.26059,0.34822 -15.26059,0.34822 z"
       id="path862-4-7-7"
       inkscape:connector-curvature="0"
       sodipodi:nodetypes="sssss" />
    <path
       style="fill:#ffffff;stroke:#000000;stroke-width:0.79375;stroke-linecap:butt;stroke-linejoin:miter;stroke-miterlimit:5.34399986;stroke-dasharray:none;stroke-opacity:1"
       d="m 123.30689,254.01392 c -0.1339,4.24331 -2.72072,10.10092 0.56058,13.42582 3.05768,3.09832 6.97564,4.01495 10.34335,1.19681 3.28459,-2.74859 2.36275,-9.67974 2.42557,-12.73469 0.0589,-2.86084 -13.3295,-1.88794 -13.3295,-1.88794 z"
       id="path862-4-8"
       inkscape:connector-curvature="0"
       sodipodi:nodetypes="sssss" />
  </g>
</svg>
