<?xml version="1.0" encoding="UTF-8" standalone="no"?>
<!-- Created with Inkscape (http://www.inkscape.org/) -->

<svg
   xmlns:dc="http://purl.org/dc/elements/1.1/"
   xmlns:cc="http://creativecommons.org/ns#"
   xmlns:rdf="http://www.w3.org/1999/02/22-rdf-syntax-ns#"
   xmlns:svg="http://www.w3.org/2000/svg"
   xmlns="http://www.w3.org/2000/svg"
   xmlns:sodipodi="http://sodipodi.sourceforge.net/DTD/sodipodi-0.dtd"
   xmlns:inkscape="http://www.inkscape.org/namespaces/inkscape"
   width="1024"
   height="1024"
   viewBox="0 0 270.93333 270.93334"
   version="1.1"
   id="svg8"
   inkscape:version="0.92.3 (2405546, 2018-03-11)"
   sodipodi:docname="av_bouche03.svg">
  <defs
     id="defs2" />
  <sodipodi:namedview
     id="base"
     pagecolor="#ffffff"
     bordercolor="#666666"
     borderopacity="1.0"
     inkscape:pageopacity="0.0"
     inkscape:pageshadow="2"
     inkscape:zoom="0.7"
     inkscape:cx="140.26519"
     inkscape:cy="560.35455"
     inkscape:document-units="mm"
     inkscape:current-layer="layer1"
     showgrid="false"
     units="px"
     showguides="true"
     inkscape:guide-bbox="true"
     inkscape:snap-global="false"
     inkscape:window-width="1920"
     inkscape:window-height="1017"
     inkscape:window-x="-8"
     inkscape:window-y="100"
     inkscape:window-maximized="1" />
  <metadata
     id="metadata5">
    <rdf:RDF>
      <cc:Work
         rdf:about="">
        <dc:format>image/svg+xml</dc:format>
        <dc:type
           rdf:resource="http://purl.org/dc/dcmitype/StillImage" />
        <dc:title></dc:title>
      </cc:Work>
    </rdf:RDF>
  </metadata>
  <g
     inkscape:label="Calque 1"
     inkscape:groupmode="layer"
     id="layer1"
     transform="translate(0,-26.06665)">
    <path
       style="fill:#000000;stroke:#000000;stroke-width:0.79374999;stroke-linecap:butt;stroke-linejoin:miter;stroke-miterlimit:5.34399986;stroke-dasharray:none;stroke-opacity:1"
       d="m 139.20791,220.88444 c 30.60019,0.50026 48.98108,-18.59063 48.98108,-18.59063 0,0 15.12508,58.63406 -49.2133,56.98205 -63.403021,-1.62799 -55.258724,-54.206 -55.258724,-54.206 0,0 22.588724,15.27667 55.490944,15.81458 z"
       id="path1031"
       inkscape:connector-curvature="0"
       sodipodi:nodetypes="scscs" />
    <path
       style="fill:#ffffff;stroke:#000000;stroke-width:0.79374999;stroke-linecap:butt;stroke-linejoin:miter;stroke-miterlimit:5.34399986;stroke-dasharray:none;stroke-opacity:1"
       d="m 97.829239,231.52766 c -4.833991,-2.87354 -11.790097,2.24331 -4.956939,10.01608 3.146798,3.57952 11.04406,4.85273 10.69611,1.79892 -0.282,-2.47512 -0.20823,-8.52717 -5.739171,-11.815 z"
       id="path862-4-7-5-5-7-8-7"
       inkscape:connector-curvature="0"
       sodipodi:nodetypes="ssss"
       inkscape:transform-center-x="-0.88683067"
       inkscape:transform-center-y="-0.44412363" />
    <path
       style="fill:#ffffff;stroke:#000000;stroke-width:0.79374999;stroke-linecap:butt;stroke-linejoin:miter;stroke-miterlimit:5.34399986;stroke-dasharray:none;stroke-opacity:1"
       d="m 84.395669,224.04874 c -1.612153,-4.43888 -5.473883,-10.70409 0.203639,-12.61895 5.290628,-1.78437 11.847714,-0.5805 14.066732,3.54245 2.16424,4.02123 -2.903564,10.41927 -4.6008,13.43 -1.589393,2.8194 -8.066747,0.0596 -9.669571,-4.3535 z"
       id="path862-4-7-5-5-7"
       inkscape:connector-curvature="0"
       sodipodi:nodetypes="sssss" />
    <path
       style="fill:#ffffff;stroke:#000000;stroke-width:0.79374999;stroke-linecap:butt;stroke-linejoin:miter;stroke-miterlimit:5.34399986;stroke-dasharray:none;stroke-opacity:1"
       d="m 89.777174,230.79086 c -2.293554,-4.82939 -1.955622,-12.03219 3.977272,-14.86371 5.528606,-2.63856 12.797994,-2.04726 15.712124,2.35372 2.84219,4.29234 -1.88059,12.12101 -3.3562,15.72424 -1.38186,3.37424 -14.052922,1.58715 -16.333196,-3.21425 z"
       id="path862-4-7-5-0"
       inkscape:connector-curvature="0"
       sodipodi:nodetypes="sssss" />
    <path
       style="fill:#ffffff;stroke:#000000;stroke-width:0.79374999;stroke-linecap:butt;stroke-linejoin:miter;stroke-miterlimit:5.34399986;stroke-dasharray:none;stroke-opacity:1"
       d="m 104.99018,238.95002 c -4.42406,-4.17155 -10.154778,-13.68223 -5.949207,-18.46001 3.918977,-4.45219 7.435727,-5.532 11.766517,-1.37664 4.22389,4.05279 3.22498,10.28066 2.33456,14.65105 -1.08122,5.30693 -3.90311,9.19186 -8.15187,5.1856 z"
       id="path862-4-7-0-3"
       inkscape:connector-curvature="0"
       sodipodi:nodetypes="sssss" />
    <path
       style="fill:#ffffff;stroke:#000000;stroke-width:0.79374999;stroke-linecap:butt;stroke-linejoin:miter;stroke-miterlimit:5.34399986;stroke-dasharray:none;stroke-opacity:1"
       d="m 100.00632,237.86559 c -8.83914,2.52904 -2.552066,8.3438 2.8308,11.40295 9.7732,5.55421 16.02293,3.89589 10.33499,-5.52055 -1.40188,-2.32084 -7.80341,-7.41667 -13.16579,-5.8824 z"
       id="path862-4-7-5-0-3-9"
       inkscape:connector-curvature="0"
       sodipodi:nodetypes="ssss" />
    <path
       style="fill:#ffffff;stroke:#000000;stroke-width:0.79374999;stroke-linecap:butt;stroke-linejoin:miter;stroke-miterlimit:5.34399986;stroke-dasharray:none;stroke-opacity:1"
       d="m 109.15336,241.36207 c -3.21077,3.34184 -6.74397,10.44039 -2.35935,13.15986 4.08582,2.53413 7.30801,2.84209 10.44015,-0.47769 3.05484,-3.23784 1.23725,-7.31837 -0.20294,-10.15925 -1.74881,-3.44966 -4.79433,-5.73234 -7.87786,-2.52292 z"
       id="path862-4-7-0-32"
       inkscape:connector-curvature="0"
       sodipodi:nodetypes="sssss" />
    <path
       style="fill:#ffffff;stroke:#000000;stroke-width:0.79374999;stroke-linecap:butt;stroke-linejoin:miter;stroke-miterlimit:5.34399986;stroke-dasharray:none;stroke-opacity:1"
       d="m 126.6728,241.40979 c -0.61184,-6.14953 3.04398,-15.2671 -1.50889,-19.46822 -4.24261,-3.91484 -10.73367,-4.33301 -14.27153,0.34894 -3.45054,4.5664 -1.0791,14.40327 -0.59821,18.82448 0.45034,4.14027 16.37863,0.2948 16.37863,0.2948 z"
       id="path862-4-7-3"
       inkscape:connector-curvature="0"
       sodipodi:nodetypes="sssss" />
    <path
       style="fill:#ffffff;stroke:#000000;stroke-width:0.79374999;stroke-linecap:butt;stroke-linejoin:miter;stroke-miterlimit:5.34399986;stroke-dasharray:none;stroke-opacity:1"
       d="m 115.96066,244.22364 c 0.78247,4.18386 -2.30602,10.5402 2.07861,13.25966 4.08582,2.53412 10.14421,2.60216 13.27636,-0.71762 3.05483,-3.23784 0.50637,-9.88364 -0.0944,-12.89026 -0.56259,-2.81555 -15.26059,0.34822 -15.26059,0.34822 z"
       id="path862-4-7-7"
       inkscape:connector-curvature="0"
       sodipodi:nodetypes="sssss" />
    <path
       style="fill:#ffffff;stroke:#000000;stroke-width:0.79374999;stroke-linecap:butt;stroke-linejoin:miter;stroke-miterlimit:5.34399986;stroke-dasharray:none;stroke-opacity:1"
       d="m 121.78182,244.86268 c 0.007,-6.17887 -3.16004,-15.24726 1.33029,-19.95426 4.18433,-4.38624 9.40786,-5.12075 13.74628,-0.88686 4.23134,4.1294 2.7098,14.17684 2.66056,18.62398 -0.0461,4.16453 -17.73713,2.21714 -17.73713,2.21714 z"
       id="path862"
       inkscape:connector-curvature="0"
       sodipodi:nodetypes="sssss" />
    <path
       style="fill:#ffffff;stroke:#000000;stroke-width:0.79374999;stroke-linecap:butt;stroke-linejoin:miter;stroke-miterlimit:5.34399986;stroke-dasharray:none;stroke-opacity:1"
       d="m 190.28756,223.12573 c 1.4637,-4.44422 2.31498,-11.60385 -0.62257,-14.40788 -3.70713,-3.53862 -10.75669,-0.5812 -12.77137,3.54674 -1.96494,4.02606 2.63619,10.43182 4.17713,13.44618 1.44303,2.8228 7.76159,1.83344 9.21681,-2.58504 z"
       id="path862-4-7-5-5"
       inkscape:connector-curvature="0"
       sodipodi:nodetypes="sssss" />
    <path
       style="fill:#ffffff;stroke:#000000;stroke-width:0.79374999;stroke-linecap:butt;stroke-linejoin:miter;stroke-miterlimit:5.34399986;stroke-dasharray:none;stroke-opacity:1"
       d="m 181.30571,229.99902 c 4.76597,-1.84692 9.26362,6.65559 2.01724,12.88617 -3.33711,2.86931 -10.65363,2.54925 -9.91979,-0.36084 0.59478,-2.35863 2.44943,-10.41213 7.90255,-12.52533 z"
       id="path862-4-7-5-5-7-8"
       inkscape:connector-curvature="0"
       sodipodi:nodetypes="ssss" />
    <path
       style="fill:#ffffff;stroke:#000000;stroke-width:0.79374999;stroke-linecap:butt;stroke-linejoin:miter;stroke-miterlimit:5.34399986;stroke-dasharray:none;stroke-opacity:1"
       d="m 187.97913,226.56665 c 1.59912,-5.05397 0.59135,-12.18734 -5.04026,-14.36755 -5.24786,-2.03164 -11.75193,-0.66095 -13.953,4.03334 -2.14675,4.57844 2.88008,11.86304 4.56359,15.29097 1.57655,3.21007 12.8398,0.0679 14.42967,-4.95676 z"
       id="path862-4-7-5"
       inkscape:connector-curvature="0"
       sodipodi:nodetypes="sssss" />
    <path
       style="fill:#ffffff;stroke:#000000;stroke-width:0.79374999;stroke-linecap:butt;stroke-linejoin:miter;stroke-miterlimit:5.34399986;stroke-dasharray:none;stroke-opacity:1"
       d="m 178.08119,236.89937 c 8.02606,2.53263 3.52523,9.24377 -1.36249,12.30726 -8.87421,5.56211 -18.57542,3.45737 -13.4107,-5.97244 1.27292,-2.32414 9.90407,-7.87127 14.77319,-6.33482 z"
       id="path862-4-7-5-0-3"
       inkscape:connector-curvature="0"
       sodipodi:nodetypes="ssss" />
    <path
       style="fill:#ffffff;stroke:#000000;stroke-width:0.79374999;stroke-linecap:butt;stroke-linejoin:miter;stroke-miterlimit:5.34399986;stroke-dasharray:none;stroke-opacity:1"
       d="m 174.2035,237.2854 c 3.3799,-4.98452 6.94987,-15.46444 2.01636,-19.2909 -4.59731,-3.5657 -8.14907,-3.90953 -11.4436,1.04019 -3.2132,4.82755 -1.03916,10.72548 0.66633,14.82588 2.07098,4.9791 5.51494,8.21184 8.76091,3.42483 z"
       id="path862-4-7-0"
       inkscape:connector-curvature="0"
       sodipodi:nodetypes="sssss" />
    <path
       style="fill:#ffffff;stroke:#000000;stroke-width:0.79374999;stroke-linecap:butt;stroke-linejoin:miter;stroke-miterlimit:5.34399986;stroke-dasharray:none;stroke-opacity:1"
       d="m 168.81983,240.40931 c 3.91172,2.94518 8.86703,9.57076 4.91066,12.75423 -3.68676,2.96653 -6.91582,3.6335 -10.74312,0.70132 -3.73282,-2.85982 -2.65454,-7.10123 -1.72552,-10.07374 1.12812,-3.60951 3.80127,-6.2103 7.55798,-3.38181 z"
       id="path862-4-7-0-3-9"
       inkscape:connector-curvature="0"
       sodipodi:nodetypes="sssss" />
    <path
       style="fill:#ffffff;stroke:#000000;stroke-width:0.79374999;stroke-linecap:butt;stroke-linejoin:miter;stroke-miterlimit:5.34399986;stroke-dasharray:none;stroke-opacity:1"
       d="m 169.1023,240.14842 c -1.04188,-6.08276 2.07215,-15.46445 -2.86136,-19.29091 -4.59731,-3.5657 -11.25307,-3.4661 -14.54759,1.48362 -3.2132,4.82756 -0.12461,14.44679 0.66633,18.81673 0.74069,4.09225 16.74262,-1.00944 16.74262,-1.00944 z"
       id="path862-4-7"
       inkscape:connector-curvature="0"
       sodipodi:nodetypes="sssss" />
    <path
       style="fill:#ffffff;stroke:#000000;stroke-width:0.79374999;stroke-linecap:butt;stroke-linejoin:miter;stroke-miterlimit:5.34399986;stroke-dasharray:none;stroke-opacity:1"
       d="m 155.12569,244.46555 c -0.007,-6.1786 3.17581,-14.8032 -1.32887,-19.50999 -4.19771,-4.38605 -9.44362,-5.56394 -13.79591,-1.33023 -4.24487,4.12922 -2.71848,14.17623 -2.66908,18.62317 0.0463,4.16436 17.79386,2.21705 17.79386,2.21705 z"
       id="path862-4"
       inkscape:connector-curvature="0"
       sodipodi:nodetypes="sssss" />
    <path
       style="fill:#ffffff;stroke:#000000;stroke-width:0.79374999;stroke-linecap:butt;stroke-linejoin:miter;stroke-miterlimit:5.34399986;stroke-dasharray:none;stroke-opacity:1"
       d="m 148.90941,247.12193 c 1.44108,3.98618 -0.46324,10.85277 4.18312,12.70919 4.32972,1.72995 10.13934,0.64905 12.58786,-3.22501 2.38806,-3.77852 -1.15054,-9.86291 -2.22293,-12.72019 -1.00426,-2.67571 -14.54803,3.23609 -14.54803,3.23609 z"
       id="path862-4-7-3-0"
       inkscape:connector-curvature="0"
       sodipodi:nodetypes="sssss" />
    <path
       style="fill:#ffffff;stroke:#000000;stroke-width:0.79374999;stroke-linecap:butt;stroke-linejoin:miter;stroke-miterlimit:5.34399986;stroke-dasharray:none;stroke-opacity:1"
       d="m 152.90081,245.83166 c -0.13908,4.46887 1.96526,11.09626 -1.40038,14.40358 -3.13627,3.08195 -6.94843,3.50023 -10.00939,0.34418 -2.98539,-3.07818 -1.6613,-10.31229 -1.52887,-13.52773 0.12401,-3.01109 12.93864,-1.22003 12.93864,-1.22003 z"
       id="path862-5"
       inkscape:connector-curvature="0"
       sodipodi:nodetypes="sssss" />
    <path
       style="fill:#ffffff;stroke:#000000;stroke-width:0.79374999;stroke-linecap:butt;stroke-linejoin:miter;stroke-miterlimit:5.34399986;stroke-dasharray:none;stroke-opacity:1"
       d="m 126.3307,244.94249 c -0.1339,4.24331 -2.72072,10.10092 0.56058,13.42582 3.05768,3.09832 6.97564,4.01495 10.34335,1.19681 3.28459,-2.74859 2.36275,-9.67974 2.42557,-12.73469 0.0589,-2.86084 -13.3295,-1.88794 -13.3295,-1.88794 z"
       id="path862-4-8"
       inkscape:connector-curvature="0"
       sodipodi:nodetypes="sssss" />
  </g>
</svg>
