<?xml version="1.0" encoding="UTF-8" standalone="no"?>
<!-- Created with Inkscape (http://www.inkscape.org/) -->

<svg
   xmlns:dc="http://purl.org/dc/elements/1.1/"
   xmlns:cc="http://creativecommons.org/ns#"
   xmlns:rdf="http://www.w3.org/1999/02/22-rdf-syntax-ns#"
   xmlns:svg="http://www.w3.org/2000/svg"
   xmlns="http://www.w3.org/2000/svg"
   xmlns:sodipodi="http://sodipodi.sourceforge.net/DTD/sodipodi-0.dtd"
   xmlns:inkscape="http://www.inkscape.org/namespaces/inkscape"
   width="1024"
   height="1024"
   viewBox="0 0 270.93333 270.93334"
   version="1.1"
   id="svg8"
   inkscape:version="0.92.3 (2405546, 2018-03-11)"
   sodipodi:docname="av_cheveux03.svg">
  <defs
     id="defs2" />
  <sodipodi:namedview
     id="base"
     pagecolor="#ffffff"
     bordercolor="#666666"
     borderopacity="1.0"
     inkscape:pageopacity="0.0"
     inkscape:pageshadow="2"
     inkscape:zoom="0.7"
     inkscape:cx="660.26519"
     inkscape:cy="484.64026"
     inkscape:document-units="mm"
     inkscape:current-layer="layer1"
     showgrid="false"
     units="px"
     showguides="true"
     inkscape:guide-bbox="true"
     inkscape:snap-global="false"
     inkscape:window-width="1920"
     inkscape:window-height="1017"
     inkscape:window-x="-8"
     inkscape:window-y="100"
     inkscape:window-maximized="1" />
  <metadata
     id="metadata5">
    <rdf:RDF>
      <cc:Work
         rdf:about="">
        <dc:format>image/svg+xml</dc:format>
        <dc:type
           rdf:resource="http://purl.org/dc/dcmitype/StillImage" />
        <dc:title></dc:title>
      </cc:Work>
    </rdf:RDF>
  </metadata>
  <g
     inkscape:label="Calque 1"
     inkscape:groupmode="layer"
     id="layer1"
     transform="translate(0,-26.06665)">
    <path
       style="fill:#ffff00;stroke:#000000;stroke-width:3.00000004;stroke-linecap:butt;stroke-linejoin:miter;stroke-opacity:1;stroke-miterlimit:4;stroke-dasharray:none"
       d="M 620.71484 120.89648 C 598.03627 120.78488 571.07226 125.07059 538.57227 135.42773 C 478.57227 145.42773 397.14202 111.14202 331.42773 125.42773 C 265.71346 139.71345 178.57171 224.00085 162.85742 322.57227 C 147.14314 421.1437 48.57087 464.00028 54.285156 546.85742 C 59.999443 629.71453 84.285713 689.71372 120 758.28516 C 155.71428 826.8566 61.428012 996.85747 44.285156 1006.8574 C 27.142298 1016.8574 135.71485 1004.0003 175.71484 966.85742 C 215.71484 929.71457 239.99973 1006.8577 257.14258 1009.7148 C 268.33713 1011.5806 276.48903 953.75214 295.11719 919.35938 A 387.1441 387.1441 0 0 1 133.08398 604.78711 A 387.1441 387.1441 0 0 1 520.22852 217.64258 A 387.1441 387.1441 0 0 1 907.37305 604.78711 A 387.1441 387.1441 0 0 1 765.48047 904.00586 C 798.33244 934.06708 816.60415 969.56075 827.14258 995.42773 C 871.42832 962.57064 844.28518 892.57227 894.28516 922.57227 C 944.28517 952.57227 977.14258 984 977.14258 984 C 977.14258 984 912.85745 854.00025 932.85742 796.85742 C 952.13732 741.77194 994.28652 606.85741 948.57227 506.85742 C 912.5762 428.11607 991.42856 313.99946 910 258.28516 C 828.57144 202.57088 775.71456 241.14202 742.85742 195.42773 C 718.21454 161.14202 688.75055 121.23131 620.71484 120.89648 z "
       transform="matrix(0.26458333,0,0,0.26458333,0,26.06665)"
       id="path1515" />
  </g>
</svg>
