<?xml version="1.0" encoding="UTF-8" standalone="no"?>
<!-- Generator: Adobe Illustrator 22.0.1, SVG Export Plug-In . SVG Version: 6.00 Build 0)  -->

<svg
   xmlns:dc="http://purl.org/dc/elements/1.1/"
   xmlns:cc="http://creativecommons.org/ns#"
   xmlns:rdf="http://www.w3.org/1999/02/22-rdf-syntax-ns#"
   xmlns:svg="http://www.w3.org/2000/svg"
   xmlns="http://www.w3.org/2000/svg"
   xmlns:sodipodi="http://sodipodi.sourceforge.net/DTD/sodipodi-0.dtd"
   xmlns:inkscape="http://www.inkscape.org/namespaces/inkscape"
   version="1.1"
   id="Layer_1"
   x="0px"
   y="0px"
   viewBox="0 0 340 340"
   style="enable-background:new 0 0 340 340;"
   xml:space="preserve"
   sodipodi:docname="avatar_cheveux04.svg"
   inkscape:version="0.92.3 (2405546, 2018-03-11)"><metadata
   id="metadata970"><rdf:RDF><cc:Work
       rdf:about=""><dc:format>image/svg+xml</dc:format><dc:type
         rdf:resource="http://purl.org/dc/dcmitype/StillImage" /><dc:title></dc:title></cc:Work></rdf:RDF></metadata><defs
   id="defs968"><linearGradient
     id="SVGID_1_-0"
     gradientUnits="userSpaceOnUse"
     x1="170"
     y1="335.72009"
     x2="170"
     y2="130.0029"><stop
       offset="0"
       style="stop-color:#D8AE5D"
       id="stop1034" /><stop
       offset="1"
       style="stop-color:#7C5059"
       id="stop1036" /></linearGradient><linearGradient
     id="SVGID_1_-5"
     gradientUnits="userSpaceOnUse"
     x1="178.8"
     y1="35.6329"
     x2="178.8"
     y2="210.7995"
     gradientTransform="matrix(1,0,0,-1,0,340)"><stop
       offset="0"
       style="stop-color:#98BBBC"
       id="stop5980" /><stop
       offset="1"
       style="stop-color:#544C7B"
       id="stop5982" /></linearGradient><linearGradient
     id="SVGID_1_-1"
     gradientUnits="userSpaceOnUse"
     x1="175.8"
     y1="338.992"
     x2="175.8"
     y2="128.20461"><stop
       offset="0"
       style="stop-color:#8ABC87"
       id="stop6642" /><stop
       offset="1"
       style="stop-color:#235C7B"
       id="stop6644" /></linearGradient><linearGradient
     id="SVGID_1_-6"
     gradientUnits="userSpaceOnUse"
     x1="178.8"
     y1="327.3316"
     x2="178.8"
     y2="134.8156"><stop
       offset="0"
       style="stop-color:#EAD29D"
       id="stop7885" /><stop
       offset="1"
       style="stop-color:#7A8469"
       id="stop7887" /></linearGradient><linearGradient
     id="SVGID_1_-3"
     gradientUnits="userSpaceOnUse"
     x1="175.5966"
     y1="319.4819"
     x2="175.5966"
     y2="127.5162"><stop
       offset="0"
       style="stop-color:#FFDCA3"
       id="stop8597" /><stop
       offset="1"
       style="stop-color:#B0815C"
       id="stop8599" /></linearGradient></defs><sodipodi:namedview
   pagecolor="#ffffff"
   bordercolor="#666666"
   borderopacity="1"
   objecttolerance="10"
   gridtolerance="10"
   guidetolerance="10"
   inkscape:pageopacity="0"
   inkscape:pageshadow="2"
   inkscape:window-width="1920"
   inkscape:window-height="1017"
   id="namedview966"
   showgrid="false"
   showguides="true"
   inkscape:guide-bbox="true"
   inkscape:zoom="1.8031223"
   inkscape:cx="256.4447"
   inkscape:cy="141.72523"
   inkscape:window-x="-8"
   inkscape:window-y="100"
   inkscape:window-maximized="1"
   inkscape:current-layer="Layer_1" />
<style
   type="text/css"
   id="style938">
	.st0{fill:url(#SVGID_1_);}
	.st1{fill:none;stroke:#221F1F;stroke-width:2.0305;stroke-miterlimit:10;}
	.st2{fill:#F4D4B8;}
	.st3{fill:#E5AB86;}
	.st4{fill:none;stroke:#221F1F;stroke-width:1.7004;stroke-miterlimit:10;}
</style>
<linearGradient
   id="SVGID_1_"
   gradientUnits="userSpaceOnUse"
   x1="175.45"
   y1="13.6521"
   x2="175.45"
   y2="208.0665"
   gradientTransform="matrix(1,0,0,-1,1093.4114,749.9952)">
	<stop
   offset="0"
   style="stop-color:#9C4A8C"
   id="stop940" />
	<stop
   offset="1"
   style="stop-color:#78270E"
   id="stop942" />
</linearGradient>










<path
   inkscape:connector-curvature="0"
   class="st1"
   d="m 562.89726,200.2306 -63.8,-13.2 c -0.2,2.5 -0.3,4.9 -0.4,5.9 -1.2,17.9 -34.5,30.2 -34.5,30.2 0,0 -31.4,-16.7 -30.2,-34.5 0,-0.4 0.1,-0.9 0.1,-1.5 l -77.9,51 6.7,15.6 200.5,-43 z"
   id="path10602"
   style="fill:none;stroke:none;stroke-width:2.03049994;stroke-miterlimit:10" /><polygon
   transform="translate(-16.01176)"
   class="st0"
   points="270,267.3 263,259.8 270,252.2 277,259.8 "
   id="polygon14237"
   style="fill:#000000;stroke:none" /><polygon
   transform="translate(-16.01176)"
   class="st0"
   points="264.3,259.8 251.7,246.1 264.3,232.5 276.9,246.1 "
   id="polygon14239"
   style="fill:#000000;stroke:none" /><polygon
   transform="translate(-16.01176)"
   class="st0"
   points="258.2,242.3 242.2,225.1 258.2,207.8 274.1,225.1 "
   id="polygon14241"
   style="fill:#000000;stroke:none" /><polygon
   transform="translate(-16.01176)"
   class="st0"
   points="255.5,222 234.5,199.3 255.5,176.5 276.5,199.3 "
   id="polygon14243"
   style="fill:#000000;stroke:none" /><path
   inkscape:connector-curvature="0"
   class="st0"
   d="m 256.18824,259 c 4.2,-0.3 10.9,6.2 10.9,6.2 0,0 3.2,9.1 1.4,13.2 -0.4,-4.4 -12.7,-16.5 -12.3,-19.4 z"
   id="path14245"
   style="fill:#000000;stroke:none" /><path
   inkscape:connector-curvature="0"
   class="st0"
   d="m 256.48824,261.3 c 2.8,3.4 2.3,13.1 2.3,13.1 0,0 -4.7,8.3 -8.7,9.4 2.9,-3 4,-21 6.4,-22.5 z"
   id="path14247"
   style="fill:#000000;stroke:none" /><g
   transform="translate(-16.01176)"
   id="g14251"
   style="fill:#000000;stroke:none"><path
     inkscape:connector-curvature="0"
     class="st0"
     d="M 133.3,169 C 105.1,140.1 121.4,68.1 121.4,68.1 l 36.4,-35.5 25.9,8.6 23.8,-9 42.1,43.1 c 0,0 15.1,70 -8.5,94.1 4.8,-11.2 8.9,-29.1 4.4,-37 -0.8,2.9 -4.4,8.4 -9,11.9 0.9,-3 1.5,-6 1.9,-9 0.1,-1 0.2,-2 -0.2,-2.9 -0.4,-0.9 -1.3,-1.5 -2,-2.1 -7.2,-5.2 -27.9,-20.1 -27.9,-20.1 L 188,80.5 160.8,108.9 c 0,0 -31.6,19 -31.9,25.2 -0.4,11.7 1.1,23.6 4.4,34.9 z"
     id="path14249"
     style="fill:#000000;stroke:none" /></g><path
   inkscape:connector-curvature="0"
   class="st0"
   d="m 232.88824,128.8 c -0.3,0 -0.7,0 -1,0 0,8.4 -0.8,17.1 -2.2,25.9 -1.4,11.1 -4.6,22.5 -8,32.2 3.4,1.6 7.2,2.5 11.2,2.5 15.5,0 28,-30.3 28,-30.3 0,0 -12.6,-30.3 -28,-30.3 z m 4.7,47.7 c 0,0 -7.7,-4.1 -7.4,-8.5 0.2,-3.1 0.8,-12.3 1.1,-16 0.4,-6.3 12.1,-10.6 12.1,-10.6 l 10.6,12.1 z"
   id="path14253"
   style="fill:#000000;stroke:none" /></svg>