<?xml version="1.0" encoding="UTF-8" standalone="no"?>
<!-- Created with Inkscape (http://www.inkscape.org/) -->

<svg
   xmlns:dc="http://purl.org/dc/elements/1.1/"
   xmlns:cc="http://creativecommons.org/ns#"
   xmlns:rdf="http://www.w3.org/1999/02/22-rdf-syntax-ns#"
   xmlns:svg="http://www.w3.org/2000/svg"
   xmlns="http://www.w3.org/2000/svg"
   xmlns:sodipodi="http://sodipodi.sourceforge.net/DTD/sodipodi-0.dtd"
   xmlns:inkscape="http://www.inkscape.org/namespaces/inkscape"
   width="1024"
   height="1024"
   viewBox="0 0 270.93333 270.93334"
   version="1.1"
   id="svg8"
   inkscape:version="0.92.3 (2405546, 2018-03-11)"
   sodipodi:docname="avatar_lunettes01col02.svg">
  <defs
     id="defs2" />
  <sodipodi:namedview
     id="base"
     pagecolor="#ffffff"
     bordercolor="#666666"
     borderopacity="1.0"
     inkscape:pageopacity="0.0"
     inkscape:pageshadow="2"
     inkscape:zoom="0.7"
     inkscape:cx="140.26519"
     inkscape:cy="560.35455"
     inkscape:document-units="mm"
     inkscape:current-layer="layer1"
     showgrid="false"
     units="px"
     showguides="true"
     inkscape:guide-bbox="true"
     inkscape:snap-global="false"
     inkscape:window-width="1920"
     inkscape:window-height="1017"
     inkscape:window-x="-8"
     inkscape:window-y="100"
     inkscape:window-maximized="1" />
  <metadata
     id="metadata5">
    <rdf:RDF>
      <cc:Work
         rdf:about="">
        <dc:format>image/svg+xml</dc:format>
        <dc:type
           rdf:resource="http://purl.org/dc/dcmitype/StillImage" />
        <dc:title></dc:title>
      </cc:Work>
    </rdf:RDF>
  </metadata>
  <g
     inkscape:label="Calque 1"
     inkscape:groupmode="layer"
     id="layer1"
     transform="translate(0,-26.06665)">
    <path
       style="opacity:0.9;fill:#241c1c;stroke:#000000;stroke-width:0.79374999;stroke-linecap:butt;stroke-linejoin:miter;stroke-miterlimit:5.98399973;stroke-dasharray:none;stroke-opacity:1"
       d="m 172.62905,175.98998 c 31.74999,3.02381 38.55357,-45.73512 2.26786,-46.86904 -35.51444,-1.10983 -32.50596,45.73511 -2.26786,46.86904 z"
       id="path889-81"
       inkscape:connector-curvature="0"
       sodipodi:nodetypes="csc" />
    <path
       style="opacity:0.9;fill:#241c1c;stroke:#000000;stroke-width:0.79374999;stroke-linecap:butt;stroke-linejoin:miter;stroke-miterlimit:5.98399973;stroke-dasharray:none;stroke-opacity:1"
       d="m 102.16434,176.74574 c -31.84229,3.02379 -38.665649,-45.73473 -2.274449,-46.86865 35.617689,-1.10982 32.600459,45.73473 2.274449,46.86865 z"
       id="path889-7-4"
       inkscape:connector-curvature="0"
       sodipodi:nodetypes="csc" />
    <path
       inkscape:connector-curvature="0"
       style="opacity:1;vector-effect:none;fill:#000080;fill-opacity:1;fill-rule:evenodd;stroke:#000000;stroke-width:0.79374999;stroke-linecap:butt;stroke-linejoin:miter;stroke-miterlimit:5.98399973;stroke-dasharray:none;stroke-dashoffset:0;stroke-opacity:1"
       d="m 68.035971,139.85793 c -7.09371,-0.93562 -19.43536,2.09701 -24.11263,4.65585 -1.46719,1.4295 -3.51323,4.66863 -2.41441,6.58792 3.80707,-3.35477 20.00274,-5.73066 25.11205,-3.73032 8.689159,2.50344 11.59147,-8.12698 1.41499,-7.51345 z"
       id="path939-3"
       sodipodi:nodetypes="ccccc" />
    <path
       style="opacity:1;vector-effect:none;fill:#000080;fill-opacity:1;fill-rule:evenodd;stroke:#000000;stroke-width:0.79374999;stroke-linecap:butt;stroke-linejoin:miter;stroke-miterlimit:5.98399973;stroke-dasharray:none;stroke-dashoffset:0;stroke-opacity:1"
       d="m 138.15052,136.36025 a 11.150297,8.5044641 0 0 0 -11.15074,8.50439 11.150297,8.5044641 0 0 0 2.53007,5.3852 9.4494047,8.6934528 0 0 1 8.80929,-5.57433 9.4494047,8.6934528 0 0 1 8.69455,5.3113 11.150297,8.5044641 0 0 0 2.26705,-5.12217 11.150297,8.5044641 0 0 0 -11.15022,-8.50439 z"
       id="path939"
       inkscape:connector-curvature="0" />
    <path
       inkscape:connector-curvature="0"
       style="opacity:1;vector-effect:none;fill:#000080;fill-opacity:1;fill-rule:evenodd;stroke:#000000;stroke-width:0.79374999;stroke-linecap:butt;stroke-linejoin:miter;stroke-miterlimit:5.98399973;stroke-dasharray:none;stroke-dashoffset:0;stroke-opacity:1"
       d="m 206.86737,139.3242 c 7.10882,-0.93554 19.47675,2.09684 24.16398,4.65548 1.4703,1.42938 3.5207,4.66826 2.41955,6.58739 -3.81518,-3.3545 -20.04534,-5.7302 -25.16552,-3.73002 -7.9662,5.14874 -11.61615,-8.12633 -1.41801,-7.51285 z"
       id="path939-3-7"
       sodipodi:nodetypes="ccccc" />
    <path
       style="fill:#000080;stroke:#000000;stroke-width:0.79374999;stroke-linecap:butt;stroke-linejoin:miter;stroke-miterlimit:5.98399973;stroke-dasharray:none;stroke-opacity:1"
       d="m 173.08762,120.08114 c -46.15304,0.49214 -41.53411,62.54015 -0.86248,64.06534 43.38306,4.13171 52.67969,-62.49219 3.09904,-64.04157 -0.75823,-0.0237 -1.50397,-0.0316 -2.23656,-0.0238 z m -0.0992,8.70231 c 0.53615,-0.006 1.08168,-2.9e-4 1.6366,0.0171 36.28571,1.13392 29.48191,49.89278 -2.26808,46.86897 -29.76565,-1.11621 -33.14574,-46.52585 0.63146,-46.88602 z"
       id="path889-8"
       inkscape:connector-curvature="0" />
    <path
       style="fill:#000080;stroke:#000000;stroke-width:0.79374999;stroke-linecap:butt;stroke-linejoin:miter;stroke-miterlimit:5.98399973;stroke-dasharray:none;stroke-opacity:1"
       d="m 100.40421,120.86817 c -0.37379,0.004 -0.750984,0.0114 -1.131201,0.0233 -49.72479,1.54938 -40.401369,68.17274 3.107821,64.04105 41.1136,-1.53728 45.49357,-64.56084 -1.97662,-64.0643 z m 0.39791,8.7018 c 34.74115,-0.36339 31.53551,45.76096 1.44642,46.88602 -31.842291,3.02379 -38.66548,-45.73505 -2.274281,-46.86897 0.278261,-0.009 0.554301,-0.0142 0.827861,-0.017 z"
       id="path889-8-8"
       inkscape:connector-curvature="0" />
  </g>
</svg>
