<?xml version="1.0" encoding="UTF-8" standalone="no"?>
<!-- Created with Inkscape (http://www.inkscape.org/) -->

<svg
   xmlns:dc="http://purl.org/dc/elements/1.1/"
   xmlns:cc="http://creativecommons.org/ns#"
   xmlns:rdf="http://www.w3.org/1999/02/22-rdf-syntax-ns#"
   xmlns:svg="http://www.w3.org/2000/svg"
   xmlns="http://www.w3.org/2000/svg"
   xmlns:sodipodi="http://sodipodi.sourceforge.net/DTD/sodipodi-0.dtd"
   xmlns:inkscape="http://www.inkscape.org/namespaces/inkscape"
   width="1024"
   height="1024"
   viewBox="0 0 270.93333 270.93334"
   version="1.1"
   id="svg8"
   inkscape:version="0.92.3 (2405546, 2018-03-11)"
   sodipodi:docname="avatar_cheveux05col03.svg">
  <defs
     id="defs2" />
  <sodipodi:namedview
     id="base"
     pagecolor="#ffffff"
     bordercolor="#666666"
     borderopacity="1.0"
     inkscape:pageopacity="0.0"
     inkscape:pageshadow="2"
     inkscape:zoom="0.7"
     inkscape:cx="536.69376"
     inkscape:cy="523.21169"
     inkscape:document-units="mm"
     inkscape:current-layer="layer1"
     showgrid="false"
     units="px"
     showguides="true"
     inkscape:guide-bbox="true"
     inkscape:snap-global="false"
     inkscape:window-width="1920"
     inkscape:window-height="1017"
     inkscape:window-x="-8"
     inkscape:window-y="100"
     inkscape:window-maximized="1" />
  <metadata
     id="metadata5">
    <rdf:RDF>
      <cc:Work
         rdf:about="">
        <dc:format>image/svg+xml</dc:format>
        <dc:type
           rdf:resource="http://purl.org/dc/dcmitype/StillImage" />
        <dc:title></dc:title>
      </cc:Work>
    </rdf:RDF>
  </metadata>
  <g
     inkscape:label="Calque 1"
     inkscape:groupmode="layer"
     id="layer1"
     transform="translate(0,-26.06665)">
    <path
       style="fill:#ffff00;stroke:#000000;stroke-width:0.99999994px;stroke-linecap:butt;stroke-linejoin:miter;stroke-opacity:1"
       d="m 531.72182,82.780413 c -50.77602,-6.791732 -70.2924,15.772878 -101.72098,22.647877 -51.18152,11.19596 -55.71457,-1.42857 -120.00028,8.57143 -64.28572,10 -88.40395,49.23883 -112.85798,87.14258 -28.57143,44.28572 -52.85631,28.57144 -77.14202,68.57143 -26.731453,44.02829 -5.71513,71.42994 7.14202,92.85854 12.85714,21.42856 -44.285717,32.85687 -31.428573,91.42828 C 108.57115,512.57201 130,472.57089 140,528.28516 c 0,0 0.46104,0.25478 0.48047,0.26562 9.08567,-45.19245 25.8243,-85.96515 48.7026,-121.70367 22.8783,-35.73852 79.78197,-40.63813 102.68346,-75.78429 29.35863,-45.05573 54.77221,-70.17714 96.15603,-83.32122 41.38382,-13.14408 87.3093,31.40344 133.40601,31.39986 50.04507,0.0396 96.03393,-39.95872 140.68368,-26.05294 68.37861,21.29594 68.5901,59.84766 103.10957,88.91034 34.51947,29.06268 73.34692,47.20776 94.67172,87.69041 21.3248,40.48265 40.86125,90.44574 45.37013,140.28729 20.59734,-40.25079 51.49472,-43.57546 53.30776,-90.26255 2.09168,-53.86226 -35.71455,-45.71429 -51.42885,-87.14286 -15.73879,-41.49312 27.14255,-91.42857 -22.85742,-110 C 834.28514,263.99972 849.99969,183.99972 808.57115,183.99972 751.96653,183.99972 764.28489,134 721.42773,114 684.15466,96.605899 664.31076,126.79016 605.71484,105.42857 578.82989,95.627461 573.54311,88.374373 531.72182,82.780413 Z"
       transform="matrix(0.26458333,0,0,0.26458333,0,26.06665)"
       id="path2875"
       inkscape:connector-curvature="0"
       sodipodi:nodetypes="sssssssccssscssscsssssss" />
  </g>
</svg>
