<?xml version="1.0" encoding="UTF-8" standalone="no"?>
<!-- Generator: Adobe Illustrator 22.0.1, SVG Export Plug-In . SVG Version: 6.00 Build 0)  -->

<svg
   xmlns:dc="http://purl.org/dc/elements/1.1/"
   xmlns:cc="http://creativecommons.org/ns#"
   xmlns:rdf="http://www.w3.org/1999/02/22-rdf-syntax-ns#"
   xmlns:svg="http://www.w3.org/2000/svg"
   xmlns="http://www.w3.org/2000/svg"
   xmlns:sodipodi="http://sodipodi.sourceforge.net/DTD/sodipodi-0.dtd"
   xmlns:inkscape="http://www.inkscape.org/namespaces/inkscape"
   version="1.1"
   id="Layer_1"
   x="0px"
   y="0px"
   viewBox="0 0 340 340"
   style="enable-background:new 0 0 340 340;"
   xml:space="preserve"
   sodipodi:docname="avatar_corps02col03.svg"
   inkscape:version="0.92.3 (2405546, 2018-03-11)"><metadata
   id="metadata970"><rdf:RDF><cc:Work
       rdf:about=""><dc:format>image/svg+xml</dc:format><dc:type
         rdf:resource="http://purl.org/dc/dcmitype/StillImage" /><dc:title /></cc:Work></rdf:RDF></metadata><defs
   id="defs968"><linearGradient
     id="SVGID_1_-0"
     gradientUnits="userSpaceOnUse"
     x1="170"
     y1="335.72009"
     x2="170"
     y2="130.0029"><stop
       offset="0"
       style="stop-color:#D8AE5D"
       id="stop1034" /><stop
       offset="1"
       style="stop-color:#7C5059"
       id="stop1036" /></linearGradient><linearGradient
     id="SVGID_1_-5"
     gradientUnits="userSpaceOnUse"
     x1="178.8"
     y1="35.6329"
     x2="178.8"
     y2="210.7995"
     gradientTransform="matrix(1,0,0,-1,0,340)"><stop
       offset="0"
       style="stop-color:#98BBBC"
       id="stop5980" /><stop
       offset="1"
       style="stop-color:#544C7B"
       id="stop5982" /></linearGradient><linearGradient
     id="SVGID_1_-1"
     gradientUnits="userSpaceOnUse"
     x1="175.8"
     y1="338.992"
     x2="175.8"
     y2="128.20461"><stop
       offset="0"
       style="stop-color:#8ABC87"
       id="stop6642" /><stop
       offset="1"
       style="stop-color:#235C7B"
       id="stop6644" /></linearGradient><linearGradient
     id="SVGID_1_-6"
     gradientUnits="userSpaceOnUse"
     x1="178.8"
     y1="327.3316"
     x2="178.8"
     y2="134.8156"><stop
       offset="0"
       style="stop-color:#EAD29D"
       id="stop7885" /><stop
       offset="1"
       style="stop-color:#7A8469"
       id="stop7887" /></linearGradient><linearGradient
     id="SVGID_1_-3"
     gradientUnits="userSpaceOnUse"
     x1="175.5966"
     y1="319.4819"
     x2="175.5966"
     y2="127.5162"><stop
       offset="0"
       style="stop-color:#FFDCA3"
       id="stop8597" /><stop
       offset="1"
       style="stop-color:#B0815C"
       id="stop8599" /></linearGradient></defs><sodipodi:namedview
   pagecolor="#ffffff"
   bordercolor="#666666"
   borderopacity="1"
   objecttolerance="10"
   gridtolerance="10"
   guidetolerance="10"
   inkscape:pageopacity="0"
   inkscape:pageshadow="2"
   inkscape:window-width="1920"
   inkscape:window-height="1017"
   id="namedview966"
   showgrid="false"
   showguides="true"
   inkscape:guide-bbox="true"
   inkscape:zoom="1.8031223"
   inkscape:cx="54.018057"
   inkscape:cy="141.72523"
   inkscape:window-x="-8"
   inkscape:window-y="100"
   inkscape:window-maximized="1"
   inkscape:current-layer="Layer_1" />
<style
   type="text/css"
   id="style938">
	.st0{fill:url(#SVGID_1_);}
	.st1{fill:none;stroke:#221F1F;stroke-width:2.0305;stroke-miterlimit:10;}
	.st2{fill:#F4D4B8;}
	.st3{fill:#E5AB86;}
	.st4{fill:none;stroke:#221F1F;stroke-width:1.7004;stroke-miterlimit:10;}
</style>
<linearGradient
   id="SVGID_1_"
   gradientUnits="userSpaceOnUse"
   x1="175.45"
   y1="13.6521"
   x2="175.45"
   y2="208.0665"
   gradientTransform="matrix(1,0,0,-1,1544.6324,843.92441)">
	<stop
   offset="0"
   style="stop-color:#9C4A8C"
   id="stop940" />
	<stop
   offset="1"
   style="stop-color:#78270E"
   id="stop942" />
</linearGradient>










<path
   inkscape:connector-curvature="0"
   class="st1"
   d="m 562.89726,200.2306 -63.8,-13.2 c -0.2,2.5 -0.3,4.9 -0.4,5.9 -1.2,17.9 -34.5,30.2 -34.5,30.2 0,0 -31.4,-16.7 -30.2,-34.5 0,-0.4 0.1,-0.9 0.1,-1.5 l -77.9,51 6.7,15.6 200.5,-43 z"
   id="path10602"
   style="fill:none;stroke:none;stroke-width:2.03049994;stroke-miterlimit:10" /><path
   class="st0"
   d="M -49.027089,292.94161"
   id="path15479-2"
   inkscape:connector-curvature="0"
   style="fill:none;stroke:#221f1f;stroke-width:2.03049994;stroke-miterlimit:10" /><path
   style="fill:#ffcc00;stroke:none"
   d="m 199.57183,229.26093 c -0.0615,0.9625 -0.16141,2.35 -0.18359,2.83789 -1.2,17.9 -34.5,30.20118 -34.5,30.20118 0,0 -25.19544,-13.41146 -29.57227,-29.00586 l -64.12695,22.80468 15.09961,48 170.90039,9.80078 7.59961,-59.0996 z"
   id="polygon17429"
   inkscape:connector-curvature="0" /><path
   style="fill:#aa8800;stroke:none;stroke-width:2.03049994;stroke-miterlimit:10"
   d="m 199.57183,229.26093 c -0.0615,0.9625 -0.16141,2.35 -0.18359,2.83789 -1.2,17.9 -34.5,30.20118 -34.5,30.20118 0,0 -25.19544,-13.41146 -29.57227,-29.00586 l -64.12695,22.80468 3.29883,13.70118 45.30078,-14.59961 88.29883,55.79882 13.30078,-17.79882 3.19922,-17.60157 13.40039,-13.89843 25.70117,1.69921 1.09961,-8.5996 z"
   id="polygon17431"
   inkscape:connector-curvature="0" /><path
   class="st2"
   d="m 218.48826,224.29956 -18.3,-3.3 c -0.3,3.3 -0.7,9.3 -0.8,11.1 -1.2,17.9 -34.5,30.2 -34.5,30.2 0,0 -30.2,-16.1 -30.2,-33.5 l -15,6.1 -3.4,13.6 12.5,6.7 2.5,46.9 30,14 c 3.3,0.6 10,-2 10.8,6.5 l 2.2,2.5 -0.1,11.5 18.1,-7.5 6.6,-6.8 15,-29.5 7.4,-30.6 z"
   id="path17433"
   inkscape:connector-curvature="0"
   style="fill:#d45500;stroke:none" /><polygon
   class="st3"
   points="245.8,205.7 277.1,202.5 240,232.4 "
   id="polygon17435"
   transform="translate(-15.91174,-0.300446)"
   style="fill:#552200;stroke:none" /><path
   class="st3"
   d="m 233.48826,231.49956 -11.1,11.5 c 0,0 -11.5,-4.8 -11.6,-11 -0.1,-6.2 11.1,-11.4 11.1,-11.4 z"
   id="path17437"
   inkscape:connector-curvature="0"
   style="fill:#552200;stroke:none" /><path
   class="st3"
   d="m 128.88826,255.19956 c 1.1,1 21.2,32.7 21.2,32.7 0,0 -15.4,-10.6 -15.3,-11.6 0.1,-1.1 -5.9,-21.1 -5.9,-21.1 z"
   id="path17439"
   inkscape:connector-curvature="0"
   style="fill:#552200;stroke:none" /><path
   class="st3"
   d="m 163.58826,287.59956 c 11.1,0.1 30.8,-6.4 37.1,-13.4 6.3,-7 14.6,-18.1 15,-22.9 0.4,-4.8 2.7,10.2 -4.8,17.7 -7.6,7.5 -9.8,16.1 -15,17.9 -5.2,1.8 -3.6,7.3 -2.5,5.2 1.1,-2.1 14.9,-8.2 14.9,-8.2 0,0 -3.2,9 -4.2,11 -1.1,2.1 -10.8,13.4 -16.7,16.9 -5.8,3.5 -5.2,2.5 2,-5.5 7.1,-8 11.5,-8.6 9.4,-9.6 -2.1,-1 -6.1,-4.8 -6.1,-4.8 0,0 -14.7,8.7 -10.6,4.1 4.1,-4.5 11.1,-11.9 11.1,-11.9 0,0 -1.9,2.1 -7.1,2.9 -5.1,0.9 -22.5,0.6 -22.5,0.6 z"
   id="path17441"
   inkscape:connector-curvature="0"
   style="fill:#552200;stroke:none" /><path
   class="st3"
   d="m 150.58826,292.89956 c 13.4,11.7 30,8.6 26.1,12.1 -3.9,3.5 -14.2,4.6 -16.3,4.1 -2.1,-0.5 -9.8,-16.2 -9.8,-16.2 z"
   id="path17443"
   inkscape:connector-curvature="0"
   style="fill:#552200;stroke:none" /><path
   class="st3"
   d="m 181.08826,323.69956 c -3.7,4.5 2.4,2.4 2.3,1.4 -0.1,-1 -1.5,-2.6 9.1,-8.5 -9.2,-1.2 -11.4,7.1 -11.4,7.1 z"
   id="path17445"
   inkscape:connector-curvature="0"
   style="fill:#552200;stroke:none" /><polygon
   class="st2"
   points="268.1,223.7 284.1,249.6 240.5,228.8 "
   id="polygon17447"
   transform="translate(-15.91174,-0.300446)"
   style="fill:#ff6600;stroke:none" /></svg>