<?xml version="1.0" encoding="UTF-8" standalone="no"?>
<!-- Generator: Adobe Illustrator 22.0.1, SVG Export Plug-In . SVG Version: 6.00 Build 0)  -->

<svg
   xmlns:dc="http://purl.org/dc/elements/1.1/"
   xmlns:cc="http://creativecommons.org/ns#"
   xmlns:rdf="http://www.w3.org/1999/02/22-rdf-syntax-ns#"
   xmlns:svg="http://www.w3.org/2000/svg"
   xmlns="http://www.w3.org/2000/svg"
   xmlns:sodipodi="http://sodipodi.sourceforge.net/DTD/sodipodi-0.dtd"
   xmlns:inkscape="http://www.inkscape.org/namespaces/inkscape"
   version="1.1"
   id="Layer_1"
   x="0px"
   y="0px"
   viewBox="0 0 340 340"
   style="enable-background:new 0 0 340 340;"
   xml:space="preserve"
   sodipodi:docname="avatar_cheveux03col03.svg"
   inkscape:version="0.92.3 (2405546, 2018-03-11)"><metadata
   id="metadata970"><rdf:RDF><cc:Work
       rdf:about=""><dc:format>image/svg+xml</dc:format><dc:type
         rdf:resource="http://purl.org/dc/dcmitype/StillImage" /><dc:title></dc:title></cc:Work></rdf:RDF></metadata><defs
   id="defs968"><linearGradient
     id="SVGID_1_-0"
     gradientUnits="userSpaceOnUse"
     x1="170"
     y1="335.72009"
     x2="170"
     y2="130.0029"><stop
       offset="0"
       style="stop-color:#D8AE5D"
       id="stop1034" /><stop
       offset="1"
       style="stop-color:#7C5059"
       id="stop1036" /></linearGradient><linearGradient
     id="SVGID_1_-5"
     gradientUnits="userSpaceOnUse"
     x1="178.8"
     y1="35.6329"
     x2="178.8"
     y2="210.7995"
     gradientTransform="matrix(1,0,0,-1,0,340)"><stop
       offset="0"
       style="stop-color:#98BBBC"
       id="stop5980" /><stop
       offset="1"
       style="stop-color:#544C7B"
       id="stop5982" /></linearGradient><linearGradient
     id="SVGID_1_-1"
     gradientUnits="userSpaceOnUse"
     x1="175.8"
     y1="338.992"
     x2="175.8"
     y2="128.20461"><stop
       offset="0"
       style="stop-color:#8ABC87"
       id="stop6642" /><stop
       offset="1"
       style="stop-color:#235C7B"
       id="stop6644" /></linearGradient><linearGradient
     id="SVGID_1_-6"
     gradientUnits="userSpaceOnUse"
     x1="178.8"
     y1="327.3316"
     x2="178.8"
     y2="134.8156"><stop
       offset="0"
       style="stop-color:#EAD29D"
       id="stop7885" /><stop
       offset="1"
       style="stop-color:#7A8469"
       id="stop7887" /></linearGradient><linearGradient
     id="SVGID_1_-3"
     gradientUnits="userSpaceOnUse"
     x1="175.5966"
     y1="319.4819"
     x2="175.5966"
     y2="127.5162"><stop
       offset="0"
       style="stop-color:#FFDCA3"
       id="stop8597" /><stop
       offset="1"
       style="stop-color:#B0815C"
       id="stop8599" /></linearGradient></defs><sodipodi:namedview
   pagecolor="#ffffff"
   bordercolor="#666666"
   borderopacity="1"
   objecttolerance="10"
   gridtolerance="10"
   guidetolerance="10"
   inkscape:pageopacity="0"
   inkscape:pageshadow="2"
   inkscape:window-width="1920"
   inkscape:window-height="1017"
   id="namedview966"
   showgrid="false"
   showguides="true"
   inkscape:guide-bbox="true"
   inkscape:zoom="1.8031223"
   inkscape:cx="155.23138"
   inkscape:cy="141.72523"
   inkscape:window-x="-8"
   inkscape:window-y="100"
   inkscape:window-maximized="1"
   inkscape:current-layer="Layer_1" />
<style
   type="text/css"
   id="style938">
	.st0{fill:url(#SVGID_1_);}
	.st1{fill:none;stroke:#221F1F;stroke-width:2.0305;stroke-miterlimit:10;}
	.st2{fill:#F4D4B8;}
	.st3{fill:#E5AB86;}
	.st4{fill:none;stroke:#221F1F;stroke-width:1.7004;stroke-miterlimit:10;}
</style>
<linearGradient
   id="SVGID_1_"
   gradientUnits="userSpaceOnUse"
   x1="175.45"
   y1="13.6521"
   x2="175.45"
   y2="208.0665"
   gradientTransform="matrix(1,0,0,-1,1093.4114,749.9952)">
	<stop
   offset="0"
   style="stop-color:#9C4A8C"
   id="stop940" />
	<stop
   offset="1"
   style="stop-color:#78270E"
   id="stop942" />
</linearGradient>










<path
   inkscape:connector-curvature="0"
   class="st1"
   d="m 562.89726,200.2306 -63.8,-13.2 c -0.2,2.5 -0.3,4.9 -0.4,5.9 -1.2,17.9 -34.5,30.2 -34.5,30.2 0,0 -31.4,-16.7 -30.2,-34.5 0,-0.4 0.1,-0.9 0.1,-1.5 l -77.9,51 6.7,15.6 200.5,-43 z"
   id="path10602"
   style="fill:none;stroke:none;stroke-width:2.03049994;stroke-miterlimit:10" /><path
   inkscape:connector-curvature="0"
   class="st0"
   d="m 290.78824,89.8 -15.7,-29.8 -26.2,-3 -10.1,-22.5 -19.6,-19.299999 -30.4,7.3 -13.9,-7.7 -29.7,-2.5 -36,25.499999 -27.4,12.6 -25,28.1 5.6,35.7 -10.1,21.4 c 0,0 12.1,12.2 13,12.6 -1.6,1.5 -7.4,9.5 -7.4,9.5 l 5.5,25.4 13,11 4.5,11.2 19.2,12.1 34.9,5.9 c 0.1,-1.6 0.2,-3.5 0.4,-5 -6.8,-5.8 -11.8,-10.8 -11.8,-10.8 0,0 -11.4,-32 -11.1,-60.7 -0.1,-2.9 -0.1,-5.8 0,-8.6 2.7,-1 4.6,-3.8 4.6,-7.1 0,-2.7 -1.3,-4.9 -3.2,-6.2 3.1,-1.2 5.3,-4.4 5.3,-8.2 0,-0.5 -0.1,-1 -0.1,-1.5 2.9,-0.6 5.2,-3.3 5.2,-6.7 0,-0.8 -0.2,-1.5 -0.4,-2.3 0.5,0.1 1.1,0.2 1.6,0.2 5.5,0 10.2,-4.3 11.2,-10.1 0.5,0.2 1,0.4 1.6,0.4 1.7,0 3.2,-0.9 4.3,-2.2 2.6,2.8 6.2,4.6 10.1,4.6 6.6,0 12.2,-4.9 13.9,-11.6 0.4,0 0.8,-0.1 1.1,-0.3 1.1,3.1 3.9,5.4 7.1,5.4 2.2,0 4.1,-1 5.5,-2.6 0.9,1.3 2.3,2.2 3.9,2.2 0.5,0 0.9,-0.2 1.3,-0.3 1.6,2.8 4.3,4.7 7.6,4.7 0.9,0 1.7,-0.2 2.5,-0.5 -0.2,0.6 -0.3,1.1 -0.3,1.7 0,3.2 2.3,5.7 5.2,5.7 1.4,0 2.6,-0.6 3.6,-1.6 0.6,3.2 2.9,5.6 5.8,6.2 -0.5,1 -0.7,2.2 -0.7,3.4 0,4.5 3.3,8.1 7.3,8.1 0.8,0 1.5,-0.2 2.2,-0.4 0.1,3.3 2.5,5.9 5.5,5.9 1.5,0 2.8,-0.7 3.8,-1.7 0.3,1.2 0.8,2.4 1.4,3.4 -0.5,0.7 -0.9,1.7 -0.9,2.7 0,2.1 1.4,3.8 3.2,4.2 -0.3,6.8 -1,13.7 -2.1,20.7 -3.5,28.5 -19.1,58.7 -19.1,58.7 0,0 -4.3,3.3 -10.4,7.3 -0.1,0.9 -0.2,2.1 -0.3,3.3 8,-2 15.9,-4.4 21.3,-7.4 0.3,-0.3 7,2.9 7,2.9 l 36.9,-16 14.5,-45.8 7.3,-22.3 -2.2,-15 z m -177.9,78.2 c 0.4,4.4 -7.1,8.8 -7.1,8.8 l -17.4,-22.3 10.1,-12.6 c 0,0 11.9,3.8 12.6,10.1 0.4,3.6 1.5,12.8 1.8,16 z m 124.7,8.5 c 0,0 -7.7,-4.1 -7.4,-8.5 0.2,-3.1 0.8,-12.3 1.1,-16 0.4,-6.3 12.1,-10.6 12.1,-10.6 l 10.6,12.1 z"
   id="path13641"
   style="fill:#ffcc00;stroke:none" /></svg>