<?xml version="1.0" encoding="UTF-8" standalone="no"?>
<!-- Generator: Adobe Illustrator 22.0.1, SVG Export Plug-In . SVG Version: 6.00 Build 0)  -->

<svg
   xmlns:dc="http://purl.org/dc/elements/1.1/"
   xmlns:cc="http://creativecommons.org/ns#"
   xmlns:rdf="http://www.w3.org/1999/02/22-rdf-syntax-ns#"
   xmlns:svg="http://www.w3.org/2000/svg"
   xmlns="http://www.w3.org/2000/svg"
   xmlns:sodipodi="http://sodipodi.sourceforge.net/DTD/sodipodi-0.dtd"
   xmlns:inkscape="http://www.inkscape.org/namespaces/inkscape"
   version="1.1"
   id="Layer_1"
   x="0px"
   y="0px"
   viewBox="0 0 340 340"
   style="enable-background:new 0 0 340 340;"
   xml:space="preserve"
   sodipodi:docname="avatar_cheveux07col02.svg"
   inkscape:version="0.92.3 (2405546, 2018-03-11)"><metadata
   id="metadata970"><rdf:RDF><cc:Work
       rdf:about=""><dc:format>image/svg+xml</dc:format><dc:type
         rdf:resource="http://purl.org/dc/dcmitype/StillImage" /><dc:title></dc:title></cc:Work></rdf:RDF></metadata><defs
   id="defs968"><linearGradient
     id="SVGID_1_-0"
     gradientUnits="userSpaceOnUse"
     x1="170"
     y1="335.72009"
     x2="170"
     y2="130.0029"><stop
       offset="0"
       style="stop-color:#D8AE5D"
       id="stop1034" /><stop
       offset="1"
       style="stop-color:#7C5059"
       id="stop1036" /></linearGradient><linearGradient
     id="SVGID_1_-5"
     gradientUnits="userSpaceOnUse"
     x1="178.8"
     y1="35.6329"
     x2="178.8"
     y2="210.7995"
     gradientTransform="matrix(1,0,0,-1,0,340)"><stop
       offset="0"
       style="stop-color:#98BBBC"
       id="stop5980" /><stop
       offset="1"
       style="stop-color:#544C7B"
       id="stop5982" /></linearGradient><linearGradient
     id="SVGID_1_-1"
     gradientUnits="userSpaceOnUse"
     x1="175.8"
     y1="338.992"
     x2="175.8"
     y2="128.20461"><stop
       offset="0"
       style="stop-color:#8ABC87"
       id="stop6642" /><stop
       offset="1"
       style="stop-color:#235C7B"
       id="stop6644" /></linearGradient><linearGradient
     id="SVGID_1_-6"
     gradientUnits="userSpaceOnUse"
     x1="178.8"
     y1="327.3316"
     x2="178.8"
     y2="134.8156"><stop
       offset="0"
       style="stop-color:#EAD29D"
       id="stop7885" /><stop
       offset="1"
       style="stop-color:#7A8469"
       id="stop7887" /></linearGradient><linearGradient
     id="SVGID_1_-3"
     gradientUnits="userSpaceOnUse"
     x1="175.5966"
     y1="319.4819"
     x2="175.5966"
     y2="127.5162"><stop
       offset="0"
       style="stop-color:#FFDCA3"
       id="stop8597" /><stop
       offset="1"
       style="stop-color:#B0815C"
       id="stop8599" /></linearGradient></defs><sodipodi:namedview
   pagecolor="#ffffff"
   bordercolor="#666666"
   borderopacity="1"
   objecttolerance="10"
   gridtolerance="10"
   guidetolerance="10"
   inkscape:pageopacity="0"
   inkscape:pageshadow="2"
   inkscape:window-width="1920"
   inkscape:window-height="1017"
   id="namedview966"
   showgrid="false"
   showguides="true"
   inkscape:guide-bbox="true"
   inkscape:zoom="1.8031223"
   inkscape:cx="155.23138"
   inkscape:cy="141.72523"
   inkscape:window-x="-8"
   inkscape:window-y="100"
   inkscape:window-maximized="1"
   inkscape:current-layer="Layer_1" />
<style
   type="text/css"
   id="style938">
	.st0{fill:url(#SVGID_1_);}
	.st1{fill:none;stroke:#221F1F;stroke-width:2.0305;stroke-miterlimit:10;}
	.st2{fill:#F4D4B8;}
	.st3{fill:#E5AB86;}
	.st4{fill:none;stroke:#221F1F;stroke-width:1.7004;stroke-miterlimit:10;}
</style>
<linearGradient
   id="SVGID_1_"
   gradientUnits="userSpaceOnUse"
   x1="175.45"
   y1="13.6521"
   x2="175.45"
   y2="208.0665"
   gradientTransform="matrix(1,0,0,-1,1544.6324,843.92441)">
	<stop
   offset="0"
   style="stop-color:#9C4A8C"
   id="stop940" />
	<stop
   offset="1"
   style="stop-color:#78270E"
   id="stop942" />
</linearGradient>

<path
   class="st1"
   d="M 175.18824,158"
   id="path947"
   inkscape:connector-curvature="0"
   style="fill:none;stroke:#221f1f;stroke-width:2.03049994;stroke-miterlimit:10" />


<path
   class="st4"
   d="M 170.58824,153.1"
   id="path953"
   inkscape:connector-curvature="0"
   style="fill:none;stroke:#221f1f;stroke-width:1.70039999;stroke-miterlimit:10" />
<path
   class="st1"
   d="M 155.28824,133.3"
   id="path955"
   inkscape:connector-curvature="0"
   style="fill:none;stroke:#221f1f;stroke-width:2.03049994;stroke-miterlimit:10" />
<path
   class="st4"
   d="M 169.58824,153.1"
   id="path957"
   inkscape:connector-curvature="0"
   style="fill:none;stroke:#221f1f;stroke-width:1.70039999;stroke-miterlimit:10" />



<path
   class="st1"
   d="M 175.18824,158"
   id="path1041"
   inkscape:connector-curvature="0"
   style="fill:none;stroke:#221f1f;stroke-width:2.03049994;stroke-miterlimit:10" /><path
   class="st4"
   d="M 170.58824,153.1"
   id="path1047"
   inkscape:connector-curvature="0"
   style="fill:none;stroke:#221f1f;stroke-width:1.70039999;stroke-miterlimit:10" /><path
   class="st1"
   d="M 155.28824,133.3"
   id="path1049"
   inkscape:connector-curvature="0"
   style="fill:none;stroke:#221f1f;stroke-width:2.03049994;stroke-miterlimit:10" /><path
   class="st4"
   d="M 169.58824,153.1"
   id="path1051"
   inkscape:connector-curvature="0"
   style="fill:none;stroke:#221f1f;stroke-width:1.70039999;stroke-miterlimit:10" /><path
   class="st1"
   d="M 175.18824,158"
   id="path5987"
   inkscape:connector-curvature="0"
   style="fill:none;stroke:#221f1f;stroke-width:2.03049994;stroke-miterlimit:10" /><path
   class="st4"
   d="M 170.58824,153.1"
   id="path5993"
   inkscape:connector-curvature="0"
   style="fill:none;stroke:#221f1f;stroke-width:1.70039999;stroke-miterlimit:10" /><path
   class="st1"
   d="M 155.28824,133.3"
   id="path5995"
   inkscape:connector-curvature="0"
   style="fill:none;stroke:#221f1f;stroke-width:2.03049994;stroke-miterlimit:10" /><path
   class="st4"
   d="M 169.58824,153.1"
   id="path5997"
   inkscape:connector-curvature="0"
   style="fill:none;stroke:#221f1f;stroke-width:1.70039999;stroke-miterlimit:10" /><path
   inkscape:connector-curvature="0"
   class="st1"
   d="M 175.18824,158"
   id="path6649"
   style="fill:none;stroke:#221f1f;stroke-width:2.03049994;stroke-miterlimit:10" /><path
   inkscape:connector-curvature="0"
   class="st4"
   d="M 170.58824,153.1"
   id="path6655"
   style="fill:none;stroke:#221f1f;stroke-width:1.70039999;stroke-miterlimit:10" /><path
   inkscape:connector-curvature="0"
   class="st1"
   d="M 155.28824,133.3"
   id="path6657"
   style="fill:none;stroke:#221f1f;stroke-width:2.03049994;stroke-miterlimit:10" /><path
   inkscape:connector-curvature="0"
   class="st4"
   d="M 169.58824,153.1"
   id="path6659"
   style="fill:none;stroke:#221f1f;stroke-width:1.70039999;stroke-miterlimit:10" /><path
   class="st1"
   d="M 175.18824,158"
   id="path7892"
   inkscape:connector-curvature="0"
   style="fill:none;stroke:#221f1f;stroke-width:2.03049994;stroke-miterlimit:10" /><path
   class="st4"
   d="M 170.58824,153.1"
   id="path7898"
   inkscape:connector-curvature="0"
   style="fill:none;stroke:#221f1f;stroke-width:1.70039999;stroke-miterlimit:10" /><path
   class="st1"
   d="M 155.28824,133.3"
   id="path7900"
   inkscape:connector-curvature="0"
   style="fill:none;stroke:#221f1f;stroke-width:2.03049994;stroke-miterlimit:10" /><path
   class="st4"
   d="M 169.58824,153.1"
   id="path7902"
   inkscape:connector-curvature="0"
   style="fill:none;stroke:#221f1f;stroke-width:1.70039999;stroke-miterlimit:10" /><path
   class="st1"
   d="M 175.18824,158"
   id="path9266"
   inkscape:connector-curvature="0"
   style="fill:none;stroke:#221f1f;stroke-width:2.03049994;stroke-miterlimit:10" /><path
   class="st4"
   d="M 170.58824,153.1"
   id="path9272"
   inkscape:connector-curvature="0"
   style="fill:none;stroke:#221f1f;stroke-width:1.70039999;stroke-miterlimit:10" /><path
   class="st1"
   d="M 155.28824,133.3"
   id="path9274"
   inkscape:connector-curvature="0"
   style="fill:none;stroke:#221f1f;stroke-width:2.03049994;stroke-miterlimit:10" /><path
   class="st4"
   d="M 169.58824,153.1"
   id="path9276"
   inkscape:connector-curvature="0"
   style="fill:none;stroke:#221f1f;stroke-width:1.70039999;stroke-miterlimit:10" /><path
   class="st0"
   d="M 170.48824,153.4"
   id="path9955"
   inkscape:connector-curvature="0"
   style="fill:none;stroke:none;stroke-width:1.70039999;stroke-miterlimit:10" /><path
   class="st1"
   d="M 169.58824,153.1"
   id="path11215"
   inkscape:connector-curvature="0"
   style="fill:none;stroke:none;stroke-width:1.70039999;stroke-miterlimit:10" /><path
   inkscape:connector-curvature="0"
   class="st0"
   d="M 155.28824,133.3"
   id="path15479"
   style="fill:#cccccc;stroke:none" /><path
   class="st0"
   d="M -49.027089,292.94161"
   id="path15479-2"
   inkscape:connector-curvature="0"
   style="fill:none;stroke:#221f1f;stroke-width:2.03049994;stroke-miterlimit:10" /><path
   inkscape:connector-curvature="0"
   class="st0"
   d="M 155.28824,141.3"
   id="path14881"
   style="fill:url(#SVGID_1_);stroke:none" /><g
   transform="matrix(0.99123865,0,0,1,-14.784902,-1.4190473)"
   id="g16753"
   style="fill:#550000"><path
     inkscape:connector-curvature="0"
     class="st0"
     d="m 248.7,145.6 c 0.4,-4.5 0.7,-9.2 1,-14.1 2.4,-28.8 -16.2,-74.4 -16.2,-74.4 L 186.8,38.7 135.3,63.1 c 0,0 -13.6,42.7 -11.4,68.4 0.3,5.5 0.7,10.8 1.1,15.8 9.9,-10.3 21.5,-34.6 61.8,-34.6 40.2,0 54.4,25.2 61.9,32.9 z"
     id="path16751"
     style="fill:#550000" /></g><path
   inkscape:connector-curvature="0"
   class="st1"
   d="m 170.37848,61.680953 -49.06631,21.8 c 0,0 -12.39049,25.499997 -13.57997,41.399997 0.0991,1.8 0.19824,3.5 0.39649,5.3 0.29737,5.5 0.69387,10.8 1.09037,15.8 9.81326,-10.3 21.31163,-34.6 61.25854,-34.6 39.8478,0 54.02251,25.2 61.35768,32.9 0.39649,-4.5 0.69386,-9.2 0.99123,-14.1 0.19825,-1.8 0.19825,-3.5 0.3965,-5.3 -1.18949,-16.4 -14.47208,-42.399997 -14.47208,-42.399997 z"
   id="path16755"
   style="fill:#aa0000;stroke:none;stroke-width:2.02158546;stroke-miterlimit:10" /><path
   inkscape:connector-curvature="0"
   class="st0"
   d="m 170.37848,111.28095 42.82151,13.6 c 0,0 14.76946,15.5 18.53616,19.3 0,-0.5 0.0991,-1.2 0.0991,-1.7 -2.37898,-14.5 -17.14843,-36.7 -17.14843,-36.7 l -44.30837,-16.399997 -52.3374,26.399997 c 0,0 -7.63254,16.9 -9.21852,26.7 0.0991,1.1 0.19825,2.3 0.29737,3.4 4.36145,-4.6 16.45456,-18.6 16.45456,-18.6 z"
   id="path16757"
   style="fill:#550000;fill-opacity:1;stroke-width:0.9956097" /><g
   transform="matrix(0.99123865,0,0,1,-14.784902,-1.4190473)"
   id="g16763"
   style="fill:#550000;fill-opacity:1"><path
     inkscape:connector-curvature="0"
     class="st0"
     d="m 237.7,132.2 c 0.7,9.8 1,21.2 0,33.8 -1.1,14.9 -3.6,28 -6.4,38.9 12.4,-22 15.4,-41.7 16.7,-57.6 0.1,-0.8 0,-1.6 0,-2.3 -2.6,-3 -6,-7.7 -10.3,-12.8 z"
     id="path16759"
     style="fill:#550000;fill-opacity:1" /><path
     inkscape:connector-curvature="0"
     class="st0"
     d="m 125.5,146.5 c 0,0.2 0,0.3 0,0.5 1.4,26.7 5.1,43.8 12.5,55.7 -1.9,-11.2 -3.9,-21.1 -3.7,-36.6 0.2,-12.7 1.5,-24 3.1,-33.6 -2.1,2.5 -2.1,2.5 -11.9,14 z"
     id="path16761"
     style="fill:#550000;fill-opacity:1" /></g></svg>