<?xml version="1.0" encoding="UTF-8" standalone="no"?>
<!-- Created with Inkscape (http://www.inkscape.org/) -->

<svg
   xmlns:dc="http://purl.org/dc/elements/1.1/"
   xmlns:cc="http://creativecommons.org/ns#"
   xmlns:rdf="http://www.w3.org/1999/02/22-rdf-syntax-ns#"
   xmlns:svg="http://www.w3.org/2000/svg"
   xmlns="http://www.w3.org/2000/svg"
   xmlns:sodipodi="http://sodipodi.sourceforge.net/DTD/sodipodi-0.dtd"
   xmlns:inkscape="http://www.inkscape.org/namespaces/inkscape"
   width="1024"
   height="1024"
   viewBox="0 0 270.93333 270.93334"
   version="1.1"
   id="svg8"
   inkscape:version="0.92.3 (2405546, 2018-03-11)"
   sodipodi:docname="avatar_lunettes02col03.svg">
  <defs
     id="defs2" />
  <sodipodi:namedview
     id="base"
     pagecolor="#ffffff"
     bordercolor="#666666"
     borderopacity="1.0"
     inkscape:pageopacity="0.0"
     inkscape:pageshadow="2"
     inkscape:zoom="0.98994949"
     inkscape:cx="383.02171"
     inkscape:cy="492.4827"
     inkscape:document-units="mm"
     inkscape:current-layer="layer1"
     showgrid="false"
     units="px"
     showguides="true"
     inkscape:guide-bbox="true"
     inkscape:snap-global="false"
     inkscape:window-width="1920"
     inkscape:window-height="1017"
     inkscape:window-x="-8"
     inkscape:window-y="100"
     inkscape:window-maximized="1" />
  <metadata
     id="metadata5">
    <rdf:RDF>
      <cc:Work
         rdf:about="">
        <dc:format>image/svg+xml</dc:format>
        <dc:type
           rdf:resource="http://purl.org/dc/dcmitype/StillImage" />
        <dc:title></dc:title>
      </cc:Work>
    </rdf:RDF>
  </metadata>
  <g
     inkscape:label="Calque 1"
     inkscape:groupmode="layer"
     id="layer1"
     transform="translate(0,-26.06665)">
    <path
       style="fill:#f2f2f2;stroke:#000000;stroke-width:0.79374999;stroke-linecap:butt;stroke-linejoin:miter;stroke-miterlimit:5.34399986;stroke-dasharray:none;stroke-opacity:1"
       d="m 89.321985,135.34122 c -5.55105,-0.0308 -15.99476,1.42921 -21.05637,2.31473 -17.307471,4.31081 -25.371238,9.19659 -25.371238,9.19659 l -3.12374,6.88691 c 8.279202,-4.44321 19.690082,-6.89915 27.659668,-5.83156 l -0.88099,24.42532 c 0,0 8.61318,7.97932 26.72396,10.24124 20.028045,2.50138 31.535015,-2.32028 31.535015,-2.32028 l 4.87815,-31.27089 8.14488,-1.31677 8.16628,1.51986 5.42664,31.26986 c 0,0 11.53927,4.82159 31.62288,2.32027 18.16102,-2.26187 26.79785,-10.24123 26.79785,-10.24123 l -1.41863,-24.42429 c 11.01446,-2.20141 19.42471,3.01101 27.3468,7.0762 l -3.40031,-6.88691 c 0,0 -7.06959,-8.66551 -26.6877,-11.46445 -23.20296,-4.048 -59.2426,3.48235 -59.2426,3.48235 l -8.16684,-0.68187 -9.03315,0.47827 c 0,0 -20.09535,-4.66329 -39.920555,-4.77335 z m 0.2682,6.24199 c 20.085325,-0.0629 32.381485,7.58817 32.381485,7.58817 l -3.28032,23.4476 c 0,0 -9.2573,5.32716 -23.371175,3.21324 -14.21394,-2.1289 -21.2323,-8.2796 -21.2323,-8.2796 l 0.40814,-20.09535 c 0,0 2.18362,-4.38568 4.62815,-5.15627 3.68406,-0.49076 7.17933,-0.70749 10.46602,-0.71779 z m 96.614775,0.20309 c 3.29581,0.0103 6.80068,0.22704 10.49497,0.71779 2.4513,0.77057 4.64106,5.15627 4.64106,5.15627 l 0.94475,20.09484 c 0,0 -7.03836,6.15023 -21.29173,8.27908 -14.15304,2.11387 -23.43578,-3.21324 -23.43578,-3.21324 l -3.82467,-23.44657 c 0,0 12.33036,-7.65107 32.4714,-7.58817 z"
       id="path1051"
       inkscape:connector-curvature="0"
       sodipodi:nodetypes="scccccscccccsccccccccssccscccsscccsccs" />
  </g>
</svg>
