<?xml version="1.0" encoding="UTF-8" standalone="no"?>
<!-- Generator: Adobe Illustrator 22.0.1, SVG Export Plug-In . SVG Version: 6.00 Build 0)  -->

<svg
   xmlns:dc="http://purl.org/dc/elements/1.1/"
   xmlns:cc="http://creativecommons.org/ns#"
   xmlns:rdf="http://www.w3.org/1999/02/22-rdf-syntax-ns#"
   xmlns:svg="http://www.w3.org/2000/svg"
   xmlns="http://www.w3.org/2000/svg"
   xmlns:sodipodi="http://sodipodi.sourceforge.net/DTD/sodipodi-0.dtd"
   xmlns:inkscape="http://www.inkscape.org/namespaces/inkscape"
   version="1.1"
   id="Layer_1"
   x="0px"
   y="0px"
   viewBox="0 0 340 340"
   style="enable-background:new 0 0 340 340;"
   xml:space="preserve"
   sodipodi:docname="avatar_tete01col04.svg"
   inkscape:version="0.92.3 (2405546, 2018-03-11)"><metadata
   id="metadata970"><rdf:RDF><cc:Work
       rdf:about=""><dc:format>image/svg+xml</dc:format><dc:type
         rdf:resource="http://purl.org/dc/dcmitype/StillImage" /><dc:title /></cc:Work></rdf:RDF></metadata><defs
   id="defs968"><linearGradient
     id="SVGID_1_-0"
     gradientUnits="userSpaceOnUse"
     x1="170"
     y1="335.72009"
     x2="170"
     y2="130.0029"><stop
       offset="0"
       style="stop-color:#D8AE5D"
       id="stop1034" /><stop
       offset="1"
       style="stop-color:#7C5059"
       id="stop1036" /></linearGradient><linearGradient
     id="SVGID_1_-5"
     gradientUnits="userSpaceOnUse"
     x1="178.8"
     y1="35.6329"
     x2="178.8"
     y2="210.7995"
     gradientTransform="matrix(1,0,0,-1,0,340)"><stop
       offset="0"
       style="stop-color:#98BBBC"
       id="stop5980" /><stop
       offset="1"
       style="stop-color:#544C7B"
       id="stop5982" /></linearGradient><linearGradient
     id="SVGID_1_-1"
     gradientUnits="userSpaceOnUse"
     x1="175.8"
     y1="338.992"
     x2="175.8"
     y2="128.20461"><stop
       offset="0"
       style="stop-color:#8ABC87"
       id="stop6642" /><stop
       offset="1"
       style="stop-color:#235C7B"
       id="stop6644" /></linearGradient><linearGradient
     id="SVGID_1_-6"
     gradientUnits="userSpaceOnUse"
     x1="178.8"
     y1="327.3316"
     x2="178.8"
     y2="134.8156"><stop
       offset="0"
       style="stop-color:#EAD29D"
       id="stop7885" /><stop
       offset="1"
       style="stop-color:#7A8469"
       id="stop7887" /></linearGradient></defs><sodipodi:namedview
   pagecolor="#ffffff"
   bordercolor="#666666"
   borderopacity="1"
   objecttolerance="10"
   gridtolerance="10"
   guidetolerance="10"
   inkscape:pageopacity="0"
   inkscape:pageshadow="2"
   inkscape:window-width="1920"
   inkscape:window-height="1017"
   id="namedview966"
   showgrid="false"
   showguides="true"
   inkscape:guide-bbox="true"
   inkscape:zoom="1.8031223"
   inkscape:cx="155.23138"
   inkscape:cy="141.72523"
   inkscape:window-x="-8"
   inkscape:window-y="100"
   inkscape:window-maximized="1"
   inkscape:current-layer="Layer_1"><sodipodi:guide
     position="170.58824,234.90196"
     orientation="1,0"
     id="guide972"
     inkscape:locked="false" /><sodipodi:guide
     position="95.944685,168.04185"
     orientation="0,1"
     id="guide987"
     inkscape:locked="false" /></sodipodi:namedview>
<style
   type="text/css"
   id="style938">
	.st0{fill:url(#SVGID_1_);}
	.st1{fill:none;stroke:#221F1F;stroke-width:2.0305;stroke-miterlimit:10;}
	.st2{fill:#F4D4B8;}
	.st3{fill:#E5AB86;}
	.st4{fill:none;stroke:#221F1F;stroke-width:1.7004;stroke-miterlimit:10;}
</style>
<linearGradient
   id="SVGID_1_"
   gradientUnits="userSpaceOnUse"
   x1="175.45"
   y1="13.6521"
   x2="175.45"
   y2="208.0665"
   gradientTransform="matrix(1,0,0,-1,0,342)">
	<stop
   offset="0"
   style="stop-color:#9C4A8C"
   id="stop940" />
	<stop
   offset="1"
   style="stop-color:#78270E"
   id="stop942" />
</linearGradient>

<path
   class="st2"
   d="m 135.58824,215 c -0.1,2.2 -0.7,10.6 -0.9,12.8 -1.2,17.8 30.2,34.5 30.2,34.5 0,0 33.3,-12.3 34.5,-30.2 0.1,-2.2 0.7,-10.6 0.9,-12.8 z"
   id="path7894"
   inkscape:connector-curvature="0"
   style="fill:#a56951" /><path
   class="st3"
   d="m 135.58824,215 c -0.1,2.2 -0.7,10.6 -0.9,12.8 22.7,25.9 37.4,28.1 64.6,4.3 0.1,-2.2 0.7,-10.6 0.9,-12.8 z"
   id="path7896"
   inkscape:connector-curvature="0"
   style="fill:#754133" /><path
   class="st2"
   d="m 111.08824,152 c -0.7,-6.3 -12.6,-10.1 -12.6,-10.1 l -10.1,12.6 17.4,22.3 c 0,0 7.5,-4.4 7.1,-8.8 -0.3,-3.2 -1.4,-12.4 -1.8,-16 z"
   id="path7904"
   inkscape:connector-curvature="0"
   style="fill:#a56951" /><path
   class="st2"
   d="m 231.28824,152 c 0.4,-6.3 12.1,-10.6 12.1,-10.6 l 10.6,12.1 -16.4,23 c 0,0 -7.7,-4.1 -7.4,-8.5 0.2,-3.1 0.8,-12.3 1.1,-16 z"
   id="path7906"
   inkscape:connector-curvature="0"
   style="fill:#a56951" /><path
   class="st2"
   d="m 176.68824,67.200003 c -54.8,-1.3 -65.1,37.999997 -64.2,79.699997 -0.3,28.7 11.1,60.7 11.1,60.7 0,0 28.8,28.5 41.7,29.4 12.9,0.9 45.3,-23.5 45.3,-23.5 0,0 15.6,-30.2 19.1,-58.7 6.4,-41.19999 1.5,-81.599997 -53,-87.599997 z m 5.2,109.199997 c -2.2,3 -5.3,5 -8.7,6 -3.5,0.9 -7.2,0.8 -10.4,-0.3 1.7,0 3.4,-0.1 5,-0.4 1.6,-0.2 3.2,-0.7 4.7,-1.2 2.8,-1.1 5.4,-2.8 7.4,-4.8 -0.8,-1.1 -1.4,-2.3 -2,-3.5 -0.6,-1.4 -1.1,-3.1 -0.8,-4.6 0.2,1.5 1.1,2.8 1.9,4.1 0.8,1.2 1.8,2.4 2.8,3.5 l 0.5,0.6 z"
   id="path7908"
   inkscape:connector-curvature="0"
   style="fill:#a56951" /><path
   class="st1"
   d="M 175.18824,158"
   id="path947"
   inkscape:connector-curvature="0"
   style="fill:none;stroke:#221f1f;stroke-width:2.03049994;stroke-miterlimit:10" />


<path
   class="st4"
   d="M 170.58824,153.1"
   id="path953"
   inkscape:connector-curvature="0"
   style="fill:none;stroke:#221f1f;stroke-width:1.70039999;stroke-miterlimit:10" />
<path
   class="st1"
   d="M 155.28824,133.3"
   id="path955"
   inkscape:connector-curvature="0"
   style="fill:none;stroke:#221f1f;stroke-width:2.03049994;stroke-miterlimit:10" />
<path
   class="st4"
   d="M 169.58824,153.1"
   id="path957"
   inkscape:connector-curvature="0"
   style="fill:none;stroke:#221f1f;stroke-width:1.70039999;stroke-miterlimit:10" />



<path
   class="st1"
   d="M 175.18824,158"
   id="path1041"
   inkscape:connector-curvature="0"
   style="fill:none;stroke:#221f1f;stroke-width:2.03049994;stroke-miterlimit:10" /><path
   class="st4"
   d="M 170.58824,153.1"
   id="path1047"
   inkscape:connector-curvature="0"
   style="fill:none;stroke:#221f1f;stroke-width:1.70039999;stroke-miterlimit:10" /><path
   class="st1"
   d="M 155.28824,133.3"
   id="path1049"
   inkscape:connector-curvature="0"
   style="fill:none;stroke:#221f1f;stroke-width:2.03049994;stroke-miterlimit:10" /><path
   class="st4"
   d="M 169.58824,153.1"
   id="path1051"
   inkscape:connector-curvature="0"
   style="fill:none;stroke:#221f1f;stroke-width:1.70039999;stroke-miterlimit:10" /><path
   class="st1"
   d="M 175.18824,158"
   id="path5987"
   inkscape:connector-curvature="0"
   style="fill:none;stroke:#221f1f;stroke-width:2.03049994;stroke-miterlimit:10" /><path
   class="st4"
   d="M 170.58824,153.1"
   id="path5993"
   inkscape:connector-curvature="0"
   style="fill:none;stroke:#221f1f;stroke-width:1.70039999;stroke-miterlimit:10" /><path
   class="st1"
   d="M 155.28824,133.3"
   id="path5995"
   inkscape:connector-curvature="0"
   style="fill:none;stroke:#221f1f;stroke-width:2.03049994;stroke-miterlimit:10" /><path
   class="st4"
   d="M 169.58824,153.1"
   id="path5997"
   inkscape:connector-curvature="0"
   style="fill:none;stroke:#221f1f;stroke-width:1.70039999;stroke-miterlimit:10" /><path
   inkscape:connector-curvature="0"
   class="st1"
   d="M 175.18824,158"
   id="path6649"
   style="fill:none;stroke:#221f1f;stroke-width:2.03049994;stroke-miterlimit:10" /><path
   inkscape:connector-curvature="0"
   class="st4"
   d="M 170.58824,153.1"
   id="path6655"
   style="fill:none;stroke:#221f1f;stroke-width:1.70039999;stroke-miterlimit:10" /><path
   inkscape:connector-curvature="0"
   class="st1"
   d="M 155.28824,133.3"
   id="path6657"
   style="fill:none;stroke:#221f1f;stroke-width:2.03049994;stroke-miterlimit:10" /><path
   inkscape:connector-curvature="0"
   class="st4"
   d="M 169.58824,153.1"
   id="path6659"
   style="fill:none;stroke:#221f1f;stroke-width:1.70039999;stroke-miterlimit:10" /><path
   class="st1"
   d="M 175.18824,158"
   id="path7892"
   inkscape:connector-curvature="0"
   style="fill:none;stroke:#221f1f;stroke-width:2.03049994;stroke-miterlimit:10" /><path
   class="st4"
   d="M 170.58824,153.1"
   id="path7898"
   inkscape:connector-curvature="0"
   style="fill:none;stroke:#221f1f;stroke-width:1.70039999;stroke-miterlimit:10" /><path
   class="st1"
   d="M 155.28824,133.3"
   id="path7900"
   inkscape:connector-curvature="0"
   style="fill:none;stroke:#221f1f;stroke-width:2.03049994;stroke-miterlimit:10" /><path
   class="st4"
   d="M 169.58824,153.1"
   id="path7902"
   inkscape:connector-curvature="0"
   style="fill:none;stroke:#221f1f;stroke-width:1.70039999;stroke-miterlimit:10" /></svg>