<?xml version="1.0" encoding="UTF-8" standalone="no"?>
<!-- Created with Inkscape (http://www.inkscape.org/) -->

<svg
   xmlns:dc="http://purl.org/dc/elements/1.1/"
   xmlns:cc="http://creativecommons.org/ns#"
   xmlns:rdf="http://www.w3.org/1999/02/22-rdf-syntax-ns#"
   xmlns:svg="http://www.w3.org/2000/svg"
   xmlns="http://www.w3.org/2000/svg"
   xmlns:sodipodi="http://sodipodi.sourceforge.net/DTD/sodipodi-0.dtd"
   xmlns:inkscape="http://www.inkscape.org/namespaces/inkscape"
   width="1024"
   height="1024"
   viewBox="0 0 270.93333 270.93334"
   version="1.1"
   id="svg8"
   inkscape:version="0.92.3 (2405546, 2018-03-11)"
   sodipodi:docname="avatar_cheveux01col01.svg">
  <defs
     id="defs2" />
  <sodipodi:namedview
     id="base"
     pagecolor="#ffffff"
     bordercolor="#666666"
     borderopacity="1.0"
     inkscape:pageopacity="0.0"
     inkscape:pageshadow="2"
     inkscape:zoom="0.7"
     inkscape:cx="140.26519"
     inkscape:cy="560.35455"
     inkscape:document-units="mm"
     inkscape:current-layer="layer1"
     showgrid="false"
     units="px"
     showguides="true"
     inkscape:guide-bbox="true"
     inkscape:snap-global="false"
     inkscape:window-width="1920"
     inkscape:window-height="1017"
     inkscape:window-x="-8"
     inkscape:window-y="100"
     inkscape:window-maximized="1" />
  <metadata
     id="metadata5">
    <rdf:RDF>
      <cc:Work
         rdf:about="">
        <dc:format>image/svg+xml</dc:format>
        <dc:type
           rdf:resource="http://purl.org/dc/dcmitype/StillImage" />
        <dc:title></dc:title>
      </cc:Work>
    </rdf:RDF>
  </metadata>
  <g
     inkscape:label="Calque 1"
     inkscape:groupmode="layer"
     id="layer1"
     transform="translate(0,-26.06665)">
    <path
       style="fill:#999999;stroke:#000000;stroke-width:0.26458332px;stroke-linecap:butt;stroke-linejoin:miter;stroke-opacity:1"
       d="m 139.43916,90.517428 c 72.32715,-1.016655 63.10295,31.603242 88.06845,48.002982 5.45973,5.16993 10.20536,24.94643 10.20536,24.94643 0,0 -5.60638,-83.025517 -91.47023,-81.264883 -41.79399,0.856983 -73.820387,26.793773 -90.195974,42.172293 -6.048022,5.67978 -13.96971,21.87057 -16.015345,30.39914 5.669644,-9.44941 -0.573997,-9.19526 14.74107,-18.14286 23.924658,-17.3279 12.339521,-45.096447 84.666669,-46.113102 z"
       id="path974-8"
       inkscape:connector-curvature="0"
       sodipodi:nodetypes="zccssccz" />
    <path
       style="fill:#000000;stroke:#000000;stroke-width:0.26458332px;stroke-linecap:butt;stroke-linejoin:miter;stroke-opacity:1"
       d="m 139.85119,92.892836 c 25.73202,-1.030532 53.17896,8.632484 73.70535,31.750004 5.54737,0.78422 14.3631,0.75595 14.3631,0.75595 -8.99547,-27.488081 -30.99263,-50.070443 -88.8244,-49.51488 -64.741265,0.621939 -79.189141,26.01632 -86.556549,49.89286 5.560604,-0.22415 10.333514,-0.56926 16.252975,-2.64584 14.995417,-20.70515 45.327504,-29.207563 71.059524,-30.238094 z"
       id="path974"
       inkscape:connector-curvature="0"
       sodipodi:nodetypes="zccsccz" />
  </g>
</svg>
