<?xml version="1.0" encoding="UTF-8" standalone="no"?>
<!-- Generator: Adobe Illustrator 22.0.1, SVG Export Plug-In . SVG Version: 6.00 Build 0)  -->

<svg
   xmlns:dc="http://purl.org/dc/elements/1.1/"
   xmlns:cc="http://creativecommons.org/ns#"
   xmlns:rdf="http://www.w3.org/1999/02/22-rdf-syntax-ns#"
   xmlns:svg="http://www.w3.org/2000/svg"
   xmlns="http://www.w3.org/2000/svg"
   xmlns:sodipodi="http://sodipodi.sourceforge.net/DTD/sodipodi-0.dtd"
   xmlns:inkscape="http://www.inkscape.org/namespaces/inkscape"
   version="1.1"
   id="Layer_1"
   x="0px"
   y="0px"
   viewBox="0 0 340 340"
   style="enable-background:new 0 0 340 340;"
   xml:space="preserve"
   sodipodi:docname="avatar_cheveux01col03.svg"
   inkscape:version="0.92.3 (2405546, 2018-03-11)"><metadata
   id="metadata970"><rdf:RDF><cc:Work
       rdf:about=""><dc:format>image/svg+xml</dc:format><dc:type
         rdf:resource="http://purl.org/dc/dcmitype/StillImage" /><dc:title></dc:title></cc:Work></rdf:RDF></metadata><defs
   id="defs968"><linearGradient
     id="SVGID_1_-0"
     gradientUnits="userSpaceOnUse"
     x1="170"
     y1="335.72009"
     x2="170"
     y2="130.0029"><stop
       offset="0"
       style="stop-color:#D8AE5D"
       id="stop1034" /><stop
       offset="1"
       style="stop-color:#7C5059"
       id="stop1036" /></linearGradient><linearGradient
     id="SVGID_1_-5"
     gradientUnits="userSpaceOnUse"
     x1="178.8"
     y1="35.6329"
     x2="178.8"
     y2="210.7995"
     gradientTransform="matrix(1,0,0,-1,0,340)"><stop
       offset="0"
       style="stop-color:#98BBBC"
       id="stop5980" /><stop
       offset="1"
       style="stop-color:#544C7B"
       id="stop5982" /></linearGradient><linearGradient
     id="SVGID_1_-1"
     gradientUnits="userSpaceOnUse"
     x1="175.8"
     y1="338.992"
     x2="175.8"
     y2="128.20461"><stop
       offset="0"
       style="stop-color:#8ABC87"
       id="stop6642" /><stop
       offset="1"
       style="stop-color:#235C7B"
       id="stop6644" /></linearGradient><linearGradient
     id="SVGID_1_-6"
     gradientUnits="userSpaceOnUse"
     x1="178.8"
     y1="327.3316"
     x2="178.8"
     y2="134.8156"><stop
       offset="0"
       style="stop-color:#EAD29D"
       id="stop7885" /><stop
       offset="1"
       style="stop-color:#7A8469"
       id="stop7887" /></linearGradient><linearGradient
     id="SVGID_1_-3"
     gradientUnits="userSpaceOnUse"
     x1="175.5966"
     y1="319.4819"
     x2="175.5966"
     y2="127.5162"><stop
       offset="0"
       style="stop-color:#FFDCA3"
       id="stop8597" /><stop
       offset="1"
       style="stop-color:#B0815C"
       id="stop8599" /></linearGradient></defs><sodipodi:namedview
   pagecolor="#ffffff"
   bordercolor="#666666"
   borderopacity="1"
   objecttolerance="10"
   gridtolerance="10"
   guidetolerance="10"
   inkscape:pageopacity="0"
   inkscape:pageshadow="2"
   inkscape:window-width="1920"
   inkscape:window-height="1017"
   id="namedview966"
   showgrid="false"
   showguides="true"
   inkscape:guide-bbox="true"
   inkscape:zoom="1.8031223"
   inkscape:cx="155.23138"
   inkscape:cy="141.72523"
   inkscape:window-x="-8"
   inkscape:window-y="100"
   inkscape:window-maximized="1"
   inkscape:current-layer="Layer_1"><sodipodi:guide
     position="170.58824,234.90196"
     orientation="1,0"
     id="guide972"
     inkscape:locked="false" /><sodipodi:guide
     position="95.944685,168.04185"
     orientation="0,1"
     id="guide987"
     inkscape:locked="false" /><sodipodi:guide
     position="369.9139,184.12506"
     orientation="0,1"
     id="guide12403"
     inkscape:locked="false" /><sodipodi:guide
     position="408.73545,135.87542"
     orientation="0,1"
     id="guide12405"
     inkscape:locked="false" /><sodipodi:guide
     position="433.69216,293.37999"
     orientation="0,1"
     id="guide12407"
     inkscape:locked="false" /></sodipodi:namedview>
<style
   type="text/css"
   id="style938">
	.st0{fill:url(#SVGID_1_);}
	.st1{fill:none;stroke:#221F1F;stroke-width:2.0305;stroke-miterlimit:10;}
	.st2{fill:#F4D4B8;}
	.st3{fill:#E5AB86;}
	.st4{fill:none;stroke:#221F1F;stroke-width:1.7004;stroke-miterlimit:10;}
</style>
<linearGradient
   id="SVGID_1_"
   gradientUnits="userSpaceOnUse"
   x1="175.45"
   y1="13.6521"
   x2="175.45"
   y2="208.0665"
   gradientTransform="matrix(1,0,0,-1,772.26332,590.45862)">
	<stop
   offset="0"
   style="stop-color:#9C4A8C"
   id="stop940" />
	<stop
   offset="1"
   style="stop-color:#78270E"
   id="stop942" />
</linearGradient>

<path
   class="st1"
   d="M 175.18824,158"
   id="path947"
   inkscape:connector-curvature="0"
   style="fill:#ffcc00;stroke:#221f1f;stroke-width:2.03049994;stroke-miterlimit:10" />


<path
   class="st4"
   d="M 170.58824,153.1"
   id="path953"
   inkscape:connector-curvature="0"
   style="fill:#ffcc00;stroke:#221f1f;stroke-width:1.70039999;stroke-miterlimit:10" />
<path
   class="st1"
   d="M 155.28824,133.3"
   id="path955"
   inkscape:connector-curvature="0"
   style="fill:#ffcc00;stroke:#221f1f;stroke-width:2.03049994;stroke-miterlimit:10" />
<path
   class="st4"
   d="M 169.58824,153.1"
   id="path957"
   inkscape:connector-curvature="0"
   style="fill:#ffcc00;stroke:#221f1f;stroke-width:1.70039999;stroke-miterlimit:10" />



<path
   class="st1"
   d="M 175.18824,158"
   id="path1041"
   inkscape:connector-curvature="0"
   style="fill:#ffcc00;stroke:#221f1f;stroke-width:2.03049994;stroke-miterlimit:10" /><path
   class="st4"
   d="M 170.58824,153.1"
   id="path1047"
   inkscape:connector-curvature="0"
   style="fill:#ffcc00;stroke:#221f1f;stroke-width:1.70039999;stroke-miterlimit:10" /><path
   class="st1"
   d="M 155.28824,133.3"
   id="path1049"
   inkscape:connector-curvature="0"
   style="fill:#ffcc00;stroke:#221f1f;stroke-width:2.03049994;stroke-miterlimit:10" /><path
   class="st4"
   d="M 169.58824,153.1"
   id="path1051"
   inkscape:connector-curvature="0"
   style="fill:#ffcc00;stroke:#221f1f;stroke-width:1.70039999;stroke-miterlimit:10" /><path
   class="st1"
   d="M 175.18824,158"
   id="path5987"
   inkscape:connector-curvature="0"
   style="fill:#ffcc00;stroke:#221f1f;stroke-width:2.03049994;stroke-miterlimit:10" /><path
   class="st4"
   d="M 170.58824,153.1"
   id="path5993"
   inkscape:connector-curvature="0"
   style="fill:#ffcc00;stroke:#221f1f;stroke-width:1.70039999;stroke-miterlimit:10" /><path
   class="st1"
   d="M 155.28824,133.3"
   id="path5995"
   inkscape:connector-curvature="0"
   style="fill:#ffcc00;stroke:#221f1f;stroke-width:2.03049994;stroke-miterlimit:10" /><path
   class="st4"
   d="M 169.58824,153.1"
   id="path5997"
   inkscape:connector-curvature="0"
   style="fill:#ffcc00;stroke:#221f1f;stroke-width:1.70039999;stroke-miterlimit:10" /><path
   inkscape:connector-curvature="0"
   class="st1"
   d="M 175.18824,158"
   id="path6649"
   style="fill:#ffcc00;stroke:#221f1f;stroke-width:2.03049994;stroke-miterlimit:10" /><path
   inkscape:connector-curvature="0"
   class="st4"
   d="M 170.58824,153.1"
   id="path6655"
   style="fill:#ffcc00;stroke:#221f1f;stroke-width:1.70039999;stroke-miterlimit:10" /><path
   inkscape:connector-curvature="0"
   class="st1"
   d="M 155.28824,133.3"
   id="path6657"
   style="fill:#ffcc00;stroke:#221f1f;stroke-width:2.03049994;stroke-miterlimit:10" /><path
   inkscape:connector-curvature="0"
   class="st4"
   d="M 169.58824,153.1"
   id="path6659"
   style="fill:#ffcc00;stroke:#221f1f;stroke-width:1.70039999;stroke-miterlimit:10" /><path
   class="st1"
   d="M 175.18824,158"
   id="path7892"
   inkscape:connector-curvature="0"
   style="fill:#ffcc00;stroke:#221f1f;stroke-width:2.03049994;stroke-miterlimit:10" /><path
   class="st4"
   d="M 170.58824,153.1"
   id="path7898"
   inkscape:connector-curvature="0"
   style="fill:#ffcc00;stroke:#221f1f;stroke-width:1.70039999;stroke-miterlimit:10" /><path
   class="st1"
   d="M 155.28824,133.3"
   id="path7900"
   inkscape:connector-curvature="0"
   style="fill:#ffcc00;stroke:#221f1f;stroke-width:2.03049994;stroke-miterlimit:10" /><path
   class="st4"
   d="M 169.58824,153.1"
   id="path7902"
   inkscape:connector-curvature="0"
   style="fill:#ffcc00;stroke:#221f1f;stroke-width:1.70039999;stroke-miterlimit:10" /><path
   class="st1"
   d="M 175.18824,158"
   id="path9266"
   inkscape:connector-curvature="0"
   style="fill:#ffcc00;stroke:#221f1f;stroke-width:2.03049994;stroke-miterlimit:10" /><path
   class="st4"
   d="M 170.58824,153.1"
   id="path9272"
   inkscape:connector-curvature="0"
   style="fill:#ffcc00;stroke:#221f1f;stroke-width:1.70039999;stroke-miterlimit:10" /><path
   class="st1"
   d="M 155.28824,133.3"
   id="path9274"
   inkscape:connector-curvature="0"
   style="fill:#ffcc00;stroke:#221f1f;stroke-width:2.03049994;stroke-miterlimit:10" /><path
   class="st4"
   d="M 169.58824,153.1"
   id="path9276"
   inkscape:connector-curvature="0"
   style="fill:#ffcc00;stroke:#221f1f;stroke-width:1.70039999;stroke-miterlimit:10" /><path
   class="st0"
   d="M 170.48824,153.4"
   id="path9955"
   inkscape:connector-curvature="0"
   style="fill:#ffcc00;stroke:none;stroke-width:1.70039999;stroke-miterlimit:10" /><path
   inkscape:connector-curvature="0"
   class="st1"
   d="m 562.89726,200.2306 -63.8,-13.2 c -0.2,2.5 -0.3,4.9 -0.4,5.9 -1.2,17.9 -34.5,30.2 -34.5,30.2 0,0 -31.4,-16.7 -30.2,-34.5 0,-0.4 0.1,-0.9 0.1,-1.5 l -77.9,51 6.7,15.6 200.5,-43 z"
   id="path10602"
   style="fill:none;stroke:none;stroke-width:2.03049994;stroke-miterlimit:10" /><path
   class="st1"
   d="M 169.58824,153.1"
   id="path11215"
   inkscape:connector-curvature="0"
   style="fill:#ffcc00;stroke:none;stroke-width:1.70039999;stroke-miterlimit:10" /><path
   style="fill:#ffcc00;stroke:none;stroke-width:2.03049994;stroke-miterlimit:10"
   inkscape:connector-curvature="0"
   id="path9957"
   d="m 115.08824,174.1 c -14.1,-23.4 -31.8,-78.100001 14.9,-110.500001 41,-28.3 73.4,-11.1 79.3,-1.6 8.5,1 14,3.1 18.6,7.7 3.9,3.9 6.8,8.8 9.1,13.8 7.3,16 9.8,34.200001 7,51.500001 -2.8,17.4 -10.9,33.8 -22.9,46.7 5.5,-10.4 10.6,-27.3 6.7,-35.2 -0.9,2.8 -4.9,7.7 -9.6,10.9 1,-2.8 1.8,-5.6 2.4,-8.5 0.2,-0.9 0.3,-1.9 0,-2.8 -0.3,-0.9 -1.9,-2.1 -1.9,-2.1 0,0 -21.8,-20.1 -24.3,-39.5 -16.1,21.7 -67.7,5.5 -67.7,5.5 l -13.4,30.5 c -0.2,-0.3 -0.7,22.5 1.8,33.6 z"
   class="st1" /><path
   style="fill:#ffcc00;stroke:none;stroke-width:2.03049994;stroke-miterlimit:10"
   inkscape:connector-curvature="0"
   id="path9959"
   d="m 172.68824,85.199999 c -10.3,-2.4 -22.6,1.2 -32.3,8.8 5.5,-2.1 9.1,-1.8 15,-2.1 -6.9,3.3 -19.3,9.500001 -22.6,19.000001 6.4,-4.6 26.8,-10 26.8,-10 0,0 -19.5,16.3 -25,28.8 6.3,0.8 27.5,-9 27.5,-9 l -17.7,17 c 0,0 49.2,-21.9 54.7,-42.400001"
   class="st1" /><path
   style="fill:#ffcc00;stroke:none;stroke-width:2.03049994;stroke-miterlimit:10"
   inkscape:connector-curvature="0"
   id="path9961"
   d="m 180.48824,58.399999 c -8.4,-20.2 -43.5,-24.3 -62.8,-16.3 7.1,0.5 14.1,0.3 19,2.3 -6.5,0.6 -19.6,1.1 -27.2,4.6 -7.6,3.5 -13.8,7.9 -18.2,13.4 7.6,-3.3 18.4,-5.4 26.6,-6.7 -14.7,7.6 -32.2,14.8 -37.1,33.7 5.5,-5.4 11.7,-9.1 19,-13 -7,6.5 -11.8,15.4 -13.3,24.800001 10,-11.100001 34,-19.400001 47.8,-19.500001"
   class="st1" /><path
   style="fill:#ffcc00;stroke:none;stroke-width:2.03049994;stroke-miterlimit:10"
   inkscape:connector-curvature="0"
   id="path9963"
   d="m 238.58824,86.299999 c 21.2,5.4 39.5,-7.7 44.8,-27.9 -1.1,1.2 -3.8,3.7 -7.1,4 3.4,-5.5 11.6,-27.7 6.9,-37.3 -1.7,-0.9 -6.6,-7.4 -6.6,-7.4 l -2.7,2 1.3,-4.1 -1.7,-2.7 -2.7,0.7 0.8,-4.7 c 0,0 -2.3,-5.3 -3.5,-8.5 -0.8,1 -5,3 -5,3 l -0.3,7.1 -4.3,-4.9 -1.4,7.4 c 0,0 -1.8,-7.6 -2.6,-7.8 -1.3,-0.3 -2.7,-0.7 -4.1,-1.3 2.8,14.6 5.9,53.9 -19.6,68.5"
   class="st1" /><path
   style="fill:#552200;stroke:none"
   inkscape:connector-curvature="0"
   id="path9965"
   d="m 244.68824,86.199999 -9.5,4.9 c -1.4,-6.9 -4.2,-13 -9.3,-18 l 9.5,-4.9 c 5.8,4 8.9,9.9 9.3,18 z"
   class="st2" /></svg>