<?xml version="1.0" encoding="utf-8"?>
<!-- Generator: Adobe Illustrator 22.1.0, SVG Export Plug-In . SVG Version: 6.00 Build 0)  -->
<svg version="1.1" xmlns="http://www.w3.org/2000/svg" xmlns:xlink="http://www.w3.org/1999/xlink" x="0px" y="0px"
	 viewBox="0 0 2880 1800" style="enable-background:new 0 0 2880 1800;" xml:space="preserve">
<style type="text/css">
	.st0{fill:#CBB27E;}
	.st1{fill:#9D7E50;}
	.st2{fill:#B29E79;}
	.st3{fill:#D8BB88;}
	.st4{opacity:0.88;fill:#EFEEDC;}
	.st5{fill:#EFEEDC;}
	.st6{fill:#E2D891;}
	.st7{fill:none;stroke:#070707;stroke-width:2;stroke-miterlimit:10;}
	.st8{fill:#BA8D6B;}
	.st9{filter:url(#Adobe_OpacityMaskFilter);}
	.st10{fill:#FFFFFF;}
	.st11{mask:url(#SVGID_1_);fill:#27262A;}
	.st12{fill:#27262A;}
	.st13{fill:#9B8560;}
	.st14{fill:none;stroke:#070707;stroke-width:1.869;stroke-miterlimit:10;}
	.st15{fill:#473028;}
	.st16{fill:#CBC39F;}
	.st17{fill:#69493B;}
	.st18{fill:#7D644D;}
	.st19{fill:#B7CEC2;}
	.st20{fill:#EBDE6E;}
	.st21{fill:#BAA562;}
	.st22{fill:#60554C;}
	.st23{fill:#7F796E;}
	.st24{fill:#B3C9BD;}
	.st25{fill:#2F2A23;}
	.st26{fill:#2A251F;}
	.st27{fill:#A4B386;}
	.st28{fill:#758B64;}
	.st29{fill:#B8C696;}
	.st30{fill:#556049;}
	.st31{fill:#D3E0AD;}
	.st32{fill:#D3C591;}
	.st33{fill:#B49D6D;}
	.st34{fill:#B9AB8C;}
	.st35{fill:#B89B77;}
	.st36{fill:#8E7754;}
	.st37{fill:#99835A;}
	.st38{fill:#262123;}
	.st39{fill:#A5A08C;}
	.st40{fill:#EAE4C7;}
	.st41{fill:#2C1F1F;}
	.st42{fill:#070707;}
	.st43{fill:none;stroke:#070707;stroke-miterlimit:10;}
	.st44{fill:#D97B53;}
	.st45{fill:#D4F0E2;}
	.st46{fill:#8C9B92;}
	.st47{fill:none;stroke:#070707;stroke-width:0.8245;stroke-miterlimit:10;}
	.st48{fill:#97AAA0;}
	.st49{fill:#EEFFF6;}
	.st50{fill:none;stroke:#262626;stroke-width:5;stroke-miterlimit:10;}
	.st51{fill:#533F41;}
	.st52{fill:#FFFADA;}
	.st53{fill:none;stroke:#262626;stroke-width:12.4127;stroke-miterlimit:10;}
	.st54{fill:#697F45;}
	.st55{fill:#495630;}
	.st56{fill:#E8B685;}
	.st57{fill:#EFD3AB;}
	.st58{fill:#986538;}
	.st59{fill:#5E9958;}
	.st60{fill:#3F362D;}
</style>
<g id="Layer_11">
	<polygon class="st0" points="2880,1818 -15,1818 -33,1241 1290,1015 2880,1299 	"/>
	<polygon class="st1" points="1290,1015 -33,1241 -305,163 1290,332 	"/>
	<polygon class="st2" points="1290,1015 2880,1299 2895,48 1290,332 	"/>
	<polygon class="st3" points="2895,48 1290,332 -305,163 -305,-17 2895,-17 	"/>
	<g>
		<path class="st4" d="M1731.5,1360.4l102.4-76.3L1502,1199l-47.1,28.9C1501.3,1250.1,1603.6,1299.1,1731.5,1360.4z"/>
		<polygon class="st4" points="1440.5,1236.8 1331,1304 1485.4,1543.9 1714,1373.5 		"/>
	</g>
	<g>
		<path class="st4" d="M1767.6,1400.3l-240.7,203.1l83.4,129.7c60.7-36.2,228.2-136.2,375.1-223.8L1767.6,1400.3z"/>
		<path class="st4" d="M2010.7,1494.2c84.6-50.5,159.6-95.2,199-118.7l-316.5-81.2l-108.5,91.6
			C1855.5,1419.8,1932.3,1456.7,2010.7,1494.2z"/>
	</g>
	<g>
		<path class="st4" d="M2686.3,1818H2880l-297.1-201.6l-122.9,93.1C2554.4,1754.7,2634,1792.9,2686.3,1818z"/>
		<polygon class="st4" points="2430.6,1731.8 2316.9,1818 2603,1818 		"/>
	</g>
	<g>
		<path class="st4" d="M2420,1690.4l131.8-95.1l-301-204.3l-203.5,120.7C2175.8,1573.3,2306.6,1636,2420,1690.4z"/>
		<polygon class="st4" points="2021.3,1527.1 1627.9,1760.4 1665,1818 2243.1,1818 2390.4,1711.7 		"/>
	</g>
</g>
<g id="Layer_4">
	<polygon class="st5" points="943,414.2 943,429 943,785 943,800.2 958.1,799 1238.1,776 1251,774.9 1251,762 1251,445 1251,431.8 
		1237.8,431 957.8,415 943,414.2 	"/>
	<g>
		<polygon class="st6" points="1172,441.3 1172,742 957,754.3 957,785 1237,762 1237,445 		"/>
	</g>
	<polygon class="st7" points="1237,445 957,429 957,785 1237,762 	"/>
	<path class="st8" d="M957,429l280,16v317l-280,23V429 M943,414.2V429v356v15.2l15.1-1.2l280-23l12.9-1.1V762V445v-13.2l-13.2-0.8
		l-280-16L943,414.2L943,414.2z"/>
	<defs>
		<filter id="Adobe_OpacityMaskFilter" filterUnits="userSpaceOnUse" x="910" y="387.2" width="308" height="386">
			<feColorMatrix  type="matrix" values="1 0 0 0 0  0 1 0 0 0  0 0 1 0 0  0 0 0 1 0"/>
		</filter>
	</defs>
	<mask maskUnits="userSpaceOnUse" x="910" y="387.2" width="308" height="386" id="SVGID_1_">
		<g class="st9">
			<path class="st10" d="M958,770l247.1-21l12.9-1.1V735V445l-259-14L958,770z"/>
		</g>
	</mask>
	<path class="st11" d="M924,402l280,16v317l-280,23V402 M910,387.2V402v356v15.2l15.1-1.2l280-23l12.9-1.1V735V418v-13.2l-13.2-0.8
		l-280-16L910,387.2L910,387.2z"/>
	<rect x="957" y="599" class="st12" width="258" height="8"/>
	<polygon class="st12" points="1215,712 957,724 957,716 1215,704 	"/>
	<polygon class="st12" points="1215,515 957,500 957,492 1215,507 	"/>
	<rect x="1086" y="436" class="st12" width="11" height="316"/>
</g>
<g id="Layer_9">
	<polygon class="st13" points="1967,762 1426,714 1419,526 1995,506 	"/>
	<polygon class="st14" points="1950.6,746.7 1434.3,700.9 1426.1,537.2 1975.5,519.8 	"/>
	<polygon class="st15" points="1662,721.1 1434.3,700.9 1426.1,537.2 1664.9,532 	"/>
	<polygon class="st16" points="1798.1,733.2 1677,722.4 1677.9,531.5 1812.9,526.2 	"/>
	<polygon class="st16" points="1950.6,746.7 1818.1,735 1829.9,525.5 1975.5,519.8 	"/>
	<polygon class="st15" points="2005,747 2030,518 1995,506 1967,762 	"/>
	<rect x="1426" y="580" class="st17" width="239" height="7"/>
	<polygon class="st17" points="1663,659 1431,652 1431,645 1663,652 	"/>
	<path class="st18" d="M1840.9,645.2l1.8-20.8c0.5-6.1,5.9-10.7,12.1-10.1l0,0l0.8-9.7l-10.4-0.9c-6.5-0.6-12.2,4.3-12.8,10.8
		l-3,35.4c-0.6,6.9,4.5,13,11.4,13.6l9.7,0.8l0.6-6.9h0C1844.9,656.7,1840.4,651.3,1840.9,645.2z"/>
	<path class="st18" d="M1783.1,641.4l1.8-20.8c0.5-6.1,5.9-10.7,12.1-10.1l0,0l0.8-9.7l-10.4-0.9c-6.5-0.6-12.2,4.3-12.8,10.8
		l-3,35.4c-0.6,6.9,4.5,13,11.4,13.6l9.7,0.8l0.6-6.9l0,0C1787.1,652.9,1782.6,647.5,1783.1,641.4z"/>
	<g>
		<rect x="1472" y="718" class="st15" width="8" height="29"/>
		<path class="st5" d="M1561.5,735c-5.4,0-72.4-8-78-8c-8.6,0-15.5,9.4-15.5,21c0,11.6,6.9,21,15.5,21c4.2,0,71.7,8,78,8
			c8.6,0,15.5-9.4,15.5-21C1577,744.4,1570.1,735,1561.5,735z"/>
		<path class="st5" d="M1483.5,769c4.2,0,71.7,8,78,8c0,0-4.5,9-4.5,13s7,15,7,15s-77-7-79-9s-10-8-9-13S1483.5,769,1483.5,769z"/>
		<path class="st19" d="M1573,757.5c0,10.8-4.3,16.5-9.5,16.5s-9.5-5.7-9.5-16.5s4.3-19.5,9.5-19.5S1573,746.7,1573,757.5z"/>
		<rect x="1569" y="727" class="st15" width="8" height="29"/>
		<ellipse class="st15" cx="1566" cy="755.5" rx="6" ry="8.5"/>
	</g>
	<g>
		<g>
			<g>
				<path class="st20" d="M1655.6,677.3c0-4.9-9.6-5.3-21.6-5.3s-22,0.4-22,5.3c0,3.7,0,29.8,0,33.8c0,4.9,10,4.9,22,4.9
					s21.6,0,21.6-4.9C1655.6,707.1,1655.6,680.9,1655.6,677.3z"/>
			</g>
			<g>
				<path class="st21" d="M1646.8,670.2c0-2.5-5.1-4.6-11.4-4.6c-6.3,0-11.4,2.1-11.4,4.6c0,0.8-0.6,3.9-0.6,4.9
					c0,2.5,22.7,2.5,22.7,0C1646.2,674.3,1646.8,671.2,1646.8,670.2z"/>
			</g>
		</g>
	</g>
</g>
<g id="Layer_10">
	<g>
		<polygon class="st22" points="267,697 767,671 611,497 384,497 		"/>
		<polygon class="st23" points="650,666 391,678 391,657 650,645 		"/>
		<circle class="st24" cx="409.5" cy="666.5" r="5.5"/>
		<circle class="st24" cx="427.5" cy="665.5" r="5.5"/>
		<circle class="st24" cx="462.5" cy="663.5" r="5.5"/>
		<circle class="st24" cx="481.5" cy="662.5" r="5.5"/>
		<circle class="st24" cx="631.5" cy="656.5" r="5.5"/>
		<polygon class="st25" points="384,497 611,497 493.2,485 318,486 180.6,666.7 267,697 		"/>
		<path class="st26" d="M501,491H387V101c0-45.3,114-45.3,114,0V491z"/>
	</g>
</g>
<g id="Layer_8">
	<path class="st27" d="M2051.4,646.5L2371,669l-42,676l-308.8-59.2c-22.9-4.4-38.8-25.3-37-48.6l30.1-557.8
		C2014.8,659.8,2031.8,645.1,2051.4,646.5z"/>
	<polyline class="st28" points="2432,659 2371,669 2046,646 2134,638 2432,656 2432,659 	"/>
	<path class="st29" d="M2060.1,666.3l247.9,18.2c22.3,1.6,39.1,20.8,37.9,43.1L2338,871l-321-37.4l9-137.6
		C2027.1,678.4,2042.4,665.1,2060.1,666.3z"/>
	<path class="st29" d="M2336,885l-24.1,395.1c-1.4,22.3-22.1,38.3-44.1,33.9l-240.1-48c-18.2-3.7-30.7-20.3-29.3-38.7l15.7-380.2
		L2336,885z"/>
	<path class="st30" d="M2432,659l-33.5,532.8c-2.3,36.1-14.1,71-34.3,101L2329,1345l42-676L2432,659z"/>
	<g>
		<path class="st31" d="M2052.5,770.9l2.6-29.9c0.8-8.8,8.5-15.3,17.3-14.6l0,0l1.2-13.9l-14.9-1.3c-9.4-0.8-17.6,6.1-18.4,15.5
			l-4.4,50.8c-0.9,9.9,6.5,18.6,16.4,19.5l13.9,1.2l0.9-10l0,0C2058.3,787.5,2051.8,779.7,2052.5,770.9z"/>
		<path class="st30" d="M2052.5,770.9l2.6-29.9c0.8-8.8,8.5-15.3,17.3-14.6l0,0l1.2-13.9l-14.9-1.3c-9.4-0.8-16.3,84.9-6.4,85.8
			l13.9,1.2l0.9-10l0,0C2058.3,787.5,2051.8,779.7,2052.5,770.9z"/>
	</g>
	<g>
		<path class="st31" d="M2039.5,953.9l2.6-29.9c0.8-8.8,8.5-15.3,17.3-14.6l0,0l1.2-13.9l-14.9-1.3c-9.4-0.8-17.6,6.1-18.4,15.5
			l-4.4,50.8c-0.9,9.9,6.5,18.6,16.4,19.5l13.9,1.2l0.9-10l0,0C2045.3,970.5,2038.8,962.7,2039.5,953.9z"/>
		<path class="st30" d="M2039.5,953.9l2.6-29.9c0.8-8.8,8.5-15.3,17.3-14.6l0,0l1.2-13.9l-14.9-1.3c-9.4-0.8-16.3,84.9-6.4,85.8
			l13.9,1.2l0.9-10l0,0C2045.3,970.5,2038.8,962.7,2039.5,953.9z"/>
	</g>
</g>
<g id="Layer_7">
	<g>
		<polygon class="st32" points="861,900 1005,945 1303,885 1847,963 1924,914 1291,847 		"/>
		<polygon class="st4" points="1208.1,858.2 1259,891 1303,885 1847,963 1530,872 1291,847 		"/>
		<polyline class="st33" points="1291,1104 1823,1241 1837,983 1298,900 1019,963 1019,1189 1291,1104 		"/>
		<polyline class="st15" points="873,924 873,1115 1019,1189 1019,963 873,924 		"/>
		<polyline class="st15" points="1908,941 1894,1175 1823,1241 1837,983 1908,941 		"/>
		<polyline class="st17" points="1847,963 1924,914 1921,931 1847,983 1847,963 		"/>
		<polyline class="st18" points="1005,945 861,900 861,922 1005,963 1005,945 		"/>
		<polyline class="st34" points="1303,885 1005,945 1005,963 1303,900 1847,983 1847,963 1303,885 		"/>
		<path class="st35" d="M1035.5,887.5l150-21l0.5,32c0,0-67.1,15.4-71.5,16C1106.5,915.5,1035.5,887.5,1035.5,887.5z"/>
		<path class="st36" d="M1186,898.5l47.5-11c0,0,12-7,3-11s-51-10-51-10L1186,898.5z"/>
		<path class="st24" d="M1139.5,821v-24.5H1124c-7.4,0-13.5,6.1-13.5,13.5v36h-6.5v0.6c-3.4-3.4-8.6-6.6-10.5-6.6
			c-4.1,0-7.5,3.4-7.5,7.5c0,3.9,10.6,11.5,13.5,11.5c1.7,0,3.2-0.6,4.5-1.5V875h18v-16.1c3.7-0.7,13-8.8,13-12.4
			c0-4.1-3.4-7.5-7.5-7.5c-2,0-6.7,3.3-10,6.8V810c0-3.6,2.9-6.5,6.5-6.5h8.5V821H1139.5z"/>
		<path class="st16" d="M1588,996l-1.3,170.1l109,28c0,0,4.3-180.1,5.3-180.1S1588,996,1588,996z"/>
		<path class="st16" d="M1706,1015l-4,180l109,26c0,0,7-188,8-188S1706,1015,1706,1015z"/>
		<path class="st16" d="M1304,952l-2,139l131,34c0,0-1-151,0-151S1304,952,1304,952z"/>
		<path class="st16" d="M1443,973l-3,152l130,35c0,0,4-165,5-165S1443,973,1443,973z"/>
		<g>
			<path class="st16" d="M1433,930c1,0-129-18-129-18v29c0,0,130,22,129,22V930z"/>
			<path class="st16" d="M1443,963c0,0,133,22,132,22v-34l-132-19V963z"/>
			<path class="st16" d="M1587,988c0,0,233,37,232,37l2-35l-234-35V988z"/>
		</g>
		<polygon class="st37" points="1173,1120 1032,1169 1032,978 1173,946 		"/>
		<polygon class="st37" points="1287,1089 1183,1120 1180,942 1287,921 		"/>
		<circle class="st17" cx="1364.5" cy="935.5" r="5.5"/>
		<circle class="st17" cx="1507.5" cy="958.5" r="5.5"/>
		<circle class="st17" cx="1702.5" cy="989.5" r="5.5"/>
		<circle class="st17" cx="1319.5" cy="975.5" r="5.5"/>
		<circle class="st17" cx="1462.5" cy="998.5" r="5.5"/>
		<circle class="st17" cx="1684.5" cy="1030.5" r="5.5"/>
		<circle class="st17" cx="1720.5" cy="1038.5" r="5.5"/>
		<g>
			<path class="st18" d="M1200.2,987.5l-0.1-16.7c0-4.9-4-8.9-9-8.8l0,0l-0.1-7.8l8.3-0.1c5.2,0,9.5,4.2,9.5,9.4l0.2,28.4
				c0,5.5-4.4,10-9.9,10.1l-7.8,0.1l0-5.6l0,0C1196.3,996.4,1200.3,992.4,1200.2,987.5z"/>
			<path class="st17" d="M1200.2,987.5l-0.1-16.7c0-4.9-4-8.9-9-8.8l0,0l-0.1-7.8l8.3-0.1c10.5,2.5,5.8,54.6-8,47.9l0-5.6l0,0
				C1196.3,996.4,1200.3,992.4,1200.2,987.5z"/>
		</g>
		<g>
			<path class="st18" d="M1160.2,998.5l-0.1-16.7c0-4.9-4-8.9-9-8.8l0,0l-0.1-7.8l8.3-0.1c5.2,0,9.5,4.2,9.5,9.4l0.2,28.4
				c0,5.5-4.4,10-9.9,10.1l-7.8,0.1l0-5.6l0,0C1156.3,1007.4,1160.3,1003.4,1160.2,998.5z"/>
			<path class="st17" d="M1160.2,998.5l-0.1-16.7c0-4.9-4-8.9-9-8.8l0,0l-0.1-7.8l8.3-0.1c10.5,2.5,5.8,54.6-8,47.9l0-5.6l0,0
				C1156.3,1007.4,1160.3,1003.4,1160.2,998.5z"/>
		</g>
	</g>
</g>
<g id="Layer_6">
	<polygon class="st32" points="777,909 910,963 213,1037 139,945 	"/>
	<polygon class="st38" points="616,918 741,981 419,1015 334,934 	"/>
	<polyline class="st18" points="213,1037 139,945 139,963 213,1059 213,1037 	"/>
	<polygon class="st34" points="910,963 213,1037 213,1059 910,983 	"/>
	<polygon class="st33" points="894,1241 258,1403 226.8,1057.5 894,984.7 	"/>
	<polygon class="st39" points="741,1280 433,1358 409,1037 741,1001 	"/>
	<polygon class="st40" points="744,1280 436,1358 412,1037 744,1001 	"/>
	<polygon class="st41" points="717.7,1267.3 471.4,1326.2 457,1092 717.7,1056.5 	"/>
	<polygon class="st42" points="711.9,1263.9 476.6,1320.2 462.8,1096.4 711.9,1062.5 	"/>
	<polygon class="st15" points="705.8,1260.3 482.1,1313.9 468.9,1101.1 705.8,1068.9 	"/>
	<polygon class="st15" points="145.8,971.5 185,1277 258,1403 227,1057 	"/>
	<g>
		<ellipse class="st42" cx="566" cy="939.5" rx="49" ry="12.5"/>
		<ellipse class="st38" cx="566" cy="939.5" rx="43.7" ry="11.1"/>
		<ellipse class="st42" cx="566" cy="939.5" rx="37.3" ry="9.5"/>
	</g>
	<g>
		<ellipse class="st42" cx="621" cy="968.5" rx="49" ry="12.5"/>
		<ellipse class="st38" cx="621" cy="968.5" rx="43.7" ry="11.1"/>
		<ellipse class="st42" cx="621" cy="968.5" rx="37.3" ry="9.5"/>
	</g>
	<g>
		<ellipse class="st42" cx="485" cy="983.5" rx="49" ry="12.5"/>
		<ellipse class="st38" cx="485" cy="983.5" rx="43.7" ry="11.1"/>
		<ellipse class="st42" cx="485" cy="983.5" rx="37.3" ry="9.5"/>
	</g>
	<g>
		<ellipse class="st42" cx="436" cy="951.5" rx="49" ry="12.5"/>
		<ellipse class="st38" cx="436" cy="951.5" rx="43.7" ry="11.1"/>
		<ellipse class="st42" cx="436" cy="951.5" rx="37.3" ry="9.5"/>
	</g>
	<g>
		<path class="st38" d="M470.5,1048.5c-7.2,0-13,5.8-13,13c0,6.3,9,16,19,16c7.2,0,13-5.8,13-13
			C489.5,1049.5,473.8,1048.5,470.5,1048.5z"/>
		<circle class="st39" cx="476.5" cy="1064.5" r="13"/>
		<path class="st38" d="M538,1040c-7.2,0-13,5.8-13,13c0,6.3,9,16,19,16c7.2,0,13-5.8,13-13C557,1041,541.3,1040,538,1040z"/>
		<circle class="st39" cx="544" cy="1056" r="13"/>
		<path class="st38" d="M612,1032c-7.2,0-13,5.8-13,13c0,6.3,9,16,19,16c7.2,0,13-5.8,13-13C631,1033,615.3,1032,612,1032z"/>
		<circle class="st39" cx="618" cy="1048" r="13"/>
		<path class="st38" d="M683,1022c-7.2,0-13,5.8-13,13c0,6.3,9,16,19,16c7.2,0,13-5.8,13-13C702,1023,686.3,1022,683,1022z"/>
		<circle class="st39" cx="689" cy="1038" r="13"/>
		<path class="st43" d="M479.5,1051.5"/>
	</g>
</g>
<g id="Layer_12">
	<g>
		<polygon class="st38" points="1535,1751 1600,1291 1576,1275 1548,1293 1519,1751 1527,1763 		"/>
		<polygon class="st38" points="1088,2068 1030,1637 1054,1621 1082,1639 1104,2068 1096,2080 		"/>
		<polygon class="st38" points="730,1765 664,1275 688,1259 716,1277 746,1765 738,1777 		"/>
		<polygon class="st44" points="640,1259 1153,1099 1622,1275 1058,1685 		"/>
		<polyline class="st38" points="1058,1685 640,1259 640,1275 1058,1727 1058,1685 		"/>
		<polygon class="st38" points="1622,1275 1058,1685 1058,1727 1622,1299 		"/>
	</g>
</g>
<g id="Layer_5">
	<g>
		<path class="st15" d="M1229.3,864.4c0-0.1,0-0.1,0-0.2h-5.1c0-1.7,4.2-16.5,7.7-28.6l0.4-1.5l69.9-12.5l7.4,26.8l-4.9,1.4
			l-6.2-22.3l-62.2,11.2C1233,850.3,1229.5,862.9,1229.3,864.4z"/>
	</g>
	<g>
		<path class="st15" d="M1214.1,860.2c0-0.1,0-0.1,0-0.2h-5.1c0-1.7,4.2-16.5,7.7-28.6l0.4-1.5l69.9-12.5l7.4,26.8l-4.9,1.4
			l-6.2-22.3l-62.2,11.2C1217.8,846,1214.3,858.7,1214.1,860.2z"/>
	</g>
	<g>
		<path class="st45" d="M1291.3,802.3c-4.9,30.8-21.5,53.8-37,51.3c-15.5-2.5-19.2-28.7-14.4-59.5c4.9-30.8,16.5-54.6,32.1-52.1
			C1287.6,744.5,1296.2,771.5,1291.3,802.3z"/>
		<path class="st46" d="M1254.3,853.6c-15.5-2.5-19.2-28.7-14.4-59.5C1242.5,819.8,1237,835.2,1254.3,853.6z"/>
		<path class="st19" d="M1286.9,801.6c-3.9,24.5-15.9,43-26.8,41.3c-10.9-1.7-12.6-22.4-8.7-47c3.9-24.5,11.9-43.7,22.9-41.9
			S1290.8,777,1286.9,801.6z"/>
		<path class="st45" d="M1282.9,801.4c-2.3,14.5-9.5,25.3-16,24.3s-6-13.5-3.7-27.9c2.3-14.5,5.4-25.5,12-24.4
			C1281.7,774.4,1285.2,787,1282.9,801.4z"/>
	</g>
	<g>
		<path class="st15" d="M1245.4,869.5c0-0.1,0-0.1,0-0.2h-5.1c0-1.7,4.2-16.5,7.7-28.6l0.4-1.5l69.9-12.5l7.4,26.8l-4.9,1.4
			l-6.2-22.3l-62.2,11.2C1249.1,855.3,1245.6,868,1245.4,869.5z"/>
	</g>
	<g>
		<path class="st45" d="M1317.8,811.6c-4,25.4-17.7,44.4-30.5,42.3c-12.8-2-15.9-23.6-11.8-49c4-25.4,13.6-45,26.4-43
			S1321.8,786.2,1317.8,811.6z"/>
		<path class="st46" d="M1287.3,854c-12.8-2-15.9-23.6-11.8-49C1277.5,826.1,1273,838.8,1287.3,854z"/>
		<path class="st19" d="M1314.1,811.1c-3.2,20.2-13.1,35.5-22.1,34.1c-9-1.4-10.4-18.5-7.2-38.7c3.2-20.2,9.8-36,18.8-34.6
			C1312.6,773.3,1317.3,790.8,1314.1,811.1z"/>
		<path class="st47" d="M1310.8,810.9c-1.9,11.9-7.8,20.9-13.2,20c-5.4-0.9-4.9-11.1-3-23c1.9-11.9,4.5-21,9.9-20.1
			C1309.8,788.7,1312.7,799,1310.8,810.9z"/>
	</g>
	<g>
		<path class="st15" d="M1264,876.3c0-0.1,0-0.1,0-0.2h-5.1c0-1.7,4.2-16.5,7.7-28.6l0.4-1.5l69.9-12.5l7.4,26.8l-4.9,1.4l-6.2-22.3
			l-62.2,11.2C1267.7,862.1,1264.2,874.8,1264,876.3z"/>
	</g>
	<g>
		<path class="st45" d="M1337.8,819.6c-4,25.4-17.7,44.4-30.5,42.3c-12.8-2-15.9-23.6-11.8-49c4-25.4,13.6-45,26.4-43
			S1341.8,794.2,1337.8,819.6z"/>
		<path class="st46" d="M1307.3,862c-12.8-2-15.9-23.6-11.8-49C1297.5,834.1,1293,846.8,1307.3,862z"/>
		<path class="st19" d="M1334.1,819.1c-3.2,20.2-13.1,35.5-22.1,34.1c-9-1.4-10.4-18.5-7.2-38.7c3.2-20.2,9.8-36,18.8-34.6
			C1332.6,781.3,1337.3,798.8,1334.1,819.1z"/>
		<path class="st45" d="M1330.8,818.9c-1.9,11.9-7.8,20.9-13.2,20c-5.4-0.9-4.9-11.1-3-23c1.9-11.9,4.5-21,9.9-20.1
			C1329.8,796.7,1332.7,807,1330.8,818.9z"/>
	</g>
	<g>
		<path class="st15" d="M1280.9,883.1c0-0.1,0-0.1,0-0.2h-5.1c0-1.7,4.2-16.5,7.7-28.6l0.4-1.5l69.9-12.5l7.4,26.8l-4.9,1.4
			l-6.2-22.3l-62.2,11.2C1284.7,868.9,1281.1,881.5,1280.9,883.1z"/>
	</g>
</g>
<g id="Layer_2">
	<g>
		<path class="st45" d="M1508.4,434.1c-1.2-11.3-10.8-20.1-22.4-20.1s-21.2,8.8-22.4,20.1c-37.1,7-68.1,31.2-84.5,63.9h213.8
			C1576.5,465.3,1545.4,441.1,1508.4,434.1z"/>
		<path class="st48" d="M1508.4,434.1c-1.2-11.3-10.8-20.1-22.4-20.1c13,12,14.2,10.7,13,22c31,11,40,40,40,62h53.9
			C1576.5,465.3,1545.4,441.1,1508.4,434.1z"/>
		<path class="st49" d="M1486,414c-11.6,0-21.2,8.8-22.4,20.1c-37.1,7-68.1,31.2-84.5,63.9l36.9-14c-11.8-23.5,26.4-38,59.4-45
			C1480,424,1480,424,1486,414z"/>
		<line class="st50" x1="1486" y1="414" x2="1486" y2="-17"/>
		<ellipse class="st51" cx="1486" cy="498.5" rx="107" ry="7.5"/>
		<path class="st52" d="M1501.6,491c-5.1-0.1-10.3-0.1-15.6-0.1s-10.5,0-15.6,0.1c-1.5,2.6-2.4,5.7-2.4,9c0,2.1,0.4,4.1,1,5.9
			c2.5,7,9.1,12.1,17,12.1s14.5-5,17-12.1c0.7-1.9,1-3.9,1-5.9C1504,496.7,1503.1,493.7,1501.6,491z"/>
	</g>
	<g>
		<path class="st45" d="M930.9,178.3c-3-28.1-26.7-49.9-55.5-49.9c-28.8,0-52.6,21.9-55.5,49.9c-92,17.4-169,77.4-209.8,158.6h530.6
			C1100,255.6,1023,195.7,930.9,178.3z"/>
		<path class="st48" d="M930.9,178.3c-3-28.1-26.7-49.9-55.5-49.9c32.3,29.8,35.2,26.6,32.3,54.6c77,27.3,99.3,99.3,99.3,153.9
			h133.7C1100,255.6,1023,195.7,930.9,178.3z"/>
		<path class="st49" d="M875.4,128.3c-28.8,0-52.6,21.9-55.5,49.9c-92,17.4-169,77.4-209.8,158.6l91.5-34.8
			c-29.3-58.4,65.7-94.4,147.5-111.8C860.5,153.2,860.5,153.2,875.4,128.3z"/>
		<line class="st53" x1="875.4" y1="128.3" x2="875.4" y2="-222"/>
		<ellipse class="st51" cx="875.4" cy="338.1" rx="265.7" ry="18.7"/>
		<path class="st52" d="M914.1,319.6c-12.6-0.1-25.6-0.2-38.7-0.2c-13.2,0-26.1,0.1-38.7,0.2c-3.8,6.6-6,14.1-6,22.2
			c0,5.2,0.9,10.1,2.5,14.7c6.1,17.4,22.6,29.9,42.1,29.9c19.5,0,36-12.5,42.1-29.9c1.6-4.6,2.5-9.6,2.5-14.7
			C920.1,333.7,917.9,326.2,914.1,319.6z"/>
	</g>
</g>
<g id="Layer_13">
</g>
<g id="Layer_14">
	<rect x="1431" y="540" class="st54" width="12" height="40"/>
	<rect x="1443" y="540" class="st55" width="12" height="40"/>
	<rect x="1460" y="540" class="st54" width="12" height="40"/>
	<rect x="1472" y="540" class="st55" width="12" height="40"/>
	<rect x="1489" y="553.2" class="st54" width="8.1" height="26.8"/>
	<rect x="1497.1" y="553.2" class="st55" width="8.1" height="26.8"/>
	<g>
		<g>
			<path class="st20" d="M1449,848c-0.7,6-17.9,27-17.9,27l70.6,8.4L1520,855L1449,848z"/>
		</g>
		<g>
			
				<ellipse transform="matrix(0.1183 -0.993 0.993 0.1183 439.7434 2199.2183)" class="st44" cx="1458.3" cy="852" rx="9.5" ry="9"/>
			
				<ellipse transform="matrix(0.1183 -0.993 0.993 0.1183 439.7434 2199.2183)" class="st56" cx="1458.3" cy="852" rx="9.5" ry="9"/>
			
				<ellipse transform="matrix(0.1183 -0.993 0.993 0.1183 451.0009 2215.8928)" class="st44" cx="1473.3" cy="854" rx="9.5" ry="9"/>
			
				<ellipse transform="matrix(0.1183 -0.993 0.993 0.1183 434.0702 2216.7993)" class="st57" cx="1465.4" cy="864" rx="9.5" ry="9"/>
			
				<ellipse transform="matrix(0.1183 -0.993 0.993 0.1183 464.1144 2232.6619)" class="st57" cx="1489.3" cy="855" rx="9.5" ry="9"/>
			
				<ellipse transform="matrix(0.1183 -0.993 0.993 0.1183 447.1836 2233.5684)" class="st56" cx="1481.4" cy="865" rx="9.5" ry="9"/>
			
				<ellipse transform="matrix(0.1183 -0.993 0.993 0.1183 477.1165 2251.3059)" class="st56" cx="1506.3" cy="857" rx="9.5" ry="9"/>
			
				<ellipse transform="matrix(0.1183 -0.993 0.993 0.1183 460.1858 2252.2122)" class="st44" cx="1498.4" cy="867" rx="9.5" ry="9"/>
			<ellipse transform="matrix(0.1183 -0.993 0.993 0.1183 420.133 2197.0999)" class="st44" cx="1447.3" cy="862" rx="9.5" ry="9"/>
		</g>
	</g>
	<g>
		<g>
			<g>
				<path class="st20" d="M1762,824l14,15l2.8,58.7L1750,909l-27-3l-1-59c0,0,7.1-13.7,12-16S1762,824,1762,824z"/>
			</g>
			<g>
				<polygon class="st21" points="1744,851 1750,909 1723,906 1722,847 1734,831 				"/>
			</g>
		</g>
		<g>
			<g>
				<g>
					<path class="st21" d="M1801,827l14,15l2.8,58.7L1789,912l-27-3l-1-59c0,0,7.1-13.7,12-16S1801,827,1801,827z"/>
				</g>
				<g>
					<polygon class="st58" points="1783,854 1789,912 1762,909 1761,850 1773,834 					"/>
				</g>
			</g>
		</g>
	</g>
	<g>
		<polygon class="st5" points="1442,593 1443,599 1437,615.9 1439,645 1458,645 1462,642 1467,644 1463.9,608.1 1458,598.5 
			1458,594 		"/>
		<g>
			<path class="st21" d="M1454.4,614.5c0,0,0,29.5,1.8,30c1.8,0.5,5.5-7.2,5.5-7.2l2.7,0.9l-2.7-29.2l-2.3-3.2l1.4,5.9l1.8,24.1
				l-3.2-1.4l-1.4-25L1454.4,614.5z"/>
		</g>
	</g>
	<g>
		<polygon class="st5" points="1466,593 1467,599 1461,615.9 1463,645 1482,645 1486,642 1491,644 1487.9,608.1 1482,598.5 
			1482,594 		"/>
		<g>
			<path class="st21" d="M1478.4,614.5c0,0,0,29.5,1.8,30c1.8,0.5,5.5-7.2,5.5-7.2l2.7,0.9l-2.7-29.2l-2.3-3.2l1.4,5.9l1.8,24.1
				l-3.2-1.4l-1.4-25L1478.4,614.5z"/>
		</g>
	</g>
	<g>
		<polygon class="st5" points="1490,593 1491,599 1485,615.9 1487,645 1506,645 1510,642 1515,644 1511.9,608.1 1506,598.5 
			1506,594 		"/>
		<g>
			<path class="st21" d="M1502.4,614.5c0,0,0,29.5,1.8,30c1.8,0.5,5.5-7.2,5.5-7.2l2.7,0.9l-2.7-29.2l-2.3-3.2l1.4,5.9l1.8,24.1
				l-3.2-1.4l-1.4-25L1502.4,614.5z"/>
		</g>
	</g>
	<g>
		<polygon class="st5" points="1514,593 1515,599 1509,615.9 1511,645 1530,645 1534,642 1539,644 1535.9,608.1 1530,598.5 
			1530,594 		"/>
		<g>
			<path class="st21" d="M1526.4,614.5c0,0,0,29.5,1.8,30c1.8,0.5,5.5-7.2,5.5-7.2l2.7,0.9l-2.7-29.2l-2.3-3.2l1.4,5.9l1.8,24.1
				l-3.2-1.4l-1.4-25L1526.4,614.5z"/>
		</g>
	</g>
	<g>
		<path class="st59" d="M1624.3,785.9c1,1.3,5.4,3.6,5.4,3.6l5.3,43.9l-3.5,5l6.3,6.4c0,0,4.8,42.6,2.3,44.7c-2.6,2-30,6.9-36.1,3.9
			s-8.7-5.7-8.7-5.7s6-40.2,5-42c-0.9-1.9,3-5.5,3.2-7.2c0.2-1.7-1.9-5.6-1.9-5.6l5.2-41.9l4.9-6.4L1624.3,785.9z"/>
		<g>
			<path class="st60" d="M1611.9,772.2c-0.1,1.2-1.4,12.1-1.4,12.1l13.8,1.7l1.4-12.1l-7.2-3.2L1611.9,772.2z"/>
		</g>
	</g>
	<g>
		<g>
			<path class="st20" d="M1660.3,791.9c1,1.3,5.4,3.6,5.4,3.6l5.3,43.9l-3.5,5l6.3,6.4c0,0,4.8,42.6,2.3,44.7
				c-2.6,2-30,6.9-36.1,3.9s-8.7-5.7-8.7-5.7s6-40.2,5-42c-0.9-1.9,3-5.5,3.2-7.2c0.2-1.7-1.9-5.6-1.9-5.6l5.2-41.9l4.9-6.4
				L1660.3,791.9z"/>
		</g>
		<g>
			<path class="st58" d="M1647.9,778.2c-0.1,1.2-1.4,12.1-1.4,12.1l13.8,1.7l1.4-12.1l-7.2-3.2L1647.9,778.2z"/>
		</g>
	</g>
	<g>
		<polygon class="st21" points="1502,890 1507,890 1520,874 1520,854 1502,882 1431,874 1431,882 		"/>
	</g>
</g>
</svg>
