<?xml version="1.0" encoding="UTF-8" standalone="no"?>
<!-- Created with Inkscape (http://www.inkscape.org/) -->

<svg
   xmlns:dc="http://purl.org/dc/elements/1.1/"
   xmlns:cc="http://creativecommons.org/ns#"
   xmlns:rdf="http://www.w3.org/1999/02/22-rdf-syntax-ns#"
   xmlns:svg="http://www.w3.org/2000/svg"
   xmlns="http://www.w3.org/2000/svg"
   xmlns:sodipodi="http://sodipodi.sourceforge.net/DTD/sodipodi-0.dtd"
   xmlns:inkscape="http://www.inkscape.org/namespaces/inkscape"
   width="400"
   height="530"
   viewBox="0 0 105.83333 140.2294"
   version="1.1"
   id="svg8"
   inkscape:version="0.92.3 (2405546, 2018-03-11)"
   sodipodi:docname="arrow_bot.svg">
  <defs
     id="defs2" />
  <sodipodi:namedview
     id="base"
     pagecolor="#ffffff"
     bordercolor="#666666"
     borderopacity="1.0"
     inkscape:pageopacity="0.0"
     inkscape:pageshadow="2"
     inkscape:zoom="0.98994949"
     inkscape:cx="206.86459"
     inkscape:cy="335.64971"
     inkscape:document-units="mm"
     inkscape:current-layer="layer1"
     showgrid="false"
     units="px"
     inkscape:window-width="1920"
     inkscape:window-height="1017"
     inkscape:window-x="-8"
     inkscape:window-y="100"
     inkscape:window-maximized="1" />
  <metadata
     id="metadata5">
    <rdf:RDF>
      <cc:Work
         rdf:about="">
        <dc:format>image/svg+xml</dc:format>
        <dc:type
           rdf:resource="http://purl.org/dc/dcmitype/StillImage" />
        <dc:title></dc:title>
      </cc:Work>
    </rdf:RDF>
  </metadata>
  <g
     inkscape:label="Calque 1"
     inkscape:groupmode="layer"
     id="layer1"
     transform="translate(0,-156.77057)">
    <path
       style="fill:#ffffff;stroke:#000000;stroke-width:0.26458377px;stroke-linecap:butt;stroke-linejoin:miter;stroke-opacity:1"
       d="m 8.5525492,238.73512 46.2377038,53.45399 50.249427,-56.53543 -27.264209,0.14147 -1.603618,-72.69744 -46.578714,0.81706 0.07374,71.34583 z"
       id="path4528"
       inkscape:connector-curvature="0"
       sodipodi:nodetypes="cccccccc" />
    <path
       id="path4518"
       d="m 105.03968,235.65368 c 0,0.93027 -0.32649,1.84996 -0.95541,2.58365 l -47.62499,55.5625 c -0.75407,0.87974 -1.85473,1.38589 -3.01334,1.38589 -1.15861,0 -2.25928,-0.50615 -3.01334,-1.38589 L 2.8075994,238.23733 c -1.00886,-1.1766 -1.24011,-2.83342 -0.59241,-4.241 0.64797,-1.40838 2.05582,-2.31061 3.60575,-2.31061 H 25.66469 V 163.6878 c 0,-2.1918 1.77694,-3.96875 3.96875,-3.96875 h 47.625 c 2.1918,0 3.96875,1.77695 3.96875,3.96875 v 67.99792 h 19.84374 c 1.54993,0 2.95804,0.90223 3.60574,2.31034 0.24395,0.53023 0.36301,1.09591 0.36301,1.65762 z M 53.44594,285.11859 92.44208,239.62322 H 77.25844 c -2.19181,0 -3.96875,-1.77694 -3.96875,-3.96875 v -67.99792 h -39.6875 v 67.99792 c 0,2.19181 -1.77695,3.96875 -3.96875,3.96875 H 14.44979 Z"
       style="fill:#3282f9;stroke-width:0.26458332"
       inkscape:connector-curvature="0" />
  </g>
</svg>
