<?xml version="1.0" encoding="UTF-8" standalone="no"?>
<!-- Generator: Adobe Illustrator 19.0.0, SVG Export Plug-In . SVG Version: 6.00 Build 0)  -->

<svg
   xmlns:dc="http://purl.org/dc/elements/1.1/"
   xmlns:cc="http://creativecommons.org/ns#"
   xmlns:rdf="http://www.w3.org/1999/02/22-rdf-syntax-ns#"
   xmlns:svg="http://www.w3.org/2000/svg"
   xmlns="http://www.w3.org/2000/svg"
   xmlns:sodipodi="http://sodipodi.sourceforge.net/DTD/sodipodi-0.dtd"
   xmlns:inkscape="http://www.inkscape.org/namespaces/inkscape"
   version="1.1"
   id="Layer_1"
   x="0px"
   y="0px"
   viewBox="0 0 492 492"
   style="enable-background:new 0 0 492 492;"
   xml:space="preserve"
   sodipodi:docname="arrow_left.svg"
   inkscape:version="0.92.3 (2405546, 2018-03-11)"><metadata
   id="metadata934"><rdf:RDF><cc:Work
       rdf:about=""><dc:format>image/svg+xml</dc:format><dc:type
         rdf:resource="http://purl.org/dc/dcmitype/StillImage" /><dc:title></dc:title></cc:Work></rdf:RDF></metadata><defs
   id="defs932" /><sodipodi:namedview
   pagecolor="#ffffff"
   bordercolor="#666666"
   borderopacity="1"
   objecttolerance="10"
   gridtolerance="10"
   guidetolerance="10"
   inkscape:pageopacity="0"
   inkscape:pageshadow="2"
   inkscape:window-width="1853"
   inkscape:window-height="1025"
   id="namedview930"
   showgrid="false"
   inkscape:zoom="1.7154472"
   inkscape:cx="246"
   inkscape:cy="246"
   inkscape:window-x="67"
   inkscape:window-y="27"
   inkscape:window-maximized="1"
   inkscape:current-layer="Layer_1" />
<g
   id="g897">
	<g
   id="g895">
		<path
   d="M464.344,207.418l0.768,0.168H135.888l103.496-103.724c5.068-5.064,7.848-11.924,7.848-19.124    c0-7.2-2.78-14.012-7.848-19.088L223.28,49.538c-5.064-5.064-11.812-7.864-19.008-7.864c-7.2,0-13.952,2.78-19.016,7.844    L7.844,226.914C2.76,231.998-0.02,238.77,0,245.974c-0.02,7.244,2.76,14.02,7.844,19.096l177.412,177.412    c5.064,5.06,11.812,7.844,19.016,7.844c7.196,0,13.944-2.788,19.008-7.844l16.104-16.112c5.068-5.056,7.848-11.808,7.848-19.008    c0-7.196-2.78-13.592-7.848-18.652L134.72,284.406h329.992c14.828,0,27.288-12.78,27.288-27.6v-22.788    C492,219.198,479.172,207.418,464.344,207.418z"
   id="path893" />
	</g>
</g>
<g
   id="g899">
</g>
<g
   id="g901">
</g>
<g
   id="g903">
</g>
<g
   id="g905">
</g>
<g
   id="g907">
</g>
<g
   id="g909">
</g>
<g
   id="g911">
</g>
<g
   id="g913">
</g>
<g
   id="g915">
</g>
<g
   id="g917">
</g>
<g
   id="g919">
</g>
<g
   id="g921">
</g>
<g
   id="g923">
</g>
<g
   id="g925">
</g>
<g
   id="g927">
</g>
</svg>