<svg height="512pt" viewBox="-34 0 512 512.00002" width="512pt" xmlns="http://www.w3.org/2000/svg"><path d="m389.171875 224.523438c6.734375-12.59375 10.566406-26.972657 10.566406-42.253907 0-49.164062-39.558593-89.066406-88.582031-89.664062-2.441406-47.355469-41.609375-85.003907-89.570312-85.003907-47.964844 0-87.132813 37.648438-89.574219 85.003907-49.019531.597656-88.582031 40.5-88.582031 89.664062 0 15.28125 3.832031 29.660157 10.570312 42.253907-27.65625 15.277343-46.394531 44.722656-46.394531 78.550781 0 49.539062 40.15625 89.695312 89.695312 89.695312h248.570313c49.535156 0 89.695312-40.15625 89.695312-89.695312 0-33.828125-18.738281-63.273438-46.394531-78.550781zm0 0" fill="#ff9216"/><path d="m221.589844 7.601562c-28.539063 0-51.835938 37.652344-53.285156 85.003907-29.15625.601562-52.683594 40.5-52.683594 89.667969 0 15.277343 2.28125 29.652343 6.285156 42.246093-16.453125 15.277344-27.59375 44.726563-27.59375 78.554688 0 49.542969 23.882812 89.699219 53.34375 89.699219h-50.355469c-49.542969 0-89.695312-40.15625-89.695312-89.699219 0-33.828125 18.734375-63.277344 46.386719-78.554688-6.730469-12.59375-10.5625-26.96875-10.5625-42.246093 0-49.167969 39.558593-89.066407 88.582031-89.667969 2.445312-47.351563 41.605469-85.003907 89.578125-85.003907zm0 0" fill="#e8590c"/><path d="m301.457031 268.089844c-4.53125-10.242188-16.503906-14.871094-26.742187-10.34375l-32.050782 14.179687v-61.617187c0-11.199219-9.078124-20.277344-20.277343-20.277344s-20.273438 9.078125-20.273438 20.277344v61.617187l-32.054687-14.179687c-10.238282-4.527344-22.210938.101562-26.742188 10.34375-4.527344 10.242187.101563 22.210937 10.34375 26.742187l48.453125 21.429688v188.136719h40.550781v-188.132813l48.453126-21.433594c10.238281-4.53125 14.867187-16.5 10.339843-26.742187zm0 0" fill="#936a60"/><path d="m399.046875 221.59375c5.441406-12.324219 8.292969-25.78125 8.292969-39.328125 0-25.777344-9.980469-50.066406-28.101563-68.390625-16.476562-16.660156-37.957031-26.648438-61.085937-28.550781-5.914063-48.371094-47.074219-85.324219-96.570313-85.324219-17.417969 0-34.511719 4.660156-49.429687 13.476562-3.613282 2.136719-4.8125 6.796876-2.675782 10.414063 2.136719 3.613281 6.796876 4.8125 10.414063 2.675781 12.574219-7.433594 26.992187-11.359375 41.691406-11.359375 43.722657 0 79.730469 34.167969 81.980469 77.785157.207031 4.007812 3.488281 7.164062 7.5 7.210937 21.714844.265625 42.085938 8.917969 57.363281 24.363281 15.285157 15.460938 23.707031 35.953125 23.707031 57.699219 0 13.476563-3.34375 26.847656-9.667968 38.664063-1.960938 3.667968-.613282 8.230468 3.027344 10.242187 26.199218 14.480469 42.472656 42.03125 42.472656 71.902344 0 45.269531-36.828125 82.097656-82.097656 82.097656h-95.605469v-63.957031l43.925781-19.429688c14.058594-6.21875 20.4375-22.714844 14.222656-36.773437-6.21875-14.054688-22.714844-20.433594-36.773437-14.214844l-21.371094 9.453125v-49.941406c0-15.371094-12.507813-27.878906-27.878906-27.878906-15.375 0-27.878907 12.503906-27.878907 27.878906v49.941406l-21.371093-9.453125c-14.0625-6.21875-30.554688.160156-36.773438 14.21875-6.21875 14.054687.160157 30.550781 14.21875 36.769531l43.925781 19.429688v63.957031h-97.207031c-45.265625 0-82.09375-36.828125-82.09375-82.09375 0-29.875 16.273438-57.425781 42.472657-71.90625 3.640624-2.011719 4.988281-6.578125 3.019531-10.246094-6.324219-11.804687-9.671875-25.175781-9.671875-38.660156 0-21.746094 8.421875-42.238281 23.714844-57.695313 15.277343-15.445312 35.648437-24.101562 57.367187-24.363281 4.011719-.050781 7.296875-3.207031 7.5-7.210937.957031-18.558594 7.941406-35.765625 20.203125-49.765625 2.765625-3.15625 2.449219-7.960938-.710938-10.726563-3.15625-2.765625-7.960937-2.449218-10.726562.707032-12.804688 14.621093-20.957031 32.910156-23.347656 52.113281-23.132813 1.898437-44.617188 11.890625-61.097656 28.550781-18.125 18.324219-28.105469 42.613281-28.105469 68.390625 0 13.554687 2.851562 27.011719 8.296875 39.332031-27.386719 17.902344-44.121094 48.496094-44.121094 81.480469 0 53.652344 43.648438 97.300781 97.300781 97.300781h97.207031v104.019532c0 4.199218 3.402344 7.601562 7.601563 7.601562h40.550781c4.199219 0 7.605469-3.402344 7.605469-7.601562v-44.207032c0-4.199218-3.40625-7.605468-7.605469-7.605468-4.199218 0-7.601562 3.40625-7.601562 7.605468v36.601563h-25.34375v-180.527344c0-3.011719-1.777344-5.738281-4.527344-6.953125l-48.453125-21.433594c-6.390625-2.824218-9.289063-10.324218-6.464844-16.714844 2.828125-6.390624 10.324219-9.289062 16.714844-6.460937l32.050781 14.175781c2.347656 1.039063 5.070313.820313 7.222656-.582031 2.15625-1.402344 3.457032-3.800781 3.457032-6.371094v-61.617187c0-6.988282 5.683594-12.671875 12.671875-12.671875 6.984375 0 12.671875 5.683593 12.671875 12.671875v61.617187c0 2.570313 1.296875 4.96875 3.453125 6.371094s4.871093 1.621094 7.226562.582031l32.050781-14.175781c6.390626-2.824219 13.886719.074219 16.714844 6.460937 2.824219 6.390626-.074218 13.890626-6.464844 16.714844l-48.453124 21.433594c-2.753907 1.214844-4.527344 3.941406-4.527344 6.953125v118.578125c0 4.199219 3.40625 7.601562 7.601562 7.601562 4.199219 0 7.605469-3.402343 7.605469-7.601562v-34.464844h95.605469c53.652344 0 97.300781-43.648437 97.300781-97.300781 0-32.988281-16.734375-63.582031-44.125-81.484375zm0 0"/><path d="m306.832031 186.792969 19.007813-19.007813c2.96875-2.96875 2.96875-7.785156 0-10.75-2.96875-2.972656-7.785156-2.972656-10.75 0l-19.007813 19.003906c-2.96875 2.972657-2.96875 7.785157 0 10.753907 1.484375 1.484375 3.429688 2.226562 5.375 2.226562 1.945313 0 3.890625-.742187 5.375-2.226562zm0 0"/><path d="m367.65625 311.480469 19.007812-19.007813c2.96875-2.96875 2.96875-7.785156 0-10.753906-2.972656-2.96875-7.785156-2.96875-10.753906 0l-19.007812 19.007812c-2.96875 2.96875-2.96875 7.785157 0 10.753907 1.484375 1.484375 3.433594 2.226562 5.378906 2.226562s3.890625-.742187 5.375-2.226562zm0 0"/><path d="m124.363281 165.503906 19.007813-19.007812c2.96875-2.96875 2.96875-7.78125 0-10.75s-7.78125-2.96875-10.75 0l-19.007813 19.007812c-2.96875 2.96875-2.96875 7.78125 0 10.75 1.484375 1.484375 3.429688 2.226563 5.375 2.226563 1.945313 0 3.890625-.742188 5.375-2.226563zm0 0"/><path d="m159.230469 152.828125c1.484375 1.484375 3.429687 2.230469 5.375 2.230469 1.945312 0 3.890625-.742188 5.375-2.230469l19.007812-19.003906c2.96875-2.972657 2.96875-7.785157 0-10.753907s-7.785156-2.96875-10.75 0l-19.007812 19.007813c-2.96875 2.96875-2.96875 7.78125 0 10.75zm0 0"/><path d="m104.488281 325.054688-19.007812 19.007812c-2.96875 2.96875-2.96875 7.785156 0 10.753906 1.484375 1.484375 3.433593 2.226563 5.378906 2.226563s3.890625-.742188 5.375-2.226563l19.007813-19.007812c2.96875-2.96875 2.96875-7.785156 0-10.753906s-7.785157-2.96875-10.753907 0zm0 0"/></svg>