<?xml version="1.0" encoding="iso-8859-1"?>
<!-- Generator: Adobe Illustrator 19.0.0, SVG Export Plug-In . SVG Version: 6.00 Build 0)  -->
<svg version="1.1" id="Capa_1" xmlns="http://www.w3.org/2000/svg" xmlns:xlink="http://www.w3.org/1999/xlink" x="0px" y="0px"
	 viewBox="0 0 512 512" style="enable-background:new 0 0 512 512;" xml:space="preserve">
<linearGradient id="SVGID_1_" gradientUnits="userSpaceOnUse" x1="126" y1="258" x2="386" y2="258" gradientTransform="matrix(1 0 0 -1 0 514)">
	<stop  offset="0" style="stop-color:#80D8FF"/>
	<stop  offset="1" style="stop-color:#EA80FC"/>
</linearGradient>
<path style="fill:url(#SVGID_1_);" d="M386,277v-75c0-3.453-0.894-6.847-2.595-9.852L326,90.732V20c0-11.046-8.954-20-20-20H206
	c-11.046,0-20,8.954-20,20v70.732l-57.405,101.416C126.894,195.153,126,198.547,126,202v75c0,11.046,8.954,20,20,20v60
	c-11.046,0-20,8.954-20,20v115c0,11.046,8.954,20,20,20h220c11.046,0,20-8.954,20-20V377c0-11.046-8.954-20-20-20v-60
	C377.046,297,386,288.046,386,277z M226,40h60v36h-60V40z M166,207.268L217.661,116h76.678L346,207.268V257H166V207.268z M186,297
	h140v60H186V297z M346,472H166v-75h180V472z"/>
<g>
</g>
<g>
</g>
<g>
</g>
<g>
</g>
<g>
</g>
<g>
</g>
<g>
</g>
<g>
</g>
<g>
</g>
<g>
</g>
<g>
</g>
<g>
</g>
<g>
</g>
<g>
</g>
<g>
</g>
</svg>
