<svg height="511pt" viewBox="0 -16 511.99999 511" width="511pt" xmlns="http://www.w3.org/2000/svg" xmlns:xlink="http://www.w3.org/1999/xlink"><linearGradient id="a" gradientUnits="userSpaceOnUse" x1="255.9999876078" x2="255.9999876078" y1="161.1053340078" y2="507.0648865838"><stop offset="0" stop-color="#dab49d"/><stop offset=".3389" stop-color="#d9b29a"/><stop offset=".5402" stop-color="#d6ad92"/><stop offset=".7054" stop-color="#d1a484"/><stop offset=".8511" stop-color="#ca9870"/><stop offset=".9827" stop-color="#c18856"/><stop offset="1" stop-color="#c08552"/></linearGradient><linearGradient id="b"><stop offset="0" stop-color="#f2e9dc"/><stop offset=".2282" stop-color="#f0e4d7"/><stop offset=".5158" stop-color="#ead7c7"/><stop offset=".8338" stop-color="#e0c2ad"/><stop offset="1" stop-color="#dab49d"/></linearGradient><linearGradient id="c" gradientUnits="userSpaceOnUse" x1="157.316061283" x2="658.8485873734" xlink:href="#b" y1="136.1959209516" y2="637.7285474342"/><linearGradient id="d"><stop offset="0" stop-color="#c08552" stop-opacity="0"/><stop offset="1" stop-color="#c08552"/></linearGradient><linearGradient id="e" gradientUnits="userSpaceOnUse" x1="255.9999876078" x2="255.9999876078" xlink:href="#d" y1="414.4294899168" y2="525.1115892402"/><linearGradient id="f" gradientUnits="userSpaceOnUse" x1="177.833215197" x2="575.0934831496" xlink:href="#b" y1="279.662599068" y2="676.9228670206"/><linearGradient id="g"><stop offset="0" stop-color="#dab49d" stop-opacity="0"/><stop offset=".4385" stop-color="#ce9e7a" stop-opacity=".439216"/><stop offset="1" stop-color="#c08552"/></linearGradient><linearGradient id="h" gradientUnits="userSpaceOnUse" x1="241.7926842482" x2="314.007705082" xlink:href="#g" y1="66.0519912038" y2="481.288285704"/><linearGradient id="i"><stop offset="0" stop-color="#be3f45" stop-opacity="0"/><stop offset="1" stop-color="#be3f45"/></linearGradient><linearGradient id="j" gradientUnits="userSpaceOnUse" x1="92.7010311658" x2="9.542758571" xlink:href="#i" y1="248.4731519408" y2="248.4731519408"/><linearGradient id="k" gradientUnits="userSpaceOnUse" x1="98.2873551348" x2="55.9211439894" xlink:href="#g" y1="274.7767114784" y2="244.468607475"/><linearGradient id="l"><stop offset="0" stop-color="#ff4b3e"/><stop offset=".1888" stop-color="#fb4a3c"/><stop offset=".3876" stop-color="#ee4635"/><stop offset=".5911" stop-color="#d9402a"/><stop offset=".7963" stop-color="#bc381a"/><stop offset="1" stop-color="#972e07"/></linearGradient><linearGradient id="m" gradientUnits="userSpaceOnUse" x1="65.9303467216" x2="86.7395415454" xlink:href="#l" y1="248.473252333" y2="248.473252333"/><linearGradient id="n" gradientUnits="userSpaceOnUse" x1="470.1892561128" x2="387.0312846946" xlink:href="#i" y1="248.4731519408" y2="248.4731519408"/><linearGradient id="o" gradientUnits="userSpaceOnUse" x1="475.775680474" x2="433.4095697208" xlink:href="#g" y1="274.7767114784" y2="244.4687078672"/><linearGradient id="p" gradientUnits="userSpaceOnUse" x1="443.418772453" x2="464.2278668846" xlink:href="#l" y1="248.473252333" y2="248.473252333"/><linearGradient id="q" gradientUnits="userSpaceOnUse" x1="297.7143521986" x2="179.4120833264" xlink:href="#g" y1="151.4399745606" y2="-94.5870738992"/><linearGradient id="r" gradientUnits="userSpaceOnUse" x1="255.5961097872" x2="256.713876542" y1="13.7428361782" y2="104.2881676334"><stop offset="0" stop-color="#ffe548"/><stop offset=".2472" stop-color="#ffe042"/><stop offset=".5621" stop-color="#ffd133"/><stop offset=".9123" stop-color="#ffb919"/><stop offset="1" stop-color="#ffb211"/></linearGradient><linearGradient id="s" gradientUnits="userSpaceOnUse" x1="256.000088" x2="256.000088" xlink:href="#d" y1="427.2123283506" y2="517.1369348332"/><linearGradient id="t" gradientTransform="matrix(.979727 -.219256 .219256 .979727 238.257873 487.728028)" gradientUnits="userSpaceOnUse" x1="55.4642" x2="182.2348" y1="-248.7557" y2="-98.5814"><stop offset="0" stop-color="#acc130"/><stop offset="1" stop-color="#97a03b"/></linearGradient><linearGradient id="u"><stop offset="0" stop-color="#97a03b" stop-opacity="0"/><stop offset="1" stop-color="#575c55"/></linearGradient><linearGradient id="v" gradientTransform="matrix(.979727 -.219256 .219256 .979727 238.257873 487.728028)" gradientUnits="userSpaceOnUse" x1="132.8536" x2="16.8154" xlink:href="#u" y1="-174.214" y2="-277.5759"/><linearGradient id="w" gradientTransform="matrix(.979727 -.219256 .219256 .979727 238.257873 487.728028)" gradientUnits="userSpaceOnUse" x1="29.4106" x2="59.6411" y1="-242.9931" y2="-203.986"><stop offset="0" stop-color="#97a03b"/><stop offset="1" stop-color="#6c7d47"/></linearGradient><linearGradient id="x" gradientUnits="userSpaceOnUse" x1="256.3104002902" x2="256.3104002902" xlink:href="#u" y1="134.1544455646" y2="327.7305852124"/><path d="m454.589844 479.929688h-397.179688c-18.152344 0-32.867187-14.714844-32.867187-32.867188v-397.179688c0-18.152343 14.714843-32.867187 32.867187-32.867187h397.179688c18.152344 0 32.863281 14.714844 32.863281 32.867187v397.179688c.003906 18.152344-14.710937 32.867188-32.863281 32.867188zm0 0" fill="url(#a)"/><path d="m454.933594 452.742188h-397.867188c-17.960937 0-32.523437-14.558594-32.523437-32.519532v-370.683594c0-17.960937 14.5625-32.519531 32.523437-32.519531h397.867188c17.960937 0 32.519531 14.558594 32.519531 32.519531v370.683594c.003906 17.960938-14.558594 32.519532-32.519531 32.519532zm0 0" fill="url(#c)"/><path d="m24.542969 394.453125v52.609375c0 18.152344 14.714843 32.867188 32.867187 32.867188h397.179688c18.152344 0 32.863281-14.714844 32.863281-32.867188v-52.609375zm0 0" fill="url(#e)"/><path d="m24.542969 248.472656-24.304688 179.898438c-2.109375 15.625 10.039063 29.527344 25.808594 29.527344h459.90625c15.769531 0 27.917969-13.902344 25.808594-29.527344l-24.304688-179.898438zm0 0" fill="url(#f)"/><path d="m454.589844 17.015625h-397.179688c-18.152344 0-32.867187 14.714844-32.867187 32.867187v198.589844h462.914062v-198.589844c0-18.152343-14.714843-32.867187-32.867187-32.867187zm0 0" fill="url(#h)"/><path d="m67.222656 281.171875c-9.539062 0-17.273437-7.734375-17.273437-17.273437v-30.851563c0-9.539063 7.734375-17.273437 17.273437-17.273437 9.542969 0 17.277344 7.734374 17.277344 17.273437v30.851563c0 9.539062-7.734375 17.273437-17.277344 17.273437zm0 0" fill="url(#j)"/><path d="m77.4375 226.261719c-2.5625-2.714844-6.1875-4.417969-10.214844-4.417969-7.769531 0-14.066406 6.300781-14.066406 14.070312v25.117188c0 4.027344 1.699219 7.652344 4.414062 10.214844l28.113282 28.117187c2.566406 2.710938 6.1875 4.414063 10.214844 4.414063 7.769531 0 14.070312-6.300782 14.070312-14.070313v-25.117187c0-4.027344-1.703125-7.652344-4.417969-10.214844zm0 0" fill="url(#k)"/><path d="m67.222656 275.101562c-7.769531 0-14.066406-6.300781-14.066406-14.070312v-25.117188c0-7.769531 6.296875-14.070312 14.066406-14.070312 7.769532 0 14.066406 6.300781 14.066406 14.070312v25.117188c0 7.773438-6.296874 14.070312-14.066406 14.070312zm0 0" fill="url(#m)"/><path d="m444.710938 281.171875c-9.542969 0-17.273438-7.734375-17.273438-17.273437v-30.851563c0-9.539063 7.730469-17.273437 17.273438-17.273437 9.542968 0 17.277343 7.734374 17.277343 17.273437v30.851563c0 9.539062-7.734375 17.273437-17.277343 17.273437zm0 0" fill="url(#n)"/><path d="m454.925781 226.261719c-2.5625-2.714844-6.1875-4.417969-10.214843-4.417969-7.769532 0-14.066407 6.300781-14.066407 14.070312v25.117188c0 4.027344 1.699219 7.652344 4.414063 10.214844l28.113281 28.117187c2.5625 2.710938 6.1875 4.414063 10.214844 4.414063 7.769531 0 14.066406-6.300782 14.066406-14.070313v-25.117187c0-4.027344-1.699219-7.652344-4.414063-10.214844zm0 0" fill="url(#o)"/><path d="m444.710938 275.101562c-7.769532 0-14.066407-6.300781-14.066407-14.070312v-25.117188c0-7.769531 6.296875-14.070312 14.066407-14.070312 7.769531 0 14.066406 6.300781 14.066406 14.070312v25.117188c0 7.773438-6.296875 14.070312-14.066406 14.070312zm0 0" fill="url(#p)"/><path d="m24.542969 87.003906 161.472656 161.46875h301.441406v-198.589844c0-18.152343-14.714843-32.867187-32.867187-32.867187h-397.179688c-18.152344 0-32.867187 14.714844-32.867187 32.867187zm0 0" fill="url(#q)"/><path d="m472.722656 92.417969h-433.445312c-11.929688 0-21.601563-9.671875-21.601563-21.601563v-48.714844c0-11.929687 9.671875-21.601562 21.601563-21.601562h433.445312c11.929688 0 21.601563 9.671875 21.601563 21.601562v48.714844c0 11.929688-9.671875 21.601563-21.601563 21.601563zm0 0" fill="url(#r)"/><path d="m.238281 428.371094c-2.109375 15.625 10.039063 29.527344 25.808594 29.527344h459.90625c15.769531 0 27.917969-13.902344 25.808594-29.527344l-6.230469-46.121094h-499.0625zm0 0" fill="url(#s)"/><path d="m166.664062 381.21875s-142.371093-207.789062 171.914063-266.425781c13.117187-2.449219 25.785156 5.976562 28.765625 18.980469 14.332031 62.523437 31.660156 233.066406-200.679688 247.445312zm0 0" fill="url(#t)"/><path d="m367.34375 133.773438c-1.652344-7.210938-6.289062-13-12.320312-16.324219-104.128907 113.542969-188.359376 263.773437-188.359376 263.773437 232.339844-14.382812 215.011719-184.925781 200.679688-247.449218zm0 0" fill="url(#v)"/><path d="m315.460938 210.785156c-2.429688.867188-4.929688 1.554688-7.386719 2.269532-2.457031.71875-4.898438 1.4375-7.371094 2.023437-2.460937.636719-5.027344.914063-7.546875 1.238281-2.523438.3125-4.890625 1.007813-7.179688 2.070313-2.261718 1.09375-4.488281 2.292969-6.707031 3.78125 1.847657-2.960938 3.691407-5.921875 5.539063-8.886719l9.199218-14.367188c3.046876-4.816406 6.359376-9.398437 9.480469-14.167968 6.398438-9.40625 13.105469-18.503906 20.46875-27.175782l-1.796875-1.9375-6.574218 5.660157-3.304688 2.855469c-1.074219.976562-2.070312 2.011718-3.113281 3.015624-4.035157 4.101563-8.3125 8.09375-12.132813 12.386719-7.925781 8.417969-15.378906 17.191407-22.902344 25.9375-1.40625 1.722657-2.808593 3.445313-4.214843 5.167969.003906-1.851562-.125-3.6875-.558594-5.527344-.566406-2.472656-1.195313-4.980468-1.445313-7.507812-.3125-2.523438-.480468-5.0625-.65625-7.617188-.179687-2.550781-.398437-5.132812-.425781-7.710937-.300781-5.199219-.113281-10.402344-.070312-15.765625l-1.425781-.351563c-2.308594 4.863281-4.269532 9.945313-5.789063 15.183594-.789063 2.613281-1.390625 5.269531-2.027344 7.941406-.5 2.683594-1 5.386719-1.351562 8.109375-.378907 2.722656-.921875 5.464844-1.335938 8.234375-.359375 2.769531-.25 5.546875.445313 8.257813.140625.53125.292968 1.0625.457031 1.589844 1.761719 5.757812.492187 12.023437-3.214844 16.765624l-.070312.089844c-6.453125 8.261719-12.707031 16.640625-19.011719 25-.054688-2.597656-.328125-5.046875-.710938-7.46875-.429687-2.488281-1.210937-4.828125-2.390624-7.082031-1.171876-2.253906-2.40625-4.519531-3.28125-6.90625-.933594-2.363281-1.734376-4.78125-2.542969-7.210937-.8125-2.425782-1.667969-4.871094-2.34375-7.359376-1.59375-4.957031-2.710938-10.042968-4.011719-15.246093l-1.46875.015625c-1.019531 5.285156-1.644531 10.699218-1.804688 16.148437-.109374 2.730469-.03125 5.449219.023438 8.199219.191406 2.722656.382812 5.464844.722656 8.1875.316406 2.730469.476563 5.519531.765625 8.308594.347657 2.769531 1.152344 5.433594 2.5 7.882812.609375 1.074219 1.265625 2.136719 1.980469 3.171875 3.484375 5.042969 3.09375 11.820313-.660156 16.664063-3.222656 4.160156-6.457032 8.316406-9.648438 12.496094-4.054687 5.292968-7.824218 10.769531-11.375 16.386718-.09375-2.234375-.339844-4.375-.671875-6.488281-.429687-2.484375-1.210937-4.828125-2.390625-7.082031-1.171875-2.25-2.40625-4.523438-3.28125-6.902344-.933594-2.367188-1.730468-4.785156-2.539062-7.214844-.816406-2.425781-1.671875-4.867187-2.347656-7.359375-1.589844-4.957031-2.710938-10.042969-4.011719-15.242187l-1.46875.011718c-1.019531 5.289063-1.644531 10.703126-1.804688 16.148438-.109375 2.730469-.027343 5.453125.023438 8.199219.191406 2.722656.382812 5.464843.722656 8.1875.316406 2.730469.476563 5.519531.769531 8.308593.34375 2.769532 1.148438 5.429688 2.496094 7.882813 1.371094 2.417969 2.96875 4.769531 4.980469 6.878906 2.308593 2.417969 2.902343 5.976563 1.367187 8.945313-3.96875 7.683594-11.035156 21.636718-14.28125 29.3125-4.441406 10.722656-8.503906 21.671875-11.21875 33.414062l2.257813 1.371094c9.167969-7.769531 17.175781-16.21875 24.804687-24.886719 7.601563-8.6875 14.75-17.640625 21.515625-26.824219.121094-.164062.238281-.324218.359375-.488281 2.179688-2.960937 6.058594-3.898437 9.464844-2.507812 2.511719 1.027343 5.089844 1.652343 7.652344 2.070312 2.765625.417969 5.539062.25 8.257812-.382812 2.71875-.691407 5.390625-1.503907 8.058594-2.15625 2.675781-.625 5.3125-1.390625 7.933594-2.15625 2.597656-.902344 5.179687-1.765625 7.699218-2.8125 5.058594-2.035157 9.921876-4.496094 14.527344-7.28125l-.496094-1.382813c-5.328124.578125-10.488281 1.289063-15.6875 1.507813-2.570312.230469-5.160156.273437-7.71875.347656-2.558593.082031-5.101562.167969-7.644531.113281-2.539062.003906-5.097656-.371094-7.617187-.6875-2.519532-.332031-4.988282-.25-7.46875.207032-2.683594.535156-5.359375 1.230468-8.125 2.253906 3.230468-5.03125 6.289062-10.167969 9.1875-15.410156 2.273437-4.210938 5.40625-9.851563 8.175781-14.796876 2.941406-5.261718 8.925781-8.203124 14.828125-6.980468 2.886719.597656 5.839844.765625 8.503906 1.203125 2.765625.417969 5.542969.25 8.261719-.386719 2.714844-.691406 5.386719-1.503906 8.058594-2.152344 2.671875-.625 5.3125-1.394531 7.929687-2.15625 2.597656-.902344 5.179688-1.769531 7.703125-2.816406 5.054688-2.035156 9.917969-4.496094 14.527344-7.28125l-.496094-1.382812c-5.332031.578124-10.492187 1.289062-15.691406 1.511718-2.570313.226563-5.160156.273438-7.71875.347656-2.558594.082032-5.101563.167969-7.644531.113282-2.539063 0-5.09375-.371094-7.613282-.6875-2.519531-.332032-4.988281-.25-7.472656.203125-4.726562.949219-9.429687 2.339843-14.65625 5.339843 5.878906-9.726562 11.679688-19.523437 17.703125-29.148437l.226563-.382813c3.53125-5.9375 10.011718-9.699218 16.910156-9.289062 1.949219.117188 3.875.046875 5.769531-.125 2.78125-.289062 5.425781-1.148438 7.898438-2.4375 2.457031-1.351562 4.839843-2.808594 7.265625-4.105469 2.429687-1.273437 4.792968-2.679687 7.136718-4.074219 2.289063-1.519531 4.574219-3.007812 6.753907-4.652343 4.382812-3.234375 8.476562-6.832031 12.242187-10.683594l-.828125-1.214844c-5.011719 1.894531-9.828125 3.875-14.808593 5.390625zm0 0" fill="url(#w)"/><path d="m368.691406 248.472656c11.054688-44.25 4.597656-88.765625-1.347656-114.699218-2.980469-13.003907-15.648438-21.425782-28.765625-18.980469-138.335937 25.808593-188.191406 80.515625-200.664063 133.679687zm0 0" fill="url(#x)"/></svg>