<svg height="512.00002pt" viewBox="0 0 512.00002 512.00002" width="512.00002pt" xmlns="http://www.w3.org/2000/svg"><path d="m504.394531 145.507812v302.367188c0 31.214844-25.304687 56.519531-56.53125 56.519531h-383.738281c-31.214844 0-56.519531-25.304687-56.519531-56.519531v-302.367188" fill="#e6e6e6"/><path d="m473.046875 215.027344h-434.101563c-17.308593 0-31.34375-14.035156-31.34375-31.347656v-65.046876c0-17.3125 14.035157-31.347656 31.34375-31.347656h434.101563c17.3125 0 31.347656 14.035156 31.347656 31.347656v65.046876c0 17.3125-14.035156 31.347656-31.347656 31.347656zm0 0" fill="#c4becc"/><path d="m473.046875 182.585938h-434.101563c-17.308593 0-31.34375-14.035157-31.34375-31.34375v-65.050782c0-17.3125 14.035157-31.34375 31.34375-31.34375h434.101563c17.3125 0 31.347656 14.03125 31.347656 31.34375v65.050782c0 17.308593-14.035156 31.34375-31.347656 31.34375zm0 0" fill="#ff694f"/><path d="m152.523438 37.257812v56.363282c0 8.191406-3.324219 15.601562-8.6875 20.976562-5.363282 5.363282-12.785157 8.679688-20.964844 8.679688-16.386719 0-29.65625-13.273438-29.65625-29.65625v-56.363282c0-16.371093 13.269531-29.652343 29.65625-29.652343 16.371094 0 29.652344 13.28125 29.652344 29.652343zm0 0" fill="#33344a"/><path d="m418.785156 37.257812v56.363282c0 8.191406-3.324218 15.601562-8.6875 20.976562-5.363281 5.363282-12.785156 8.679688-20.96875 8.679688-16.382812 0-29.652344-13.273438-29.652344-29.65625v-56.363282c0-16.371093 13.269532-29.652343 29.652344-29.652343 16.375 0 29.65625 13.28125 29.65625 29.652343zm0 0" fill="#33344a"/><path d="m152.523438 37.257812v19.824219c0 8.179688-3.324219 15.601563-8.6875 20.964844-5.363282 5.363281-12.785157 8.6875-20.964844 8.6875-16.386719 0-29.65625-13.28125-29.65625-29.652344v-19.824219c0-16.371093 13.269531-29.652343 29.65625-29.652343 16.371094 0 29.652344 13.28125 29.652344 29.652343zm0 0" fill="#4f5263"/><path d="m418.785156 37.257812v19.824219c0 8.179688-3.324218 15.601563-8.6875 20.964844-5.363281 5.363281-12.785156 8.6875-20.96875 8.6875-16.382812 0-29.652344-13.28125-29.652344-29.652344v-19.824219c0-16.371093 13.269532-29.652343 29.652344-29.652343 16.375 0 29.65625 13.28125 29.65625 29.652343zm0 0" fill="#4f5263"/><path d="m364.882812 371.71875c-12.210937 10.40625-27.605468 19.808594-42.945312 27.800781l10.472656 16.679688c4.445313 7.074219-1.238281 16.148437-9.546875 15.238281-16.777343-1.839844-41.667969-3.976562-66.867187-3.976562-25.191406 0-50.089844 2.136718-66.863282 3.976562-8.304687.910156-13.988281-8.164062-9.546874-15.238281l10.476562-16.679688c-15.339844-7.992187-30.734375-17.394531-42.953125-27.800781-3.621094-3.085938-3.171875-8.820312.882813-11.332031l8.96875-5.570313c5.351562-3.320312 6.210937-10.761718 1.757812-15.214844l-11.894531-11.890624c-4.542969-4.546876-1.117188-12.300782 5.300781-12.003907l15.953125.742188c5.496094.253906 10.121094-4.078125 10.222656-9.578125l.257813-13.292969c.082031-4.128906 4.613281-6.613281 8.132812-4.453125l33.496094 20.558594c-.167969-.425782-11.277344-27.761719-14.625-50.550782-1.15625-7.867187 7.382812-13.527343 14.203125-9.4375l7.773437 4.667969c5.484376 3.285157 12.601563.777344 14.808594-5.21875l6.921875-18.777343c1.152344-3.128907 3.9375-4.691407 6.726563-4.691407 2.789062 0 5.578125 1.5625 6.730468 4.691407l6.921876 18.777343c2.207031 5.996094 9.324218 8.503907 14.800781 5.21875l7.777343-4.667969c6.816407-4.089843 15.359376 1.570313 14.203126 9.4375-3.34375 22.789063-14.453126 50.125-14.625 50.550782l33.5-20.558594c3.519531-2.160156 8.050781.324219 8.128906 4.453125l.257812 13.292969c.105469 5.5 4.726563 9.832031 10.222656 9.578125l15.957032-.742188c6.417968-.296875 9.84375 7.457031 5.300781 12.003907l-11.894531 11.890624c-4.453125 4.453126-3.59375 11.894532 1.757812 15.214844l8.96875 5.570313c4.054688 2.511719 4.507813 8.246093.878906 11.332031zm0 0" fill="#ff9216"/><path d="m473.046875 47.246094h-46.660156v-9.988282c0-20.542968-16.714844-37.257812-37.257813-37.257812-20.546875 0-37.257812 16.714844-37.257812 37.257812v9.988282h-191.746094v-9.988282c0-20.542968-16.714844-37.257812-37.257812-37.257812-20.542969 0-37.257813 16.714844-37.257813 37.257812v9.988282h-46.667969c-21.472656 0-38.941406 17.46875-38.941406 38.941406v361.6875c0 35.359375 28.765625 64.125 64.125 64.125h383.738281c35.367188 0 64.136719-28.765625 64.136719-64.125v-138.054688c0-4.199218-3.402344-7.601562-7.605469-7.601562-4.199219 0-7.601562 3.402344-7.601562 7.601562v138.054688c0 26.972656-21.949219 48.917969-48.929688 48.917969h-383.738281c-26.972656 0-48.917969-21.945313-48.917969-48.917969v-265.789062c6.578125 5.074218 14.808594 8.101562 23.734375 8.101562h19.90625c4.203125 0 7.605469-3.402344 7.605469-7.601562 0-4.199219-3.402344-7.605469-7.605469-7.605469h-19.90625c-13.085937 0-23.734375-10.652344-23.734375-23.742188v-65.050781c0-13.085938 10.648438-23.734375 23.734375-23.734375h46.667969v31.171875c0 20.542969 16.710937 37.257812 37.257813 37.257812 20.542968 0 37.257812-16.714843 37.257812-37.257812v-31.171875h191.742188v31.171875c0 20.542969 16.714843 37.257812 37.257812 37.257812 20.546875 0 37.257812-16.714843 37.257812-37.257812v-31.171875h46.664063c13.09375 0 23.746094 10.648437 23.746094 23.734375v65.050781c0 13.09375-10.652344 23.742188-23.746094 23.742188h-388.851563c-4.199218 0-7.601562 3.40625-7.601562 7.605469 0 4.199218 3.402344 7.605468 7.601562 7.605468h388.851563c8.933594 0 17.167969-3.03125 23.746094-8.105468v102.390624c0 4.199219 3.402343 7.601563 7.601562 7.601563 4.203125 0 7.605469-3.402344 7.605469-7.601563v-198.289062c0-21.472656-17.472656-38.941406-38.953125-38.941406zm-328.128906 46.378906c0 12.15625-9.890625 22.050781-22.050781 22.050781-12.15625 0-22.050782-9.890625-22.050782-22.050781v-38.738281c0-.011719.003906-.023438.003906-.039063 0-.011718-.003906-.023437-.003906-.039062v-17.550782c0-12.15625 9.894532-22.050781 22.050782-22.050781 12.160156 0 22.050781 9.890625 22.050781 22.050781zm266.257812 0c0 12.15625-9.890625 22.050781-22.046875 22.050781-12.160156 0-22.050781-9.890625-22.050781-22.050781v-38.738281c0-.011719 0-.023438 0-.039063 0-.011718 0-.023437 0-.039062v-17.550782c0-12.15625 9.890625-22.050781 22.050781-22.050781 12.15625 0 22.046875 9.890625 22.046875 22.050781zm0 0"/><path d="m374.910156 365.285156c-.351562-4.65625-2.925781-8.902344-6.890625-11.359375l-8.972656-5.570312c-.773437-.480469-.964844-1.207031-1.011719-1.59375-.042968-.390625-.023437-1.140625.621094-1.785157l11.898438-11.894531c4.304687-4.308593 5.496093-10.695312 3.03125-16.265625-2.460938-5.570312-7.949219-8.988281-14.066407-8.703125l-15.953125.738281c-.757812.03125-1.277344-.300781-1.582031-.585937s-.671875-.78125-.683594-1.542969l-.261719-13.292968c-.085937-4.628907-2.667968-8.886719-6.730468-11.109376-4.058594-2.222656-9.035156-2.097656-12.980469.324219l-15.132813 9.285157c3.035157-9.539063 6.199219-21.070313 7.757813-31.691407.964844-6.566406-1.867187-12.9375-7.398437-16.625-5.542969-3.695312-12.53125-3.863281-18.238282-.441406l-7.777344 4.667969c-.90625.546875-1.761718.371094-2.1875.222656-.429687-.152344-1.203124-.554688-1.570312-1.546875l-6.917969-18.777344c-2.164062-5.875-7.605469-9.667969-13.867187-9.667969-6.257813 0-11.699219 3.792969-13.863282 9.664063l-6.917968 18.78125c-.363282.992187-1.136719 1.394531-1.566406 1.542969-.433594.152344-1.285157.324218-2.191407-.21875l-7.777343-4.667969c-5.710938-3.425781-12.699219-3.253906-18.242188.441406-5.523438 3.6875-8.359375 10.058594-7.394531 16.621094 1.558593 10.609375 4.726562 22.148437 7.765625 31.699219l-15.140625-9.289063c-3.945313-2.421875-8.917969-2.546875-12.980469-.324219-4.058594 2.222657-6.640625 6.480469-6.730469 11.109376l-.257812 13.296874c-.011719.757813-.378907 1.257813-.683594 1.542969-.304687.28125-.835937.617188-1.582031.582031l-15.953125-.738281c-6.070313-.277343-11.609375 3.132813-14.070313 8.703125-2.460937 5.574219-1.269531 11.957032 3.039063 16.273438l11.890625 11.886718c.644531.644532.667968 1.394532.621094 1.785157-.042969.386719-.234376 1.113281-1.011719 1.59375l-8.96875 5.566406c-3.964844 2.457031-6.539063 6.707031-6.890625 11.359375-.351563 4.640625 1.550781 9.207031 5.089844 12.226562 9.765624 8.316407 22.222656 16.660157 37.109374 24.863282l-6.144531 9.78125c-3.617187 5.761718-3.621093 12.925781-.011719 18.691406 3.613282 5.769531 10.050782 8.890625 16.828126 8.152344 14.671874-1.609375 36.113281-3.496094 58.433593-3.863282v33.785157c0 4.199219 3.402344 7.605469 7.601563 7.605469 4.203125 0 7.605468-3.40625 7.605468-7.605469v-33.785157c22.316407.371094 43.757813 2.253907 58.433594 3.863282.660156.070312 1.316406.105468 1.964844.105468 6.03125 0 11.601562-3.050781 14.863281-8.257812 3.609375-5.765625 3.605469-12.929688-.015625-18.691406l-6.140625-9.78125c14.886719-8.203125 27.34375-16.550782 37.105469-24.867188 3.542969-3.011718 5.445312-7.582031 5.097656-12.21875zm-56.488281 27.488282c-1.878906.984374-3.269531 2.707031-3.824219 4.753906-.554687 2.050781-.230468 4.238281.902344 6.035156l10.472656 16.679688c.695313 1.101562.300782 2.058593.003906 2.53125-.296874.476562-.984374 1.246093-2.28125 1.105468-15.058593-1.652344-37.101562-3.585937-60.089843-3.953125v-20.785156c9.09375-3.195313 28.828125-10.511719 50.511719-20.957031 3.78125-1.824219 5.371093-6.367188 3.550781-10.152344-1.824219-3.78125-6.371094-5.371094-10.152344-3.546875-17.449219 8.40625-33.886719 14.8125-43.910156 18.488281v-68.574218c0-4.199219-3.40625-7.605469-7.605469-7.605469s-7.605469 3.40625-7.605469 7.605469v68.574218c-10.023437-3.675781-26.460937-10.082031-43.914062-18.488281-3.777344-1.820313-8.328125-.234375-10.148438 3.550781-1.824219 3.785156-.234375 8.328125 3.550781 10.148438 21.679688 10.445312 41.417969 17.761718 50.511719 20.957031v20.785156c-22.992187.371094-45.03125 2.304688-60.085937 3.957031-1.289063.140626-1.988282-.632812-2.285156-1.105468-.296876-.472656-.6875-1.433594.003906-2.535156l10.472656-16.679688c1.128906-1.796875 1.457031-3.984375.902344-6.035156-.558594-2.046875-1.945313-3.769532-3.824219-4.75-16.789063-8.746094-30.554687-17.605469-40.929687-26.332032l8.324218-5.167968c4.535156-2.816406 7.484375-7.46875 8.097656-12.769532.613282-5.304687-1.203124-10.507812-4.976562-14.285156l-10.855469-10.851562 14.492188.671875c4.710937.222656 9.230469-1.441407 12.683593-4.675781 3.449219-3.234376 5.402344-7.621094 5.492188-12.347657l.179688-9.34375 30.128906 18.488281c2.789062 1.707032 6.355468 1.445313 8.863281-.65625 2.507813-2.101562 3.386719-5.574218 2.1875-8.617187-.007813-.011719-.039063-.097656-.046875-.113281-1.125-2.796875-11.078125-27.964844-14.128906-48.753906-.109375-.742188.15625-1.335938.789062-1.757813.445313-.296875 1.148438-.546875 1.976563-.050781l7.777343 4.667968c4.558594 2.734376 10.050782 3.289063 15.070313 1.523438 5.011719-1.769531 8.945313-5.644531 10.78125-10.632812l6.515625-17.679688 6.511719 17.679688c1.839843 4.988281 5.769531 8.867187 10.789062 10.632812 5.011719 1.765625 10.507813 1.210938 15.0625-1.523438l7.78125-4.667968c.824219-.496094 1.53125-.246094 1.976563.054687.632812.421875.898437 1.011719.789062 1.757813-3.058594 20.847656-13.007812 45.96875-14.171875 48.851562-1.203125 3.042969-.328125 6.519532 2.175781 8.625 2.507813 2.109375 6.082032 2.375 8.871094.660156l30.128906-18.488281.179688 9.339844c.089844 4.730469 2.039062 9.117187 5.492188 12.351563 3.449218 3.234374 7.957031 4.894531 12.683593 4.679687l14.492188-.671875-10.859375 10.851562c-3.773438 3.777344-5.585938 8.980469-4.972656 14.285157.613281 5.300781 3.566406 9.957031 8.097656 12.769531l8.320312 5.164062c-10.371094 8.726563-24.132812 17.582032-40.925781 26.328126zm0 0"/></svg>