<svg height="512pt" viewBox="-17 0 512 512.001" width="512pt" xmlns="http://www.w3.org/2000/svg"><path d="m7.5 423.691406 29.214844-40.398437-29.214844-40.398438 29.214844-40.40625-29.214844-40.402343 23.742188-40.398438-23.742188-40.398438 23.058594-25.988281h404.144531l35.367187 25.988281-20.324218 40.398438 20.324218 40.398438-22.375 40.402343 22.375 40.40625-21.691406 40.398438 21.691406 40.398437-115.644531 80.808594-57.820312-30.53125-57.820313 30.53125-57.820312-30.53125-57.824219 30.53125zm0 0" fill="#d7ecec"/><path d="m354.425781 342.894531h115.644531v80.796875h-115.644531zm0 0" fill="#d7ecec"/><path d="m7.5 342.894531h115.644531v80.796875h-115.644531zm0 0" fill="#d9d9d9"/><path d="m123.140625 342.894531h115.644531v80.796875h-115.644531zm0 0" fill="#d7ecec"/><path d="m238.785156 342.894531h115.644532v80.796875h-115.644532zm0 0" fill="#d9d9d9"/><path d="m354.425781 181.289062h115.644531v80.796876h-115.644531zm0 0" fill="#d7ecec"/><path d="m238.785156 181.289062h115.644532v80.796876h-115.644532zm0 0" fill="#d9d9d9"/><path d="m123.140625 181.289062h115.644531v80.796876h-115.644531zm0 0" fill="#d7ecec"/><path d="m7.5 181.289062h115.644531v80.796876h-115.644531zm0 0" fill="#d9d9d9"/><path d="m354.425781 262.085938h115.644531v80.808593h-115.644531zm0 0" fill="#d9d9d9"/><path d="m238.785156 262.085938h115.644532v80.808593h-115.644532zm0 0" fill="#d7ecec"/><path d="m7.5 262.085938h115.644531v80.808593h-115.644531zm0 0" fill="#d7ecec"/><path d="m123.140625 262.085938h115.644531v80.808593h-115.644531zm0 0" fill="#d9d9d9"/><path d="m123.140625 423.691406v80.808594h-60.792969c-30.292968 0-54.847656-24.554688-54.847656-54.847656v-25.960938zm0 0" fill="#d7ecec"/><path d="m123.140625 423.691406h115.644531v80.808594h-115.644531zm0 0" fill="#d9d9d9"/><path d="m238.785156 423.691406h115.644532v80.808594h-115.644532zm0 0" fill="#d7ecec"/><path d="m470.070312 423.691406v25.960938c0 30.292968-24.554687 54.847656-54.847656 54.847656h-60.796875v-80.808594zm0 0" fill="#d9d9d9"/><path d="m470.070312 112.089844v69.199218h-462.570312v-69.199218c0-30.289063 24.554688-54.847656 54.847656-54.847656h352.875c30.289063 0 54.847656 24.558593 54.847656 54.847656zm0 0" fill="#f05e71"/><path d="m86.457031 134.355469c29.835938 0 54.109375-24.269531 54.109375-54.109375v-23.003906h-78.21875c-11.078125 0-21.378906 3.296874-30 8.941406v14.0625c0 29.835937 24.273438 54.109375 54.109375 54.109375zm0 0" fill="#e85066"/><path d="m86.457031 7.5c-13.316406 0-24.109375 10.792969-24.109375 24.109375v48.636719c0 13.316406 10.792969 24.109375 24.109375 24.109375 13.316407 0 24.109375-10.792969 24.109375-24.109375v-48.636719c0-13.316406-10.792968-24.109375-24.109375-24.109375zm0 0" fill="#fee588"/><path d="m391.113281 134.355469c29.835938 0 54.109375-24.269531 54.109375-54.109375v-14.0625c-8.621094-5.644532-18.925781-8.941406-30-8.941406h-78.21875v23.003906c0 29.835937 24.273438 54.109375 54.109375 54.109375zm0 0" fill="#e85066"/><path d="m391.113281 7.5c13.316407 0 24.109375 10.792969 24.109375 24.109375v48.636719c0 13.316406-10.792968 24.109375-24.109375 24.109375-13.316406 0-24.109375-10.792969-24.109375-24.109375v-48.636719c0-13.316406 10.792969-24.109375 24.109375-24.109375zm0 0" fill="#fee588"/><path d="m152.742188 114.597656v14.214844c0 4.140625 3.359374 7.5 7.5 7.5 4.144531 0 7.5-3.359375 7.5-7.5v-14.214844c0-4.140625-3.355469-7.5-7.5-7.5-4.140626 0-7.5 3.359375-7.5 7.5zm0 0"/><path d="m324.828125 128.8125v-14.214844c0-4.140625-3.359375-7.5-7.5-7.5-4.144531 0-7.5 3.359375-7.5 7.5v14.214844c0 4.140625 3.355469 7.5 7.5 7.5 4.140625 0 7.5-3.359375 7.5-7.5zm0 0"/><path d="m252.523438 122.886719c-3.339844 3.824219-8.347657 6.015625-13.738282 6.015625s-10.398437-2.191406-13.738281-6.015625c-2.726563-3.117188-7.464844-3.4375-10.582031-.710938-3.121094 2.726563-3.4375 7.464844-.710938 10.585938 6.1875 7.078125 15.3125 11.140625 25.03125 11.140625s18.84375-4.0625 25.03125-11.140625c2.726563-3.121094 2.410156-7.859375-.710937-10.585938-3.117188-2.726562-7.855469-2.40625-10.582031.710938zm0 0"/><path d="m415.222656 512c34.378906 0 62.347656-27.96875 62.347656-62.347656v-337.5625c0-31.835938-23.992187-58.160156-54.847656-61.878906v-18.601563c0-17.429687-14.179687-31.609375-31.609375-31.609375-17.429687 0-31.609375 14.179688-31.609375 31.609375v18.132813h-52.085937c-4.140625 0-7.5 3.359374-7.5 7.5 0 4.144531 3.359375 7.5 7.5 7.5h52.085937s.011719 16.589843.039063 17.128906c.847656 16.679687 14.683593 29.984375 31.570312 29.984375s30.71875-13.304688 31.570313-29.984375c.027344-.539063.039062-16.53125.039062-16.53125 22.558594 3.601562 39.847656 23.195312 39.847656 46.75v61.699218h-447.570312v-61.699218c0-23.554688 17.292969-43.148438 39.847656-46.75 0 0 .015625 15.992187.039063 16.53125.851562 16.679687 14.6875 29.984375 31.570312 29.984375 16.886719 0 30.71875-13.304688 31.570313-29.984375.027344-.539063.039062-17.128906.039062-17.128906h159.355469c4.140625 0 7.5-3.355469 7.5-7.5 0-4.140626-3.359375-7.5-7.5-7.5h-159.355469v-18.132813c0-17.429687-14.179687-31.609375-31.609375-31.609375-17.429687 0-31.609375 14.179688-31.609375 31.609375v18.601563c-30.851562 3.71875-54.847656 30.042968-54.847656 61.878906v337.5625c0 34.378906 27.96875 62.347656 62.347656 62.347656zm-40.71875-480.390625c0-9.160156 7.449219-16.609375 16.609375-16.609375 9.160157 0 16.609375 7.449219 16.609375 16.609375v48.636719c0 9.160156-7.449218 16.609375-16.609375 16.609375-9.160156 0-16.609375-7.449219-16.609375-16.609375zm-359.503906 318.785156h100.644531v65.796875h-100.644531zm115.640625 0h100.644531v65.796875h-100.644531zm115.644531 0h100.644532v65.796875h-100.644532zm115.644532 0h100.640624v65.796875h-100.640624zm100.640624-15h-100.640624v-65.808593h100.640624zm-115.640624 0h-100.644532v-65.808593h100.644532zm-115.644532 0h-100.644531v-65.808593h100.644531zm-115.644531 0h-100.640625v-65.808593h100.644531v65.808593zm-100.640625 114.257813v-18.460938h100.644531v65.808594h-53.296875c-26.105468 0-47.347656-21.238281-47.347656-47.347656zm115.640625-18.460938h100.644531v65.808594h-100.644531zm115.644531 0h100.644532v65.808594h-100.644532zm216.285156 18.460938c0 26.109375-21.238281 47.347656-47.347656 47.347656h-53.296875v-65.808594h100.644531zm0-195.066406h-100.640624v-65.800782h100.640624zm-115.640624 0h-100.644532v-65.800782h100.644532zm-115.644532 0h-100.644531v-65.800782h100.644531zm-115.644531-65.796876v65.796876h-100.640625v-65.796876zm-45.792969-157.179687c0-9.160156 7.449219-16.609375 16.609375-16.609375 9.160157 0 16.609375 7.449219 16.609375 16.609375v48.636719c0 9.160156-7.449218 16.609375-16.609375 16.609375-9.160156 0-16.609375-7.449219-16.609375-16.609375zm0 0"/></svg>