<svg height="512pt" viewBox="0 0 512 512.00078" width="512pt" xmlns="http://www.w3.org/2000/svg"><path d="m511.945312 185.265625v277.585937c0 14.238282-6.058593 27.058594-15.734374 36.035157-8.777344 8.136719-20.519532 13.109375-33.421876 13.109375h-413.640624c-12.902344 0-24.644532-4.972656-33.410157-13.101563-9.675781-8.984375-15.73437475-21.804687-15.73437475-36.042969v-277.585937zm0 0" fill="#fec970"/><path d="m511.941406 185.265625-196.777344-163.847656c-34.296874-28.558594-84.089843-28.558594-118.386718 0l-196.777344 163.847656h.00390625l57.99609375 48.289063 138.777344 115.550781c34.300781 28.566406 84.09375 28.566406 118.382812 0l138.789063-115.550781 57.996093-48.289063" fill="#fba028"/><path d="m420.484375 261.410156-34.945313 29.097656-18.816406 15.671876-25.097656 20.894531-18.824219 15.671875-7.640625 6.363281c-34.289062 28.5625-84.082031 28.5625-118.382812 0l-7.636719-6.363281-18.828125-15.671875-25.09375-20.894531-18.816406-15.671876-34.9375-29.085937c1.714844.226563 3.46875.351563 5.253906.351563h318.5c1.789062 0 3.542969-.125 5.265625-.363282zm0 0" fill="#26bf64"/><path d="m59.933594 235.164062c-1.253906-3.816406-1.929688-7.878906-1.929688-12.109374v-146.84375c0-21.386719 17.332032-38.730469 38.71875-38.730469h318.5c21.386719 0 38.730469 17.34375 38.730469 38.730469v146.84375c0 4.230468-.679687 8.292968-1.933594 12.109374l-31.53125 26.242188c-1.722656.242188-3.480469.367188-5.265625.367188h-318.5c-1.789062 0-3.542968-.125-5.257812-.355469" fill="#49d685"/><path d="m58.003906 200.644531 73.414063 61.128907h-34.695313c-1.789062 0-3.542968-.125-5.257812-.355469l-31.53125-26.253907c-1.253906-3.816406-1.929688-7.878906-1.929688-12.109374zm0 0" fill="#26bf64"/><path d="m453.953125 200.644531v22.410157c0 4.230468-.679687 8.292968-1.933594 12.109374l-31.53125 26.242188c-1.722656.242188-3.480469.367188-5.265625.367188h-34.695312zm0 0" fill="#26bf64"/><path d="m385.539062 290.507812-18.816406 15.671876h-221.503906l-18.816406-15.671876zm0 0" fill="#49d685"/><path d="m341.625 327.074219-18.824219 15.671875h-133.660156l-18.828125-15.671875zm0 0" fill="#49d685"/><g fill="#26bf64"><path d="m415.035156 102.179688c-14.449218 0-26.207031-11.753907-26.207031-26.207032 0-4.328125-3.507813-7.835937-7.835937-7.835937h-250.03125c-4.328126 0-7.835938 3.507812-7.835938 7.835937 0 14.453125-11.753906 26.207032-26.207031 26.207032-4.328125 0-7.835938 3.511718-7.835938 7.835937v79.222656c0 4.328125 3.507813 7.835938 7.835938 7.835938 14.453125 0 26.207031 11.753906 26.207031 26.207031 0 4.328125 3.507812 7.835938 7.835938 7.835938h250.035156c4.324218 0 7.835937-3.507813 7.835937-7.835938 0-14.453125 11.753907-26.207031 26.207031-26.207031 4.324219 0 7.835938-3.507813 7.835938-7.835938v-79.222656c-.003906-4.324219-3.511719-7.835937-7.839844-7.835937zm-93.242187 47.445312c0 36.292969-29.523438 65.820312-65.816407 65.820312-36.292968 0-65.816406-29.527343-65.816406-65.820312 0-36.289062 29.523438-65.816406 65.816406-65.816406 36.292969 0 65.816407 29.527344 65.816407 65.816406zm-183.730469 65.820312c-3.199219-16.820312-16.488281-30.109374-33.308594-33.308593v-65.019531c16.820313-3.195313 30.109375-16.488282 33.308594-33.304688h69.945312c-20.296874 14.832031-33.519531 38.804688-33.519531 65.816406 0 27.011719 13.21875 50.980469 33.519531 65.816406zm269.136719-33.308593c-16.820313 3.195312-30.109375 16.488281-33.304688 33.308593h-69.949219c20.300782-14.835937 33.519532-38.808593 33.519532-65.820312s-13.21875-50.980469-33.519532-65.816406h69.949219c3.195313 16.820312 16.488281 30.109375 33.304688 33.308594zm0 0"/><path d="m255.976562 193.101562c23.972657 0 43.472657-19.503906 43.472657-43.476562 0-23.96875-19.5-43.472656-43.472657-43.472656-23.96875 0-43.472656 19.503906-43.472656 43.472656 0 23.972656 19.503906 43.476562 43.472656 43.476562zm0-71.277343c15.332032 0 27.800782 12.472656 27.800782 27.800781 0 15.332031-12.472656 27.804688-27.800782 27.804688-15.328124 0-27.800781-12.472657-27.800781-27.804688 0-15.328125 12.472657-27.800781 27.800781-27.800781zm0 0"/><path d="m355.488281 149.625c0 4.328125 3.507813 7.835938 7.835938 7.835938h23.503906c4.328125 0 7.835937-3.507813 7.835937-7.835938 0-4.324219-3.507812-7.835938-7.835937-7.835938h-23.503906c-4.328125 0-7.835938 3.511719-7.835938 7.835938zm0 0"/><path d="m148.632812 141.789062h-23.507812c-4.328125 0-7.835938 3.511719-7.835938 7.835938 0 4.328125 3.507813 7.835938 7.835938 7.835938h23.507812c4.328126 0 7.835938-3.507813 7.835938-7.835938 0-4.324219-3.507812-7.835938-7.835938-7.835938zm0 0"/></g><path d="m464.226562 480.101562c-1.765624 0-3.542968-.59375-5.007812-1.8125l-124.949219-104.03125c-3.324219-2.769531-3.773437-7.710937-1.007812-11.035156 2.769531-3.324218 7.710937-3.777344 11.035156-1.007812l124.945313 104.027344c3.328124 2.769531 3.78125 7.707031 1.011718 11.035156-1.550781 1.863281-3.78125 2.824218-6.027344 2.824218zm0 0" fill="#fba028"/><path d="m177.429688 374.464844-102.683594 87.707031c-14.144532 12.085937-7.820313 35.183594 10.511718 38.371094 29.484376 5.125 63.945313 10.875 73.207032 11.457031h-109.3125c-12.90625 0-24.648438-4.972656-33.414063-13.101562-9.675781-8.984376-15.73437475-21.804688-15.73437475-36.042969v-277.589844h37.10156275v189.222656c.355469 38.25 45.195312 58.777344 74.597656 34.308594l55.945313-46.585937c3.386718-2.808594 8.453124-2.296876 11.191406 1.203124 2.644531 3.371094 1.878906 8.3125-1.410156 11.050782zm0 0" fill="#fba028"/></svg>