<?xml version="1.0" encoding="iso-8859-1"?>
<!-- Generator: Adobe Illustrator 19.0.0, SVG Export Plug-In . SVG Version: 6.00 Build 0)  -->
<svg xmlns="http://www.w3.org/2000/svg" xmlns:xlink="http://www.w3.org/1999/xlink" version="1.1" id="Layer_1" x="0px" y="0px" viewBox="0 0 512 512" style="enable-background:new 0 0 512 512;" xml:space="preserve" width="512" height="512">
<g id="XMLID_809_">
	<g id="XMLID_804_">
		<g id="XMLID_2564_">
			<path id="XMLID_2646_" style="fill:#76C2E0;" d="M299.573,64.398v77.663H37.15V64.398c0-4.486,3.636-8.122,8.122-8.122h246.179     C295.937,56.276,299.573,59.912,299.573,64.398z"/>
			<g id="XMLID_2567_">
				<path id="XMLID_962_" style="fill:#CAEDFF;" d="M329.108,435.654H15.732c-4.486,0-8.122-3.636-8.122-8.122V200.264      l28.834-76.355h263.508l28.822,76.355l0.012,4.513l0.046,36.498L329.108,435.654z"/>
				<path id="XMLID_944_" style="fill:#76C2E0;" d="M328.831,241.275c-2.008,2.793-4.271,5.448-6.775,7.918      c-11.474,11.346-26.71,17.603-42.881,17.603c-10.573,0-20.534-2.713-29.226-7.457c-3.163,1.72-6.51,3.197-10.031,4.363      c-6.152,2.043-12.628,3.093-19.23,3.093c-33.67,0-61.061-27.402-61.061-61.072c0-2.032,0.092-3.913,0.277-5.76      c2.943-31.535,29.065-55.312,60.784-55.312c6.602,0,13.078,1.05,19.253,3.105c3.474,1.143,6.787,2.597,9.927,4.294      c5.945-3.232,12.489-5.494,19.438-6.602c0.658-2.32,1.431-4.617,2.366-6.868c2.216-5.367,5.136-10.284,8.634-14.671h19.646      l28.822,76.355l0.012,4.513L328.831,241.275z"/>
				<path id="XMLID_941_" style="fill:#76C2E0;" d="M329.108,435.654h-91.81c-0.554-2.839-0.843-5.783-0.843-8.784v-6.568      c-40.422-16.183-75.466-44.624-99.948-82.542c-12.385-19.184-21.573-40.145-27.298-62.307      c-4.455-17.349-6.718-35.298-6.718-53.362v-4.467c0-7.099,5.76-12.847,12.847-12.847h213.447L329.108,435.654z"/>
			</g>
			<path id="XMLID_2257_" style="fill:#76C2E0;" d="M328.78,207.873H7.614c-4.206,0-7.614-3.409-7.614-7.614     s3.409-7.614,7.614-7.614H328.78c4.206,0,7.614,3.409,7.614,7.614S332.986,207.873,328.78,207.873z"/>
			<path id="XMLID_2014_" style="fill:#CAEDFF;" d="M306.151,91.839H30.566c-4.206,0-7.614-3.409-7.614-7.614     s3.409-7.614,7.614-7.614h275.586c4.206,0,7.614,3.409,7.614,7.614S310.357,91.839,306.151,91.839z"/>
		</g>
		<g id="XMLID_1745_">
			<g id="XMLID_2013_">
				<path id="XMLID_2028_" style="fill:#A24223;" d="M371.839,161.966c0,19.957-13.355,36.798-31.627,42.05      c-3.855,1.12-7.918,1.708-12.132,1.708c-9.799,0-18.837-3.22-26.132-8.657c-10.689-7.976-17.614-20.731-17.614-35.101      c0-5.921,1.177-11.577,3.324-16.737c6.568-15.86,22.197-27.01,40.422-27.01c18.134,0,33.682,11.023,40.319,26.721      C370.616,150.169,371.839,155.929,371.839,161.966z"/>
				<path id="XMLID_2021_" style="fill:#8B381E;" d="M340.212,204.016c-3.855,1.12-7.918,1.708-12.132,1.708      c-9.799,0-18.837-3.22-26.132-8.657c-10.689-7.976-17.614-20.731-17.614-35.101c0-5.921,1.177-11.577,3.324-16.737      c12.951,1.801,24.944,7.676,34.408,17.014C333.391,173.416,339.797,188.191,340.212,204.016z"/>
				<path id="XMLID_2023_" style="fill:#8B381E;" d="M371.839,161.966c0,24.17-19.588,43.758-43.758,43.758      c-9.799,0-18.837-3.22-26.132-8.657c4.213-29.584,29.711-52.415,60.449-52.415c2.032,0,4.028,0.104,6.002,0.289      C370.616,150.169,371.839,155.929,371.839,161.966z"/>
			</g>
			<g id="XMLID_1772_">
				<path id="XMLID_2027_" style="fill:#A24223;" d="M264.446,205.724c0,19.345-12.558,35.771-29.976,41.542      c-4.329,1.443-8.969,2.216-13.782,2.216c-24.159,0-43.747-19.599-43.747-43.758c0-1.374,0.058-2.736,0.196-4.075      c2.043-22.254,20.765-39.684,43.55-39.684c4.813,0,9.453,0.773,13.782,2.216c16.183,5.356,28.164,19.911,29.78,37.468      C264.388,202.988,264.446,204.35,264.446,205.724z"/>
				<path id="XMLID_2019_" style="fill:#8B381E;" d="M264.446,205.724c0,19.345-12.558,35.771-29.976,41.542      c-4.329,1.443-8.969,2.216-13.782,2.216c-24.159,0-43.747-19.599-43.747-43.758c0-1.374,0.058-2.736,0.196-4.075h87.113      C264.388,202.988,264.446,204.35,264.446,205.724z"/>
				<path id="XMLID_2024_" style="fill:#8B381E;" d="M264.446,205.724c0,19.345-12.558,35.771-29.976,41.542      c-10.158-10.896-16.367-25.509-16.367-41.542c0-16.033,6.21-30.646,16.367-41.542      C251.888,169.953,264.446,186.367,264.446,205.724z"/>
			</g>
			<g id="XMLID_1814_">
				<path id="XMLID_2371_" style="fill:#B96340;" d="M322.933,205.724c0,12.189-4.986,23.212-13.032,31.142      c-7.895,7.803-18.757,12.616-30.727,12.616c-24.17,0-43.758-19.599-43.758-43.758c0-1.374,0.058-2.736,0.196-4.075      c2.043-22.254,20.765-39.684,43.562-39.684c11.97,0,22.831,4.813,30.727,12.605c7.133,7.041,11.866,16.518,12.847,27.079      C322.875,202.988,322.933,204.35,322.933,205.724z"/>
				<path id="XMLID_2020_" style="fill:#A24223;" d="M322.933,205.724c0,12.189-4.986,23.212-13.032,31.142      c-7.895,7.803-18.757,12.616-30.727,12.616c-24.17,0-43.758-19.599-43.758-43.758c0-1.374,0.058-2.736,0.196-4.075h87.136      C322.875,202.988,322.933,204.35,322.933,205.724z"/>
				<path id="XMLID_2022_" style="fill:#A24223;" d="M322.933,205.724c0,12.189-4.986,23.212-13.032,31.142      c-5.448-9.119-8.565-19.773-8.565-31.142c0-11.381,3.128-22.035,8.565-31.154C317.947,182.512,322.933,193.535,322.933,205.724z      "/>
			</g>
			<g id="XMLID_1851_">
				<path id="XMLID_2375_" style="fill:#B96340;" d="M403.11,205.724c0,24.159-19.588,43.758-43.758,43.758      c-24.159,0-43.747-19.599-43.747-43.758c0-1.374,0.058-2.736,0.196-4.075c2.043-22.254,20.766-39.684,43.551-39.684      c22.797,0,41.519,17.429,43.562,39.684C403.052,202.988,403.11,204.35,403.11,205.724z"/>
				<path id="XMLID_2031_" style="fill:#A24223;" d="M403.11,205.724c0,24.159-19.588,43.758-43.758,43.758      c-24.159,0-43.747-19.599-43.747-43.758c0-1.374,0.058-2.736,0.196-4.075h87.113C403.052,202.988,403.11,204.35,403.11,205.724z      "/>
			</g>
			<g id="XMLID_2462_">
				<path id="XMLID_2498_" style="fill:#FEC007;" d="M487.391,175.787l-17.052,17.052l-84.807,84.807l-23.134-23.134      l101.859-101.859c3.19-3.19,7.378-4.785,11.567-4.785c4.171,0,8.377,1.595,11.567,4.785      C493.771,159.05,493.771,169.39,487.391,175.787z"/>
				<polygon id="XMLID_2494_" style="fill:#FE9700;" points="470.339,192.839 385.532,277.646 362.398,254.512 424.071,192.839           "/>
				<path id="XMLID_2476_" style="fill:#FEC007;" d="M506.003,271.126c-5.31,20.575-13.863,39.853-25.097,57.239l-165.906,10      l-163.944-10c-11.234-17.386-19.769-36.664-25.079-57.239l190.023-10L506.003,271.126z"/>
				<g id="XMLID_1073_">
					<path id="XMLID_1075_" style="fill:#FB4239;" d="M503.872,222.089H128.109c-4.629,0-8.317,3.865-8.121,8.49       c0.592,13.938,2.636,27.497,5.989,40.547h380.026c3.354-13.05,5.397-26.609,5.989-40.547       C512.189,225.954,508.501,222.089,503.872,222.089z"/>
					<path id="XMLID_2492_" style="fill:#E21717;" d="M362.19,455.724h-92.406c-8.844,0-16.013-7.169-16.013-16.013v-51.124h124.432       v51.124C378.203,448.554,371.033,455.724,362.19,455.724z"/>
					<path id="XMLID_1077_" style="fill:#FB4239;" d="M315.99,418.271c69.174,0,130.005-35.805,164.916-89.906h-329.85       C185.985,382.466,246.799,418.271,315.99,418.271z"/>
				</g>
			</g>
		</g>
	</g>
	<path id="XMLID_851_" style="fill:#76C2E0;" d="M52.382,389.577h-12.17c-4.206,0-7.614-3.409-7.614-7.614s3.409-7.614,7.614-7.614   h12.17c4.206,0,7.614,3.409,7.614,7.614S56.587,389.577,52.382,389.577z"/>
	<path id="XMLID_2233_" style="fill:#76C2E0;" d="M98.141,413.357H40.212c-4.206,0-7.614-3.409-7.614-7.614   c0-4.206,3.409-7.614,7.614-7.614h57.929c4.206,0,7.614,3.409,7.614,7.614C105.755,409.949,102.346,413.357,98.141,413.357z"/>
</g>















</svg>
