<?xml version="1.0" encoding="iso-8859-1"?>
<!-- Generator: Adobe Illustrator 19.0.0, SVG Export Plug-In . SVG Version: 6.00 Build 0)  -->
<svg version="1.1" id="Capa_1" xmlns="http://www.w3.org/2000/svg" xmlns:xlink="http://www.w3.org/1999/xlink" x="0px" y="0px"
	 viewBox="0 0 290.8 290.8" style="enable-background:new 0 0 290.8 290.8;" xml:space="preserve">
<g>
	<path style="fill:#F37421;" d="M26.6,53.6L53,27.2c26-26,68.8-26,95.2,0c130,129.6,8.4,251.2-121.6,121.2
		C0.6,122.4,0.6,79.6,26.6,53.6z"/>
	<path style="fill:#FFFFFF;" d="M198.6,164.8l42.4,42.4c9.2-9.2,24.4-9.2,34,0c9.2,9.2,9.2,24.4,0,34c-9.2,9.2-24.4,9.2-34,0
		c9.2,9.2,9.2,24.4,0,34c-9.2,9.2-24.4,9.2-34,0c-9.2-9.2-9.2-24.4,0-34l-42.4-42.4C180.2,192.4,192.2,180.4,198.6,164.8z"/>
</g>
<path style="fill:#5F1C1C;" d="M154.2,210.4c2.8-0.4,5.6-1.2,8-2l34,34c-2.8,4.8-4.4,10.4-4.4,16c0,8.4,3.2,16.4,9.6,22.8l0,0l0,0
	l0,0c6.4,6.4,14.4,9.6,22.8,9.6l0,0c8,0,16-2.8,22.4-8.8l0.4-0.4l0,0l0,0l0,0l0,0c6.4-6.4,9.6-14.4,9.6-22.8l0,0c0-0.4,0-1.2,0-1.6
	c0.4,0,1.2,0,1.6,0c8,0,16-2.8,22.4-8.8l0.4-0.4l0,0l0,0c6.4-6.4,9.6-14.4,9.6-22.8l0,0c0-8-2.8-16-8.8-22.4l-0.4-0.4
	c-6.4-6.4-14.4-9.2-22.8-9.6c-5.6,0-11.2,1.6-16,4.4l-34-34c0.8-2.8,1.6-5.2,2.4-8c7.6-35.6-7.2-84.4-56-133.2l0,0
	C140.2,7.2,121,0,101.8,0S63,7.2,48.6,22l0,0L22.2,48.4l0,0l0,0c-14.8,14.8-22,34-22,53.2s7.2,38.8,22,53.2
	C69.8,203.2,118.6,218,154.2,210.4z M235.4,213.2c3.2,3.2,8.4,3.2,11.6,0l0.4-0.4c3.2-2.8,6.8-4.4,10.8-4.4s8,1.6,11.2,4.8l0.4,0.4
	c2.8,3.2,4.4,6.8,4.4,10.8l0,0c0,4-1.6,8-4.4,11.2l0,0l0,0l0,0l0,0l-0.4,0.4c-3.2,2.8-6.8,4.4-10.8,4.4s-8-1.6-11.2-4.8l0,0
	c-6.8-4-16,4.8-11.6,11.6l0,0l0,0l0,0l0,0l0,0l0.4,0.4c2.8,3.2,4,6.8,4,10.8l0,0c0,4-1.6,8-4.4,11.2l0,0l0,0l0,0l0,0l-0.4,0.4
	c-3.2,2.8-6.8,4.4-10.8,4.4l0,0c-4,0-8-1.6-11.2-4.8l0,0l0,0c-3.2-3.2-4.8-7.2-4.8-11.2c0-4,1.6-8,4.4-11.2c3.2-3.2,3.2-8.4,0-11.6
	l0,0l-34.8-34.8l0,0c2-1.2,4-2.8,6-4c0.4-0.4,0.8-0.4,1.2-0.8c2-1.6,3.6-3.2,5.6-4.8c1.6-1.6,3.2-3.6,4.8-5.6
	c0.4-0.4,0.4-0.8,0.8-0.8c1.6-2,2.8-4,4.4-6L235.4,213.2z M32.6,59.2L32.6,59.2L59,32.8l0,0c11.6-11.6,26.4-17.2,41.6-17.2
	c15.2,0,30.4,5.6,41.6,17.2l0,0c44.8,44.4,58.4,87.2,52,118c-0.8,4-2,8-3.6,11.6c-0.4,0.8-0.8,2-1.2,2.8c-0.4,0.8-0.8,1.2-0.8,2
	c-0.8,1.2-1.2,2.4-2,3.6c-0.4,0.4-0.4,0.8-0.8,1.2c-0.8,0.8-1.2,2-2,2.8c-0.4,0.4-0.4,0.8-0.8,0.8c-1.2,1.2-2,2.4-3.2,3.6
	s-2.4,2-3.6,3.2c-0.4,0.4-0.4,0.4-0.8,0.8c-1.2,0.8-2,1.6-3.2,2.4c-0.4,0-0.4,0.4-0.8,0.4c-2.8,1.6-5.6,3.2-8.8,4.8
	c-3.6,1.6-7.2,2.8-11.2,3.6c-31.6,6.4-74.4-7.2-118.8-51.6c-11.6-11.6-17.2-26.4-17.2-41.6C15.4,86,21,70.8,32.6,59.2z"/>
<g>
</g>
<g>
</g>
<g>
</g>
<g>
</g>
<g>
</g>
<g>
</g>
<g>
</g>
<g>
</g>
<g>
</g>
<g>
</g>
<g>
</g>
<g>
</g>
<g>
</g>
<g>
</g>
<g>
</g>
</svg>
