<svg viewBox="-37 0 512 512.001" xmlns="http://www.w3.org/2000/svg"><path d="m425.984375 471.777344s11.71875-130.042969 11.71875-215.777344-11.71875-215.777344-11.71875-215.777344l4.59375-29.15625c.40625-2.582031-1.65625-4.875-4.265625-4.757812-.488281.019531-.992188.03125-1.523438.03125-12.714843 0-12.714843-6.339844-25.429687-6.339844-12.710937 0-12.710937 6.339844-25.425781 6.339844-12.710938 0-12.710938-6.339844-25.425782-6.339844-12.710937 0-12.710937 6.339844-25.421874 6.339844-12.714844 0-12.714844-6.339844-25.425782-6.339844-12.710937 0-12.710937 6.339844-25.421875 6.339844-12.710937 0-12.710937-6.339844-25.421875-6.339844-12.707031 0-12.707031 6.339844-25.417968 6.339844-12.710938 0-12.710938-6.339844-25.421876-6.339844-12.710937 0-12.710937 6.339844-25.421874 6.339844-12.710938 0-12.710938-6.339844-25.421876-6.339844-12.710937 0-12.710937 6.339844-25.421874 6.339844-12.710938 0-12.710938-6.339844-25.421876-6.339844-12.710937 0-12.710937 6.339844-25.421874 6.339844-12.710938 0-12.710938-6.339844-25.421876-6.339844-12.710937 0-12.710937 6.339844-25.421874 6.339844-2.378907 0-4.3125-.222656-5.96875-.585938-2.832032-.617187-5.398438 1.796875-4.957032 4.660156l4.621094 29.808594s-11.71875 130.042969-11.71875 215.777344c0 85.738281 11.71875 215.78125 11.71875 215.78125l-4.621094 29.804688c-.441406 2.863281 2.125 5.277343 4.957032 4.660156 1.65625-.359375 3.589843-.585938 5.96875-.585938 12.710937 0 12.710937 6.339844 25.421874 6.339844 12.710938 0 12.710938-6.339844 25.421876-6.339844 12.710937 0 12.710937 6.339844 25.421874 6.339844 12.710938 0 12.710938-6.339844 25.421876-6.339844 12.710937 0 12.710937 6.339844 25.421874 6.339844 12.710938 0 12.710938-6.339844 25.421876-6.339844 12.710937 0 12.710937 6.339844 25.421874 6.339844 12.710938 0 12.710938-6.339844 25.421876-6.339844 12.710937 0 12.710937 6.339844 25.417968 6.339844 12.710938 0 12.710938-6.339844 25.421875-6.339844 12.710938 0 12.710938 6.339844 25.421875 6.339844 12.710938 0 12.710938-6.339844 25.425782-6.339844 12.710937 0 12.710937 6.339844 25.421874 6.339844 12.714844 0 12.714844-6.339844 25.425782-6.339844 12.714844 0 12.714844 6.339844 25.425781 6.339844 12.714844 0 12.714844-6.339844 25.429687-6.339844.53125 0 1.035157.011719 1.523438.035156 2.613281.113282 4.671875-2.175781 4.265625-4.761718zm0 0" fill="#e88c38"/><path d="m425.984375 471.777344s11.71875-130.042969 11.71875-215.777344-11.71875-215.777344-11.71875-215.777344l4.59375-29.15625c.40625-2.582031-1.65625-4.875-4.265625-4.757812-.488281.019531-.992188.03125-1.523438.03125-12.714843 0-12.714843-6.339844-25.429687-6.339844-12.710937 0-12.710937 6.339844-25.425781 6.339844-.433594 0-.847656-.011719-1.253906-.023438l-6.101563 33.90625s11.714844 130.042969 11.714844 215.777344-11.714844 215.777344-11.714844 215.777344l5.820313 33.921875c.492187-.023438 1-.039063 1.535156-.039063 12.710937 0 12.710937 6.339844 25.425781 6.339844s12.714844-6.339844 25.429687-6.339844c.527344 0 1.035157.011719 1.519532.03125 2.613281.113282 4.675781-2.175781 4.265625-4.757812zm0 0" fill="#d38231"/><path d="m339.289062 256c0 66.515625-53.921874 120.4375-120.4375 120.4375-66.515624 0-120.4375-53.921875-120.4375-120.4375s53.921876-120.4375 120.4375-120.4375c66.515626 0 120.4375 53.921875 120.4375 120.4375zm0 0" fill="#f3e8d7"/><path d="m207.914062 224.152344c-39.714843 0-72.5 26.328125-77.394531 60.386718-.582031 4.03125 3.164063 7.34375 7.082031 6.230469 11.722657-3.328125 35.699219-7.75 64.214844.234375 74.425782 20.847656 84.128906 2.382813 84.128906 2.382813-.003906-38.238281-34.9375-69.234375-78.03125-69.234375zm0 0" fill="#efa335"/><path d="m218.851562 135.5625c-10.25 0-20.203124 1.285156-29.703124 3.695312 52.148437 13.226563 90.734374 60.476563 90.734374 116.742188s-38.585937 103.515625-90.734374 116.742188c9.5 2.410156 19.449218 3.695312 29.703124 3.695312 66.515626 0 120.4375-53.921875 120.4375-120.4375s-53.921874-120.4375-120.4375-120.4375zm0 0" fill="#f4d5ba"/><path d="m184.984375 286.335938 71.207031 14.59375 29.75-7.542969c35.160156-11.847657 27.460938-71.640625-28.035156-81.449219-34.667969-6.125-83.152344 20.046875-93.039062 39.761719-6.75 13.453125 20.117187 15.824219 20.117187 34.636719zm0 0" fill="#fd8f31"/><path d="m207.914062 224.152344c-39.714843 0-72.5 26.328125-77.394531 60.386718-.582031 4.03125 3.164063 7.34375 7.082031 6.230469 11.722657-3.328125 35.699219-7.75 64.214844.234375 74.425782 20.847656 84.128906 2.382813 84.128906 2.382813-.003906-38.238281-34.9375-69.234375-78.03125-69.234375zm0 0" fill="#efa335"/><path d="m424.789062 6.339844c-12.714843 0-12.714843-6.339844-25.429687-6.339844-12.710937 0-12.710937 6.339844-25.425781 6.339844-12.710938 0-12.710938-6.339844-25.425782-6.339844-12.710937 0-12.710937 6.339844-25.421874 6.339844-12.714844 0-12.714844-6.339844-25.425782-6.339844-12.710937 0-12.710937 6.339844-25.421875 6.339844-12.710937 0-12.710937-6.339844-25.421875-6.339844-12.707031 0-12.707031 6.339844-25.417968 6.339844-12.710938 0-12.710938-6.339844-25.421876-6.339844-12.710937 0-12.710937 6.339844-25.421874 6.339844-12.710938 0-12.710938-6.339844-25.421876-6.339844-12.710937 0-12.710937 6.339844-25.421874 6.339844-12.710938 0-12.710938-6.339844-25.421876-6.339844-12.710937 0-12.710937 6.339844-25.421874 6.339844-12.710938 0-12.710938-6.339844-25.421876-6.339844-12.710937 0-12.710937 6.339844-25.421874 6.339844-2.378907 0-4.3125-.222656-5.96875-.585938-2.832032-.617187-5.398438 1.796875-4.957032 4.660156l4.621094 29.808594h414.265625l4.59375-29.15625c.40625-2.582031-1.65625-4.875-4.265625-4.757812-.488281.019531-.996094.03125-1.523438.03125zm0 0" fill="#efa335"/><path d="m389.351562 1.890625c-.1875.078125-.371093.160156-.554687.242187-.394531.179688-.777344.359376-1.15625.546876-.433594.210937-.859375.421874-1.289063.636718-.167968.082032-.339843.167969-.507812.25-.511719.25-1.03125.5-1.570312.738282-.050782.023437-.105469.046874-.15625.066406-.296876.132812-.605469.257812-.921876.382812-.878906.34375-1.832031.652344-2.898437.90625-.214844.054688-.4375.101563-.667969.148438-1.59375.328125-3.441406.53125-5.695312.53125-.433594 0-.847656-.011719-1.253906-.023438l-6.101563 33.90625h59.40625l2.492187-15.824218 2.097657-13.332032c.304687-1.9375-.777344-3.710937-2.4375-4.425781-.277344-.121094-.570313-.210937-.878907-.269531-.304687-.054688-.621093-.078125-.949218-.066406-.484375.023437-.992188.035156-1.519532.035156-2.304687 0-4.191406-.210938-5.8125-.554688-.121093-.023437-.242187-.050781-.359374-.078125-1.191407-.269531-2.238282-.613281-3.207032-.996093-.179687-.074219-.359375-.144532-.535156-.21875-.238281-.101563-.476562-.207032-.710938-.3125-.402343-.183594-.796874-.371094-1.1875-.5625-.203124-.097657-.40625-.199219-.605468-.300782-.398438-.195312-.792969-.390625-1.191406-.585937-.410157-.203125-.828126-.402344-1.257813-.597657-.183594-.082031-.367187-.164062-.554687-.242187-.253907-.109375-.511719-.214844-.777344-.316406-.808594-.316407-1.675782-.601563-2.636719-.84375-.414063-.101563-.847656-.195313-1.300781-.28125-1.5-.28125-3.226563-.449219-5.292969-.449219-1.191406 0-2.273437.0546875-3.261719.15625-.660156.066406-1.277344.15625-1.863281.257812-.585937.105469-1.136719.226563-1.660156.363282-.257813.066406-.515625.136718-.761719.210937-.59375.179688-1.152344.375-1.683594.585938-.265625.101562-.523437.207031-.777344.316406zm0 0" fill="#fd8f31"/><path d="m424.789062 505.660156c-12.714843 0-12.714843 6.339844-25.429687 6.339844-12.710937 0-12.710937-6.339844-25.425781-6.339844-12.710938 0-12.710938 6.339844-25.425782 6.339844-12.710937 0-12.710937-6.339844-25.425781-6.339844-12.710937 0-12.710937 6.339844-25.421875 6.339844-12.710937 0-12.710937-6.339844-25.421875-6.339844-12.710937 0-12.710937 6.339844-25.421875 6.339844-12.707031 0-12.707031-6.339844-25.417968-6.339844-12.710938 0-12.710938 6.339844-25.421876 6.339844-12.710937 0-12.710937-6.339844-25.421874-6.339844-12.710938 0-12.710938 6.339844-25.421876 6.339844-12.710937 0-12.710937-6.339844-25.421874-6.339844-12.710938 0-12.710938 6.339844-25.421876 6.339844-12.710937 0-12.710937-6.339844-25.421874-6.339844-12.710938 0-12.710938 6.339844-25.421876 6.339844-12.710937 0-12.710937-6.339844-25.421874-6.339844-2.378907 0-4.316407.222656-5.96875.585938-2.835938.617187-5.398438-1.796875-4.957032-4.660156l4.617188-29.808594h414.269531l4.589844 29.15625c.410156 2.582031-1.652344 4.875-4.265625 4.757812-.484375-.019531-.992188-.03125-1.519532-.03125zm0 0" fill="#efa335"/><path d="m430.578125 500.933594-2.296875-14.578125-2.292969-14.578125h-59.410156l5.820313 33.917968c.492187-.019531 1-.035156 1.535156-.035156 9.535156 0 11.917968 3.566406 17.878906 5.347656 1.238281.371094 2.636719.664063 4.285156.835938.988282.097656 2.070313.15625 3.261719.15625 12.714844 0 12.714844-6.339844 25.429687-6.339844.53125 0 1.035157.011719 1.523438.03125.324219.015625.644531-.007812.949219-.066406.609375-.113281 1.171875-.359375 1.65625-.707031 1.203125-.871094 1.914062-2.371094 1.660156-3.984375zm0 0" fill="#fd8f31"/></svg>