<?xml version="1.0" encoding="iso-8859-1"?>
<!-- Generator: Adobe Illustrator 19.0.0, SVG Export Plug-In . SVG Version: 6.00 Build 0)  -->
<svg xmlns="http://www.w3.org/2000/svg" xmlns:xlink="http://www.w3.org/1999/xlink" version="1.1" id="Layer_1" x="0px" y="0px" viewBox="0 0 512 512" style="enable-background:new 0 0 512 512;" xml:space="preserve" width="512" height="512">
<g id="XMLID_1247_">
	<g id="XMLID_2365_">
		<g id="XMLID_3338_">
			<path id="XMLID_3380_" style="fill:#D8AD8F;" d="M490.261,383.875l-0.12,0.11c-23.458,20.567-58.328,21.104-82.433,1.314     c-1.051-0.865-2.103-1.719-3.165-2.563c-40.707-32.614-93.122-59.018-147.595-59.018c-62.654,0-110.863,24.466-146.237,53.992     c-1.599,1.325-3.165,2.672-4.709,4.019c-23.25,20.348-57.606,21.454-81.809,2.256l-0.022-0.011     c-30.216-23.951-32.351-68.94-5.005-95.422c0.756-0.745,1.544-1.467,2.354-2.179c66.75-58.537,148.241-90.077,235.427-90.077     c53.937,0,108.191,14.467,161.252,42.985c24.663,13.262,48.516,29.383,70.813,47.76c0.821,0.679,1.632,1.38,2.409,2.103     C519.207,314.441,518.889,358.774,490.261,383.875z"/>
		</g>
	</g>
	<path id="XMLID_2604_" style="fill:#C19476;" d="M491.422,289.143l-86.879,93.593c-40.707-32.614-93.122-59.018-147.595-59.018   c-62.654,0-110.863,24.466-146.237,53.992l-91.074-88.686c-0.164-0.153-0.318-0.307-0.471-0.471   c0.756-0.745,1.544-1.467,2.354-2.179c66.75-58.537,148.241-90.077,235.427-90.077c53.937,0,108.191,14.467,161.252,42.985   c24.663,13.262,48.516,29.383,70.813,47.76C489.834,287.719,490.645,288.42,491.422,289.143z"/>
	<g id="XMLID_2366_">
		<g id="XMLID_3389_">
			<path id="XMLID_3391_" style="fill:#EFCDB1;" d="M482.387,274.731l-96.791,104.27c-12.803,13.799-33.589,16.471-49.545,6.472     c-0.394-0.241-0.788-0.493-1.183-0.734c-24.576-15.157-52.535-24.203-76.957-24.203c-32.778,0-57.803,9.561-76.212,21.367     c-1.511,0.975-3.077,1.829-4.676,2.552c-14.489,6.713-31.891,3.844-43.587-7.546L31.103,277.261     c-16.854-16.406-15.551-43.894,2.815-58.569c29.701-23.732,62.873-42.317,98.433-55.295     c39.426-14.39,81.765-21.892,125.561-21.892c40.839,0,81.787,7.601,122.045,22.615c6.79,2.519,13.547,5.257,20.293,8.203     c27.05,11.839,53.083,26.919,76.848,44.431C495.836,230.541,498.212,257.679,482.387,274.731z"/>
			<path id="XMLID_3390_" style="fill:#D8AD8F;" d="M380.877,207.488l-27.204,136.063c-3.077,15.387-9.648,29.372-18.804,41.189     c-24.576-15.157-52.535-24.203-76.957-24.203c-32.778,0-57.803,9.561-76.212,21.367c-1.511,0.975-3.077,1.829-4.676,2.552     c-9.024-11.751-15.529-25.638-18.574-40.904l-27.204-136.063c-2.968-14.828-2.519-29.865,1.106-44.091     c39.426-14.39,81.765-21.892,125.561-21.892c40.839,0,81.787,7.601,122.045,22.615     C383.406,178.138,383.801,192.9,380.877,207.488z"/>
		</g>
	</g>
	<path id="XMLID_2551_" style="fill:#F9E8D4;" d="M256.06,407.143L256.06,407.143c-39.619,0-73.729-27.964-81.499-66.813   l-27.212-136.06c-10.286-51.43,29.051-99.413,81.499-99.413h54.424c52.448,0,91.785,47.983,81.499,99.413l-27.212,136.06   C329.79,379.179,295.679,407.143,256.06,407.143z"/>
	<path id="XMLID_719_" style="fill:#D8AD8F;" d="M431.611,256.613c-4.268,0-7.726-3.459-7.726-7.726v-1.806   c0-4.267,3.459-7.726,7.726-7.726s7.726,3.459,7.726,7.726v1.806C439.337,253.153,435.878,256.613,431.611,256.613z"/>
	<path id="XMLID_703_" style="fill:#D8AD8F;" d="M85.084,254.806c-4.268,0-7.726-3.459-7.726-7.726v-1.806   c0-4.267,3.459-7.726,7.726-7.726c4.268,0,7.726,3.459,7.726,7.726v1.806C92.811,251.347,89.352,254.806,85.084,254.806z"/>
	<path id="XMLID_699_" style="fill:#C19476;" d="M60.991,374.976c-4.268,0-7.726-3.459-7.726-7.726v-1.806   c0-4.267,3.459-7.726,7.726-7.726s7.726,3.459,7.726,7.726v1.806C68.717,371.517,65.258,374.976,60.991,374.976z"/>
	<path id="XMLID_696_" style="fill:#C19476;" d="M471.736,340.158c-4.268,0-7.726-3.459-7.726-7.726v-1.806   c0-4.267,3.459-7.726,7.726-7.726s7.726,3.459,7.726,7.726v1.806C479.462,336.699,476.003,340.158,471.736,340.158z"/>
	<path id="XMLID_694_" style="fill:#D8AD8F;" d="M409.351,271.752c-4.268,0-7.726-3.459-7.726-7.726v-1.806   c0-4.267,3.459-7.726,7.726-7.726s7.726,3.459,7.726,7.726v1.806C417.078,268.292,413.619,271.752,409.351,271.752z"/>
	<path id="XMLID_693_" style="fill:#D8AD8F;" d="M232.931,326.789c-4.268,0-7.726-3.459-7.726-7.726v-1.806   c0-4.267,3.459-7.726,7.726-7.726s7.726,3.459,7.726,7.726v1.806C240.657,323.33,237.198,326.789,232.931,326.789z"/>
	<path id="XMLID_689_" style="fill:#D8AD8F;" d="M211.625,282.983c-4.268,0-7.726-3.459-7.726-7.726v-1.807   c0-4.267,3.459-7.726,7.726-7.726s7.726,3.459,7.726,7.726v1.807C219.351,279.524,215.892,282.983,211.625,282.983z"/>
</g>















</svg>
