<?xml version="1.0" encoding="UTF-8" standalone="no"?>
<!-- Created with Inkscape (http://www.inkscape.org/) -->

<svg
   xmlns:dc="http://purl.org/dc/elements/1.1/"
   xmlns:cc="http://creativecommons.org/ns#"
   xmlns:rdf="http://www.w3.org/1999/02/22-rdf-syntax-ns#"
   xmlns:svg="http://www.w3.org/2000/svg"
   xmlns="http://www.w3.org/2000/svg"
   xmlns:xlink="http://www.w3.org/1999/xlink"
   xmlns:sodipodi="http://sodipodi.sourceforge.net/DTD/sodipodi-0.dtd"
   xmlns:inkscape="http://www.inkscape.org/namespaces/inkscape"
   width="1920"
   height="1080"
   viewBox="0 0 507.99999 285.75001"
   version="1.1"
   id="svg8"
   inkscape:version="0.92.3 (2405546, 2018-03-11)"
   sodipodi:docname="dgl_tutobg.svg">
  <defs
     id="defs2">
    <linearGradient
       inkscape:collect="always"
       id="linearGradient3595">
      <stop
         style="stop-color:#56c1e5;stop-opacity:1"
         offset="0"
         id="stop3591" />
      <stop
         style="stop-color:#58eee6;stop-opacity:0"
         offset="1"
         id="stop3593" />
    </linearGradient>
    <linearGradient
       gradientTransform="matrix(0.99999883,0,0,0.99999883,0.07113996,0.15711238)"
       inkscape:collect="always"
       xlink:href="#linearGradient3137"
       id="linearGradient3147"
       x1="124.97517"
       y1="133.11012"
       x2="124.97517"
       y2="175.01802"
       gradientUnits="userSpaceOnUse" />
    <linearGradient
       inkscape:collect="always"
       id="linearGradient3137">
      <stop
         style="stop-color:#d8ecf7;stop-opacity:1"
         offset="0"
         id="stop3133" />
      <stop
         style="stop-color:#ecefef;stop-opacity:0.98417723"
         offset="1"
         id="stop3135" />
    </linearGradient>
    <linearGradient
       gradientTransform="matrix(0.99999883,0,0,0.99999883,0.07113996,0.15711238)"
       inkscape:collect="always"
       xlink:href="#linearGradient3137"
       id="linearGradient3163"
       x1="282.50403"
       y1="137.60025"
       x2="282.50403"
       y2="170.90207"
       gradientUnits="userSpaceOnUse" />
    <linearGradient
       gradientTransform="matrix(0.99999883,0,0,0.99999883,0.07113996,0.15711238)"
       inkscape:collect="always"
       xlink:href="#linearGradient3137"
       id="linearGradient3155"
       x1="204.67503"
       y1="135.72935"
       x2="204.67503"
       y2="164.91522"
       gradientUnits="userSpaceOnUse" />
    <linearGradient
       gradientTransform="matrix(0.99999883,0,0,0.99999883,0.07113996,0.15711238)"
       inkscape:collect="always"
       xlink:href="#linearGradient3137"
       id="linearGradient3139"
       x1="32.553265"
       y1="142.46455"
       x2="32.553265"
       y2="175.76639"
       gradientUnits="userSpaceOnUse" />
    <linearGradient
       gradientTransform="matrix(0.99999883,0,0,0.99999883,0.07113996,0.15711238)"
       inkscape:collect="always"
       xlink:href="#linearGradient1861"
       id="linearGradient1863"
       x1="160.89624"
       y1="131.6134"
       x2="160.89624"
       y2="304.48352"
       gradientUnits="userSpaceOnUse" />
    <linearGradient
       inkscape:collect="always"
       id="linearGradient1861">
      <stop
         style="stop-color:#c47b7b;stop-opacity:1"
         offset="0"
         id="stop1857" />
      <stop
         style="stop-color:#c9b899;stop-opacity:1"
         offset="1"
         id="stop1859" />
    </linearGradient>
    <linearGradient
       gradientTransform="matrix(0.99999883,0,0,0.99999883,338.22209,0.15712)"
       inkscape:collect="always"
       xlink:href="#linearGradient3137"
       id="linearGradient3147-9"
       x1="124.97517"
       y1="133.11012"
       x2="124.97517"
       y2="175.01802"
       gradientUnits="userSpaceOnUse" />
    <linearGradient
       gradientTransform="matrix(0.99999883,0,0,0.99999883,338.22209,0.15712)"
       inkscape:collect="always"
       xlink:href="#linearGradient3137"
       id="linearGradient3139-4"
       x1="32.553265"
       y1="142.46455"
       x2="32.553265"
       y2="175.76639"
       gradientUnits="userSpaceOnUse" />
    <linearGradient
       gradientTransform="matrix(3.7795231,0,0,3.7795231,1278.3197,-41.925781)"
       inkscape:collect="always"
       xlink:href="#linearGradient1861"
       id="linearGradient1863-1"
       x1="160.89624"
       y1="131.6134"
       x2="160.89624"
       y2="304.48352"
       gradientUnits="userSpaceOnUse" />
    <linearGradient
       id="linearGradient3214"
       inkscape:collect="always">
      <stop
         id="stop3210"
         offset="0"
         style="stop-color:#c1c8b7;stop-opacity:1" />
      <stop
         id="stop3212"
         offset="1"
         style="stop-color:#ced3d6;stop-opacity:1" />
    </linearGradient>
    <linearGradient
       id="linearGradient3206"
       inkscape:collect="always">
      <stop
         id="stop3202"
         offset="0"
         style="stop-color:#dfedf4;stop-opacity:1;" />
      <stop
         id="stop3204"
         offset="1"
         style="stop-color:#eef0f2;stop-opacity:1" />
    </linearGradient>
    <linearGradient
       id="linearGradient3196"
       inkscape:collect="always">
      <stop
         id="stop3192"
         offset="0"
         style="stop-color:#dfedf4;stop-opacity:1;" />
      <stop
         id="stop3194"
         offset="1"
         style="stop-color:#e7eaec;stop-opacity:1" />
    </linearGradient>
    <linearGradient
       gradientUnits="userSpaceOnUse"
       y2="177.19125"
       x2="239.61725"
       y1="165.92398"
       x1="239.24167"
       id="linearGradient3200"
       xlink:href="#linearGradient3196"
       inkscape:collect="always" />
    <linearGradient
       gradientUnits="userSpaceOnUse"
       y2="173.76469"
       x2="73.086243"
       y1="162.60902"
       x1="73.233452"
       id="linearGradient3208"
       xlink:href="#linearGradient3206"
       inkscape:collect="always" />
    <linearGradient
       gradientUnits="userSpaceOnUse"
       y2="301.88248"
       x2="166.00436"
       y1="176.81569"
       x1="163.7509"
       id="linearGradient3216"
       xlink:href="#linearGradient3214"
       inkscape:collect="always" />
    <linearGradient
       gradientTransform="matrix(0.99999883,0,0,0.99999883,338.21502,0.0966267)"
       inkscape:collect="always"
       xlink:href="#linearGradient3206"
       id="linearGradient3208-1"
       x1="73.233452"
       y1="162.60902"
       x2="73.086243"
       y2="173.76469"
       gradientUnits="userSpaceOnUse" />
    <linearGradient
       gradientTransform="matrix(0.99999881,0,0,0.99999881,338.21502,0.09662664)"
       inkscape:collect="always"
       xlink:href="#linearGradient3214"
       id="linearGradient3216-0"
       x1="163.7509"
       y1="176.81569"
       x2="166.00436"
       y2="301.88248"
       gradientUnits="userSpaceOnUse" />
    <linearGradient
       gradientTransform="matrix(0.26458333,0,0,0.26458333,-0.017242,244.19823)"
       inkscape:collect="always"
       xlink:href="#linearGradient908"
       id="linearGradient910"
       x1="570.73615"
       y1="85.85276"
       x2="570.73615"
       y2="208.08122"
       gradientUnits="userSpaceOnUse" />
    <linearGradient
       inkscape:collect="always"
       id="linearGradient908">
      <stop
         style="stop-color:#95cc43;stop-opacity:1"
         offset="0"
         id="stop904" />
      <stop
         style="stop-color:#c5c636;stop-opacity:1"
         offset="1"
         id="stop906" />
    </linearGradient>
    <linearGradient
       gradientTransform="translate(1280.2922,880.43413)"
       inkscape:collect="always"
       xlink:href="#linearGradient908"
       id="linearGradient910-8"
       x1="570.73615"
       y1="85.85276"
       x2="570.73615"
       y2="208.08122"
       gradientUnits="userSpaceOnUse" />
    <linearGradient
       inkscape:collect="always"
       xlink:href="#linearGradient3595"
       id="linearGradient3599"
       gradientUnits="userSpaceOnUse"
       x1="245.00417"
       y1="35.591648"
       x2="241.82916"
       y2="285.88748" />
  </defs>
  <sodipodi:namedview
     id="base"
     pagecolor="#ffffff"
     bordercolor="#666666"
     borderopacity="1.0"
     inkscape:pageopacity="0.0"
     inkscape:pageshadow="2"
     inkscape:zoom="0.5"
     inkscape:cx="878.30677"
     inkscape:cy="469.12576"
     inkscape:document-units="mm"
     inkscape:current-layer="layer1"
     showgrid="false"
     units="px"
     inkscape:window-width="1920"
     inkscape:window-height="1017"
     inkscape:window-x="-8"
     inkscape:window-y="100"
     inkscape:window-maximized="1" />
  <metadata
     id="metadata5">
    <rdf:RDF>
      <cc:Work
         rdf:about="">
        <dc:format>image/svg+xml</dc:format>
        <dc:type
           rdf:resource="http://purl.org/dc/dcmitype/StillImage" />
        <dc:title></dc:title>
      </cc:Work>
    </rdf:RDF>
  </metadata>
  <g
     inkscape:label="Calque 1"
     inkscape:groupmode="layer"
     id="layer1"
     transform="translate(0,-11.249983)">
    <rect
       style="opacity:1;fill:url(#linearGradient3599);fill-opacity:1;stroke:none;stroke-width:0.79772085;stroke-linecap:round;stroke-linejoin:miter;stroke-miterlimit:4;stroke-dasharray:none;stroke-opacity:1"
       id="rect3589"
       width="508"
       height="285.75"
       x="0"
       y="11.249983" />
    <path
       style="fill:#ffffff;stroke:none;stroke-width:0.08766355px;stroke-linecap:butt;stroke-linejoin:miter;stroke-opacity:1"
       d="m 74.236547,141.40081 c -4.35705,2.85616 -9.1705,5.18609 -13.56622,2.41678 -4.39572,-2.7693 -6.53967,3.98834 -12.32549,0.9149 -4.28434,-2.27585 -4.95994,6.24485 -10.40904,5.41603 -5.15481,-0.78407 -10.11521,-6.65187 -14.10322,-5.42575 -4.20651,1.2933 -12.29707,-1.30701 -11.49948,-7.41668 0.79756,-6.10967 5.3506,-6.32391 9.64977,-6.49476 3.77767,-0.15011 9.06305,3.41574 13.17187,-2.82906 3.66583,-5.57156 12.64549,-3.36238 17.51109,0.16794 5.44293,3.94924 7.2135,-2.41614 11.536,-3.88678 4.59453,-1.56318 10.53637,-0.89996 12.70641,3.15231 2.82732,5.2797 7.40989,3.25477 7.2073,7.34471 -0.26615,5.37276 -5.74204,3.80052 -9.87899,6.64036 z"
       id="path935-0"
       inkscape:connector-curvature="0"
       sodipodi:nodetypes="csssssssssssc" />
    <path
       style="fill:#ffffff;stroke:none;stroke-width:0.09474981px;stroke-linecap:butt;stroke-linejoin:miter;stroke-opacity:1"
       d="m 124.26249,148.94628 c 2.94447,-0.58949 8.48521,-8.1038 12.71101,-5.13306 4.28797,3.01446 8.0512,-4.99946 12.99642,-0.89521 4.94524,4.10422 6.78815,-5.9923 14.49698,-2.68014 4.86902,2.092 8.42485,6.37189 13.26516,3.20808 1.92396,-1.25756 8.27476,-0.20844 9.52037,2.60194 1.69108,3.81548 -6.94023,4.93285 -8.62902,10.0608 -2.67211,8.11378 -11.61351,-0.0503 -17.19272,3.30315 -12.0422,7.23807 -20.74472,-4.99975 -25.85638,-1.50839 -6.94465,4.74332 -22.97888,-6.62138 -11.31182,-8.95717 z"
       id="path937"
       inkscape:connector-curvature="0"
       sodipodi:nodetypes="ssssssssss" />
    <path
       style="fill:#ffffff;stroke:none;stroke-width:0.17937934px;stroke-linecap:butt;stroke-linejoin:miter;stroke-opacity:1"
       d="m 497.39412,128.9212 c -2.83344,-6.49791 -15.05703,-10.89321 -28.4547,-7.89978 -13.39765,2.99342 -14.28219,-3.03562 -31.22399,-2.80723 -16.94181,0.22839 -14.29024,7.6712 -32.62244,9.48503 -10.07465,0.99681 -13.94821,9.47977 4.37475,10.42206 14.74049,0.75803 23.30995,-2.6369 28.19069,2.26852 4.88075,4.90544 22.15948,4.019 31.55512,-1.45071 5.77211,-3.36027 11.94588,2.946 19.78953,-1.72512 15.81302,2.76505 12.75261,-7.46007 8.39104,-8.29277 z"
       id="path929-0-2"
       inkscape:connector-curvature="0"
       sodipodi:nodetypes="ccssscscc" />
    <path
       style="fill:#ffffff;stroke:none;stroke-width:0.08766355px;stroke-linecap:butt;stroke-linejoin:miter;stroke-opacity:1"
       d="m 339.59145,161.92206 c -4.35705,2.85615 -9.1705,5.18609 -13.56622,2.41678 -4.39572,-2.7693 -6.53967,3.98834 -12.32549,0.9149 -4.28434,-2.27585 -4.95994,6.24485 -10.40904,5.41603 -5.15481,-0.78407 -10.11521,-6.65188 -14.10322,-5.42575 -4.20651,1.2933 -12.29707,-1.30701 -11.49948,-7.41668 0.79756,-6.10967 5.3506,-6.32391 9.64977,-6.49476 3.77767,-0.15011 9.06305,3.41574 13.17187,-2.82906 3.66583,-5.57156 12.64549,-3.36238 17.51109,0.16794 5.44293,3.94924 7.2135,-2.41614 11.536,-3.88678 4.59453,-1.56318 10.53637,-0.89997 12.70641,3.15231 2.82732,5.2797 7.40989,3.25476 7.2073,7.34471 -0.26615,5.37276 -5.74204,3.80052 -9.87899,6.64036 z"
       id="path935-0-1"
       inkscape:connector-curvature="0"
       sodipodi:nodetypes="csssssssssssc" />
    <path
       style="fill:url(#linearGradient3216-0);fill-opacity:1;stroke:none;stroke-width:0.46834734px;stroke-linecap:butt;stroke-linejoin:miter;stroke-opacity:1"
       d="m 411.44827,162.70534 c -17.14809,0 -18.498,143.77328 -34.5953,132.76088 C 360.75567,284.45381 354.90245,181.07639 338.43928,182.3 c -0.0757,0.006 -0.14917,0.0257 -0.22426,0.0367 v 114.87257 h 170.54099 v -120.6872 c -1.87444,-2.65405 -4.01788,-4.10523 -6.51017,-3.95066 -14.54267,0.90196 -11.87704,121.09724 -34.66251,124.11801 -23.60062,3.12881 -37.11099,-133.98407 -56.13506,-133.98407 z"
       id="path819-1-3"
       inkscape:connector-curvature="0" />
    <path
       style="fill:url(#linearGradient3208-1);fill-opacity:1;stroke:none;stroke-width:0.26458332px;stroke-linecap:butt;stroke-linejoin:miter;stroke-opacity:1"
       d="m 402.06266,173.53193 c -0.0569,-5.109 3.6279,-9.2972 7.2958,-12.41768 4.22925,-2.30633 9.0872,1.47808 10.46971,5.51406 1.74809,2.97189 2.97703,6.62848 -0.81623,8.56121 -2.76639,2.8854 -6.74632,2.01953 -9.96422,0.54948 -2.80674,0.0259 -5.00167,0.29087 -6.98506,-2.20707 z"
       id="path3097-8"
       inkscape:connector-curvature="0" />
    <g
       transform="matrix(0.99999884,0,0,0.99999884,0.05801288,0.09662465)"
       id="layer1-0"
       inkscape:label="Calque 1">
      <path
         sodipodi:nodetypes="csccccccsssssc"
         inkscape:connector-curvature="0"
         id="path819-1"
         d="m 73.23344,162.60894 c -17.148105,0 -18.498388,143.77338 -34.595706,132.76098 C 22.540411,284.35749 16.687309,180.97995 0.22413862,182.20356 c -0.0756631,0.006 -0.14922907,0.0259 -0.22433862,0.0369 v 114.87272 h 338.68657 l -0.0195,-114.93293 c -52.66155,1.96745 -38.4442,99.49607 -59.30138,104.62456 -13.08334,-1.97658 -17.19461,-124.80781 -40.6089,-122.36061 -18.89139,1.97446 -18.32461,104.8766 -40.60891,108.90047 -16.62324,3.00167 -13.80986,-102.12918 -34.11654,-100.86976 -14.54267,0.90196 -11.87742,121.09724 -34.66291,124.11801 -23.60065,3.1288 -37.11068,-133.98389 -56.13478,-133.98389 z"
         style="fill:url(#linearGradient3216);fill-opacity:1;stroke:none;stroke-width:0.46834788px;stroke-linecap:butt;stroke-linejoin:miter;stroke-opacity:1" />
      <path
         inkscape:connector-curvature="0"
         id="path3097"
         d="m 63.847708,173.4355 c -0.05688,-5.109 3.627911,-9.29721 7.295812,-12.41769 4.229257,-2.30633 9.08721,1.47808 10.469726,5.51407 1.748085,2.97189 2.977034,6.62848 -0.816236,8.56122 -2.766396,2.8854 -6.746321,2.01953 -9.964225,0.54948 -2.806752,0.0259 -5.001675,0.29087 -6.985077,-2.20708 z"
         style="fill:url(#linearGradient3208);fill-opacity:1;stroke:none;stroke-width:0.26458365px;stroke-linecap:butt;stroke-linejoin:miter;stroke-opacity:1" />
      <path
         inkscape:connector-curvature="0"
         id="path3101"
         d="m 227.59881,177.19126 c 0.37004,-5.37881 2.77237,-11.22178 8.27395,-13.08513 4.47107,-2.61402 9.98347,-0.61736 12.48225,3.71889 2.55928,2.25085 4.59153,10.12729 -1.13467,7.31277 -4.18018,-3.13368 -7.14933,3.09366 -11.80366,1.29834 -2.98513,0.29129 -4.71011,2.87274 -7.81787,0.75513 z"
         style="fill:url(#linearGradient3200);fill-opacity:1;stroke:none;stroke-width:0.26458365px;stroke-linecap:butt;stroke-linejoin:miter;stroke-opacity:1" />
    </g>
    <path
       style="fill:url(#linearGradient1863);fill-opacity:1;stroke:none;stroke-width:0.47821486px;stroke-linecap:butt;stroke-linejoin:miter;stroke-opacity:1"
       d="m 125.94218,130.49406 c -17.87828,0 -36.235959,148.05518 -53.018699,137.04279 -16.78275,-11.01241 -22.88531,-126.03146 -40.04948,-124.80788 -10.69639,0.76251 -22.449171,47.03625 -32.80513104,73.05601 v 81.42448 H 338.74399 l 0.005,-81.42448 c -5.76609,13.02828 -9.36075,43.62185 -14.8477,43.18703 -13.74842,-1.08952 -17.92714,-124.80769 -42.33842,-122.3605 -19.69577,1.97446 -19.10472,104.87697 -42.33786,108.90085 -17.33106,3.00165 -14.3979,-107.9506 -35.56923,-106.69116 -15.16191,0.90195 -12.38368,126.91861 -36.13937,129.93935 -24.60556,3.12881 -21.74057,-138.26649 -41.57472,-138.26649 z"
       id="path819"
       inkscape:connector-curvature="0"
       sodipodi:nodetypes="scsccccssssss" />
    <path
       style="fill:url(#linearGradient3139);fill-opacity:1;stroke:none;stroke-width:0.26458332px;stroke-linecap:butt;stroke-linejoin:miter;stroke-opacity:1"
       d="m 29.630951,142.62151 c -7.88495,6.22753 -11.48812,16.13046 -13.74832,25.59027 -1.18025,2.90863 1.9479,5.40348 3.98103,2.58113 2.48973,-2.15056 5.45517,-5.43505 9.09351,-4.10835 4.24267,0.79982 8.33653,2.33769 12.63676,2.79579 3.22878,0.74854 5.84177,-2.3145 4.94968,-5.40927 -1.09583,-3.54976 -2.63219,-7.00438 -3.5515,-10.64003 -1.49075,-4.7653 -3.75209,-10.3722 -8.98942,-11.94733 -1.56069,-0.45166 -3.15635,0.14592 -4.37174,1.13779 z"
       id="path1768"
       inkscape:connector-curvature="0" />
    <path
       style="fill:url(#linearGradient3155);fill-opacity:1;stroke:none;stroke-width:0.26458332px;stroke-linecap:butt;stroke-linejoin:miter;stroke-opacity:1"
       d="m 192.77227,158.33697 c -2.04329,9.68697 5.33684,1.98172 8.09925,-1.13079 5.41519,-0.18133 20.24583,6.11596 17.37309,-4.68088 -5.18708,-5.68075 -6.00782,-18.40392 -16.21118,-16.55638 -6.89646,3.55047 -7.12671,13.2026 -9.1036,19.98309 l -0.10619,1.18254 z"
       id="path1819"
       inkscape:connector-curvature="0" />
    <path
       style="fill:url(#linearGradient3163);fill-opacity:1;stroke:none;stroke-width:0.26458332px;stroke-linecap:butt;stroke-linejoin:miter;stroke-opacity:1"
       d="m 267.23357,156.46608 c 3.32584,-7.05054 3.2403,-17.37562 12.05828,-20.27002 9.36813,-2.98427 14.89556,6.95358 17.27544,14.35391 4.20068,7.70131 -0.71612,14.18564 -8.42883,12.20246 -7.22152,8.26272 -11.429,-2.30405 -19.24365,-2.34536 l -1.04934,-1.88394 -0.6119,-2.05702 z"
       id="path1821"
       inkscape:connector-curvature="0" />
    <path
       style="fill:url(#linearGradient3147);fill-opacity:1;stroke:none;stroke-width:0.27384207px;stroke-linecap:butt;stroke-linejoin:miter;stroke-opacity:1"
       d="m 106.33732,172.83396 c 0.19474,-6.88541 3.80335,-12.97422 4.49946,-19.7691 1.90713,-7.38587 4.162,-12.9445 7.73618,-19.55506 3.2851,-4.16611 11.06599,-5.06091 13.41882,-0.0975 2.68168,4.41364 3.29647,9.89289 6.10488,14.23432 2.02616,5.78609 0.78421,12.465 3.8899,17.89609 1.95742,2.46478 -0.13586,8.30829 -2.81123,4.18849 -4.04143,-4.6721 -8.18175,-2.32059 -11.17948,1.16663 -4.36931,3.80995 -9.13195,1.19328 -13.29732,0.17213 -2.94879,-0.36647 -5.48295,1.57738 -8.36121,1.76401 z"
       id="path1846"
       inkscape:connector-curvature="0"
       sodipodi:nodetypes="cccccccccc" />
    <path
       style="fill:url(#linearGradient1863-1);fill-opacity:1;stroke:none;stroke-width:1.80742621px;stroke-linecap:butt;stroke-linejoin:miter;stroke-opacity:1"
       d="M 1754.0508 450.68555 C 1686.4799 450.69633 1617.0982 1010.2638 1553.668 968.64258 C 1490.2371 927.02083 1467.1713 492.30318 1402.2988 496.92773 C 1361.8715 499.80966 1317.4512 674.70252 1278.3105 773.04492 L 1278.3105 1080.791 L 1919.8984 1080.791 L 1919.8984 970.56055 C 1917.1012 971.9587 1914.201 972.88389 1911.1836 973.26758 C 1818.187 985.09294 1829.0143 450.69488 1754.0527 450.68555 L 1754.0508 450.68555 z "
       id="path819-7"
       transform="matrix(0.26458333,0,0,0.26458333,0,11.249983)" />
    <path
       style="fill:url(#linearGradient3139-4);fill-opacity:1;stroke:none;stroke-width:0.26458332px;stroke-linecap:butt;stroke-linejoin:miter;stroke-opacity:1"
       d="m 367.7819,142.62151 c -7.88495,6.22753 -11.48812,16.13046 -13.74832,25.59027 -1.18025,2.90863 1.9479,5.40348 3.98103,2.58113 2.48973,-2.15056 5.45517,-5.43505 9.09351,-4.10835 4.24267,0.79982 8.33653,2.33769 12.63676,2.79579 3.22878,0.74854 5.84177,-2.3145 4.94968,-5.40927 -1.09583,-3.54976 -2.63219,-7.00438 -3.5515,-10.64003 -1.49075,-4.7653 -3.75209,-10.3722 -8.98942,-11.94733 -1.56069,-0.45166 -3.15635,0.14592 -4.37174,1.13779 z"
       id="path1768-1"
       inkscape:connector-curvature="0" />
    <path
       style="fill:url(#linearGradient3147-9);fill-opacity:1;stroke:none;stroke-width:0.27384207px;stroke-linecap:butt;stroke-linejoin:miter;stroke-opacity:1"
       d="m 444.48827,172.83396 c 0.19474,-6.88541 3.80335,-12.97422 4.49946,-19.7691 1.90713,-7.38587 4.162,-12.9445 7.73618,-19.55506 3.2851,-4.16611 11.06599,-5.06091 13.41882,-0.0975 2.68168,4.41364 3.29647,9.89289 6.10488,14.23432 2.02616,5.78609 0.78421,12.465 3.8899,17.89609 1.95742,2.46478 -0.13586,8.30829 -2.81123,4.18849 -4.04143,-4.6721 -8.18175,-2.32059 -11.17948,1.16663 -4.36931,3.80995 -9.13195,1.19328 -13.29732,0.17213 -2.94879,-0.36647 -5.48295,1.57738 -8.36121,1.76401 z"
       id="path1846-4"
       inkscape:connector-curvature="0"
       sodipodi:nodetypes="cccccccccc" />
    <path
       style="fill:url(#linearGradient910);fill-opacity:1;stroke:none;stroke-width:0.26458299px;stroke-linecap:butt;stroke-linejoin:miter;stroke-opacity:1"
       d="m 230.43349,260.10729 c -7.51365,0.0157 -13.9332,2.06284 -21.95652,2.90451 -8.02332,0.84167 -16.58134,-1.66035 -23.02655,-2.19049 -12.91471,-1.06228 -18.5322,4.76599 -24.59514,3.6929 -6.06294,-1.07308 -12.33517,-3.6742 -21.84184,-1.73349 -9.05812,1.84915 -17.11585,-2.66121 -26.39108,-1.17689 -9.27522,1.48432 -19.500682,3.08339 -28.617952,0.0462 -8.05258,-2.68256 -14.58447,2.44846 -21.34076,2.68466 -6.7563,0.2362 -12.9308,-5.57891 -21.85909,-2.08542 -15.14096,5.92442 -21.98616,-6.4574 -40.8218,-0.76885 v 35.72909 H 338.74399 V 261.4137 c -4.72673,1.95257 -7.58156,3.5248 -12.88127,2.30179 -4.91371,-1.13393 -10.65657,-4.51172 -21.3596,-1.15991 -8.04386,2.51905 -15.50651,-4.3778 -24.95592,-1.92095 -12.69947,2.13683 -21.00899,3.79829 -27.66038,2.79278 -6.6514,-1.00552 -11.11011,-3.34166 -21.45333,-3.32012 z"
       id="path819-5"
       inkscape:connector-curvature="0"
       sodipodi:nodetypes="sssssssssccccsssss" />
    <path
       style="fill:#ffdc2a;fill-opacity:0.23417723;stroke:none;stroke-width:0.26458332px;stroke-linecap:butt;stroke-linejoin:miter;stroke-opacity:1"
       d="m 3.991798,265.84436 c 3.33448,11.26855 17.452,11.51401 26.74763,15.71099 12.70386,-4.1391 -2.71476,-15.99741 -10.00045,-17.02654 -5.60795,0.66312 -11.96904,-3.40455 -16.74718,1.31555 z"
       id="path912"
       inkscape:connector-curvature="0" />
    <path
       style="fill:#feff2a;fill-opacity:0.17405066;stroke:none;stroke-width:0.26458332px;stroke-linecap:butt;stroke-linejoin:miter;stroke-opacity:1"
       d="m 42.211348,266.91344 c -2.10263,4.60632 5.6047,9.66514 7.86056,12.14694 9.95423,0.39513 12.34963,-14.8831 0.26483,-12.77351 -2.03343,0.18529 -7.49008,-2.16638 -8.12539,0.62657 z"
       id="path914"
       inkscape:connector-curvature="0" />
    <path
       style="fill:#feff2a;fill-opacity:0.17405066;stroke:none;stroke-width:0.26458332px;stroke-linecap:butt;stroke-linejoin:miter;stroke-opacity:1"
       d="m 73.481878,271.45702 c -10.06659,6.89144 10.10291,16.7694 12.59343,6.78235 -1.09001,-5.13629 -8.14862,-6.55363 -12.59343,-6.78235 z"
       id="path916"
       inkscape:connector-curvature="0" />
    <path
       style="fill:#feff2a;fill-opacity:0.17405066;stroke:none;stroke-width:0.26458332px;stroke-linecap:butt;stroke-linejoin:miter;stroke-opacity:1"
       d="m 79.629078,265.57709 c 6.58865,7.24352 9.06667,-2.2457 0,0 z"
       id="path918"
       inkscape:connector-curvature="0" />
    <path
       style="fill:#feff2a;fill-opacity:0.17405066;stroke:none;stroke-width:0.26458332px;stroke-linecap:butt;stroke-linejoin:miter;stroke-opacity:1"
       d="m 93.527098,268.24979 c -5.71292,9.18383 17.875302,11.75358 18.824372,3.14017 -4.45084,-8.3361 -12.373817,-2.53268 -18.824372,-3.14017 z"
       id="path920"
       inkscape:connector-curvature="0" />
    <path
       style="fill:#feff2a;fill-opacity:0.17405066;stroke:none;stroke-width:0.26458332px;stroke-linecap:butt;stroke-linejoin:miter;stroke-opacity:1"
       d="m 126.93579,268.24979 c 3.1115,12.8868 19.50872,0.72479 3.7201,-1.16899 -1.31517,0.0265 -2.64024,0.40199 -3.7201,1.16899 z"
       id="path922"
       inkscape:connector-curvature="0" />
    <path
       style="fill:#feff2a;fill-opacity:0.17405066;stroke:none;stroke-width:0.26458332px;stroke-linecap:butt;stroke-linejoin:miter;stroke-opacity:1"
       d="m 146.71373,267.71525 c -2.28736,11.90546 22.53773,5.12973 8.89062,-1.3088 -2.87882,-0.98334 -6.64253,-1.09414 -8.89062,1.3088 z"
       id="path924"
       inkscape:connector-curvature="0" />
    <path
       style="fill:#ffdc2a;fill-opacity:0.19936709;stroke:none;stroke-width:0.26458332px;stroke-linecap:butt;stroke-linejoin:miter;stroke-opacity:1"
       d="m 174.22679,267.27541 c 3.33447,11.26855 17.452,11.514 26.74763,15.71099 12.70385,-4.13911 -2.71477,-15.99741 -10.00046,-17.02654 -5.60795,0.66312 -11.96903,-3.40456 -16.74717,1.31555 z"
       id="path912-3"
       inkscape:connector-curvature="0" />
    <path
       style="fill:#feff2a;fill-opacity:0.17405066;stroke:none;stroke-width:0.26458332px;stroke-linecap:butt;stroke-linejoin:miter;stroke-opacity:1"
       d="m 214.6127,269.10831 c -10.06659,6.89143 10.10291,16.7694 12.59342,6.78234 -1.09,-5.13629 -8.14862,-6.55362 -12.59342,-6.78234 z"
       id="path916-6"
       inkscape:connector-curvature="0" />
    <path
       style="fill:#feff2a;fill-opacity:0.17405066;stroke:none;stroke-width:0.26458332px;stroke-linecap:butt;stroke-linejoin:miter;stroke-opacity:1"
       d="m 265.27399,266.65703 c -5.71292,9.18383 17.8753,11.75359 18.82436,3.14018 -4.45085,-8.3361 -12.3738,-2.53269 -18.82436,-3.14018 z"
       id="path920-2"
       inkscape:connector-curvature="0" />
    <path
       style="fill:#feff2a;fill-opacity:0.17405066;stroke:none;stroke-width:0.26458332px;stroke-linecap:butt;stroke-linejoin:miter;stroke-opacity:1"
       d="m 294.14696,274.21655 c 3.1115,12.88681 19.50873,0.72479 3.72009,-1.16899 -1.31516,0.0265 -2.64022,0.40199 -3.72009,1.16899 z"
       id="path922-9"
       inkscape:connector-curvature="0" />
    <path
       style="fill:#feff2a;fill-opacity:0.17405066;stroke:none;stroke-width:0.26458332px;stroke-linecap:butt;stroke-linejoin:miter;stroke-opacity:1"
       d="m 313.92491,270.28022 c -2.28738,11.90547 22.53774,5.12974 8.89061,-1.30879 -2.8788,-0.98334 -6.64253,-1.09414 -8.89061,1.30879 z"
       id="path924-1"
       inkscape:connector-curvature="0" />
    <path
       style="fill:#ffdc2a;fill-opacity:0.19936709;stroke:none;stroke-width:0.26458332px;stroke-linecap:butt;stroke-linejoin:miter;stroke-opacity:1"
       d="m 119.04526,272.92442 c -0.67327,1.0725 -1.84736,1.68766 -2.64583,2.64583 -0.40329,0.48395 -0.73064,1.02796 -1.13393,1.51191 -0.45627,0.54752 -1.00793,1.00794 -1.5119,1.5119 -0.25199,0.25198 -0.50397,0.50396 -0.75596,0.75595 -0.12599,0.12599 -0.29829,0.21861 -0.37797,0.37797 -0.0564,0.11269 0,0.25199 0,0.37798 0,0.12599 0,0.25199 0,0.37798 0,0.12599 0,0.25198 0,0.37797 0,0.126 -0.0564,0.26529 0,0.37798 0.51003,1.02006 0.16941,-0.013 0.75595,0.37798 0.0397,0.0265 1.39176,1.47185 1.51191,1.5119 0.23905,0.0797 0.51149,-0.0611 0.75595,0 0.27331,0.0683 0.48868,0.28889 0.75595,0.37798 0.24443,0.0815 1.47716,0 1.88987,0 0.0917,0 1.12178,0.0122 1.13394,0 0.19921,-0.19921 0.2217,-0.52154 0.37797,-0.75595 0.0988,-0.14826 0.25199,-0.25199 0.37798,-0.37798 0.25198,-0.25198 0.50397,-0.50397 0.75595,-0.75595 0.12599,-0.12599 0.22972,-0.27914 0.37798,-0.37798 0.23441,-0.15627 0.50397,-0.25198 0.75595,-0.37798 0.25199,-0.12599 0.48264,-0.30964 0.75595,-0.37797 0.24447,-0.0611 0.50397,0 0.75596,0 0.12599,0 0.26528,0.0563 0.37798,0 0.15936,-0.0797 0.2186,-0.29829 0.37797,-0.37798 0.11269,-0.0563 0.28888,0.0891 0.37798,0 0.0891,-0.0891 -0.0891,-0.28889 0,-0.37798 0.18898,-0.18898 0.94493,0.18899 1.13393,0 0.0367,-0.0367 0,-1.74583 0,-1.88987 0,-0.32077 0.0695,-2.05949 0,-2.26786 -0.0564,-0.16904 -0.27915,-0.22972 -0.37799,-0.37797 -0.15626,-0.23442 -0.28888,-0.48869 -0.37796,-0.75596 -0.0398,-0.11953 0.0891,-0.28889 0,-0.37798 -0.19922,-0.19921 -0.48869,-0.28888 -0.75596,-0.37797 -0.11953,-0.0398 -0.28889,0.0891 -0.37797,0 -0.0891,-0.0891 0.0891,-0.28889 0,-0.37798 -0.0235,-1.06428 -0.85221,-0.0962 -1.13394,-0.37797 -0.0891,-0.0891 0.1127,-0.32164 0,-0.37798 -0.22538,-0.11269 -0.50396,0 -0.75595,0 -0.12599,0 -0.28889,0.0891 -0.37797,0 -0.0891,-0.0891 0.11269,-0.32163 0,-0.37798 -0.59651,-0.29825 -2.21969,0.58549 -2.64584,0.75596 z"
       id="path1095"
       inkscape:connector-curvature="0" />
    <path
       style="fill:#ffdc2a;fill-opacity:0.19936709;stroke:none;stroke-width:0.26458332px;stroke-linecap:butt;stroke-linejoin:miter;stroke-opacity:1"
       d="m 141.72384,274.05834 c -0.65297,-0.0655 -0.25508,2.40004 -0.37798,2.64584 -0.34413,0.68826 -0.28672,0.22157 -0.75595,0.37798 -0.26727,0.0891 -0.53057,0.20894 -0.75595,0.37798 -0.28509,0.21381 -0.47087,0.54213 -0.75596,0.75595 -0.45076,0.33807 -1.04308,0.44339 -1.5119,0.75594 -0.14826,0.0988 -0.25199,0.25198 -0.37798,0.37798 -0.126,0.12599 -0.25199,0.25198 -0.37798,0.37797 -0.12599,0.126 -0.21861,0.2983 -0.37798,0.37798 -0.11269,0.0563 -0.28888,-0.0891 -0.37797,0 -0.0891,0.0891 -0.0891,0.28889 0,0.37798 0.0891,0.0891 0.28888,-0.0891 0.37797,0 0.0891,0.0891 -0.0563,0.26528 0,0.37797 0.30329,0.60657 0.45267,0.14939 0.75596,0.75596 0.0563,0.11269 -0.0891,0.28889 0,0.37797 0.0891,0.0891 0.26528,-0.0563 0.37798,0 0.31873,0.15937 0.43721,0.59659 0.75595,0.75596 0.11269,0.0563 0.26528,-0.0564 0.37797,0 0.15937,0.0797 0.21861,0.29829 0.37798,0.37797 0.11269,0.0564 0.26529,-0.0563 0.37798,0 0.15937,0.0797 0.21861,0.2983 0.37798,0.37798 0.11268,0.0564 0.26528,-0.0563 0.37797,0 0.15937,0.0797 0.21861,0.29829 0.37798,0.37798 0.11269,0.0563 0.26528,-0.0564 0.37797,0 0.83572,0.41786 0.1173,0.23459 0.37798,0.75595 0.41787,0.83573 0.23459,0.1173 0.75595,0.37798 0.31873,0.15937 0.43721,0.59658 0.75596,0.75595 0.11268,0.0564 0.26527,-0.0563 0.37796,0 0.15937,0.0797 0.20894,0.32163 0.37798,0.37798 0.20837,0.0695 1.94709,0 2.26786,0 0.21779,0 1.75212,0.0689 1.88988,0 0.15937,-0.0797 0.21861,-0.29829 0.37798,-0.37798 0.11269,-0.0563 0.25199,0 0.37798,0 0.37797,0 0.77535,-0.11953 1.13393,0 0.16903,0.0564 0.2186,0.29829 0.37797,0.37798 0.11268,0.0563 0.28889,-0.0891 0.37797,0 0.0891,0.0891 -0.11268,0.32163 0,0.37797 0.33808,0.16904 0.75595,0 1.13393,0 0.12599,0 0.25198,0 0.37798,0 0.12599,0 0.26528,0.0564 0.37797,0 0.15937,-0.0797 0.25199,-0.25198 0.37798,-0.37797 0.43246,-0.43246 0.52712,-0.44744 0.75595,-1.13393 0.0399,-0.11953 -0.0891,-0.28889 0,-0.37798 0.19921,-0.19921 0.59968,-0.14357 0.75596,-0.37798 0.13977,-0.20966 -0.0797,-0.51689 0,-0.75595 0.26206,-0.78619 0.49389,0.0302 0.75595,-0.75595 0.0912,-0.27353 -0.1246,-1.38731 0,-1.51191 0.0891,-0.0891 0.28889,0.0891 0.37798,0 0.0891,-0.0891 0,-0.25198 0,-0.37798 0,-0.12599 0,-0.25198 0,-0.37797 0,-0.12599 0,-0.25199 0,-0.37798 0,-0.12599 0.11269,-0.32163 0,-0.37798 -0.2348,-0.1174 -1.89157,0.0941 -2.26786,0 -0.27332,-0.0683 -0.48869,-0.28888 -0.75596,-0.37797 -0.31679,-0.1056 -1.26141,0.12525 -1.51189,0 -0.15937,-0.0797 -0.21861,-0.29829 -0.37799,-0.37798 -0.22537,-0.11269 -0.57776,0.17818 -0.75594,0 -0.0891,-0.0891 0,-0.25198 0,-0.37797 -0.25199,-0.12599 -0.48869,-0.28888 -0.75596,-0.37797 -0.23905,-0.0797 -0.53057,0.11269 -0.75595,0 -0.15937,-0.0797 -0.21861,-0.29829 -0.37798,-0.37798 -0.11269,-0.0563 -0.28888,0.0891 -0.37797,0 -0.0891,-0.0891 0.0563,-0.26529 0,-0.37797 -0.78653,-1.57305 0.0261,0.40407 -0.75596,-0.37798 -0.0891,-0.0891 0.0564,-0.26529 0,-0.37798 -0.0797,-0.15937 -0.25198,-0.25198 -0.37797,-0.37798 -0.12599,-0.12599 -0.21861,-0.29829 -0.37798,-0.37797 -0.22538,-0.11269 -0.53057,0.11269 -0.75595,0 -0.15937,-0.0797 -0.21861,-0.29829 -0.37798,-0.37798 -0.22538,-0.11269 -0.57777,0.17818 -0.75595,0 -0.0891,-0.0891 0.0891,-0.28888 0,-0.37797 -0.0891,-0.0891 -0.28889,0.0891 -0.37798,0 -0.0891,-0.0891 0,-0.25199 0,-0.37798 -0.62996,-0.25198 -1.25992,-0.50397 -1.88987,-0.75596 z"
       id="path1097"
       inkscape:connector-curvature="0" />
    <path
       style="fill:#ffdc2a;fill-opacity:0.19936709;stroke:none;stroke-width:0.26458332px;stroke-linecap:butt;stroke-linejoin:miter;stroke-opacity:1"
       d="m 231.30419,265.36489 c 0.25199,0.50397 0.50397,1.00794 0.75595,1.51191 0.126,0.12599 0.2983,0.21861 0.37798,0.37798 0.0563,0.11269 -0.0564,0.26528 0,0.37797 0.0797,0.15937 0.27914,0.22972 0.37798,0.37798 0.15627,0.23441 0.17876,0.55674 0.37798,0.75595 0.0891,0.0891 0.28888,-0.0891 0.37797,0 0.78205,0.78205 -1.19507,-0.0306 0.37798,0.75596 0.11269,0.0563 0.26528,-0.0564 0.37797,0 0.15937,0.0797 0.21861,0.29829 0.37798,0.37797 0.22538,0.11269 0.53056,-0.11269 0.75594,0 1.57305,0.78651 -0.40407,-0.0261 0.37799,0.75594 0.0891,0.0891 0.28888,-0.0891 0.37797,0 0.0891,0.0891 -0.0891,0.28889 0,0.37798 0.0891,0.0891 0.25198,0 0.37797,0 0.126,0 0.25199,0 0.37798,0 0.25198,0 0.53057,0.11269 0.75595,0 0.11269,-0.0563 -0.0563,-0.26528 0,-0.37798 0.0797,-0.15936 0.27914,-0.22972 0.37798,-0.37797 0.15628,-0.2344 0.2217,-0.52153 0.37798,-0.75594 0.34665,-0.51999 0.58311,-0.38875 1.13393,-0.75596 0.14825,-0.0988 0.25198,-0.25198 0.37797,-0.37797 0.126,-0.126 0.2983,-0.21861 0.37798,-0.37798 0.11269,-0.22538 -0.17818,-0.57777 0,-0.75595 0.0891,-0.0891 0.28889,0.0891 0.37798,0 0.0891,-0.0891 -0.0563,-0.26529 0,-0.37798 0.0797,-0.15937 0.29829,-0.21861 0.37797,-0.37798 0.0564,-0.11269 -0.0563,-0.26528 0,-0.37797 0.0797,-0.15937 0.2983,-0.21861 0.37798,-0.37798 0.0564,-0.11269 0,-0.25199 0,-0.37798 0,-0.12599 0.0564,-0.26528 0,-0.37797 -0.78652,-1.57305 0.0261,0.40407 -0.75595,-0.37798 -0.19921,-0.19921 -0.22171,-0.52154 -0.37798,-0.75595 -0.0988,-0.14826 -0.25198,-0.25199 -0.37798,-0.37798 -0.12599,-0.12599 -0.2186,-0.29829 -0.37797,-0.37798 -0.93094,-0.46547 0.34121,1.09717 -1.13393,-0.37797 -0.0891,-0.0891 0.11952,-0.33814 0,-0.37798 -0.35858,-0.11953 -0.77535,0.11953 -1.13393,0 -0.11953,-0.0398 0.11269,-0.32163 0,-0.37798 -0.22538,-0.11269 -0.50397,0 -0.75596,0 -0.21778,0 -1.75211,-0.0689 -1.88987,0 -0.15937,0.0797 -0.25198,0.25199 -0.37798,0.37798 -0.12599,0.12599 -0.29829,0.21861 -0.37797,0.37798 -0.11269,0.22538 0.11269,0.53057 0,0.75595 -0.78653,1.57305 0.0261,-0.40407 -0.75595,0.37798 -0.0891,0.0891 0.0891,0.28888 0,0.37797 -0.0891,0.0891 -0.28889,-0.0891 -0.37798,0 -0.0891,0.0891 0,0.25199 0,0.37798 -0.50397,0.25198 -1.00794,0.50397 -1.51191,0.75595 z"
       id="path1101"
       inkscape:connector-curvature="0" />
    <path
       style="fill:#ffdc2a;fill-opacity:0.19936709;stroke:none;stroke-width:0.26458332px;stroke-linecap:butt;stroke-linejoin:miter;stroke-opacity:1"
       d="m 243.02145,272.16846 c 0.39484,1.29435 -1.15113,1.16831 -1.51191,1.88988 -0.0563,0.11269 0.0564,0.26529 0,0.37798 -0.0797,0.15937 -0.29829,0.21861 -0.37796,0.37798 -0.0497,0.0994 0,1.31425 0,1.5119 0,0.126 0,0.25199 0,0.37798 0,0.12599 -0.0891,0.28889 0,0.37798 0.0891,0.0891 0.26527,-0.0563 0.37796,0 0.15938,0.0797 0.25199,0.25198 0.37798,0.37798 0.29523,0.29523 0.80778,0.91649 1.13393,1.13392 0.23442,0.15627 0.53056,0.20894 0.75597,0.37797 0.42762,0.32072 0.68915,0.83742 1.13391,1.13393 0.2344,0.15628 0.52155,0.2217 0.75595,0.37798 0.29651,0.19767 0.43722,0.59658 0.75596,0.75595 0.22538,0.11269 0.53057,-0.11269 0.75595,0 0.15935,0.0797 0.20894,0.32163 0.37798,0.37798 0.25008,0.0834 2.13363,0 2.64584,0 0.38063,0 2.05883,0.0697 2.26784,0 0.27609,-0.092 1.23582,-1.41988 1.51191,-1.51191 0.23905,-0.0797 0.51689,0.0797 0.75594,0 0.16904,-0.0563 0.22974,-0.27914 0.37799,-0.37798 0.23442,-0.15627 0.52154,-0.2217 0.75594,-0.37797 0.14827,-0.0988 0.22974,-0.27914 0.37798,-0.37798 1.90948,-1.27297 0.009,-0.003 1.13393,-0.37797 0.26728,-0.0891 0.48868,-0.28888 0.75597,-0.37797 0.11951,-0.0399 0.26527,0.0563 0.37795,0 0.15939,-0.0797 0.21863,-0.29829 0.37799,-0.37798 0.11268,-0.0563 0.2889,0.0891 0.37798,0 0.0172,-0.0171 0,-1.71167 0,-1.88988 0,-0.25199 0,-0.50397 0,-0.75596 0,-0.12599 0.0564,-0.26528 0,-0.37797 -0.15936,-0.31874 -0.64325,-0.41788 -0.75597,-0.75596 -0.0797,-0.23905 0.0797,-0.5169 0,-0.75595 -0.0156,-0.0469 -1.06907,-1.10151 -1.13392,-1.13393 -0.11269,-0.0563 -0.26527,0.0563 -0.37796,0 -0.15939,-0.0797 -0.21863,-0.29829 -0.37798,-0.37798 -0.11269,-0.0563 -0.2889,0.0891 -0.37799,0 -0.0891,-0.0891 0.11269,-0.32163 0,-0.37797 -0.22537,-0.11269 -0.50395,0 -0.75594,0 -0.126,0 -0.2889,0.0891 -0.37798,0 -0.0891,-0.0891 0.11268,-0.32163 0,-0.37798 -0.22538,-0.11269 -0.50398,0 -0.75595,0 -0.75597,0 -1.5119,0 -2.26787,0 -0.75594,0 -1.51188,0 -2.26785,0 -0.37798,0 -0.7633,-0.0741 -1.13392,0 -0.27626,0.0553 -0.48263,0.30965 -0.75595,0.37798 -0.24447,0.0611 -0.50397,0 -0.75596,0 -0.25199,0.12599 -0.48869,0.28889 -0.75595,0.37797 -0.23905,0.0797 -0.57777,-0.17818 -0.75596,0 -0.0891,0.0891 0.0891,0.28889 0,0.37798 -0.0891,0.0891 -0.25199,0 -0.37796,0 -0.25199,0 -0.50398,0 -0.75597,0 -0.50397,0 -1.00792,0 -1.5119,0 z"
       id="path1103"
       inkscape:connector-curvature="0" />
    <path
       style="fill:url(#linearGradient910-8);fill-opacity:1;stroke:none;stroke-width:0.99999869px;stroke-linecap:butt;stroke-linejoin:miter;stroke-opacity:1"
       d="M 1318.707 939.95312 C 1307.3437 939.8367 1294.7534 941.38476 1280.293 945.75195 L 1280.293 1080.791 L 1922.0371 1080.791 L 1922.0371 951.23633 C 1909.2631 955.36282 1898.9132 959.09463 1888.3145 957.21875 C 1865.3994 953.16298 1841.6924 943.333 1805.7617 950.66797 C 1771.5263 957.65684 1741.0736 940.60872 1706.0176 946.21875 C 1670.9616 951.82878 1632.3125 957.87367 1597.8535 946.39453 C 1567.4186 936.25572 1542.7328 955.64833 1517.1973 956.54102 C 1491.6617 957.43378 1468.3248 935.45442 1434.5801 948.6582 C 1388.9783 966.50141 1363.2864 940.40985 1318.707 939.95312 z "
       transform="matrix(0.26458333,0,0,0.26458333,0,11.249983)"
       id="path819-9" />
    <path
       style="fill:#ffdc2a;fill-opacity:0.23417723;stroke:none;stroke-width:0.26458332px;stroke-linecap:butt;stroke-linejoin:miter;stroke-opacity:1"
       d="m 342.75303,265.84431 c 3.33447,11.26855 17.452,11.51401 26.74763,15.71099 12.70385,-4.1391 -2.71476,-15.99741 -10.00046,-17.02654 -5.60794,0.66312 -11.96903,-3.40455 -16.74717,1.31555 z"
       id="path912-6"
       inkscape:connector-curvature="0" />
    <path
       style="fill:#feff2a;fill-opacity:0.17405066;stroke:none;stroke-width:0.26458332px;stroke-linecap:butt;stroke-linejoin:miter;stroke-opacity:1"
       d="m 380.97257,266.91339 c -2.10262,4.60633 5.60471,9.66514 7.86056,12.14695 9.95424,0.39513 12.34964,-14.8831 0.26483,-12.77352 -2.03342,0.18529 -7.49007,-2.16637 -8.12539,0.62657 z"
       id="path914-4"
       inkscape:connector-curvature="0" />
    <path
       style="fill:#feff2a;fill-opacity:0.17405066;stroke:none;stroke-width:0.26458332px;stroke-linecap:butt;stroke-linejoin:miter;stroke-opacity:1"
       d="m 412.24311,271.45698 c -10.06659,6.89143 10.1029,16.7694 12.59342,6.78234 -1.09,-5.13629 -8.14861,-6.55362 -12.59342,-6.78234 z"
       id="path916-63"
       inkscape:connector-curvature="0" />
    <path
       style="fill:#feff2a;fill-opacity:0.17405066;stroke:none;stroke-width:0.26458332px;stroke-linecap:butt;stroke-linejoin:miter;stroke-opacity:1"
       d="m 418.39031,265.57704 c 6.58864,7.24352 9.06667,-2.24569 0,0 z"
       id="path918-9"
       inkscape:connector-curvature="0" />
    <path
       style="fill:#feff2a;fill-opacity:0.17405066;stroke:none;stroke-width:0.26458332px;stroke-linecap:butt;stroke-linejoin:miter;stroke-opacity:1"
       d="m 432.28833,268.24974 c -5.71292,9.18383 17.8753,11.75359 18.82437,3.14018 -4.45084,-8.3361 -12.37381,-2.53269 -18.82437,-3.14018 z"
       id="path920-3"
       inkscape:connector-curvature="0" />
    <path
       style="fill:#feff2a;fill-opacity:0.17405066;stroke:none;stroke-width:0.26458332px;stroke-linecap:butt;stroke-linejoin:miter;stroke-opacity:1"
       d="m 465.69702,268.24974 c 3.1115,12.88681 19.50872,0.72479 3.7201,-1.16899 -1.31517,0.0265 -2.64024,0.40199 -3.7201,1.16899 z"
       id="path922-3"
       inkscape:connector-curvature="0" />
    <path
       style="fill:#feff2a;fill-opacity:0.17405066;stroke:none;stroke-width:0.26458332px;stroke-linecap:butt;stroke-linejoin:miter;stroke-opacity:1"
       d="m 485.47496,267.7152 c -2.28736,11.90547 22.53773,5.12973 8.89062,-1.3088 -2.87882,-0.98334 -6.64253,-1.09414 -8.89062,1.3088 z"
       id="path924-6"
       inkscape:connector-curvature="0" />
    <path
       style="fill:#ffdc2a;fill-opacity:0.19936709;stroke:none;stroke-width:0.26458332px;stroke-linecap:butt;stroke-linejoin:miter;stroke-opacity:1"
       d="m 457.80649,272.92437 c -0.67327,1.0725 -1.84736,1.68766 -2.64583,2.64583 -0.40329,0.48395 -0.73064,1.02796 -1.13393,1.51191 -0.45627,0.54752 -1.00793,1.00794 -1.5119,1.5119 -0.25199,0.25199 -0.50397,0.50397 -0.75596,0.75596 -0.12599,0.12599 -0.29829,0.21861 -0.37797,0.37797 -0.0564,0.11269 0,0.25199 0,0.37798 0,0.12599 0,0.25199 0,0.37798 0,0.12599 0,0.25198 0,0.37797 0,0.126 -0.0564,0.26529 0,0.37798 0.51003,1.02005 0.16941,-0.013 0.75595,0.37797 0.0397,0.0265 1.39176,1.47185 1.51191,1.5119 0.23905,0.0797 0.51149,-0.0611 0.75595,0 0.27331,0.0683 0.48868,0.28889 0.75595,0.37798 0.24443,0.0815 1.47716,0 1.88987,0 0.0917,0 1.12178,0.0122 1.13394,0 0.19921,-0.19921 0.2217,-0.52154 0.37797,-0.75595 0.0988,-0.14826 0.25199,-0.25199 0.37798,-0.37798 0.25198,-0.25198 0.50397,-0.50397 0.75595,-0.75595 0.12599,-0.12599 0.22972,-0.27914 0.37798,-0.37797 0.23441,-0.15627 0.50397,-0.25198 0.75595,-0.37798 0.25199,-0.12599 0.48264,-0.30964 0.75595,-0.37797 0.24447,-0.0611 0.50397,0 0.75596,0 0.12599,0 0.26528,0.0563 0.37798,0 0.15936,-0.0797 0.2186,-0.29829 0.37797,-0.37798 0.11269,-0.0563 0.28888,0.0891 0.37798,0 0.0891,-0.0891 -0.0891,-0.28889 0,-0.37798 0.18898,-0.18898 0.94493,0.18899 1.13393,0 0.0367,-0.0367 0,-1.74584 0,-1.88988 0,-0.32077 0.0695,-2.05949 0,-2.26786 -0.0564,-0.16904 -0.27915,-0.22972 -0.37799,-0.37797 -0.15626,-0.23442 -0.28888,-0.48869 -0.37796,-0.75596 -0.0398,-0.11953 0.0891,-0.28889 0,-0.37798 -0.19922,-0.19921 -0.48869,-0.28888 -0.75596,-0.37797 -0.11953,-0.0398 -0.28889,0.0891 -0.37797,0 -0.0891,-0.0891 0.0891,-0.28889 0,-0.37798 -0.0235,-1.06427 -0.85221,-0.0962 -1.13394,-0.37797 -0.0891,-0.0891 0.1127,-0.32163 0,-0.37797 -0.22538,-0.11269 -0.50396,0 -0.75595,0 -0.12599,0 -0.28889,0.0891 -0.37797,0 -0.0891,-0.0891 0.11269,-0.32163 0,-0.37798 -0.59651,-0.29825 -2.21969,0.58548 -2.64584,0.75595 z"
       id="path1095-6"
       inkscape:connector-curvature="0" />
    <path
       style="fill:#ffdc2a;fill-opacity:0.19936709;stroke:none;stroke-width:0.26458332px;stroke-linecap:butt;stroke-linejoin:miter;stroke-opacity:1"
       d="m 480.48507,274.05829 c -0.65297,-0.0655 -0.25508,2.40004 -0.37798,2.64584 -0.34413,0.68826 -0.28672,0.22157 -0.75595,0.37798 -0.26727,0.0891 -0.53057,0.20894 -0.75595,0.37798 -0.28509,0.21381 -0.47087,0.54213 -0.75596,0.75595 -0.45076,0.33807 -1.04308,0.4434 -1.5119,0.75595 -0.14826,0.0988 -0.25199,0.25198 -0.37798,0.37798 -0.126,0.12599 -0.25199,0.25198 -0.37798,0.37797 -0.12599,0.126 -0.21861,0.2983 -0.37798,0.37798 -0.11269,0.0563 -0.28888,-0.0891 -0.37797,0 -0.0891,0.0891 -0.0891,0.28889 0,0.37798 0.0891,0.0891 0.28888,-0.0891 0.37797,0 0.0891,0.0891 -0.0563,0.26528 0,0.37797 0.30329,0.60656 0.45267,0.14939 0.75596,0.75595 0.0563,0.11269 -0.0891,0.28889 0,0.37797 0.0891,0.0891 0.26528,-0.0563 0.37798,0 0.31873,0.15937 0.43721,0.59659 0.75595,0.75596 0.11269,0.0563 0.26528,-0.0564 0.37797,0 0.15937,0.0797 0.21861,0.29829 0.37798,0.37797 0.11269,0.0564 0.26529,-0.0563 0.37798,0 0.15937,0.0797 0.21861,0.2983 0.37798,0.37798 0.11268,0.0564 0.26528,-0.0563 0.37797,0 0.15937,0.0797 0.21861,0.29829 0.37798,0.37798 0.11269,0.0563 0.26528,-0.0564 0.37797,0 0.83572,0.41786 0.1173,0.23459 0.37798,0.75595 0.41787,0.83573 0.23459,0.1173 0.75595,0.37798 0.31873,0.15937 0.43721,0.59658 0.75596,0.75595 0.11268,0.0564 0.26527,-0.0563 0.37796,0 0.15937,0.0797 0.20894,0.32163 0.37798,0.37798 0.20837,0.0695 1.94709,0 2.26786,0 0.21779,0 1.75212,0.0689 1.88988,0 0.15937,-0.0797 0.21861,-0.29829 0.37798,-0.37798 0.11269,-0.0563 0.25199,0 0.37798,0 0.37797,0 0.77535,-0.11953 1.13393,0 0.16903,0.0564 0.2186,0.29829 0.37797,0.37798 0.11268,0.0563 0.28889,-0.0891 0.37797,0 0.0891,0.0891 -0.11268,0.32163 0,0.37797 0.33808,0.16904 0.75595,0 1.13393,0 0.12599,0 0.25198,0 0.37798,0 0.12599,0 0.26528,0.0564 0.37797,0 0.15937,-0.0797 0.25199,-0.25198 0.37798,-0.37797 0.43246,-0.43246 0.52712,-0.44744 0.75595,-1.13393 0.0399,-0.11953 -0.0891,-0.28889 0,-0.37798 0.19921,-0.19921 0.59968,-0.14357 0.75596,-0.37798 0.13977,-0.20966 -0.0797,-0.51689 0,-0.75595 0.26206,-0.78619 0.49389,0.0302 0.75595,-0.75595 0.0912,-0.27353 -0.1246,-1.38731 0,-1.5119 0.0891,-0.0891 0.28889,0.0891 0.37798,0 0.0891,-0.0891 0,-0.25198 0,-0.37798 0,-0.12599 0,-0.25198 0,-0.37797 0,-0.12599 0,-0.25199 0,-0.37798 0,-0.12599 0.11269,-0.32163 0,-0.37798 -0.2348,-0.1174 -1.89157,0.0941 -2.26786,0 -0.27332,-0.0683 -0.48869,-0.28888 -0.75596,-0.37797 -0.31679,-0.1056 -1.26141,0.12525 -1.51189,0 -0.15937,-0.0797 -0.21861,-0.29829 -0.37799,-0.37798 -0.22537,-0.11269 -0.57776,0.17818 -0.75594,0 -0.0891,-0.0891 0,-0.25198 0,-0.37798 -0.25199,-0.12599 -0.48869,-0.28888 -0.75596,-0.37797 -0.23905,-0.0797 -0.53057,0.11269 -0.75595,0 -0.15937,-0.0797 -0.21861,-0.29829 -0.37798,-0.37798 -0.11269,-0.0563 -0.28888,0.0891 -0.37797,0 -0.0891,-0.0891 0.0563,-0.26529 0,-0.37797 -0.78653,-1.57305 0.0261,0.40407 -0.75596,-0.37798 -0.0891,-0.0891 0.0564,-0.26529 0,-0.37798 -0.0797,-0.15937 -0.25198,-0.25198 -0.37797,-0.37798 -0.12599,-0.12599 -0.21861,-0.29829 -0.37798,-0.37797 -0.22538,-0.11269 -0.53057,0.11269 -0.75595,0 -0.15937,-0.0797 -0.21861,-0.29829 -0.37798,-0.37798 -0.22538,-0.11269 -0.57777,0.17818 -0.75595,0 -0.0891,-0.0891 0.0891,-0.28888 0,-0.37797 -0.0891,-0.0891 -0.28889,0.0891 -0.37798,0 -0.0891,-0.0891 0,-0.25199 0,-0.37798 -0.62996,-0.25198 -1.25992,-0.50397 -1.88987,-0.75596 z"
       id="path1097-1"
       inkscape:connector-curvature="0" />
    <path
       style="fill:#ffffff;stroke:none;stroke-width:0.16099592px;stroke-linecap:butt;stroke-linejoin:miter;stroke-opacity:1"
       d="m 12.499207,39.039667 c 9.13602,4.588134 4.68793,9.11485 10.83411,10.579589 7.52069,1.792316 6.55475,-7.263593 17.2007,-3.139368 13.04086,5.052014 24.90119,1.609478 25.57748,-6.271763 0.63703,-7.423711 -10.71633,-6.792532 -13.20996,-12.782625 -2.49363,-5.990083 -18.18232,-9.062179 -22.72022,-3.158476 -3.67275,4.778154 -6.17622,5.622903 -11.8083,4.686864 -7.21432,-1.198998 -12.97059,6.521763 -5.87381,10.085779 z"
       id="path927"
       inkscape:connector-curvature="0"
       sodipodi:nodetypes="ssssssss" />
    <path
       style="fill:#ffffff;stroke:none;stroke-width:0.08766355px;stroke-linecap:butt;stroke-linejoin:miter;stroke-opacity:1"
       d="m 263.27647,36.090252 c 4.17442,-3.117026 8.83653,-5.736673 13.39323,-3.241096 4.5567,2.495577 6.2838,-4.380435 12.24658,-1.666218 4.41536,2.009838 4.56911,-6.536222 10.05869,-6.041853 5.19308,0.46767 10.50269,6.021453 14.40836,4.553975 4.11964,-1.547878 12.35395,0.553279 11.93112,6.700262 -0.4228,6.146993 -4.95424,6.638993 -9.23494,7.072182 -3.76145,0.380629 -9.25483,-2.855657 -12.97442,3.628515 -3.31859,5.785115 -12.41645,4.128675 -17.48864,0.902211 -5.67405,-3.609317 -7.05242,2.852335 -11.277,4.584314 -4.49044,1.840968 -10.4617,1.542007 -12.87526,-2.370127 -3.1446,-5.097095 -7.5949,-2.795977 -7.64256,-6.890653 -0.0626,-5.378984 5.49913,-4.144235 9.45484,-7.231512 z"
       id="path935"
       inkscape:connector-curvature="0"
       sodipodi:nodetypes="csssssssssssc" />
    <path
       style="fill:#ffffff;stroke:none;stroke-width:0.1156801px;stroke-linecap:butt;stroke-linejoin:miter;stroke-opacity:1"
       d="m 225.61466,73.785789 c -0.79771,-2.843557 -9.43596,-0.137369 -13.71813,-4.318966 -6.96406,-6.800501 -15.04457,3.533167 -19.67568,1.00071 -6.95339,-3.802367 -14.96428,-1.959539 -15.5365,2.105197 -0.90451,6.425152 9.17456,12.845994 13.38051,10.566508 3.82189,-2.071356 9.83405,6.550271 15.14173,1.698318 5.57923,-5.100203 9.1158,-0.625218 12.79388,-4.295055 4.15068,-4.141364 8.86976,-2.281057 7.61419,-6.756712 z"
       id="path927-2-6"
       inkscape:connector-curvature="0"
       sodipodi:nodetypes="ssssssss" />
    <path
       style="fill:#ffffff;stroke:none;stroke-width:0.17937934px;stroke-linecap:butt;stroke-linejoin:miter;stroke-opacity:1"
       d="m 169.50299,102.12404 c -2.83344,-6.497916 -15.05703,-10.893212 -28.4547,-7.899785 -13.39764,2.993427 -14.28218,-3.035614 -31.22399,-2.807226 -16.941806,0.228391 -14.290236,7.671202 -32.622436,9.485031 -10.07465,0.99681 -13.94821,9.47977 4.37475,10.42206 14.74049,0.75803 23.309946,-2.6369 28.190686,2.26852 4.88075,4.90544 22.15949,4.019 31.55512,-1.45071 5.77211,-3.36027 11.94588,2.946 19.78953,-1.72512 15.81302,2.76505 12.75261,-7.46007 8.39104,-8.29277 z"
       id="path929-0"
       inkscape:connector-curvature="0"
       sodipodi:nodetypes="ccssscscc" />
    <path
       style="fill:#ffffff;stroke:none;stroke-width:0.0998328px;stroke-linecap:butt;stroke-linejoin:miter;stroke-opacity:1"
       d="m 159.8089,42.10711 c -2.91786,0.73642 -8.11813,9.22442 -12.47879,6.04904 -4.42481,-3.22206 -7.82484,5.76996 -12.95634,1.35791 -5.13151,-4.412 -6.51673,6.83535 -14.37603,3.37932 -4.96405,-2.18289 -8.71407,-6.82872 -13.41113,-3.18449 -1.86702,1.44854 -8.265626,0.46371 -9.638706,-2.61759 -1.86414,-4.18327 6.716846,-5.66486 8.173196,-11.39847 2.30435,-9.072092 11.61625,-0.27061 17.04362,-4.14593 11.71451,-8.364388 20.97223,4.96099 25.92579,0.94591 6.72987,-5.45483 23.27998,6.6963 11.71838,9.61427 z"
       id="path937-0"
       inkscape:connector-curvature="0"
       sodipodi:nodetypes="ssssssssss" />
    <path
       style="fill:#ffffff;stroke:none;stroke-width:0.12440621px;stroke-linecap:butt;stroke-linejoin:miter;stroke-opacity:1"
       d="m 219.91497,117.12858 c 0.74714,2.89462 10.88444,0.80386 15.57228,5.28022 7.62381,7.27987 17.58325,-2.46351 22.77467,0.39144 7.79468,4.28659 17.15498,3.01326 18.0639,-1.00346 1.43671,-6.34922 -9.80628,-13.47027 -14.80085,-11.49223 -4.53853,1.79744 -10.95221,-7.23291 -17.37579,-2.76506 -6.75225,4.69646 -10.56145,-0.0201 -15.03163,3.38302 -5.04454,3.84035 -10.37857,1.65006 -9.20258,6.20607 z"
       id="path927-2-6-0"
       inkscape:connector-curvature="0"
       sodipodi:nodetypes="ssssssss" />
    <path
       style="fill:#ffffff;stroke:none;stroke-width:0.16099592px;stroke-linecap:butt;stroke-linejoin:miter;stroke-opacity:1"
       d="m 326.632,93.882658 c 9.13602,4.588134 4.68793,9.114852 10.83411,10.579592 7.52069,1.79231 6.55475,-7.263596 17.2007,-3.13937 13.04086,5.05201 24.90119,1.60948 25.57748,-6.271764 0.63703,-7.423711 -10.71633,-6.792532 -13.20996,-12.782625 -2.49363,-5.990083 -18.18232,-9.06218 -22.72022,-3.158476 -3.67275,4.778154 -6.17622,5.622903 -11.8083,4.686864 -7.21432,-1.198998 -12.97059,6.521763 -5.87381,10.085779 z"
       id="path927-0"
       inkscape:connector-curvature="0"
       sodipodi:nodetypes="ssssssss" />
    <path
       style="fill:#ffffff;stroke:none;stroke-width:0.15852138px;stroke-linecap:butt;stroke-linejoin:miter;stroke-opacity:1"
       d="m 417.09514,84.269338 c 2.97194,6.187632 12.97416,9.41313 23.0056,5.193283 10.03142,-4.219854 11.43629,1.68379 24.54556,-0.120838 13.10928,-1.804628 10.16568,-8.947371 24.16397,-12.455617 7.69292,-1.927997 9.68479,-10.711177 -4.63503,-9.940248 -11.52004,0.620229 -17.75985,4.789044 -22.12932,0.37319 -4.36949,-4.415865 -17.66153,-1.926498 -24.29452,4.379234 -4.07492,3.873876 -9.61404,-1.812407 -15.13889,3.555896 -12.591,-1.272568 -8.9986,8.59454 -5.51737,9.0151 z"
       id="path929-06"
       inkscape:connector-curvature="0"
       sodipodi:nodetypes="ccssscscc" />
    <path
       style="fill:#ffffff;stroke:none;stroke-width:0.1156801px;stroke-linecap:butt;stroke-linejoin:miter;stroke-opacity:1"
       d="m 442.90996,39.728783 c -0.79771,-2.84356 -9.43596,-0.13737 -13.71813,-4.31897 -6.96406,-6.8005 -15.04457,3.53317 -19.67568,1.00071 -6.95339,-3.80237 -14.96428,-1.95954 -15.5365,2.1052 -0.90451,6.42515 9.17456,12.84599 13.38051,10.56651 3.82189,-2.07136 9.83405,6.55027 15.14173,1.69831 5.57923,-5.1002 9.1158,-0.62521 12.79388,-4.29505 4.15068,-4.14137 8.86976,-2.28106 7.61419,-6.75671 z"
       id="path927-2-6-2"
       inkscape:connector-curvature="0"
       sodipodi:nodetypes="ssssssss" />
  </g>
</svg>
