<?xml version="1.0"?>
<svg xmlns="http://www.w3.org/2000/svg" xmlns:xlink="http://www.w3.org/1999/xlink" version="1.1" id="Capa_1" x="0px" y="0px" viewBox="0 0 512.001 512.001" style="enable-background:new 0 0 512.001 512.001;" xml:space="preserve" width="512px" height="512px" class=""><g><g>
	<path style="fill:#FFFFFF" d="M300.907,383.72l-15.009-0.1c-20.413,0-39.024,7.805-52.843,21.914   c-14.399,14.109-22.204,32.72-22.204,53.133c0,8.405,6.594,15.009,15.009,15.009h75.047l18.952-14.229v-57.376L300.907,383.72z" data-original="#FD4E26" class="" data-old_color="#ffffff"/>
	<path style="fill:#FFFFFF" d="M477.217,317.279c-6.004,2.101-11.407,6.304-16.22,13.508c-3.602,6.904-9.906,10.206-20.413,5.403   c-6.304-2.702-17.111-7.205-30.319,0.3c-6.594,4.203-12.908,1.201-14.709,0c-11.747-8.045-32.28-6.624-34.522,9.006   c-0.29,4.503-1.801,8.705-3.602,12.608l0.78,29.959l43.697,39.695l32.08,6.894c33.181-24.585,52.183-52.403,63.039-99.962   C499.611,323.042,488.604,313.256,477.217,317.279z" data-original="#FD4E26" class="" data-old_color="#ffffff"/>
</g><path style="fill:#FFFFFF" d="M433.985,434.652c-5.104,3.602-10.207,7.205-15.611,10.205c-0.3,0.3-0.902,0.601-1.2,0.601  c-29.721,18.612-65.542,28.218-101.264,28.218h-15.009V383.72h15.009c15.017,0,27.692-6.832,36.064-16.983  c1.687-2.046,3.682-4.819,5.461-8.632L433.985,434.652z" data-original="#FD3018" class="active-path" data-old_color="#ffffff"/><path style="fill:#FEA832;" d="M378.811,361.458c-32.718,7.971-61.544-10.319-70.038-37.582c-8.251-6.913-10.98-7.346-17.985-15.347  c-9.485,1.6-19.455-1.614-26.575-4.72c-1.319-0.586-3.122-1.363-3.752-1.48c-12.972,8.281-29.873,6.025-41.671,2.33  c-3.049-0.953-8.604-2.727-10.113-2.257c-14.35,8.237-39.609,8.162-53.915-0.325c-20.14,11.008-43.665,6.098-57.414-11.916  c-0.301-0.131-4.722,0.381-4.515,0.381c-21.532,0-38.637-12.943-44.442-32.159c-19.415-6.038-33.547-24.291-30.488-48.648  C4.272,199.489-2.324,182.706,0.739,166.04c3.078-16.651,15.23-29.99,31.705-34.783c4.207-15.889,16.519-28.202,32.276-32.247  c4.163-16.886,18.102-29.785,35.251-32.936c11.35-24.948,40.727-35.318,64.391-21.268c13.089-7.593,28.85-8.352,42.291-2.064  c4.764,0.322,8.648,1.173,11.667,1.832c5.262,1.114,5.394,1.1,7.344-0.015c15.347-9.191,34.284-8.193,49.074,2.815  c18.557-7.388,39.444-1.935,51.991,13.779c9.396-1.451,19.645-0.059,27.223,3.767c5.644,2.374,11.286,6.874,15.977,12.957  c18.396-3.166,35.339,4.647,45.306,20.784c24.361,1.012,43.357,20.784,43.357,45.101c-0.088,1.905,0.425,4.061,0.924,4.837  c10.979,7.432,18.292,21.224,18.292,35.691c-0.176,2.463,0.19,4.251,0.586,4.881c10.935,7.739,17.882,20.741,18.322,34.871  c18.292,16.46,20.404,43.02,5.042,61.885l0.029,0.059l0.161-0.132c5.775,14.321,10.803,30.781,4.266,44.34  c-2.228,4.632-6.698,10.612-15.449,14.145l-3.811,2.008c-10.547,18.187-32.772,28.534-58.382,17.501  c-1.334-0.586-3.151-1.363-3.781-1.48C411.558,370.799,393.996,371.102,378.811,361.458z" data-original="#FEA832" class=""/><g>
	<path style="fill:#FE9923" d="M134.798,173.589c-8.296,0-15.009-6.713-15.009-15.009s6.713-15.009,15.009-15.009   c8.281,0,15.009-6.728,15.009-15.009c0-8.296,6.713-15.009,15.009-15.009s15.009,6.713,15.009,15.009   C179.826,153.39,159.628,173.589,134.798,173.589z" data-original="#FE9923" class=""/>
	<path style="fill:#FE9923" d="M285.893,173.489c-8.296,0-15.009-6.713-15.009-15.009s6.713-15.009,15.009-15.009   c8.281,0,15.009-6.728,15.009-15.009c0-8.296,6.713-15.009,15.009-15.009s15.009,6.713,15.009,15.009   C330.921,153.29,310.722,173.489,285.893,173.489z" data-original="#FE9923" class=""/>
	<path style="fill:#FE9923" d="M194.836,233.626c-8.296,0-15.009-6.713-15.009-15.009s6.713-15.009,15.009-15.009   c8.281,0,16.01-6.828,16.01-15.109c0-8.296,6.713-15.009,15.009-15.009s15.009,6.713,15.009,15.009   C240.864,213.328,219.665,233.626,194.836,233.626z" data-original="#FE9923" class=""/>
	<path style="fill:#FE9923" d="M315.911,263.545c-8.296,0-15.009-6.713-15.009-15.009c0-8.296,6.713-15.009,15.009-15.009   c8.281,0,15.009-6.728,15.009-15.009c0-8.296,7.714-15.009,16.01-15.009c8.296,0,15.009,6.713,15.009,15.009   C361.94,243.346,340.741,263.545,315.911,263.545z" data-original="#FE9923" class=""/>
	<path style="fill:#FE9923" d="M406.968,293.564c-8.296,0-15.009-6.713-15.009-15.009c0-8.296,6.713-15.009,15.009-15.009   c8.281,0,15.009-6.728,15.009-15.009c0-8.296,6.713-15.009,15.009-15.009s15.009,6.713,15.009,15.009   C451.996,273.365,431.798,293.564,406.968,293.564z" data-original="#FE9923" class=""/>
</g></g> </svg>
