<?xml version="1.0" encoding="iso-8859-1"?>
<!-- Generator: Adobe Illustrator 19.0.0, SVG Export Plug-In . SVG Version: 6.00 Build 0)  -->
<svg xmlns="http://www.w3.org/2000/svg" xmlns:xlink="http://www.w3.org/1999/xlink" version="1.1" id="Layer_1" x="0px" y="0px" viewBox="0 0 512 512" style="enable-background:new 0 0 512 512;" xml:space="preserve" width="512" height="512">
<g id="XMLID_110_">
	<g id="XMLID_286_">
		<path id="XMLID_130_" style="fill:#76C2E0;" d="M481.051,125.447v60.371H271.488v-68.505h201.429    C477.409,117.314,481.051,120.955,481.051,125.447z"/>
		<polygon id="XMLID_120_" style="fill:#2796AF;" points="313.836,117.314 308.483,185.819 271.488,185.819 271.488,117.314   "/>
		<g id="XMLID_267_">
			<path id="XMLID_273_" style="fill:#CAEDFF;" d="M496.488,420.269H247.897V232.298l23.026-60.974h210.433l23.017,60.974     l0.248,179.827C504.628,416.621,500.985,420.269,496.488,420.269z"/>
			<path id="XMLID_122_" style="fill:#76C2E0;" d="M365.632,367.909c1.936,4.603,3.575,9.392,4.835,14.347     c2.047,8.04,3.094,16.385,3.094,24.805c0,4.418-0.296,8.836-0.88,13.208H247.897V309.815c8.151-2.13,16.598-3.223,25.184-3.223     c18.136,0,35.336,4.844,50.221,13.431c8.734-3.761,20.655-10.272,27.519-18.997c3.751-4.779,9.373-7.521,15.413-7.521     c10.254,0,18.71,7.679,19.664,17.858c1.186,12.69-0.417,24.397-4.761,34.79C377.617,354.562,372.421,361.833,365.632,367.909z"/>
			<polygon id="XMLID_121_" style="fill:#76C2E0;" points="309.613,171.323 305.62,222.378 290.152,420.269 247.897,420.269      247.897,232.298 270.923,171.323    "/>
		</g>
		<path id="XMLID_300_" style="fill:#76C2E0;" d="M504.375,239.919H247.902c-4.212,0-7.625-3.414-7.625-7.625    c0-4.211,3.413-7.625,7.625-7.625h256.473c4.212,0,7.625,3.414,7.625,7.625C512,236.505,508.587,239.919,504.375,239.919z"/>
		<path id="XMLID_220_" style="fill:#CAEDFF;" d="M486.304,147.258H266.23c-4.212,0-7.625-3.414-7.625-7.625    c0-4.211,3.413-7.625,7.625-7.625h220.074c4.212,0,7.625,3.414,7.625,7.625C493.929,143.844,490.516,147.258,486.304,147.258z"/>
	</g>
	<g id="XMLID_214_">
		<g id="XMLID_221_">
			<path id="XMLID_282_" style="fill:#CAEDFF;" d="M292.594,18.354c4.742,0,8.478,4.039,8.109,8.767l-3.669,46.984l-11.55,147.68     l-6.641,84.973l-11.263,144.04H40.67c-4.246,0-7.778-3.266-8.109-7.5L5.916,102.466L0.025,27.122     c-0.37-4.727,3.367-8.767,8.109-8.767H292.594z"/>
			<path id="XMLID_123_" style="fill:#76C2E0;" d="M278.843,306.758l-11.263,144.04h-84.946     c-6.428-13.227-10.031-28.065-10.031-43.737c0-4.14,0.259-8.299,0.769-12.375c1.269-10.337,4.131-20.312,8.429-29.64     c-5.344-5.465-9.531-11.773-12.514-18.895c-4.344-10.402-5.947-22.1-4.752-34.79c0.954-10.179,9.401-17.858,19.655-17.858     c6.048,0,11.661,2.742,15.422,7.521c6.539,8.318,17.154,14.301,25.166,17.941c14.644-8.03,31.224-12.375,48.303-12.375     C275.017,306.591,276.935,306.647,278.843,306.758z"/>
			<path id="XMLID_272_" style="fill:#F9E8D4;" d="M257.082,106.996c5.396-1.365,10.552,2.938,10.137,8.488l-4.715,63.137     l-5.678,75.887l-4.048,54.148l-8.336,111.659H64.278c-4.257,0-7.794-3.282-8.111-7.527L35.396,134.773     c-0.286-3.825,2.14-7.314,5.815-8.41c23.126-6.895,58.171-12.692,90.507,0.538c41.403,16.922,76.535-6.298,119.754-18.404     C253.324,107.976,255.194,107.474,257.082,106.996z"/>
			<path id="XMLID_131_" style="fill:#EFCDB1;" d="M252.778,308.657l-8.336,111.659h-70.969c-0.574-4.344-0.871-8.762-0.871-13.255     c0-4.14,0.259-8.299,0.769-12.375c1.269-10.337,4.131-20.312,8.429-29.64c-5.344-5.465-9.531-11.773-12.514-18.895     c-4.344-10.402-5.947-22.1-4.752-34.79c0.954-10.179,9.401-17.858,19.655-17.858c6.048,0,11.661,2.742,15.422,7.521     c6.539,8.318,17.154,14.301,25.166,17.941C233.522,314.168,242.96,310.695,252.778,308.657z"/>
			<path id="XMLID_261_" style="fill:#EFCDB1;" d="M257.15,106.979c5.368-1.356,10.481,2.982,10.069,8.503l-4.715,63.139     l-5.678,75.887l-12.384,165.807H227.77l12.384-165.807l5.678-75.887l5.224-70.005c0.001-0.001,0.002-0.002,0.003-0.004     C253.068,108.044,255.099,107.497,257.15,106.979z"/>
		</g>
		<path id="XMLID_219_" style="fill:#EFCDB1;" d="M228.012,167.541c-4.212,0-7.625-3.414-7.625-7.625v-1.555    c0-4.211,3.413-7.625,7.625-7.625c4.212,0,7.625,3.414,7.625,7.625v1.555C235.637,164.127,232.223,167.541,228.012,167.541z"/>
		<path id="XMLID_218_" style="fill:#EFCDB1;" d="M197.793,195.975c-4.212,0-7.625-3.414-7.625-7.625v-1.556    c0-4.211,3.413-7.625,7.625-7.625s7.625,3.414,7.625,7.625v1.556C205.418,192.561,202.005,195.975,197.793,195.975z"/>
		<path id="XMLID_217_" style="fill:#EFCDB1;" d="M228.012,265.955c-4.212,0-7.625-3.414-7.625-7.625v-1.556    c0-4.211,3.413-7.625,7.625-7.625c4.212,0,7.625,3.414,7.625,7.625v1.556C235.637,262.541,232.223,265.955,228.012,265.955z"/>
		<path id="XMLID_216_" style="fill:#EFCDB1;" d="M116.772,241.06c-4.212,0-7.625-3.414-7.625-7.625v-1.556    c0-4.211,3.413-7.625,7.625-7.625c4.212,0,7.625,3.414,7.625,7.625v1.556C124.397,237.646,120.984,241.06,116.772,241.06z"/>
		<path id="XMLID_215_" style="fill:#EFCDB1;" d="M78.079,184.594c-4.212,0-7.625-3.414-7.625-7.625v-1.556    c0-4.211,3.413-7.625,7.625-7.625s7.625,3.414,7.625,7.625v1.556C85.704,181.18,82.291,184.594,78.079,184.594z"/>
		<path id="XMLID_287_" style="fill:#EFCDB1;" d="M128.196,166.763c-4.212,0-7.625-3.414-7.625-7.625v-1.555    c0-4.211,3.413-7.625,7.625-7.625c4.212,0,7.625,3.414,7.625,7.625v1.555C135.821,163.35,132.407,166.763,128.196,166.763z"/>
	</g>
	<g id="XMLID_262_">
		<path id="XMLID_288_" style="fill:#F9E8D4;" d="M359.666,407.063c0,14.228-3.436,27.649-9.502,39.495    c-14.364,27.96-43.49,47.087-77.081,47.087c-47.819,0-86.583-38.764-86.583-86.583c0-3.61,0.223-7.17,0.657-10.655    c2.146-17.515,9.514-33.405,20.517-46.082c15.878-18.284,39.297-29.845,65.408-29.845c40.438,0,74.401,27.724,83.915,65.197    C358.748,392.525,359.666,399.683,359.666,407.063z"/>
		<path id="XMLID_280_" style="fill:#FEC007;" d="M273.084,479.674c-18.126,0-32.872-14.745-32.872-32.871    s14.746-32.871,32.872-32.871c18.125,0,32.871,14.746,32.871,32.871S291.208,479.674,273.084,479.674z M273.084,429.183    c-9.716,0-17.621,7.905-17.621,17.621c0,9.716,7.905,17.62,17.621,17.62c9.716,0,17.62-7.905,17.62-17.62    C290.704,437.088,282.8,429.183,273.084,429.183z"/>
		<path id="XMLID_284_" style="fill:#C19476;" d="M222.647,373.361c0,13.93-11.301,25.23-25.231,25.23    c-3.659,0-7.12-0.781-10.258-2.183c2.146-17.515,9.514-33.405,20.517-46.082C216.494,354.246,222.647,363.077,222.647,373.361z"/>
		<path id="XMLID_281_" style="fill:#C19476;" d="M359.666,407.063c0,14.228-3.436,27.649-9.502,39.495    c-11.09-5.111-18.78-16.312-18.78-29.312c0-15.543,10.99-28.505,25.615-31.569C358.748,392.525,359.666,399.683,359.666,407.063z"/>
		<path id="XMLID_278_" style="fill:#A24223;" d="M246.207,397.174c-4.212,0-7.625-3.414-7.625-7.625v-13.645    c0-4.211,3.413-7.625,7.625-7.625s7.625,3.414,7.625,7.625v13.645C253.832,393.76,250.419,397.174,246.207,397.174z"/>
		<path id="XMLID_276_" style="fill:#A24223;" d="M299.132,397.174c-4.212,0-7.625-3.414-7.625-7.625v-13.645    c0-4.211,3.413-7.625,7.625-7.625s7.625,3.414,7.625,7.625v13.645C306.757,393.76,303.344,397.174,299.132,397.174z"/>
		<ellipse id="XMLID_277_" style="fill:#FF8859;" cx="273.083" cy="426.543" rx="31.838" ry="20.26"/>
		<g id="XMLID_263_">
			<g id="XMLID_269_">
				<path id="XMLID_271_" style="fill:#D8AD8F;" d="M318.737,336.514c0,0,28.392-8.32,43.004-26.906      c3.225-4.102,9.832-2.146,10.32,3.049c1.524,16.238-1.585,40.758-29.755,54.054      C342.306,366.712,317.252,368.047,318.737,336.514z"/>
			</g>
			<g id="XMLID_264_">
				<path id="XMLID_266_" style="fill:#D8AD8F;" d="M231.69,336.514c0,0-28.392-8.32-43.004-26.906      c-3.225-4.102-9.832-2.146-10.32,3.049c-1.524,16.238,1.585,40.758,29.755,54.054      C208.122,366.712,233.176,368.047,231.69,336.514z"/>
			</g>
		</g>
	</g>
</g>















</svg>
