<svg height="511pt" viewBox="0 0 511 511.99779" width="511pt" xmlns="http://www.w3.org/2000/svg"><path d="m512.097656 242.414062c-.792968-13.769531-11.617187-24.867187-25.34375-26.171874-1.925781-.1875-3.847656-.371094-5.746094-.550782-10.003906-.960937-11.953124-14.695312-2.632812-18.429687 14.3125-5.722657 21.382812-22.140625 15.652344-36.449219-10.867188-27.144531-26.226563-52.003906-45.207032-73.621094-6.726562-7.671875-18.5-8.21875-26.15625-1.464844-6.433593 5.683594-15.738281-2.429687-10.960937-9.578124l.75-1.121094c5.464844-8.210938 3.582031-19.335938-4.363281-25.1875-22.984375-16.957032-48.886719-30.191406-76.851563-38.71875-5.359375-1.632813-11.140625.867187-13.84375 5.773437l-25.589843 62.554688-3.046876-65.511719c.59375-6.679688-4.421874-12.453125-11.101562-13.019531-6.984375-.601563-14.039062-.917969-21.160156-.917969-16.457032 0-32.53125 1.589844-48.101563 4.582031-5.5 1.050781-9.066406 6.453125-8.105469 11.96875l3.242188 18.757813-12.394531-18.949219c-2.535157-3.878906-7.371094-5.703125-11.796875-4.308594-22.128906 6.980469-42.996094 16.796875-62.082032 29.164063-4.644531 3.011718-6.949218 8.589844-6.039062 14.054687l4.035156 24.179688-20.320312-10.160157c-5.246094-2.625-11.664063-1.800781-15.890625 2.257813-11.476563 11.042969-21.882813 23.164063-31.136719 36.175781-4.667969 6.566406-4.613281 15.394532.328125 21.761719l22.882813 29.414063-41.738282 3.511718c-3.75.316406-7.152344 1.816406-9.921875 4.121094l12.597657 16.792969c10.160156 13.546875 3.230468 33.074219-13.207032 37.1875-9.992187 2.5-17.347656 11.152343-17.929687 21.425781-.449219 7.890625-.546875 15.890625-.246094 23.96875.804687 21.15625 4.273437 41.699219 10.035156 61.316406 2.445313 8.332032 10.523438 13.714844 19.148438 12.773438l41.261719-4.546875-26.085938 46.539062c-3.265625 5.824219-3.125 13.0625.660156 18.5625 12.175782 17.65625 26.492188 33.75 42.574219 47.863281 6.585937 5.78125 16.710937 4.785157 22.042969-2.171874l22.601562-13.691407-4.839844 28.875c-3.222656 7.265625-.21875 15.714844 6.753907 19.527344 20.488281 11.195313 42.636719 19.652344 65.96875 24.875 5.976562 1.34375 12.136719-1.4375 15.359375-6.65625l5.03125-13.65625 10.410156 9.421875c.40625 9.242188 7.882812 16.675781 17.125 16.949219 5.144531.148437 10.265625.148437 15.339844 0 9.402344-.273438 17.257812-7.265625 18.609375-16.570313l9.136719-18.625 11.160156 10.636719c2.230468 10.972656 13.363281 17.882813 24.125 14.792969 20.242187-5.808594 39.449218-14.050782 57.300781-24.390625 8.464844-4.898438 12.453125-14.988281 9.578125-24.335938l-.992188-7.558593c-1.824218-13.902344 11.945313-24.664063 24.992188-19.542969l10.144531 3.980469c6.347657 2.488281 15.464844.558593 19.992188-4.554688 11.910156-13.453125 22.421875-28.167969 31.320312-43.925781 5.660157-10.011719 1.273438-22.492188-8.996093-27.664063-9.285157-4.664062-5.972657-18.679687 4.433593-18.679687h9.746094c9.304687 0 17.433594-6.304688 19.765625-15.308594 5.296875-20.496094 8.109375-41.992187 8.109375-64.140625.011719-4.5625-.128906-9.09375-.386719-13.585938zm0 0" fill="#efce4a"/><path d="m321.394531 309.210938 14.546875 17.410156-21.527344-12.007813c-2.171874-.546875-4.425781.0625-6.117187 1.527344-13.914063 12.007813-31.992187 19.308594-51.800781 19.308594-11.960938 0-23.28125-2.703125-33.449219-7.453125-1.492187-.695313-3.203125-.703125-4.679687.027344l-15.808594 7.902343c-4.863282 2.425781-9.886719-2.992187-7.089844-7.65625l5.746094-9.574219c1.300781-2.164062.875-4.867187-.90625-6.648437-14.347656-14.363281-23.269532-34.144531-23.269532-56.054687 0-2.84375.175782-5.652344.484376-8.414063.421874-3.785156-1.15625-7.511719-4.113282-9.914063l-3.355468-2.726562c-8.660157-7.054688-3.035157-21.0625 8.09375-20.171875l3.277343.265625c4.15625.335938 8.015625-1.738281 10.441407-5.128906 14.40625-20.171875 37.949218-33.351563 64.628906-33.351563 21.953125 0 41.769531 8.960938 56.140625 23.359375 1.945312 1.941406 4.511719 3.125 7.257812 3.125h4.503907c8.394531 0 13.179687 9.578125 8.144531 16.296875-2.125 2.832031-2.496094 6.511719-1.296875 9.839844 3.019531 8.378906 4.695312 17.398437 4.695312 26.828125 0 16.914062-5.320312 32.566406-14.34375 45.445312-1.640625 2.339844-1.792968 5.394532-.203125 7.765626zm0 0" fill="#fff"/></svg>