<?xml version="1.0" encoding="iso-8859-1"?>
<!-- Generator: Adobe Illustrator 19.0.0, SVG Export Plug-In . SVG Version: 6.00 Build 0)  -->
<svg version="1.1" id="Capa_1" xmlns="http://www.w3.org/2000/svg" xmlns:xlink="http://www.w3.org/1999/xlink" x="0px" y="0px"
	 viewBox="0 0 511.999 511.999" style="enable-background:new 0 0 511.999 511.999;" xml:space="preserve">
<linearGradient id="SVGID_1_" gradientUnits="userSpaceOnUse" x1="76.0061" y1="257.992" x2="436.0061" y2="257.992" gradientTransform="matrix(1 0 0 -1 -0.0011 513.986)">
	<stop  offset="0" style="stop-color:#00F2FE"/>
	<stop  offset="0.021" style="stop-color:#03EFFE"/>
	<stop  offset="0.293" style="stop-color:#24D2FE"/>
	<stop  offset="0.554" style="stop-color:#3CBDFE"/>
	<stop  offset="0.796" style="stop-color:#4AB0FE"/>
	<stop  offset="1" style="stop-color:#4FACFE"/>
</linearGradient>
<path style="fill:url(#SVGID_1_);" d="M420.669,265.994c9.522-10.624,15.327-24.644,15.327-39.999
	c0-17.925-7.855-34.642-21.602-46.091l-33.824-34.839c-7.695-7.925-20.356-8.113-28.28-0.418c-7.925,7.694-8.112,20.356-0.418,28.28
	l34.634,35.673c0.598,0.616,1.235,1.192,1.907,1.727c4.82,3.83,7.584,9.541,7.584,15.668c0,11.028-8.972,20-20,20
	c-11.046,0-20,8.954-20,20c0,11.046,8.954,20,20,20c11.028,0,20,8.972,20,20s-8.972,20-20,20c-11.046,0-20,8.954-20,20
	c0,11.046,8.954,20,20,20c11.028,0,20,8.972,20,19.992l-0.019,46.89c-0.009,21.919-17.563,39.101-39.953,39.116
	c0,0-139.192,0.023-200.022,0c-22.411-0.009-39.972-17.198-39.981-39.133l-0.019-46.865c0-11.028,8.972-20,20-20h139.997
	c11.046,0,20-8.954,20-20c0-11.046-8.954-20-20-20H136.002c-11.028,0-20-8.972-20-20s8.972-20,20-20h139.997
	c11.046,0,20-8.954,20-20c0-11.046-8.954-20-20-20H136.002c-11.028,0-20-8.972-20-20c0-4.015,1.166-7.842,3.382-11.133l92.13-94.865
	h94.484c11.046,0,20-8.954,20-20V39.999C325.998,17.944,308.054,0,285.999,0H226c-22.056,0-39.999,17.944-39.999,39.999v48.856
	l-96.343,99.204c-0.587,0.604-1.136,1.246-1.643,1.921c-7.858,10.458-12.012,22.913-12.012,36.015
	c0,15.355,5.805,29.375,15.327,39.999c-9.522,10.624-15.327,24.644-15.327,39.999c0,15.356,5.805,29.376,15.327,39.999
	c-9.522,10.625-15.327,24.647-15.327,40.006l0.019,46.873c0.009,21.38,8.38,41.355,23.57,56.25
	c15.031,14.738,35.059,22.859,56.395,22.867c20.282,0.008,49.262,0.011,78.902,0.011c59.27,0,121.145-0.011,121.152-0.011
	c21.331-0.015,41.351-8.136,56.374-22.866c15.185-14.889,23.553-34.859,23.562-56.234l0.018-46.897
	c0-15.355-5.805-29.375-15.327-39.999c9.522-10.624,15.327-24.644,15.327-39.999S430.192,276.618,420.669,265.994z M226,39.999
	h59.999v39.999H226V39.999z"/>
<g>
</g>
<g>
</g>
<g>
</g>
<g>
</g>
<g>
</g>
<g>
</g>
<g>
</g>
<g>
</g>
<g>
</g>
<g>
</g>
<g>
</g>
<g>
</g>
<g>
</g>
<g>
</g>
<g>
</g>
</svg>
