<?xml version="1.0" encoding="iso-8859-1"?>
<!-- Generator: Adobe Illustrator 19.0.0, SVG Export Plug-In . SVG Version: 6.00 Build 0)  -->
<svg version="1.1" id="Capa_1" xmlns="http://www.w3.org/2000/svg" xmlns:xlink="http://www.w3.org/1999/xlink" x="0px" y="0px"
	 viewBox="0 0 512 512" style="enable-background:new 0 0 512 512;" xml:space="preserve">
<path style="fill: rgb(0, 0, 128);" d="M225.003,451c-3.516,0-6.992-1.234-9.765-3.611l-210-180C1.913,264.539,0,260.379,0,256
	c0-4.379,1.913-8.539,5.238-11.389l210-180c4.447-3.813,10.709-4.687,16.029-2.239C236.59,64.821,240,70.142,240,76v75h257
	c8.284,0,15,6.716,15,15v180c0,8.284-6.716,15-15,15H240v75c0,5.858-3.41,11.18-8.732,13.628
	C229.264,450.55,227.126,451,225.003,451z M38.049,256L210,403.387V346c0-8.284,6.716-15,15-15h257V181H225c-8.284,0-15-6.716-15-15
	v-57.387L38.049,256z"/>
</svg>
