<?xml version="1.0" encoding="UTF-8" standalone="no"?>
<!-- Generator: Adobe Illustrator 19.0.0, SVG Export Plug-In . SVG Version: 6.00 Build 0)  -->

<svg
   xmlns:dc="http://purl.org/dc/elements/1.1/"
   xmlns:cc="http://creativecommons.org/ns#"
   xmlns:rdf="http://www.w3.org/1999/02/22-rdf-syntax-ns#"
   xmlns:svg="http://www.w3.org/2000/svg"
   xmlns="http://www.w3.org/2000/svg"
   xmlns:sodipodi="http://sodipodi.sourceforge.net/DTD/sodipodi-0.dtd"
   xmlns:inkscape="http://www.inkscape.org/namespaces/inkscape"
   version="1.1"
   id="Capa_1"
   x="0px"
   y="0px"
   viewBox="0 0 512 512"
   style="enable-background:new 0 0 512 512;"
   xml:space="preserve"
   sodipodi:docname="previous_whitefill.svg"
   inkscape:version="0.92.3 (2405546, 2018-03-11)"><metadata
   id="metadata1570"><rdf:RDF><cc:Work
       rdf:about=""><dc:format>image/svg+xml</dc:format><dc:type
         rdf:resource="http://purl.org/dc/dcmitype/StillImage" /><dc:title></dc:title></cc:Work></rdf:RDF></metadata><defs
   id="defs1568" /><sodipodi:namedview
   pagecolor="#ffffff"
   bordercolor="#666666"
   borderopacity="1"
   objecttolerance="10"
   gridtolerance="10"
   guidetolerance="10"
   inkscape:pageopacity="0"
   inkscape:pageshadow="2"
   inkscape:window-width="1853"
   inkscape:window-height="1025"
   id="namedview1566"
   showgrid="false"
   inkscape:snap-global="false"
   inkscape:zoom="0.4609375"
   inkscape:cx="256"
   inkscape:cy="256"
   inkscape:window-x="67"
   inkscape:window-y="27"
   inkscape:window-maximized="1"
   inkscape:current-layer="Capa_1" />
<path
   style="fill:#5cbced;stroke:#000000;stroke-width:1px;stroke-linecap:butt;stroke-linejoin:miter;stroke-opacity:1;fill-opacity:1"
   d="M 13.016949,256 223.45763,88.949153 l 2.16949,73.762707 269.01695,4.33899 v 182.23729 l -269.01695,-4.33899 2.16949,93.28814 z"
   id="path2115"
   inkscape:connector-curvature="0" /><path
   style="fill:#ffffff;stroke-width:0.99787909"
   d="m 226.21909,451 c -3.5011,0 -6.96237,-1.234 -9.72362,-3.611 l -209.1101734,-180 c -3.310911,-2.85 -5.2158051,-7.01 -5.2158051,-11.389 0,-4.379 1.9048941,-8.539 5.2158051,-11.389 l 209.1101734,-180 c 4.42815,-3.813 10.66362,-4.687 15.96108,-2.239 5.30044,2.449 8.69599,7.77 8.69599,13.628 v 75 H 497.06356 C 505.31246,151 512,157.716 512,166 v 180 c 0,8.284 -6.68754,15 -14.93644,15 H 241.15254 v 75 c 0,5.858 -3.39555,11.18 -8.695,13.628 -1.99551,0.922 -4.12445,1.372 -6.23845,1.372 z M 40.057267,256 211.27966,403.387 V 346 c 0,-8.284 6.68754,-15 14.93644,-15 H 482.12712 V 181 H 226.2161 c -8.2489,0 -14.93644,-6.716 -14.93644,-15 v -57.387 z"
   id="path1563"
   inkscape:connector-curvature="0" />
</svg>