<!--?xml version="1.0" encoding="utf-8"?-->
<!-- Generator: Adobe Illustrator 18.0.0, SVG Export Plug-In . SVG Version: 6.00 Build 0)  -->

<svg version="1.1" id="_x31_0" xmlns="http://www.w3.org/2000/svg" xmlns:xlink="http://www.w3.org/1999/xlink" x="0px" y="0px" viewBox="0 0 512 512" style="width: 48px; height: 48px; opacity: 1;" xml:space="preserve">
<style type="text/css">
	.st0{fill:#374149;}
</style>
<g>
	<path class="st0" d="M350.858,160.297c0,0-33.416-33.417-65.239-65.239c-73.197,73.193-155.145,116.954-218.001,141.616
		c-4.715,90.742-29.475,177.982-45.816,226.935c-5.754-0.824-11.814,0.958-16.24,5.387c-7.172,7.173-7.383,18.584-0.781,26.096
		c0.234,0.274,0.414,0.578,0.664,0.84l0.016-0.008c0.034,0.039,0.062,0.086,0.101,0.121l27.05-27.049
		c-0.039-0.039-0.078-0.07-0.118-0.109l0.004-0.004l-0.641-0.578l128.803-134.674c-8.532-15.786-6.13-35.886,7.207-49.218
		c16.263-16.263,42.613-16.263,58.876,0c16.262,16.262,16.259,42.613,0,58.875c-3.298,3.298-7.016,5.918-10.974,7.88
		c-0.058,0.027-0.118,0.062-0.176,0.094c-1.879,0.918-3.821,1.668-5.79,2.285c-0.234,0.074-0.465,0.145-0.703,0.211
		c-1.973,0.582-3.977,1.039-6.004,1.325c-0.062,0.007-0.125,0.011-0.184,0.019c-8.622,1.164-17.536-0.363-25.389-4.606L97.3,427.224
		l-73.767,70.342l0.262-0.043l-0.203,0.195c0.266-0.098,0.559-0.202,0.844-0.308l0.543-0.094l-8.922,8.922l-0.039,0.039l0,0
		l-0.114,0.113c7.47,7.47,19.584,7.47,27.053,0c4.688-4.688,6.43-11.2,5.235-17.251c49.066-16.341,135.94-40.906,226.29-45.601
		c24.662-62.857,68.419-144.805,141.617-218.002C384.275,193.714,350.858,160.297,350.858,160.297z" style="fill: rgb(74, 180, 241);"></path>
	<polygon class="st0" points="361.363,0.008 298.242,63.126 448.878,213.762 512,150.645 	" style="fill: rgb(74, 180, 241);"></polygon>
</g>
</svg>
