<?xml version="1.0" encoding="iso-8859-1"?>
<!-- Generator: Adobe Illustrator 19.0.0, SVG Export Plug-In . SVG Version: 6.00 Build 0)  -->
<svg xmlns="http://www.w3.org/2000/svg" xmlns:xlink="http://www.w3.org/1999/xlink" version="1.1" id="Layer_1" x="0px" y="0px" viewBox="0 0 512 512" style="enable-background:new 0 0 512 512;" xml:space="preserve" width="512" height="512">
<g id="XMLID_85_">
	<g id="XMLID_622_">
		<g id="XMLID_503_">
			<path id="XMLID_87_" style="fill:#D8AD8F;" d="M403.251,114.273c0,23.088-7.85,45.38-21.943,63.291v303.071     c0,4.552-3.69,8.241-8.241,8.241H30.173c-4.552,0-8.241-3.69-8.241-8.241V177.564C7.85,159.652,0,137.361,0,114.273     C0,57.843,45.919,11.924,102.348,11.924h198.554C357.332,11.924,403.251,57.843,403.251,114.273z"/>
			<path id="XMLID_558_" style="fill:#C19476;" d="M324.272,312.164c-6.512,0-11.791,5.279-11.791,11.791v51.388     c0,0.564,0.053,1.114,0.13,1.657c-4.42,1.464-7.609,5.624-7.609,10.528v101.349h68.065c4.552,0,8.241-3.69,8.241-8.241v-93.5     v-10.702v-64.268H324.272z"/>
			<path id="XMLID_578_" style="fill:#F9E8D4;" d="M366.507,114.273c0,19.461-8.478,36.935-21.932,48.939v280.679     c0,4.552-3.69,8.241-8.241,8.241H66.917c-4.552,0-8.241-3.69-8.241-8.241V163.212c-6.727-5.997-12.207-13.375-16.014-21.673     c-3.773-8.249-5.892-17.429-5.918-27.089c-0.096-36.182,30.341-65.781,66.523-65.781h197.635c18.114,0,34.52,7.344,46.39,19.214     S366.507,96.159,366.507,114.273z"/>
			<path id="XMLID_75_" style="fill:#EFCDB1;" d="M324.272,312.164c-6.512,0-11.791,5.279-11.791,11.791v51.388     c0,0.564,0.053,1.114,0.13,1.657c-4.42,1.464-7.609,5.624-7.609,10.528v64.605h31.332c4.552,0,8.241-3.69,8.241-8.241v-56.757     v-10.702v-64.268H324.272z"/>
		</g>
		<path id="XMLID_410_" style="fill:#FB4239;" d="M124.466,155.453c0,39.556,43.274,13.86,43.274,39.556    s-64.503,9.004-64.503,57.247s88.998,46.214,88.998,73.263s-46.54,10.089-46.54,42.791c0,62.814,161.666,50.697,161.666-59.835    c0-80.331-59.604-78.978-59.604-103.322s59.604-17.518,59.604-73.031C307.361,73.29,124.466,103.142,124.466,155.453z"/>
		<path id="XMLID_419_" style="fill:#E21717;" d="M275.306,338.846c-0.824,0-1.661-0.133-2.485-0.412    c-4.04-1.372-6.203-5.761-4.831-9.801c2.11-6.212,3.18-12.9,3.18-19.879c0-14.865-3.155-26.9-9.645-36.793    c-2.341-3.568-1.346-8.358,2.222-10.698c3.567-2.341,8.358-1.346,10.699,2.221c8.194,12.49,12.177,27.298,12.177,45.27    c0,8.672-1.346,17.033-4.001,24.849C281.529,336.819,278.524,338.846,275.306,338.846z"/>
		<path id="XMLID_632_" style="fill:#D8AD8F;" d="M109.157,100.747c-4.267,0-7.726-3.459-7.726-7.726V91    c0-4.268,3.459-7.726,7.726-7.726c4.267,0,7.726,3.459,7.726,7.726v2.021C116.883,97.289,113.424,100.747,109.157,100.747z"/>
		<path id="XMLID_642_" style="fill:#D8AD8F;" d="M84.662,121.602c-4.267,0-7.726-3.459-7.726-7.726v-2.02    c0-4.268,3.459-7.726,7.726-7.726s7.726,3.459,7.726,7.726v2.02C92.389,118.143,88.93,121.602,84.662,121.602z"/>
		<path id="XMLID_643_" style="fill:#D8AD8F;" d="M302.054,421.833c-4.267,0-7.726-3.459-7.726-7.726v-2.02    c0-4.268,3.459-7.726,7.726-7.726c4.267,0,7.726,3.459,7.726,7.726v2.02C309.78,418.374,306.321,421.833,302.054,421.833z"/>
		<path id="XMLID_644_" style="fill:#D8AD8F;" d="M117.73,349.553c-4.267,0-7.726-3.459-7.726-7.726v-2.021    c0-4.268,3.459-7.726,7.726-7.726c4.267,0,7.726,3.459,7.726,7.726v2.021C125.457,346.095,121.997,349.553,117.73,349.553z"/>
		<path id="XMLID_646_" style="fill:#D8AD8F;" d="M332.673,119.581c-4.267,0-7.726-3.459-7.726-7.726v-2.02    c0-4.268,3.459-7.726,7.726-7.726c4.267,0,7.726,3.459,7.726,7.726v2.02C340.399,116.123,336.94,119.581,332.673,119.581z"/>
		<path id="XMLID_657_" style="fill:#E21717;" d="M235.918,162.709c-4.267,0-7.726-3.459-7.726-7.726v-2.02    c0-4.268,3.459-7.726,7.726-7.726c4.267,0,7.726,3.459,7.726,7.726v2.02C243.644,159.251,240.185,162.709,235.918,162.709z"/>
		<path id="XMLID_658_" style="fill:#E21717;" d="M183.254,245.879c-4.267,0-7.726-3.459-7.726-7.726v-2.02    c0-4.268,3.459-7.726,7.726-7.726s7.726,3.459,7.726,7.726v2.02C190.98,242.421,187.521,245.879,183.254,245.879z"/>
		<path id="XMLID_477_" style="fill:#E21717;" d="M201.625,269.332c-4.267,0-7.726-3.459-7.726-7.726v-2.02    c0-4.268,3.459-7.726,7.726-7.726c4.267,0,7.726,3.459,7.726,7.726v2.02C209.352,265.873,205.892,269.332,201.625,269.332z"/>
	</g>
	<g id="XMLID_529_">
		<rect id="XMLID_492_" x="344.571" y="358.955" style="fill:#C4000A;" width="144.7" height="49.251"/>
		<path id="XMLID_494_" style="fill:#FB4239;" d="M503.759,500.076H330.084c-4.552,0-8.241-3.69-8.241-8.241v-90.317    c0-4.552,3.69-8.241,8.241-8.241h173.675c4.552,0,8.241,3.69,8.241,8.241v90.317C512,496.386,508.31,500.076,503.759,500.076z"/>
		<path id="XMLID_71_" style="fill:#E21717;" d="M503.759,500.076h-11.972v-106.8h11.972c4.552,0,8.241,3.69,8.241,8.241v90.317    C512,496.386,508.31,500.076,503.759,500.076z"/>
		<path id="XMLID_495_" style="fill:#F9E8D4;" d="M496.272,370.292H337.57c-4.552,0-8.241-3.69-8.241-8.241V337.25    c0-4.552,3.69-8.241,8.241-8.241h158.702c4.552,0,8.241,3.69,8.241,8.241v24.801C504.513,366.603,500.824,370.292,496.272,370.292    z"/>
		<path id="XMLID_77_" style="fill:#EFCDB1;" d="M496.272,370.292h-12.721v-41.284h12.721c4.552,0,8.241,3.69,8.241,8.241v24.801    C504.513,366.603,500.824,370.292,496.272,370.292z"/>
		<path id="XMLID_531_" style="fill:#E21717;" d="M442.75,446.412h-51.657c-4.267,0-7.726-3.459-7.726-7.726    s3.459-7.726,7.726-7.726h51.657c4.267,0,7.726,3.459,7.726,7.726S447.017,446.412,442.75,446.412z"/>
		<path id="XMLID_72_" style="fill:#E21717;" d="M483.551,471.118H350.291c-4.267,0-7.726-3.459-7.726-7.726    s3.459-7.726,7.726-7.726h133.261c4.267,0,7.726,3.459,7.726,7.726S487.818,471.118,483.551,471.118z"/>
	</g>
</g>















</svg>
