<?xml version="1.0" encoding="iso-8859-1"?>
<!-- Generator: Adobe Illustrator 19.0.0, SVG Export Plug-In . SVG Version: 6.00 Build 0)  -->
<svg version="1.1" id="Capa_1" xmlns="http://www.w3.org/2000/svg" xmlns:xlink="http://www.w3.org/1999/xlink" x="0px" y="0px"
	 viewBox="0 0 512 512" style="enable-background:new 0 0 512 512;" xml:space="preserve">
<g>
	<polygon style="fill:#543A33;" points="410.801,207.009 381.247,182.966 351.693,137.673 356.619,201.684 393.924,238.997 
		414.741,238.997 	"/>
	<path style="fill:#543A33;" d="M177.419,106.22c1.977,0,3.953-0.765,5.444-2.292c2.938-3.006,2.883-7.826-0.124-10.764
		l-30.636-29.94l-6.207-35.86c-0.716-4.143-4.654-6.918-8.798-6.202c-4.143,0.718-6.919,4.656-6.202,8.798l6.626,38.287
		c0.273,1.577,1.036,3.027,2.18,4.146l32.396,31.66C173.581,105.499,175.501,106.22,177.419,106.22z"/>
	<path style="fill:#543A33;" d="M220.071,159.387c0.495-0.047,1.001-0.145,1.477-0.286c1.392-0.414,2.696-1.267,3.636-2.378
		l28.73-33.972c2.715-3.21,2.313-8.012-0.896-10.727c-3.211-2.714-8.012-2.313-10.727,0.896l-18.47,21.839l-3.56-18.371
		c-0.8-4.127-4.798-6.829-8.921-6.024c-4.126,0.8-6.824,4.793-6.024,8.921l4.982,25.708l-54.216,4.939
		c-4.186,0.382-7.27,4.084-6.89,8.271c0.36,3.952,3.679,6.921,7.571,6.921c0.231,0,0.465-0.01,0.699-0.031
		C157.464,165.09,220.063,159.388,220.071,159.387z"/>
	<path style="fill:#543A33;" d="M119.478,292.725c-0.462-1.302-1.27-2.453-2.336-3.331l-26.339-21.672
		c-3.247-2.671-8.043-2.204-10.714,1.041c-2.671,3.247-2.204,8.043,1.041,10.714l24.709,20.332c0,0,17.987,50.648,18.012,50.716
		c1.378,3.88,5.844,6.004,9.719,4.626c3.961-1.407,6.032-5.758,4.626-9.719L119.478,292.725z"/>
	<path style="fill:#543A33;" d="M509.472,132.008c-3.129-2.807-7.94-2.547-10.748,0.583l-24.459,27.26l-38.794,16.086
		c-3.883,1.61-5.726,6.064-4.116,9.947c1.215,2.93,4.048,4.698,7.034,4.698c0.971,0,1.959-0.188,2.913-0.583l40.391-16.747
		c1.05-0.435,1.99-1.101,2.75-1.948l25.613-28.546C512.862,139.627,512.601,134.815,509.472,132.008z"/>
	<path style="fill:#543A33;" d="M438.391,153.144c1.141,0,2.3-0.258,3.39-0.802l15.762-7.858c1.263-0.63,2.327-1.599,3.072-2.799
		l21.895-35.289c0.01-0.016,0.019-0.031,0.029-0.048l13.54-21.825c2.216-3.572,1.117-8.265-2.455-10.481
		c-3.572-2.216-8.265-1.117-10.481,2.455l-6.776,10.922l-14.609-25.792V28.663c0-4.204-3.408-7.611-7.611-7.611
		c-4.204,0-7.612,3.408-7.612,7.611v34.973c0,1.314,0.34,2.607,0.988,3.751l19.698,34.776l-18.404,29.661l-13.829,6.895
		c-3.762,1.875-5.292,6.445-3.416,10.208C432.905,151.599,435.595,153.144,438.391,153.144z"/>
	<path style="fill:#543A33;" d="M234.253,219.722c-0.715-1.316-1.803-2.392-3.129-3.093l-39.102-20.688
		c-3.717-1.967-8.322-0.547-10.288,3.168c-1.966,3.715-0.547,8.322,3.168,10.288l37.071,19.613c0,0,23.519,43.273,23.532,43.297
		c1.969,3.623,6.702,5.02,10.322,3.053c3.693-2.007,5.06-6.629,3.053-10.322L234.253,219.722z"/>
	<path style="fill:#543A33;" d="M322.167,10.283c-3.969-1.392-8.311,0.692-9.705,4.658l-15.664,44.584l-18.347,18.801l-5.854-3.36
		l-13.748-24.748c-2.041-3.675-6.675-4.999-10.35-2.957c-3.675,2.042-4.999,6.676-2.957,10.35l14.777,26.599
		c0.673,1.211,1.663,2.215,2.864,2.905l29.845,17.132l7.852,12.764c1.438,2.337,3.934,3.624,6.491,3.624
		c1.36,0,2.737-0.364,3.98-1.13c3.58-2.202,4.698-6.891,2.495-10.471L304.98,94.62c-0.666-1.082-1.591-1.981-2.693-2.613
		l-10.2-5.856l16.785-17.2c0.774-0.794,1.366-1.747,1.733-2.793l16.223-46.172C328.219,16.021,326.133,11.676,322.167,10.283z"/>
</g>
<g>
	<polygon style="fill:#6D4D42;" points="142.408,207.009 188.464,133.95 180.365,28.663 165.436,122.17 125.082,165.075 
		125.082,207.009 	"/>
	<polygon style="fill:#6D4D42;" points="110.585,233.21 24.275,188.434 0,142.785 16.912,70.404 25.747,133.213 51.517,168.555 
		103.487,186.272 125.082,207.009 	"/>
	<polygon style="fill:#6D4D42;" points="246.63,385.019 165.79,386.889 51.227,309.063 163.532,350.932 199.102,340.412 
		246.63,350.932 	"/>
	<path style="fill:#6D4D42;" d="M188.464,295.271c0,0,78.507-67.975,79.492-70.93s30.539-125.734,30.539-125.734l58.122-44.695
		l-33.495,63.922l-17.733,115.374l-58.762,91.679L188.464,295.271z"/>
	<polygon style="fill:#6D4D42;" points="285.016,360.451 309.332,317.93 388.143,249.956 410.801,207.009 435.429,80.512 
		454.147,137.673 445.281,207.009 412.771,267.688 350.707,336.647 304.473,440.07 272.541,406.592 	"/>
</g>
<g>
	<circle style="fill:#D4D3D3;" cx="77.526" cy="32.445" r="14.981"/>
	<circle style="fill:#D4D3D3;" cx="36.245" cy="250.652" r="14.981"/>
	<circle style="fill:#D4D3D3;" cx="476.074" cy="273.598" r="14.981"/>
	<circle style="fill:#D4D3D3;" cx="241.081" cy="182.97" r="14.981"/>
	<circle style="fill:#D4D3D3;" cx="378.322" cy="102.339" r="14.981"/>
	<circle style="fill:#D4D3D3;" cx="408.291" cy="347.977" r="14.981"/>
	<circle style="fill:#D4D3D3;" cx="100.949" cy="401.867" r="14.981"/>
	<circle style="fill:#D4D3D3;" cx="414.745" cy="38.93" r="14.981"/>
	<circle style="fill:#D4D3D3;" cx="220.327" cy="32.445" r="14.981"/>
</g>
<polygon style="fill:#996A5F;" points="319.643,502.15 285.016,360.451 156.684,241.563 85.966,70.404 114.836,261.325 
	246.63,385.019 248.838,502.15 "/>
<g>
</g>
<g>
</g>
<g>
</g>
<g>
</g>
<g>
</g>
<g>
</g>
<g>
</g>
<g>
</g>
<g>
</g>
<g>
</g>
<g>
</g>
<g>
</g>
<g>
</g>
<g>
</g>
<g>
</g>
</svg>
